G04 ================== begin FILE IDENTIFICATION RECORD ==================*
G04 Layout Name:  E:/ORCAD_sch/Other/TEST-BSP_01v1/pcb/test-bsp_01v1.brd*
G04 Film Name:    BOTTOM*
G04 File Format:  Gerber RS274X*
G04 File Origin:  Cadence Allegro 16.6-S009*
G04 Origin Date:  Thu May 16 11:01:17 2013*
G04 *
G04 Layer:  ETCH/BOTTOM*
G04 Layer:  PIN/BOTTOM*
G04 Layer:  VIA CLASS/BOTTOM*
G04 *
G04 Offset:    (0.000 0.000)*
G04 Mirror:    No*
G04 Mode:      Positive*
G04 Rotation:  0*
G04 FullContactRelief:  No*
G04 UndefLineWidth:     0.000*
G04 ================== end FILE IDENTIFICATION RECORD ====================*
%FSLAX34Y34*MOMM*%
%IR0*IPPOS*OFA0.00000B0.00000*MIA0B0*SFA1.00000B1.00000*%
%ADD10C,1.*%
%ADD14C,3.1*%
%ADD15C,1.5*%
%ADD11C,4.2*%
%ADD13C,1.6*%
%ADD16C,1.55*%
%ADD17R,1.15X1.15*%
%ADD12R,1.55X1.55*%
%ADD18R,1.15X1.05*%
%ADD19C,.25*%
%ADD20C,.353*%
%ADD21C,4.004*%
%ADD23C,2.304*%
%ADD22C,2.404*%
G75*
%LPD*%
G75*
G36*
G01X-227640Y-82900D02*
Y1252930D01*
G02X-227390Y1254010I2499J-9D01*
G01Y1254020D01*
G02X-226690Y1254900I2257J-1077D01*
G01X-223650Y1257320D01*
G02X-222640Y1257810I1569J-1948D01*
G01X-222090Y1257930D01*
X-221530Y1257810D01*
X-221520D01*
G03Y1307590I5620J24890D01*
G01X-221530D01*
X-222090Y1307470D01*
X-222640Y1307590D01*
G02X-223650Y1308080I559J2438D01*
G01X-227150Y1310870D01*
X-227640Y1311890D01*
Y2141930D01*
G02X-227390Y2143010I2499J-9D01*
G01Y2143020D01*
G02X-226690Y2143900I2257J-1077D01*
G01X-223650Y2146320D01*
G02X-222640Y2146810I1569J-1948D01*
G01X-222090Y2146930D01*
X-221530Y2146810D01*
X-221520D01*
G03Y2196590I5620J24890D01*
G01X-221530D01*
X-222090Y2196470D01*
X-222640Y2196590D01*
G02X-223650Y2197080I559J2438D01*
G01X-227150Y2199870D01*
X-227640Y2200890D01*
Y2202530D01*
G02X-225140Y2205030I2500J0D01*
G01X34640D01*
G02X37140Y2202530I0J-2500D01*
G01Y2201460D01*
G02X36200Y2199510I-2500J4D01*
G01X33150Y2197080D01*
G02X32140Y2196590I-1569J1948D01*
G01X31590Y2196470D01*
X31030Y2196590D01*
X31020D01*
G03Y2146810I-5620J-24890D01*
G01X31030D01*
X31590Y2146930D01*
X32140Y2146810D01*
G02X33150Y2146320I-559J-2438D01*
G01X36190Y2143900D01*
G02X36890Y2143020I-1557J-1957D01*
G01Y2143010D01*
G02X37140Y2141930I-2249J-1089D01*
G01Y1312460D01*
G02X36200Y1310510I-2500J4D01*
G01X33150Y1308080D01*
G02X32140Y1307590I-1569J1948D01*
G01X31590Y1307470D01*
X31030Y1307590D01*
X31020D01*
G03Y1257810I-5620J-24890D01*
G01X31030D01*
X31590Y1257930D01*
X32140Y1257810D01*
G02X33150Y1257320I-559J-2438D01*
G01X36190Y1254900D01*
G02X36890Y1254020I-1557J-1957D01*
G01Y1254010D01*
G02X37140Y1252930I-2249J-1089D01*
G01Y1209510D01*
G02X34630Y1207010I-2500J0D01*
G01X-182960Y1208000D01*
G03X-184740Y1207260I-4J-2502D01*
G01X-199270Y1192730D01*
G03X-200000Y1190960I1770J-1766D01*
G01Y941500D01*
G03X-197500Y939000I2500J0D01*
G01X34640Y939180D01*
G02X37140Y936680I0J-2500D01*
G01Y867960D01*
G02X36200Y866010I-2500J4D01*
G01X33150Y863580D01*
G02X32140Y863090I-1569J1948D01*
G01X31590Y862970D01*
X31030Y863090D01*
X31020D01*
G03Y813310I-5620J-24890D01*
G01X31030D01*
X31590Y813430D01*
X32140Y813310D01*
G02X33150Y812820I-559J-2438D01*
G01X36190Y810400D01*
G02X36890Y809520I-1557J-1957D01*
G01Y809510D01*
G02X37140Y808430I-2249J-1089D01*
G01Y-21040D01*
G02X36200Y-22990I-2500J4D01*
G01X33150Y-25420D01*
G02X32140Y-25910I-1569J1948D01*
G01X31590Y-26030D01*
X31030Y-25910D01*
X31020D01*
G03Y-75690I-5620J-24890D01*
G01X31030D01*
X31590Y-75570D01*
X32140Y-75690D01*
G02X33150Y-76180I-559J-2438D01*
G01X36190Y-78600D01*
G02X36890Y-79480I-1557J-1957D01*
G01Y-79490D01*
G02X37140Y-80570I-2249J-1089D01*
G01Y-82900D01*
G02X34640Y-85400I-2500J0D01*
G01X-225140D01*
G02X-227640Y-82900I0J2500D01*
G37*
G36*
G01X-177380Y1187440D02*
X36000Y1187000D01*
G02X37000Y1186000I0J-1000D01*
G01Y960000D01*
G02X36000Y959000I-1000J0D01*
G01X-183150Y958850D01*
G02X-184150Y959850I0J1000D01*
G01Y1180680D01*
G02X-183860Y1181380I1000J-4D01*
G01X-178090Y1187150D01*
G02X-177380Y1187440I704J-710D01*
G37*
%LPC*%
G75*
G36*
G01X-62730Y292530D02*
X-63070D01*
Y314570D01*
G02X-62340Y316340I2500J4D01*
G01X-61040Y317640D01*
G03X-60480Y318480I-1758J1779D01*
G01X-59910Y319910D01*
G03X-60170Y322280I-2317J945D01*
G03X-60290Y322430I-2012J-1487D01*
G02X-59120Y339220I9491J7774D01*
G03X-58890Y339450I-1647J1877D01*
G03X-58310Y341060I-1922J1602D01*
G01Y344740D01*
G03X-58880Y346340I-2502J10D01*
G03X-59120Y346580I-1882J-1642D01*
G02Y364620I8320J9020D01*
G03X-58880Y364860I-1642J1882D01*
G03X-58310Y366460I-1932J1590D01*
G01Y370140D01*
G03X-58880Y371740I-2502J10D01*
G03X-59120Y371980I-1882J-1642D01*
G02Y390020I8320J9020D01*
G03X-58880Y390260I-1642J1882D01*
G03X-58310Y391860I-1932J1590D01*
G01Y395540D01*
G03X-58880Y397140I-2502J10D01*
G03X-59120Y397380I-1882J-1642D01*
G02Y415420I8320J9020D01*
G03X-58880Y415660I-1642J1882D01*
G03X-58310Y417260I-1932J1590D01*
G01Y420940D01*
G03X-58880Y422540I-2502J10D01*
G03X-59120Y422780I-1882J-1642D01*
G02Y440820I8320J9020D01*
G03X-58880Y441060I-1642J1882D01*
G03X-58310Y442660I-1932J1590D01*
G01Y446340D01*
G03X-58880Y447940I-2502J10D01*
G03X-59120Y448180I-1882J-1642D01*
G02Y466220I8320J9020D01*
G03X-58880Y466460I-1642J1882D01*
G03X-58310Y468060I-1932J1590D01*
G01Y471740D01*
G03X-58880Y473340I-2502J10D01*
G03X-59120Y473580I-1882J-1642D01*
G02Y491620I8320J9020D01*
G03X-58880Y491860I-1642J1882D01*
G03X-58310Y493460I-1932J1590D01*
G01Y497140D01*
G03X-58880Y498740I-2502J10D01*
G03X-59120Y498980I-1882J-1642D01*
G02Y517020I8320J9020D01*
G03X-58880Y517260I-1642J1882D01*
G03X-58310Y518860I-1932J1590D01*
G01Y522540D01*
G03X-58890Y524150I-2502J8D01*
G03X-59120Y524380I-1877J-1647D01*
G02X-60290Y541170I8321J9016D01*
G03X-60170Y541320I-1892J1637D01*
G03X-59910Y543690I-2057J1425D01*
G01X-60410Y544950D01*
G03X-60770Y545580I-2329J-913D01*
G03X-62730Y546530I-1963J-1553D01*
G01X-63070D01*
Y568570D01*
G02X-62340Y570340I2500J4D01*
G01X-61040Y571640D01*
G03X-60480Y572480I-1758J1779D01*
G01X-59910Y573910D01*
G03X-60170Y576280I-2317J945D01*
G03X-60290Y576430I-2012J-1487D01*
G02X-59120Y593220I9491J7774D01*
G03X-58890Y593450I-1647J1877D01*
G03X-58310Y595060I-1922J1602D01*
G01Y598740D01*
G03X-58880Y600340I-2502J10D01*
G03X-59120Y600580I-1882J-1642D01*
G02Y618620I8320J9020D01*
G03X-58880Y618860I-1642J1882D01*
G03X-58310Y620460I-1932J1590D01*
G01Y624140D01*
G03X-58880Y625740I-2502J10D01*
G03X-59120Y625980I-1882J-1642D01*
G02Y644020I8320J9020D01*
G03X-58880Y644260I-1642J1882D01*
G03X-58310Y645860I-1932J1590D01*
G01Y649540D01*
G03X-58880Y651140I-2502J10D01*
G03X-59120Y651380I-1882J-1642D01*
G02Y669420I8320J9020D01*
G03X-58880Y669660I-1643J1883D01*
G03X-58310Y671260I-1932J1590D01*
G01Y674940D01*
G03X-58880Y676540I-2502J10D01*
G03X-59120Y676780I-1883J-1643D01*
G02Y694820I8320J9020D01*
G03X-58880Y695060I-1643J1883D01*
G03X-58310Y696660I-1932J1590D01*
G01Y700340D01*
G03X-58880Y701940I-2502J10D01*
G03X-59120Y702180I-1883J-1643D01*
G02Y720220I8320J9020D01*
G03X-58880Y720460I-1643J1883D01*
G03X-58310Y722060I-1932J1590D01*
G01Y725740D01*
G03X-58880Y727340I-2502J10D01*
G03X-59120Y727580I-1883J-1643D01*
G02Y745620I8320J9020D01*
G03X-58880Y745860I-1643J1883D01*
G03X-58310Y747460I-1932J1590D01*
G01Y751140D01*
G03X-58890Y752750I-2502J8D01*
G03X-59120Y752980I-1878J-1648D01*
G02X-60290Y769770I8321J9016D01*
G03X-60170Y769920I-1892J1637D01*
G03X-59910Y772290I-2057J1425D01*
G01X-60410Y773550D01*
G03X-60770Y774180I-2329J-913D01*
G03X-62730Y775130I-1963J-1553D01*
G01X-63070D01*
Y797170D01*
G02X-60570Y799670I2500J0D01*
G01X-41030D01*
G02X-38530Y797170I0J-2500D01*
G01Y777630D01*
G02X-39260Y775860I-2500J-4D01*
G01X-40560Y774560D01*
G03X-41120Y773720I1758J-1779D01*
G01X-41690Y772290D01*
G03X-41430Y769920I2317J-945D01*
G03X-41310Y769770I2012J1487D01*
G02X-42480Y752980I-9491J-7774D01*
G03X-42710Y752750I1648J-1878D01*
G03X-43290Y751140I1922J-1602D01*
G01Y747460D01*
G03X-42720Y745860I2502J-10D01*
G03X-42480Y745620I1883J1643D01*
G02Y727580I-8320J-9020D01*
G03X-42720Y727340I1643J-1883D01*
G03X-43290Y725740I1932J-1590D01*
G01Y722060D01*
G03X-42720Y720460I2502J-10D01*
G03X-42480Y720220I1883J1643D01*
G02Y702180I-8320J-9020D01*
G03X-42720Y701940I1643J-1883D01*
G03X-43290Y700340I1932J-1590D01*
G01Y696660D01*
G03X-42720Y695060I2502J-10D01*
G03X-42480Y694820I1883J1643D01*
G02Y676780I-8320J-9020D01*
G03X-42720Y676540I1643J-1883D01*
G03X-43290Y674940I1932J-1590D01*
G01Y671260D01*
G03X-42720Y669660I2502J-10D01*
G03X-42480Y669420I1883J1643D01*
G02Y651380I-8320J-9020D01*
G03X-42720Y651140I1642J-1882D01*
G03X-43290Y649540I1932J-1590D01*
G01Y645860D01*
G03X-42720Y644260I2502J-10D01*
G03X-42480Y644020I1882J1642D01*
G02Y625980I-8320J-9020D01*
G03X-42720Y625740I1642J-1882D01*
G03X-43290Y624140I1932J-1590D01*
G01Y620460D01*
G03X-42720Y618860I2502J-10D01*
G03X-42480Y618620I1882J1642D01*
G02Y600580I-8320J-9020D01*
G03X-42720Y600340I1642J-1882D01*
G03X-43290Y598740I1932J-1590D01*
G01Y595060D01*
G03X-42710Y593450I2502J-8D01*
G03X-42480Y593220I1877J1647D01*
G02X-41310Y576430I-8321J-9016D01*
G03X-41430Y576280I1892J-1637D01*
G03X-41690Y573910I2057J-1425D01*
G01X-41190Y572650D01*
G03X-40830Y572020I2329J913D01*
G03X-38870Y571070I1963J1553D01*
G01X-38530D01*
Y549030D01*
G02X-39260Y547260I-2500J-4D01*
G01X-40560Y545960D01*
G03X-41120Y545120I1758J-1779D01*
G01X-41690Y543690D01*
G03X-41430Y541320I2317J-945D01*
G03X-41310Y541170I2012J1487D01*
G02X-42480Y524380I-9491J-7774D01*
G03X-42710Y524150I1647J-1877D01*
G03X-43290Y522540I1922J-1602D01*
G01Y518860D01*
G03X-42720Y517260I2502J-10D01*
G03X-42480Y517020I1882J1642D01*
G02Y498980I-8320J-9020D01*
G03X-42720Y498740I1642J-1882D01*
G03X-43290Y497140I1932J-1590D01*
G01Y493460D01*
G03X-42720Y491860I2502J-10D01*
G03X-42480Y491620I1882J1642D01*
G02Y473580I-8320J-9020D01*
G03X-42720Y473340I1642J-1882D01*
G03X-43290Y471740I1932J-1590D01*
G01Y468060D01*
G03X-42720Y466460I2502J-10D01*
G03X-42480Y466220I1882J1642D01*
G02Y448180I-8320J-9020D01*
G03X-42720Y447940I1642J-1882D01*
G03X-43290Y446340I1932J-1590D01*
G01Y442660D01*
G03X-42720Y441060I2502J-10D01*
G03X-42480Y440820I1882J1642D01*
G02Y422780I-8320J-9020D01*
G03X-42720Y422540I1642J-1882D01*
G03X-43290Y420940I1932J-1590D01*
G01Y417260D01*
G03X-42720Y415660I2502J-10D01*
G03X-42480Y415420I1882J1642D01*
G02Y397380I-8320J-9020D01*
G03X-42720Y397140I1642J-1882D01*
G03X-43290Y395540I1932J-1590D01*
G01Y391860D01*
G03X-42720Y390260I2502J-10D01*
G03X-42480Y390020I1882J1642D01*
G02Y371980I-8320J-9020D01*
G03X-42720Y371740I1642J-1882D01*
G03X-43290Y370140I1932J-1590D01*
G01Y366460D01*
G03X-42720Y364860I2502J-10D01*
G03X-42480Y364620I1882J1642D01*
G02Y346580I-8320J-9020D01*
G03X-42720Y346340I1642J-1882D01*
G03X-43290Y344740I1932J-1590D01*
G01Y341060D01*
G03X-42710Y339450I2502J-8D01*
G03X-42480Y339220I1877J1647D01*
G02X-41310Y322430I-8321J-9016D01*
G03X-41430Y322280I1892J-1637D01*
G03X-41690Y319910I2057J-1425D01*
G01X-41190Y318650D01*
G03X-40830Y318020I2329J913D01*
G03X-38870Y317070I1963J1553D01*
G01X-38530D01*
Y295030D01*
G02X-39260Y293260I-2500J-4D01*
G01X-40560Y291960D01*
G03X-41120Y291120I1758J-1779D01*
G01X-41690Y289690D01*
G03X-41430Y287320I2317J-945D01*
G03X-41310Y287170I2012J1487D01*
G02X-42480Y270380I-9491J-7774D01*
G03X-42710Y270150I1647J-1877D01*
G03X-43290Y268540I1922J-1602D01*
G01Y264860D01*
G03X-42720Y263260I2502J-10D01*
G03X-42480Y263020I1882J1642D01*
G02Y244980I-8320J-9020D01*
G03X-42720Y244740I1642J-1882D01*
G03X-43290Y243140I1932J-1590D01*
G01Y239460D01*
G03X-42720Y237860I2502J-10D01*
G03X-42480Y237620I1882J1642D01*
G02Y219580I-8320J-9020D01*
G03X-42720Y219340I1642J-1882D01*
G03X-43290Y217740I1932J-1590D01*
G01Y214060D01*
G03X-42720Y212460I2502J-10D01*
G03X-42480Y212220I1882J1642D01*
G02Y194180I-8320J-9020D01*
G03X-42720Y193940I1642J-1882D01*
G03X-43290Y192340I1932J-1590D01*
G01Y188660D01*
G03X-42720Y187060I2502J-10D01*
G03X-42480Y186820I1882J1642D01*
G02Y168780I-8320J-9020D01*
G03X-42720Y168540I1642J-1882D01*
G03X-43290Y166940I1932J-1590D01*
G01Y163260D01*
G03X-42720Y161660I2502J-10D01*
G03X-42480Y161420I1882J1642D01*
G02Y143380I-8320J-9020D01*
G03X-42720Y143140I1642J-1882D01*
G03X-43290Y141540I1932J-1590D01*
G01Y137860D01*
G03X-42720Y136260I2502J-10D01*
G03X-42480Y136020I1882J1642D01*
G02Y117980I-8320J-9020D01*
G03X-42720Y117740I1642J-1882D01*
G03X-43290Y116140I1932J-1590D01*
G01Y112460D01*
G03X-42720Y110860I2502J-10D01*
G03X-42480Y110620I1882J1642D01*
G02Y92580I-8320J-9020D01*
G03X-42720Y92340I1642J-1882D01*
G03X-43290Y90740I1932J-1590D01*
G01Y87060D01*
G03X-42710Y85450I2502J-8D01*
G03X-42480Y85220I1877J1647D01*
G02X-41310Y68430I-8321J-9016D01*
G03X-41430Y68280I1892J-1637D01*
G03X-41690Y65910I2057J-1425D01*
G01X-41190Y64650D01*
G03X-40830Y64020I2329J913D01*
G03X-38860Y63070I1963J1553D01*
G01X-38530D01*
Y41030D01*
G02X-39260Y39260I-2500J-4D01*
G01X-40560Y37960D01*
G03X-41120Y37120I1758J-1779D01*
G01X-41690Y35690D01*
G03X-41430Y33320I2317J-945D01*
G03X-41310Y33170I2012J1487D01*
G02X-42480Y16380I-9491J-7774D01*
G03X-42710Y16150I1648J-1878D01*
G03X-43290Y14540I1922J-1602D01*
G01Y10860D01*
G03X-42720Y9260I2502J-10D01*
G03X-42480Y9020I1882J1642D01*
G02X-59120I-8320J-9020D01*
G03X-58880Y9260I-1642J1882D01*
G03X-58310Y10860I-1932J1590D01*
G01Y14540D01*
G03X-58890Y16150I-2502J8D01*
G03X-59120Y16380I-1878J-1648D01*
G02X-60290Y33170I8321J9016D01*
G03X-60170Y33320I-1892J1637D01*
G03X-59910Y35690I-2057J1425D01*
G01X-60410Y36950D01*
G03X-60770Y37580I-2329J-913D01*
G03X-62740Y38530I-1963J-1553D01*
G01X-63070D01*
Y60570D01*
G02X-62340Y62340I2500J4D01*
G01X-61040Y63640D01*
G03X-60480Y64480I-1758J1779D01*
G01X-59910Y65910D01*
G03X-60170Y68280I-2317J945D01*
G03X-60290Y68430I-2012J-1487D01*
G02X-59120Y85220I9491J7774D01*
G03X-58890Y85450I-1647J1877D01*
G03X-58310Y87060I-1922J1602D01*
G01Y90740D01*
G03X-58880Y92340I-2502J10D01*
G03X-59120Y92580I-1882J-1642D01*
G02Y110620I8320J9020D01*
G03X-58880Y110860I-1642J1882D01*
G03X-58310Y112460I-1932J1590D01*
G01Y116140D01*
G03X-58880Y117740I-2502J10D01*
G03X-59120Y117980I-1882J-1642D01*
G02Y136020I8320J9020D01*
G03X-58880Y136260I-1642J1882D01*
G03X-58310Y137860I-1932J1590D01*
G01Y141540D01*
G03X-58880Y143140I-2502J10D01*
G03X-59120Y143380I-1882J-1642D01*
G02Y161420I8320J9020D01*
G03X-58880Y161660I-1642J1882D01*
G03X-58310Y163260I-1932J1590D01*
G01Y166940D01*
G03X-58880Y168540I-2502J10D01*
G03X-59120Y168780I-1882J-1642D01*
G02Y186820I8320J9020D01*
G03X-58880Y187060I-1642J1882D01*
G03X-58310Y188660I-1932J1590D01*
G01Y192340D01*
G03X-58880Y193940I-2502J10D01*
G03X-59120Y194180I-1882J-1642D01*
G02Y212220I8320J9020D01*
G03X-58880Y212460I-1642J1882D01*
G03X-58310Y214060I-1932J1590D01*
G01Y217740D01*
G03X-58880Y219340I-2502J10D01*
G03X-59120Y219580I-1882J-1642D01*
G02Y237620I8320J9020D01*
G03X-58880Y237860I-1642J1882D01*
G03X-58310Y239460I-1932J1590D01*
G01Y243140D01*
G03X-58880Y244740I-2502J10D01*
G03X-59120Y244980I-1882J-1642D01*
G02Y263020I8320J9020D01*
G03X-58880Y263260I-1642J1882D01*
G03X-58310Y264860I-1932J1590D01*
G01Y268540D01*
G03X-58890Y270150I-2502J8D01*
G03X-59120Y270380I-1877J-1647D01*
G02X-60290Y287170I8321J9016D01*
G03X-60170Y287320I-1892J1637D01*
G03X-59910Y289690I-2057J1425D01*
G01X-60410Y290950D01*
G03X-60770Y291580I-2329J-913D01*
G03X-62730Y292530I-1963J-1553D01*
G37*
G36*
G01X-79130Y2146730D02*
X-98670D01*
G02X-101170Y2149230I0J2500D01*
G01Y2169810D01*
X-99710Y2171270D01*
X-99510D01*
X-98340Y2174090D01*
G03X-98700Y2176600I-2312J949D01*
G02X-79100I9800J7800D01*
G03X-79460Y2174090I1952J-1561D01*
G01X-78640Y2172110D01*
X-77380Y2171270D01*
X-76630D01*
Y2149230D01*
G02X-79130Y2146730I-2500J0D01*
G37*
G36*
G01X8310Y1342520D02*
G02X-8310I-8310J-9020D01*
G03X-7510Y1344360I-1701J1834D01*
G01Y1348040D01*
G03X-8310Y1349880I-2501J6D01*
G02X-9490Y1366670I8312J9021D01*
G03X-9110Y1369190I-1938J1581D01*
G01X-9620Y1370470D01*
G03X-11940Y1372030I-2317J-941D01*
G01X-12270D01*
Y1395110D01*
X-10810Y1396570D01*
X-10250D01*
X-9110Y1399410D01*
G03X-9490Y1401930I-2318J939D01*
G02X-8310Y1418720I9492J7769D01*
G03X-7510Y1420560I-1701J1834D01*
G01Y1424240D01*
G03X-8310Y1426080I-2501J6D01*
G02Y1444120I8310J9020D01*
G03X-7510Y1445960I-1701J1834D01*
G01Y1449640D01*
G03X-8310Y1451480I-2501J6D01*
G02Y1469520I8310J9020D01*
G03X-7510Y1471360I-1701J1834D01*
G01Y1475040D01*
G03X-8310Y1476880I-2501J6D01*
G02Y1494920I8310J9020D01*
G03X-7510Y1496760I-1701J1834D01*
G01Y1500440D01*
G03X-8310Y1502280I-2501J6D01*
G02Y1520320I8310J9020D01*
G03X-7510Y1522160I-1701J1834D01*
G01Y1525840D01*
G03X-8310Y1527680I-2501J6D01*
G02Y1545720I8310J9020D01*
G03X-7510Y1547560I-1701J1834D01*
G01Y1551240D01*
G03X-8310Y1553080I-2501J6D01*
G02Y1571120I8310J9020D01*
G03X-7510Y1572960I-1701J1834D01*
G01Y1576640D01*
G03X-8310Y1578480I-2501J6D01*
G02Y1596520I8310J9020D01*
G03X-7510Y1598360I-1701J1834D01*
G01Y1602040D01*
G03X-8310Y1603880I-2501J6D01*
G02X-9490Y1620670I8312J9021D01*
G03X-9110Y1623190I-1938J1581D01*
G01X-9620Y1624470D01*
G03X-11940Y1626030I-2317J-941D01*
G01X-12270D01*
Y1649110D01*
X-10810Y1650570D01*
X-10250D01*
X-9110Y1653410D01*
G03X-9490Y1655930I-2318J939D01*
G02X-8310Y1672720I9492J7769D01*
G03X-7510Y1674560I-1701J1834D01*
G01Y1678240D01*
G03X-8310Y1680080I-2501J6D01*
G02Y1698120I8310J9020D01*
G03X-7510Y1699960I-1701J1834D01*
G01Y1703640D01*
G03X-8310Y1705480I-2501J6D01*
G02Y1723520I8310J9020D01*
G03X-7510Y1725360I-1701J1834D01*
G01Y1729040D01*
G03X-8310Y1730880I-2501J6D01*
G02Y1748920I8310J9020D01*
G03X-7510Y1750760I-1701J1834D01*
G01Y1754440D01*
G03X-8310Y1756280I-2501J6D01*
G02Y1774320I8310J9020D01*
G03X-7510Y1776160I-1701J1834D01*
G01Y1779840D01*
G03X-8310Y1781680I-2501J6D01*
G02Y1799720I8310J9020D01*
G03X-7510Y1801560I-1701J1834D01*
G01Y1805240D01*
G03X-8310Y1807080I-2501J6D01*
G02Y1825120I8310J9020D01*
G03X-7510Y1826960I-1701J1834D01*
G01Y1830640D01*
G03X-8310Y1832480I-2501J6D01*
G02Y1850520I8310J9020D01*
G03X-7510Y1852360I-1701J1834D01*
G01Y1856040D01*
G03X-8310Y1857880I-2501J6D01*
G02X-9490Y1874670I8312J9021D01*
G03X-9110Y1877190I-1938J1581D01*
G01X-9620Y1878470D01*
G03X-11940Y1880030I-2317J-941D01*
G01X-12270D01*
Y1903110D01*
X-10810Y1904570D01*
X-10250D01*
X-9110Y1907410D01*
G03X-9490Y1909930I-2318J939D01*
G02X-8310Y1926720I9492J7769D01*
G03X-7510Y1928560I-1701J1834D01*
G01Y1932240D01*
G03X-8310Y1934080I-2501J6D01*
G02Y1952120I8310J9020D01*
G03X-7510Y1953960I-1701J1834D01*
G01Y1957640D01*
G03X-8310Y1959480I-2501J6D01*
G02Y1977520I8310J9020D01*
G03X-7510Y1979360I-1701J1834D01*
G01Y1983040D01*
G03X-8310Y1984880I-2501J6D01*
G02Y2002920I8310J9020D01*
G03X-7510Y2004760I-1701J1834D01*
G01Y2008440D01*
G03X-8310Y2010280I-2501J6D01*
G02Y2028320I8310J9020D01*
G03X-7510Y2030160I-1701J1834D01*
G01Y2033840D01*
G03X-8310Y2035680I-2501J6D01*
G02Y2053720I8310J9020D01*
G03X-7510Y2055560I-1701J1834D01*
G01Y2059240D01*
G03X-8310Y2061080I-2501J6D01*
G02Y2079120I8310J9020D01*
G03X-7510Y2080960I-1701J1834D01*
G01Y2084640D01*
G03X-8310Y2086480I-2501J6D01*
G02X-9490Y2103270I8312J9021D01*
G03X-9110Y2105790I-1938J1581D01*
G01X-9620Y2107070D01*
G03X-11940Y2108630I-2317J-941D01*
G01X-12270D01*
Y2130670D01*
G02X-9770Y2133170I2500J0D01*
G01X9770D01*
G02X12270Y2130670I0J-2500D01*
G01Y2110090D01*
X10810Y2108630D01*
X10250D01*
X9110Y2105790D01*
G03X9490Y2103270I2318J-939D01*
G02X8310Y2086480I-9492J-7769D01*
G03X7510Y2084640I1701J-1834D01*
G01Y2080960D01*
G03X8310Y2079120I2501J-6D01*
G02Y2061080I-8310J-9020D01*
G03X7510Y2059240I1701J-1834D01*
G01Y2055560D01*
G03X8310Y2053720I2501J-6D01*
G02Y2035680I-8310J-9020D01*
G03X7510Y2033840I1701J-1834D01*
G01Y2030160D01*
G03X8310Y2028320I2501J-6D01*
G02Y2010280I-8310J-9020D01*
G03X7510Y2008440I1701J-1834D01*
G01Y2004760D01*
G03X8310Y2002920I2501J-6D01*
G02Y1984880I-8310J-9020D01*
G03X7510Y1983040I1701J-1834D01*
G01Y1979360D01*
G03X8310Y1977520I2501J-6D01*
G02Y1959480I-8310J-9020D01*
G03X7510Y1957640I1701J-1834D01*
G01Y1953960D01*
G03X8310Y1952120I2501J-6D01*
G02Y1934080I-8310J-9020D01*
G03X7510Y1932240I1701J-1834D01*
G01Y1928560D01*
G03X8310Y1926720I2501J-6D01*
G02X9490Y1909930I-8312J-9021D01*
G03X9110Y1907410I1938J-1581D01*
G01X9620Y1906130D01*
G03X11940Y1904570I2317J941D01*
G01X12270D01*
Y1881490D01*
X10810Y1880030D01*
X10250D01*
X9110Y1877190D01*
G03X9490Y1874670I2318J-939D01*
G02X8310Y1857880I-9492J-7769D01*
G03X7510Y1856040I1701J-1834D01*
G01Y1852360D01*
G03X8310Y1850520I2501J-6D01*
G02Y1832480I-8310J-9020D01*
G03X7510Y1830640I1701J-1834D01*
G01Y1826960D01*
G03X8310Y1825120I2501J-6D01*
G02Y1807080I-8310J-9020D01*
G03X7510Y1805240I1701J-1834D01*
G01Y1801560D01*
G03X8310Y1799720I2501J-6D01*
G02Y1781680I-8310J-9020D01*
G03X7510Y1779840I1701J-1834D01*
G01Y1776160D01*
G03X8310Y1774320I2501J-6D01*
G02Y1756280I-8310J-9020D01*
G03X7510Y1754440I1701J-1834D01*
G01Y1750760D01*
G03X8310Y1748920I2501J-6D01*
G02Y1730880I-8310J-9020D01*
G03X7510Y1729040I1701J-1834D01*
G01Y1725360D01*
G03X8310Y1723520I2501J-6D01*
G02Y1705480I-8310J-9020D01*
G03X7510Y1703640I1701J-1834D01*
G01Y1699960D01*
G03X8310Y1698120I2501J-6D01*
G02Y1680080I-8310J-9020D01*
G03X7510Y1678240I1701J-1834D01*
G01Y1674560D01*
G03X8310Y1672720I2501J-6D01*
G02X9490Y1655930I-8312J-9021D01*
G03X9110Y1653410I1938J-1581D01*
G01X9620Y1652130D01*
G03X11940Y1650570I2317J941D01*
G01X12270D01*
Y1627490D01*
X10810Y1626030D01*
X10250D01*
X9110Y1623190D01*
G03X9490Y1620670I2318J-939D01*
G02X8310Y1603880I-9492J-7769D01*
G03X7510Y1602040I1701J-1834D01*
G01Y1598360D01*
G03X8310Y1596520I2501J-6D01*
G02Y1578480I-8310J-9020D01*
G03X7510Y1576640I1701J-1834D01*
G01Y1572960D01*
G03X8310Y1571120I2501J-6D01*
G02Y1553080I-8310J-9020D01*
G03X7510Y1551240I1701J-1834D01*
G01Y1547560D01*
G03X8310Y1545720I2501J-6D01*
G02Y1527680I-8310J-9020D01*
G03X7510Y1525840I1701J-1834D01*
G01Y1522160D01*
G03X8310Y1520320I2501J-6D01*
G02Y1502280I-8310J-9020D01*
G03X7510Y1500440I1701J-1834D01*
G01Y1496760D01*
G03X8310Y1494920I2501J-6D01*
G02Y1476880I-8310J-9020D01*
G03X7510Y1475040I1701J-1834D01*
G01Y1471360D01*
G03X8310Y1469520I2501J-6D01*
G02Y1451480I-8310J-9020D01*
G03X7510Y1449640I1701J-1834D01*
G01Y1445960D01*
G03X8310Y1444120I2501J-6D01*
G02Y1426080I-8310J-9020D01*
G03X7510Y1424240I1701J-1834D01*
G01Y1420560D01*
G03X8310Y1418720I2501J-6D01*
G02X9490Y1401930I-8312J-9021D01*
G03X9110Y1399410I1938J-1581D01*
G01X9620Y1398130D01*
G03X11940Y1396570I2317J941D01*
G01X12270D01*
Y1373490D01*
X10810Y1372030D01*
X10250D01*
X9110Y1369190D01*
G03X9490Y1366670I2318J-939D01*
G02X8310Y1349880I-9492J-7769D01*
G03X7510Y1348040I1701J-1834D01*
G01Y1344360D01*
G03X8310Y1342520I2501J-6D01*
G37*
G36*
G01X-42490D02*
G02X-59110I-8310J-9020D01*
G03X-58310Y1344360I-1701J1834D01*
G01Y1348040D01*
G03X-59110Y1349880I-2501J6D01*
G02X-60290Y1366670I8312J9021D01*
G03X-59910Y1369190I-1938J1581D01*
G01X-60420Y1370470D01*
G03X-62740Y1372030I-2317J-941D01*
G01X-63070D01*
Y1395110D01*
X-61610Y1396570D01*
X-61050D01*
X-59910Y1399410D01*
G03X-60290Y1401930I-2318J939D01*
G02X-59110Y1418720I9492J7769D01*
G03X-58310Y1420560I-1701J1834D01*
G01Y1424240D01*
G03X-59110Y1426080I-2501J6D01*
G02Y1444120I8310J9020D01*
G03X-58310Y1445960I-1701J1834D01*
G01Y1449640D01*
G03X-59110Y1451480I-2501J6D01*
G02Y1469520I8310J9020D01*
G03X-58310Y1471360I-1701J1834D01*
G01Y1475040D01*
G03X-59110Y1476880I-2501J6D01*
G02Y1494920I8310J9020D01*
G03X-58310Y1496760I-1701J1834D01*
G01Y1500440D01*
G03X-59110Y1502280I-2501J6D01*
G02Y1520320I8310J9020D01*
G03X-58310Y1522160I-1701J1834D01*
G01Y1525840D01*
G03X-59110Y1527680I-2501J6D01*
G02Y1545720I8310J9020D01*
G03X-58310Y1547560I-1701J1834D01*
G01Y1551240D01*
G03X-59110Y1553080I-2501J6D01*
G02Y1571120I8310J9020D01*
G03X-58310Y1572960I-1701J1834D01*
G01Y1576640D01*
G03X-59110Y1578480I-2501J6D01*
G02X-62850Y1589830I8308J9029D01*
G01X-62740Y1590390D01*
X-63010Y1591460D01*
X-65830Y1594870D01*
G03X-67760Y1595780I-1929J-1589D01*
G01X-80670D01*
G02X-83170Y1598280I0J2500D01*
G01Y2002170D01*
G02X-80670Y2004670I2500J0D01*
G01X-65140D01*
G03X-62930Y2005990I6J2500D01*
G01X-60520Y2010510D01*
X-60590Y2011880D01*
X-60990Y2012460D01*
G02X-59110Y2028320I10190J6834D01*
G03X-58310Y2030160I-1701J1834D01*
G01Y2033840D01*
G03X-59110Y2035680I-2501J6D01*
G02Y2053720I8310J9020D01*
G03X-58310Y2055560I-1701J1834D01*
G01Y2059240D01*
G03X-59110Y2061080I-2501J6D01*
G02Y2079120I8310J9020D01*
G03X-58310Y2080960I-1701J1834D01*
G01Y2084640D01*
G03X-59110Y2086480I-2501J6D01*
G02X-60290Y2103270I8312J9021D01*
G03X-59910Y2105790I-1938J1581D01*
G01X-60420Y2107070D01*
G03X-62740Y2108630I-2317J-941D01*
G01X-63070D01*
Y2130670D01*
G02X-60570Y2133170I2500J0D01*
G01X-41030D01*
G02X-38530Y2130670I0J-2500D01*
G01Y2110090D01*
X-39990Y2108630D01*
X-40550D01*
X-41690Y2105790D01*
G03X-41310Y2103270I2318J-939D01*
G02X-42490Y2086480I-9492J-7769D01*
G03X-43290Y2084640I1701J-1834D01*
G01Y2080960D01*
G03X-42490Y2079120I2501J-6D01*
G02Y2061080I-8310J-9020D01*
G03X-43290Y2059240I1701J-1834D01*
G01Y2055560D01*
G03X-42490Y2053720I2501J-6D01*
G02Y2035680I-8310J-9020D01*
G03X-43290Y2033840I1701J-1834D01*
G01Y2030160D01*
G03X-42490Y2028320I2501J-6D01*
G02Y2010280I-8310J-9020D01*
G03X-43290Y2008440I1701J-1834D01*
G01Y2004760D01*
G03X-42490Y2002920I2501J-6D01*
G02Y1984880I-8310J-9020D01*
G03X-43290Y1983040I1701J-1834D01*
G01Y1979360D01*
G03X-42490Y1977520I2501J-6D01*
G02Y1959480I-8310J-9020D01*
G03X-43290Y1957640I1701J-1834D01*
G01Y1953960D01*
G03X-42490Y1952120I2501J-6D01*
G02Y1934080I-8310J-9020D01*
G03X-43290Y1932240I1701J-1834D01*
G01Y1928560D01*
G03X-42490Y1926720I2501J-6D01*
G02X-41310Y1909930I-8312J-9021D01*
G03X-41690Y1907410I1938J-1581D01*
G01X-41180Y1906130D01*
G03X-38860Y1904570I2317J941D01*
G01X-38530D01*
Y1881490D01*
X-39990Y1880030D01*
X-40550D01*
X-41690Y1877190D01*
G03X-41310Y1874670I2318J-939D01*
G02X-42490Y1857880I-9492J-7769D01*
G03X-43290Y1856040I1701J-1834D01*
G01Y1852360D01*
G03X-42490Y1850520I2501J-6D01*
G02Y1832480I-8310J-9020D01*
G03X-43290Y1830640I1701J-1834D01*
G01Y1826960D01*
G03X-42490Y1825120I2501J-6D01*
G02Y1807080I-8310J-9020D01*
G03X-43290Y1805240I1701J-1834D01*
G01Y1801560D01*
G03X-42490Y1799720I2501J-6D01*
G02Y1781680I-8310J-9020D01*
G03X-43290Y1779840I1701J-1834D01*
G01Y1776160D01*
G03X-42490Y1774320I2501J-6D01*
G02Y1756280I-8310J-9020D01*
G03X-43290Y1754440I1701J-1834D01*
G01Y1750760D01*
G03X-42490Y1748920I2501J-6D01*
G02Y1730880I-8310J-9020D01*
G03X-43290Y1729040I1701J-1834D01*
G01Y1725360D01*
G03X-42490Y1723520I2501J-6D01*
G02Y1705480I-8310J-9020D01*
G03X-43290Y1703640I1701J-1834D01*
G01Y1699960D01*
G03X-42490Y1698120I2501J-6D01*
G02Y1680080I-8310J-9020D01*
G03X-43290Y1678240I1701J-1834D01*
G01Y1674560D01*
G03X-42490Y1672720I2501J-6D01*
G02X-41310Y1655930I-8312J-9021D01*
G03X-41690Y1653410I1938J-1581D01*
G01X-41180Y1652130D01*
G03X-38860Y1650570I2317J941D01*
G01X-38530D01*
Y1627490D01*
X-39990Y1626030D01*
X-40550D01*
X-41690Y1623190D01*
G03X-41310Y1620670I2318J-939D01*
G02X-42490Y1603880I-9492J-7769D01*
G03X-43290Y1602040I1701J-1834D01*
G01Y1598360D01*
G03X-42490Y1596520I2501J-6D01*
G02Y1578480I-8310J-9020D01*
G03X-43290Y1576640I1701J-1834D01*
G01Y1572960D01*
G03X-42490Y1571120I2501J-6D01*
G02Y1553080I-8310J-9020D01*
G03X-43290Y1551240I1701J-1834D01*
G01Y1547560D01*
G03X-42490Y1545720I2501J-6D01*
G02Y1527680I-8310J-9020D01*
G03X-43290Y1525840I1701J-1834D01*
G01Y1522160D01*
G03X-42490Y1520320I2501J-6D01*
G02Y1502280I-8310J-9020D01*
G03X-43290Y1500440I1701J-1834D01*
G01Y1496760D01*
G03X-42490Y1494920I2501J-6D01*
G02Y1476880I-8310J-9020D01*
G03X-43290Y1475040I1701J-1834D01*
G01Y1471360D01*
G03X-42490Y1469520I2501J-6D01*
G02Y1451480I-8310J-9020D01*
G03X-43290Y1449640I1701J-1834D01*
G01Y1445960D01*
G03X-42490Y1444120I2501J-6D01*
G02Y1426080I-8310J-9020D01*
G03X-43290Y1424240I1701J-1834D01*
G01Y1420560D01*
G03X-42490Y1418720I2501J-6D01*
G02X-41310Y1401930I-8312J-9021D01*
G03X-41690Y1399410I1938J-1581D01*
G01X-41180Y1398130D01*
G03X-38860Y1396570I2317J941D01*
G01X-38530D01*
Y1373490D01*
X-39990Y1372030D01*
X-40550D01*
X-41690Y1369190D01*
G03X-41310Y1366670I2318J-939D01*
G02X-42490Y1349880I-9492J-7769D01*
G03X-43290Y1348040I1701J-1834D01*
G01Y1344360D01*
G03X-42490Y1342520I2501J-6D01*
G37*
G36*
G01X-129930Y1321230D02*
X-149470D01*
G02X-151970Y1323730I0J2500D01*
G01Y1344310D01*
X-150510Y1345770D01*
X-149950D01*
X-148810Y1348610D01*
G03X-149190Y1351130I-2318J939D01*
G02X-148010Y1367920I9492J7769D01*
G03X-147210Y1369760I-1701J1834D01*
G01Y1373440D01*
G03X-148010Y1375280I-2501J6D01*
G02Y1393320I8310J9020D01*
G03X-147210Y1395160I-1701J1834D01*
G01Y1398840D01*
G03X-148010Y1400680I-2501J6D01*
G02Y1418720I8310J9020D01*
G03X-147210Y1420560I-1701J1834D01*
G01Y1424240D01*
G03X-148010Y1426080I-2501J6D01*
G02Y1444120I8310J9020D01*
G03X-147210Y1445960I-1701J1834D01*
G01Y1449640D01*
G03X-148010Y1451480I-2501J6D01*
G02Y1469520I8310J9020D01*
G03X-147210Y1471360I-1701J1834D01*
G01Y1475040D01*
G03X-148010Y1476880I-2501J6D01*
G02Y1494920I8310J9020D01*
G03X-147210Y1496760I-1701J1834D01*
G01Y1500440D01*
G03X-148010Y1502280I-2501J6D01*
G02Y1520320I8310J9020D01*
G03X-147210Y1522160I-1701J1834D01*
G01Y1525840D01*
G03X-148010Y1527680I-2501J6D01*
G02X-149190Y1544470I8312J9021D01*
G03X-148810Y1546990I-1938J1581D01*
G01X-149320Y1548270D01*
G03X-151640Y1549830I-2317J-941D01*
G01X-151970D01*
Y1572910D01*
X-150510Y1574370D01*
X-149950D01*
X-148810Y1577210D01*
G03X-149190Y1579730I-2318J939D01*
G02X-148010Y1596520I9492J7769D01*
G03X-147210Y1598360I-1701J1834D01*
G01Y1602040D01*
G03X-148010Y1603880I-2501J6D01*
G02Y1621920I8310J9020D01*
G03X-147210Y1623760I-1701J1834D01*
G01Y1627440D01*
G03X-148010Y1629280I-2501J6D01*
G02Y1647320I8310J9020D01*
G03X-147210Y1649160I-1701J1834D01*
G01Y1652840D01*
G03X-148010Y1654680I-2501J6D01*
G02X-147050Y1673520I8313J9021D01*
G03X-146050Y1675520I-1501J2001D01*
G01Y1677280D01*
G03X-147050Y1679280I-2501J-1D01*
G02Y1698920I7350J9820D01*
G03X-146050Y1700920I-1501J2001D01*
G01Y1702680D01*
G03X-147050Y1704680I-2501J-1D01*
G02X-148010Y1723520I7353J9819D01*
G03X-147210Y1725360I-1701J1834D01*
G01Y1729040D01*
G03X-148010Y1730880I-2501J6D01*
G02Y1748920I8310J9020D01*
G03X-147210Y1750760I-1701J1834D01*
G01Y1754440D01*
G03X-148010Y1756280I-2501J6D01*
G02Y1774320I8310J9020D01*
G03X-147210Y1776160I-1701J1834D01*
G01Y1779840D01*
G03X-148010Y1781680I-2501J6D01*
G02X-149190Y1798470I8312J9021D01*
G03X-148810Y1800990I-1938J1581D01*
G01X-149320Y1802270D01*
G03X-151640Y1803830I-2317J-941D01*
G01X-151970D01*
Y1826910D01*
X-150510Y1828370D01*
X-149950D01*
X-148810Y1831210D01*
G03X-149190Y1833730I-2318J939D01*
G02X-148010Y1850520I9492J7769D01*
G03X-147210Y1852360I-1701J1834D01*
G01Y1856040D01*
G03X-148010Y1857880I-2501J6D01*
G02Y1875920I8310J9020D01*
G03X-147210Y1877760I-1701J1834D01*
G01Y1881440D01*
G03X-148010Y1883280I-2501J6D01*
G02Y1901320I8310J9020D01*
G03X-147210Y1903160I-1701J1834D01*
G01Y1906840D01*
G03X-148010Y1908680I-2501J6D01*
G02Y1926720I8310J9020D01*
G03X-147210Y1928560I-1701J1834D01*
G01Y1932240D01*
G03X-148010Y1934080I-2501J6D01*
G02Y1952120I8310J9020D01*
G03X-147210Y1953960I-1701J1834D01*
G01Y1957640D01*
G03X-148010Y1959480I-2501J6D01*
G02Y1977520I8310J9020D01*
G03X-147210Y1979360I-1701J1834D01*
G01Y1983040D01*
G03X-148010Y1984880I-2501J6D01*
G02Y2002920I8310J9020D01*
G03X-147210Y2004760I-1701J1834D01*
G01Y2008440D01*
G03X-148010Y2010280I-2501J6D01*
G02Y2028320I8310J9020D01*
G03X-147210Y2030160I-1701J1834D01*
G01Y2033840D01*
G03X-148010Y2035680I-2501J6D01*
G02X-149190Y2052470I8312J9021D01*
G03X-148810Y2054990I-1938J1581D01*
G01X-149320Y2056270D01*
G03X-151640Y2057830I-2317J-941D01*
G01X-151970D01*
Y2080910D01*
X-150510Y2082370D01*
X-149950D01*
X-148810Y2085210D01*
G03X-149190Y2087730I-2318J939D01*
G02X-148010Y2104520I9492J7769D01*
G03X-147210Y2106360I-1701J1834D01*
G01Y2110040D01*
G03X-148010Y2111880I-2501J6D01*
G02X-131390I8310J9020D01*
G03X-132190Y2110040I1701J-1834D01*
G01Y2106360D01*
G03X-131390Y2104520I2501J-6D01*
G02X-130210Y2087730I-8312J-9021D01*
G03X-130590Y2085210I1938J-1581D01*
G01X-130080Y2083930D01*
G03X-127760Y2082370I2317J941D01*
G01X-127430D01*
Y2059290D01*
X-128890Y2057830D01*
X-129450D01*
X-130590Y2054990D01*
G03X-130210Y2052470I2318J-939D01*
G02X-131390Y2035680I-9492J-7769D01*
G03X-132190Y2033840I1701J-1834D01*
G01Y2030160D01*
G03X-131390Y2028320I2501J-6D01*
G02X-133440Y2008750I-8312J-9022D01*
G03Y2004450I1280J-2150D01*
G02X-131390Y2002930I-6243J-10563D01*
G01X-131080Y2002640D01*
X-130340Y2002320D01*
X-126450Y2001980D01*
X-125660Y2002180D01*
X-125300Y2002410D01*
G02X-116320Y2003110I5142J-8011D01*
G01X-115630Y2002810D01*
X-114180Y2003050D01*
X-113110Y2004020D01*
G02X-111430Y2004670I1681J-1849D01*
G01X-97130D01*
G02X-94630Y2002170I0J-2500D01*
G01Y1598280D01*
G02X-97130Y1595780I-2500J0D01*
G01X-111430D01*
G02X-113110Y1596430I1J2499D01*
G01X-114180Y1597400D01*
X-115630Y1597640D01*
X-116320Y1597340D01*
G02X-127840Y1600440I-3833J8712D01*
G01X-128110Y1600810D01*
X-128840Y1601300D01*
X-130040Y1601590D01*
G03X-133060Y1599740I-586J-2433D01*
G01X-133230Y1599020D01*
X-132750Y1597640D01*
X-132160Y1597180D01*
G02X-130210Y1579730I-7542J-9677D01*
G03X-130590Y1577210I1938J-1581D01*
G01X-130080Y1575930D01*
G03X-127760Y1574370I2317J941D01*
G01X-127430D01*
Y1551290D01*
X-128890Y1549830D01*
X-129450D01*
X-130590Y1546990D01*
G03X-130210Y1544470I2318J-939D01*
G02X-131390Y1527680I-9492J-7769D01*
G03X-132190Y1525840I1701J-1834D01*
G01Y1522160D01*
G03X-131390Y1520320I2501J-6D01*
G02Y1502280I-8310J-9020D01*
G03X-132190Y1500440I1701J-1834D01*
G01Y1496760D01*
G03X-131390Y1494920I2501J-6D01*
G02Y1476880I-8310J-9020D01*
G03X-132190Y1475040I1701J-1834D01*
G01Y1471360D01*
G03X-131390Y1469520I2501J-6D01*
G02Y1451480I-8310J-9020D01*
G03X-132190Y1449640I1701J-1834D01*
G01Y1445960D01*
G03X-131390Y1444120I2501J-6D01*
G02Y1426080I-8310J-9020D01*
G03X-132190Y1424240I1701J-1834D01*
G01Y1420560D01*
G03X-131390Y1418720I2501J-6D01*
G02Y1400680I-8310J-9020D01*
G03X-132190Y1398840I1701J-1834D01*
G01Y1395160D01*
G03X-131390Y1393320I2501J-6D01*
G02Y1375280I-8310J-9020D01*
G03X-132190Y1373440I1701J-1834D01*
G01Y1369760D01*
G03X-131390Y1367920I2501J-6D01*
G02X-130210Y1351130I-8312J-9021D01*
G03X-130590Y1348610I1938J-1581D01*
G01X-130080Y1347330D01*
G03X-127760Y1345770I2317J941D01*
G01X-127430D01*
Y1323730D01*
G02X-129930Y1321230I-2500J0D01*
G37*
G36*
G01X-180730D02*
X-200270D01*
G02X-202770Y1323730I0J2500D01*
G01Y1344310D01*
X-201310Y1345770D01*
X-200750D01*
X-199610Y1348610D01*
G03X-199990Y1351130I-2318J939D01*
G02X-198810Y1367920I9492J7769D01*
G03X-198010Y1369760I-1701J1834D01*
G01Y1373440D01*
G03X-198810Y1375280I-2501J6D01*
G02Y1393320I8310J9020D01*
G03X-198010Y1395160I-1701J1834D01*
G01Y1398840D01*
G03X-198810Y1400680I-2501J6D01*
G02Y1418720I8310J9020D01*
G03X-198010Y1420560I-1701J1834D01*
G01Y1424240D01*
G03X-198810Y1426080I-2501J6D01*
G02Y1444120I8310J9020D01*
G03X-198010Y1445960I-1701J1834D01*
G01Y1449640D01*
G03X-198810Y1451480I-2501J6D01*
G02Y1469520I8310J9020D01*
G03X-198010Y1471360I-1701J1834D01*
G01Y1475040D01*
G03X-198810Y1476880I-2501J6D01*
G02Y1494920I8310J9020D01*
G03X-198010Y1496760I-1701J1834D01*
G01Y1500440D01*
G03X-198810Y1502280I-2501J6D01*
G02Y1520320I8310J9020D01*
G03X-198010Y1522160I-1701J1834D01*
G01Y1525840D01*
G03X-198810Y1527680I-2501J6D01*
G02X-199990Y1544470I8312J9021D01*
G03X-199610Y1546990I-1938J1581D01*
G01X-200120Y1548270D01*
G03X-202440Y1549830I-2317J-941D01*
G01X-202770D01*
Y1572910D01*
X-201310Y1574370D01*
X-200750D01*
X-199610Y1577210D01*
G03X-199990Y1579730I-2318J939D01*
G02X-198810Y1596520I9492J7769D01*
G03X-198010Y1598360I-1701J1834D01*
G01Y1602040D01*
G03X-198810Y1603880I-2501J6D01*
G02Y1621920I8310J9020D01*
G03X-198010Y1623760I-1701J1834D01*
G01Y1627440D01*
G03X-198810Y1629280I-2501J6D01*
G02Y1647320I8310J9020D01*
G03X-198010Y1649160I-1701J1834D01*
G01Y1652840D01*
G03X-198810Y1654680I-2501J6D01*
G02Y1672720I8310J9020D01*
G03X-198010Y1674560I-1701J1834D01*
G01Y1678240D01*
G03X-198810Y1680080I-2501J6D01*
G02Y1698120I8310J9020D01*
G03X-198010Y1699960I-1701J1834D01*
G01Y1703640D01*
G03X-198810Y1705480I-2501J6D01*
G02Y1723520I8310J9020D01*
G03X-198010Y1725360I-1701J1834D01*
G01Y1729040D01*
G03X-198810Y1730880I-2501J6D01*
G02Y1748920I8310J9020D01*
G03X-198010Y1750760I-1701J1834D01*
G01Y1754440D01*
G03X-198810Y1756280I-2501J6D01*
G02Y1774320I8310J9020D01*
G03X-198010Y1776160I-1701J1834D01*
G01Y1779840D01*
G03X-198810Y1781680I-2501J6D01*
G02X-199990Y1798470I8312J9021D01*
G03X-199610Y1800990I-1938J1581D01*
G01X-200120Y1802270D01*
G03X-202440Y1803830I-2317J-941D01*
G01X-202770D01*
Y1826910D01*
X-201310Y1828370D01*
X-200750D01*
X-199610Y1831210D01*
G03X-199990Y1833730I-2318J939D01*
G02X-198810Y1850520I9492J7769D01*
G03X-198010Y1852360I-1701J1834D01*
G01Y1856040D01*
G03X-198810Y1857880I-2501J6D01*
G02Y1875920I8310J9020D01*
G03X-198010Y1877760I-1701J1834D01*
G01Y1881440D01*
G03X-198810Y1883280I-2501J6D01*
G02Y1901320I8310J9020D01*
G03X-198010Y1903160I-1701J1834D01*
G01Y1906840D01*
G03X-198810Y1908680I-2501J6D01*
G02Y1926720I8310J9020D01*
G03X-198010Y1928560I-1701J1834D01*
G01Y1932240D01*
G03X-198810Y1934080I-2501J6D01*
G02Y1952120I8310J9020D01*
G03X-198010Y1953960I-1701J1834D01*
G01Y1957640D01*
G03X-198810Y1959480I-2501J6D01*
G02Y1977520I8310J9020D01*
G03X-198010Y1979360I-1701J1834D01*
G01Y1983040D01*
G03X-198810Y1984880I-2501J6D01*
G02Y2002920I8310J9020D01*
G03X-198010Y2004760I-1701J1834D01*
G01Y2008440D01*
G03X-198810Y2010280I-2501J6D01*
G02Y2028320I8310J9020D01*
G03X-198010Y2030160I-1701J1834D01*
G01Y2033840D01*
G03X-198810Y2035680I-2501J6D01*
G02X-199990Y2052470I8312J9021D01*
G03X-199610Y2054990I-1938J1581D01*
G01X-200120Y2056270D01*
G03X-202440Y2057830I-2317J-941D01*
G01X-202770D01*
Y2080910D01*
X-201310Y2082370D01*
X-200750D01*
X-199610Y2085210D01*
G03X-199990Y2087730I-2318J939D01*
G02X-198810Y2104520I9492J7769D01*
G03X-198010Y2106360I-1701J1834D01*
G01Y2110040D01*
G03X-198810Y2111880I-2501J6D01*
G02X-182190I8310J9020D01*
G03X-182990Y2110040I1701J-1834D01*
G01Y2106360D01*
G03X-182190Y2104520I2501J-6D01*
G02X-181010Y2087730I-8312J-9021D01*
G03X-181390Y2085210I1938J-1581D01*
G01X-180880Y2083930D01*
G03X-178560Y2082370I2317J941D01*
G01X-178230D01*
Y2059290D01*
X-179690Y2057830D01*
X-180250D01*
X-181390Y2054990D01*
G03X-181010Y2052470I2318J-939D01*
G02X-182190Y2035680I-9492J-7769D01*
G03X-182990Y2033840I1701J-1834D01*
G01Y2030160D01*
G03X-182190Y2028320I2501J-6D01*
G02Y2010280I-8310J-9020D01*
G03X-182990Y2008440I1701J-1834D01*
G01Y2004760D01*
G03X-182190Y2002920I2501J-6D01*
G02Y1984880I-8310J-9020D01*
G03X-182990Y1983040I1701J-1834D01*
G01Y1979360D01*
G03X-182190Y1977520I2501J-6D01*
G02Y1959480I-8310J-9020D01*
G03X-182990Y1957640I1701J-1834D01*
G01Y1953960D01*
G03X-182190Y1952120I2501J-6D01*
G02Y1934080I-8310J-9020D01*
G03X-182990Y1932240I1701J-1834D01*
G01Y1928560D01*
G03X-182190Y1926720I2501J-6D01*
G02Y1908680I-8310J-9020D01*
G03X-182990Y1906840I1701J-1834D01*
G01Y1903160D01*
G03X-182190Y1901320I2501J-6D01*
G02Y1883280I-8310J-9020D01*
G03X-182990Y1881440I1701J-1834D01*
G01Y1877760D01*
G03X-182190Y1875920I2501J-6D01*
G02Y1857880I-8310J-9020D01*
G03X-182990Y1856040I1701J-1834D01*
G01Y1852360D01*
G03X-182190Y1850520I2501J-6D01*
G02X-181010Y1833730I-8312J-9021D01*
G03X-181390Y1831210I1938J-1581D01*
G01X-180880Y1829930D01*
G03X-178560Y1828370I2317J941D01*
G01X-178230D01*
Y1805290D01*
X-179690Y1803830D01*
X-180250D01*
X-181390Y1800990D01*
G03X-181010Y1798470I2318J-939D01*
G02X-182190Y1781680I-9492J-7769D01*
G03X-182990Y1779840I1701J-1834D01*
G01Y1776160D01*
G03X-182190Y1774320I2501J-6D01*
G02Y1756280I-8310J-9020D01*
G03X-182990Y1754440I1701J-1834D01*
G01Y1750760D01*
G03X-182190Y1748920I2501J-6D01*
G02Y1730880I-8310J-9020D01*
G03X-182990Y1729040I1701J-1834D01*
G01Y1725360D01*
G03X-182190Y1723520I2501J-6D01*
G02Y1705480I-8310J-9020D01*
G03X-182990Y1703640I1701J-1834D01*
G01Y1699960D01*
G03X-182190Y1698120I2501J-6D01*
G02Y1680080I-8310J-9020D01*
G03X-182990Y1678240I1701J-1834D01*
G01Y1674560D01*
G03X-182190Y1672720I2501J-6D01*
G02Y1654680I-8310J-9020D01*
G03X-182990Y1652840I1701J-1834D01*
G01Y1649160D01*
G03X-182190Y1647320I2501J-6D01*
G02Y1629280I-8310J-9020D01*
G03X-182990Y1627440I1701J-1834D01*
G01Y1623760D01*
G03X-182190Y1621920I2501J-6D01*
G02Y1603880I-8310J-9020D01*
G03X-182990Y1602040I1701J-1834D01*
G01Y1598360D01*
G03X-182190Y1596520I2501J-6D01*
G02X-181010Y1579730I-8312J-9021D01*
G03X-181390Y1577210I1938J-1581D01*
G01X-180880Y1575930D01*
G03X-178560Y1574370I2317J941D01*
G01X-178230D01*
Y1551290D01*
X-179690Y1549830D01*
X-180250D01*
X-181390Y1546990D01*
G03X-181010Y1544470I2318J-939D01*
G02X-182190Y1527680I-9492J-7769D01*
G03X-182990Y1525840I1701J-1834D01*
G01Y1522160D01*
G03X-182190Y1520320I2501J-6D01*
G02Y1502280I-8310J-9020D01*
G03X-182990Y1500440I1701J-1834D01*
G01Y1496760D01*
G03X-182190Y1494920I2501J-6D01*
G02Y1476880I-8310J-9020D01*
G03X-182990Y1475040I1701J-1834D01*
G01Y1471360D01*
G03X-182190Y1469520I2501J-6D01*
G02Y1451480I-8310J-9020D01*
G03X-182990Y1449640I1701J-1834D01*
G01Y1445960D01*
G03X-182190Y1444120I2501J-6D01*
G02Y1426080I-8310J-9020D01*
G03X-182990Y1424240I1701J-1834D01*
G01Y1420560D01*
G03X-182190Y1418720I2501J-6D01*
G02Y1400680I-8310J-9020D01*
G03X-182990Y1398840I1701J-1834D01*
G01Y1395160D01*
G03X-182190Y1393320I2501J-6D01*
G02Y1375280I-8310J-9020D01*
G03X-182990Y1373440I1701J-1834D01*
G01Y1369760D01*
G03X-182190Y1367920I2501J-6D01*
G02X-181010Y1351130I-8312J-9021D01*
G03X-181390Y1348610I1938J-1581D01*
G01X-180880Y1347330D01*
G03X-178560Y1345770I2317J941D01*
G01X-178230D01*
Y1323730D01*
G02X-180730Y1321230I-2500J0D01*
G37*
G36*
G01X-71480Y681380D02*
X-87020D01*
G02X-89520Y683880I0J2500D01*
G01Y802020D01*
G02X-87020Y804520I2500J0D01*
G01X-71480D01*
G02X-68980Y802020I0J-2500D01*
G01Y683880D01*
G02X-71480Y681380I-2500J0D01*
G37*
G36*
G01X-103480D02*
X-117780D01*
G02X-119460Y682030I1J2499D01*
G01X-123440Y685650D01*
X-125430Y685600D01*
X-126140Y684900D01*
G02X-141000Y696580I-6715J6749D01*
G03X-141100Y699320I-2137J1294D01*
G02X-141430Y709880I7750J5527D01*
G03Y712520I-2126J1320D01*
G02X-141100Y723080I8080J5033D01*
G03X-141000Y725820I-2037J1446D01*
G02X-126140Y737500I8145J4931D01*
G01X-125430Y736800D01*
X-123440Y736750D01*
X-118660Y741100D01*
G03X-117840Y742950I-1679J1851D01*
G01Y743480D01*
X-118260Y744440D01*
X-123440Y749150D01*
X-125430Y749100D01*
X-126140Y748400D01*
G02X-141000Y760080I-6715J6749D01*
G03X-141100Y762820I-2137J1294D01*
G02X-141430Y773380I7750J5527D01*
G03Y776020I-2126J1320D01*
G02X-141100Y786580I8080J5033D01*
G03X-141000Y789320I-2037J1446D01*
G02X-126140Y801000I8145J4931D01*
G01X-125430Y800300D01*
X-123440Y800250D01*
X-119460Y803870D01*
G02X-117780Y804520I1681J-1849D01*
G01X-103480D01*
G02X-100980Y802020I0J-2500D01*
G01Y683880D01*
G02X-103480Y681380I-2500J0D01*
G37*
G36*
G01X-170000Y447400D02*
G02Y467000I-7800J9800D01*
G03X-167490Y466640I1561J1952D01*
G01X-165510Y467460D01*
X-164670Y468720D01*
Y469470D01*
X-142630D01*
G02X-140130Y466970I0J-2500D01*
G01Y447430D01*
G02X-142630Y444930I-2500J0D01*
G01X-163210D01*
X-164670Y446390D01*
Y446590D01*
X-167490Y447760D01*
G03X-170000Y447400I-949J-2312D01*
G37*
G36*
G01Y339450D02*
G02Y359050I-7800J9800D01*
G03X-167490Y358690I1561J1952D01*
G01X-165510Y359510D01*
X-164670Y360770D01*
Y361520D01*
X-142630D01*
G02X-140130Y359020I0J-2500D01*
G01Y339480D01*
G02X-142630Y336980I-2500J0D01*
G01X-163210D01*
X-164670Y338440D01*
Y338640D01*
X-167490Y339810D01*
G03X-170000Y339450I-949J-2312D01*
G37*
G36*
G01X-160200Y308250D02*
G02Y288650I7800J-9800D01*
G03X-162710Y289010I-1561J-1952D01*
G01X-164690Y288190D01*
X-165530Y286930D01*
Y286180D01*
X-187570D01*
G02X-190070Y288680I0J2500D01*
G01Y308220D01*
G02X-187570Y310720I2500J0D01*
G01X-166990D01*
X-165530Y309260D01*
Y309060D01*
X-162710Y307890D01*
G03X-160200Y308250I949J2312D01*
G37*
G36*
G01X-170000Y237850D02*
G02Y257450I-7800J9800D01*
G03X-167490Y257090I1561J1952D01*
G01X-165510Y257910D01*
X-164670Y259170D01*
Y259920D01*
X-142630D01*
G02X-140130Y257420I0J-2500D01*
G01Y237880D01*
G02X-142630Y235380I-2500J0D01*
G01X-163210D01*
X-164670Y236840D01*
Y237040D01*
X-167490Y238210D01*
G03X-170000Y237850I-949J-2312D01*
G37*
G36*
G01Y142600D02*
G02Y162200I-7800J9800D01*
G03X-167490Y161840I1561J1952D01*
G01X-165510Y162660D01*
X-164670Y163920D01*
Y164670D01*
X-142630D01*
G02X-140130Y162170I0J-2500D01*
G01Y142630D01*
G02X-142630Y140130I-2500J0D01*
G01X-163210D01*
X-164670Y141590D01*
Y141790D01*
X-167490Y142960D01*
G03X-170000Y142600I-949J-2312D01*
G37*
G36*
G01Y91800D02*
G02Y111400I-7800J9800D01*
G03X-167490Y111040I1561J1952D01*
G01X-165510Y111860D01*
X-164670Y113120D01*
Y113870D01*
X-142630D01*
G02X-140130Y111370I0J-2500D01*
G01Y91830D01*
G02X-142630Y89330I-2500J0D01*
G01X-163210D01*
X-164670Y90790D01*
Y90990D01*
X-167490Y92160D01*
G03X-170000Y91800I-949J-2312D01*
G37*
G36*
G01X-160200Y35200D02*
G02Y15600I7800J-9800D01*
G03X-162710Y15960I-1561J-1952D01*
G01X-164690Y15140D01*
X-165530Y13880D01*
Y13130D01*
X-187570D01*
G02X-190070Y15630I0J2500D01*
G01Y35170D01*
G02X-187570Y37670I2500J0D01*
G01X-166990D01*
X-165530Y36210D01*
Y36010D01*
X-162710Y34840D01*
G03X-160200Y35200I949J2312D01*
G37*
G36*
G01X8310Y9020D02*
G02X-8310I-8310J-9020D01*
G03X-7510Y10860I-1701J1834D01*
G01Y14540D01*
G03X-8310Y16380I-2501J6D01*
G02X-9490Y33170I8312J9021D01*
G03X-9110Y35690I-1938J1581D01*
G01X-9620Y36970D01*
G03X-11940Y38530I-2317J-941D01*
G01X-12270D01*
Y61610D01*
X-10810Y63070D01*
X-10250D01*
X-9110Y65910D01*
G03X-9490Y68430I-2318J939D01*
G02X-8310Y85220I9492J7769D01*
G03X-7510Y87060I-1701J1834D01*
G01Y90740D01*
G03X-8310Y92580I-2501J6D01*
G02Y110620I8310J9020D01*
G03X-7510Y112460I-1701J1834D01*
G01Y116140D01*
G03X-8310Y117980I-2501J6D01*
G02Y136020I8310J9020D01*
G03X-7510Y137860I-1701J1834D01*
G01Y141540D01*
G03X-8310Y143380I-2501J6D01*
G02Y161420I8310J9020D01*
G03X-7510Y163260I-1701J1834D01*
G01Y166940D01*
G03X-8310Y168780I-2501J6D01*
G02Y186820I8310J9020D01*
G03X-7510Y188660I-1701J1834D01*
G01Y192340D01*
G03X-8310Y194180I-2501J6D01*
G02Y212220I8310J9020D01*
G03X-7510Y214060I-1701J1834D01*
G01Y217740D01*
G03X-8310Y219580I-2501J6D01*
G02Y237620I8310J9020D01*
G03X-7510Y239460I-1701J1834D01*
G01Y243140D01*
G03X-8310Y244980I-2501J6D01*
G02Y263020I8310J9020D01*
G03X-7510Y264860I-1701J1834D01*
G01Y268540D01*
G03X-8310Y270380I-2501J6D01*
G02X-9490Y287170I8312J9021D01*
G03X-9110Y289690I-1938J1581D01*
G01X-9620Y290970D01*
G03X-11940Y292530I-2317J-941D01*
G01X-12270D01*
Y315610D01*
X-10810Y317070D01*
X-10250D01*
X-9110Y319910D01*
G03X-9490Y322430I-2318J939D01*
G02X-8310Y339220I9492J7769D01*
G03X-7510Y341060I-1701J1834D01*
G01Y344740D01*
G03X-8310Y346580I-2501J6D01*
G02Y364620I8310J9020D01*
G03X-7510Y366460I-1701J1834D01*
G01Y370140D01*
G03X-8310Y371980I-2501J6D01*
G02Y390020I8310J9020D01*
G03X-7510Y391860I-1701J1834D01*
G01Y395540D01*
G03X-8310Y397380I-2501J6D01*
G02Y415420I8310J9020D01*
G03X-7510Y417260I-1701J1834D01*
G01Y420940D01*
G03X-8310Y422780I-2501J6D01*
G02Y440820I8310J9020D01*
G03X-7510Y442660I-1701J1834D01*
G01Y446340D01*
G03X-8310Y448180I-2501J6D01*
G02Y466220I8310J9020D01*
G03X-7510Y468060I-1701J1834D01*
G01Y471740D01*
G03X-8310Y473580I-2501J6D01*
G02Y491620I8310J9020D01*
G03X-7510Y493460I-1701J1834D01*
G01Y497140D01*
G03X-8310Y498980I-2501J6D01*
G02Y517020I8310J9020D01*
G03X-7510Y518860I-1701J1834D01*
G01Y522540D01*
G03X-8310Y524380I-2501J6D01*
G02X-9490Y541170I8312J9021D01*
G03X-9110Y543690I-1938J1581D01*
G01X-9620Y544970D01*
G03X-11940Y546530I-2317J-941D01*
G01X-12270D01*
Y569610D01*
X-10810Y571070D01*
X-10250D01*
X-9110Y573910D01*
G03X-9490Y576430I-2318J939D01*
G02X-8310Y593220I9492J7769D01*
G03X-7510Y595060I-1701J1834D01*
G01Y598740D01*
G03X-8310Y600580I-2501J6D01*
G02Y618620I8310J9020D01*
G03X-7510Y620460I-1701J1834D01*
G01Y624140D01*
G03X-8310Y625980I-2501J6D01*
G02Y644020I8310J9020D01*
G03X-7510Y645860I-1701J1834D01*
G01Y649540D01*
G03X-8310Y651380I-2501J6D01*
G02Y669420I8310J9020D01*
G03X-7510Y671260I-1701J1834D01*
G01Y674940D01*
G03X-8310Y676780I-2501J6D01*
G02Y694820I8310J9020D01*
G03X-7510Y696660I-1701J1834D01*
G01Y700340D01*
G03X-8310Y702180I-2501J6D01*
G02Y720220I8310J9020D01*
G03X-7510Y722060I-1701J1834D01*
G01Y725740D01*
G03X-8310Y727580I-2501J6D01*
G02Y745620I8310J9020D01*
G03X-7510Y747460I-1701J1834D01*
G01Y751140D01*
G03X-8310Y752980I-2501J6D01*
G02X-9490Y769770I8312J9021D01*
G03X-9110Y772290I-1938J1581D01*
G01X-9620Y773570D01*
G03X-11940Y775130I-2317J-941D01*
G01X-12270D01*
Y797170D01*
G02X-9770Y799670I2500J0D01*
G01X9770D01*
G02X12270Y797170I0J-2500D01*
G01Y776590D01*
X10810Y775130D01*
X10250D01*
X9110Y772290D01*
G03X9490Y769770I2318J-939D01*
G02X8310Y752980I-9492J-7769D01*
G03X7510Y751140I1701J-1834D01*
G01Y747460D01*
G03X8310Y745620I2501J-6D01*
G02Y727580I-8310J-9020D01*
G03X7510Y725740I1701J-1834D01*
G01Y722060D01*
G03X8310Y720220I2501J-6D01*
G02Y702180I-8310J-9020D01*
G03X7510Y700340I1701J-1834D01*
G01Y696660D01*
G03X8310Y694820I2501J-6D01*
G02Y676780I-8310J-9020D01*
G03X7510Y674940I1701J-1834D01*
G01Y671260D01*
G03X8310Y669420I2501J-6D01*
G02Y651380I-8310J-9020D01*
G03X7510Y649540I1701J-1834D01*
G01Y645860D01*
G03X8310Y644020I2501J-6D01*
G02Y625980I-8310J-9020D01*
G03X7510Y624140I1701J-1834D01*
G01Y620460D01*
G03X8310Y618620I2501J-6D01*
G02Y600580I-8310J-9020D01*
G03X7510Y598740I1701J-1834D01*
G01Y595060D01*
G03X8310Y593220I2501J-6D01*
G02X9490Y576430I-8312J-9021D01*
G03X9110Y573910I1938J-1581D01*
G01X9620Y572630D01*
G03X11940Y571070I2317J941D01*
G01X12270D01*
Y547990D01*
X10810Y546530D01*
X10250D01*
X9110Y543690D01*
G03X9490Y541170I2318J-939D01*
G02X8310Y524380I-9492J-7769D01*
G03X7510Y522540I1701J-1834D01*
G01Y518860D01*
G03X8310Y517020I2501J-6D01*
G02Y498980I-8310J-9020D01*
G03X7510Y497140I1701J-1834D01*
G01Y493460D01*
G03X8310Y491620I2501J-6D01*
G02Y473580I-8310J-9020D01*
G03X7510Y471740I1701J-1834D01*
G01Y468060D01*
G03X8310Y466220I2501J-6D01*
G02Y448180I-8310J-9020D01*
G03X7510Y446340I1701J-1834D01*
G01Y442660D01*
G03X8310Y440820I2501J-6D01*
G02Y422780I-8310J-9020D01*
G03X7510Y420940I1701J-1834D01*
G01Y417260D01*
G03X8310Y415420I2501J-6D01*
G02Y397380I-8310J-9020D01*
G03X7510Y395540I1701J-1834D01*
G01Y391860D01*
G03X8310Y390020I2501J-6D01*
G02Y371980I-8310J-9020D01*
G03X7510Y370140I1701J-1834D01*
G01Y366460D01*
G03X8310Y364620I2501J-6D01*
G02Y346580I-8310J-9020D01*
G03X7510Y344740I1701J-1834D01*
G01Y341060D01*
G03X8310Y339220I2501J-6D01*
G02X9490Y322430I-8312J-9021D01*
G03X9110Y319910I1938J-1581D01*
G01X9620Y318630D01*
G03X11940Y317070I2317J941D01*
G01X12270D01*
Y293990D01*
X10810Y292530D01*
X10250D01*
X9110Y289690D01*
G03X9490Y287170I2318J-939D01*
G02X8310Y270380I-9492J-7769D01*
G03X7510Y268540I1701J-1834D01*
G01Y264860D01*
G03X8310Y263020I2501J-6D01*
G02Y244980I-8310J-9020D01*
G03X7510Y243140I1701J-1834D01*
G01Y239460D01*
G03X8310Y237620I2501J-6D01*
G02Y219580I-8310J-9020D01*
G03X7510Y217740I1701J-1834D01*
G01Y214060D01*
G03X8310Y212220I2501J-6D01*
G02Y194180I-8310J-9020D01*
G03X7510Y192340I1701J-1834D01*
G01Y188660D01*
G03X8310Y186820I2501J-6D01*
G02Y168780I-8310J-9020D01*
G03X7510Y166940I1701J-1834D01*
G01Y163260D01*
G03X8310Y161420I2501J-6D01*
G02Y143380I-8310J-9020D01*
G03X7510Y141540I1701J-1834D01*
G01Y137860D01*
G03X8310Y136020I2501J-6D01*
G02Y117980I-8310J-9020D01*
G03X7510Y116140I1701J-1834D01*
G01Y112460D01*
G03X8310Y110620I2501J-6D01*
G02Y92580I-8310J-9020D01*
G03X7510Y90740I1701J-1834D01*
G01Y87060D01*
G03X8310Y85220I2501J-6D01*
G02X9490Y68430I-8312J-9021D01*
G03X9110Y65910I1938J-1581D01*
G01X9620Y64630D01*
G03X11940Y63070I2317J941D01*
G01X12270D01*
Y39990D01*
X10810Y38530D01*
X10250D01*
X9110Y35690D01*
G03X9490Y33170I2318J-939D01*
G02X8310Y16380I-9492J-7769D01*
G03X7510Y14540I1701J-1834D01*
G01Y10860D01*
G03X8310Y9020I2501J-6D01*
G37*
G36*
G01X-170000Y-35200D02*
G02Y-15600I-7800J9800D01*
G03X-167490Y-15960I1561J1952D01*
G01X-165510Y-15140D01*
X-164670Y-13880D01*
Y-13130D01*
X-142630D01*
G02X-140130Y-15630I0J-2500D01*
G01Y-35170D01*
G02X-142630Y-37670I-2500J0D01*
G01X-163210D01*
X-164670Y-36210D01*
Y-36010D01*
X-167490Y-34840D01*
G03X-170000Y-35200I-949J-2312D01*
G37*
G36*
G01X-131070Y1148570D02*
X-110530D01*
G02X-109530Y1147570I0J-1000D01*
G01Y1127030D01*
G02X-110530Y1126030I-1000J0D01*
G01X-131070D01*
G02X-132070Y1127030I0J1000D01*
G01Y1147570D01*
G02X-131070Y1148570I1000J0D01*
G37*
G36*
G01X2430Y995520D02*
X22970D01*
G02X23970Y994520I0J-1000D01*
G01Y973980D01*
G02X22970Y972980I-1000J0D01*
G01X2430D01*
G02X1430Y973980I0J1000D01*
G01Y994520D01*
G02X2430Y995520I1000J0D01*
G37*
G54D21*
X-190500Y850900D03*
G54D23*
X-70000Y1162700D03*
Y1137300D03*
X-95400Y1162700D03*
Y1137300D03*
X-120800Y1162700D03*
X12700Y1009650D03*
X-19200Y1162700D03*
Y1137300D03*
X-44600Y1162700D03*
Y1137300D03*
G54D22*
X-139800Y1274500D03*
X-88800Y1265500D03*
%LPD*%
G75*
G36*
G01X-122480Y690880D02*
X-117000Y685900D01*
X-110940Y691650D01*
X-117000Y697400D01*
X-122480Y692420D01*
G03Y690880I990J-770D01*
G37*
G36*
G01X-126670Y692530D02*
X-129320Y695180D01*
X-133160Y691650D01*
X-129320Y688120D01*
X-126670Y690770D01*
G03Y692530I-880J880D01*
G37*
G36*
G01X-127170Y705730D02*
X-129820Y708380D01*
X-133660Y704850D01*
X-129820Y701320D01*
X-127170Y703970D01*
G03Y705730I-880J880D01*
G37*
G36*
G01Y718430D02*
X-129820Y721080D01*
X-133660Y717550D01*
X-129820Y714020D01*
X-127170Y716670D01*
G03Y718430I-880J880D01*
G37*
G36*
G01X-122480Y729980D02*
X-117000Y725000D01*
X-110940Y730750D01*
X-117000Y736500D01*
X-122480Y731520D01*
G03Y729980I990J-770D01*
G37*
G36*
G01X-126670Y731630D02*
X-129320Y734280D01*
X-133160Y730750D01*
X-129320Y727220D01*
X-126670Y729870D01*
G03Y731630I-880J880D01*
G37*
G36*
G01X-122480Y754380D02*
X-117000Y749400D01*
X-110940Y755150D01*
X-117000Y760900D01*
X-122480Y755920D01*
G03Y754380I990J-770D01*
G37*
G36*
G01X-126670Y756030D02*
X-129320Y758680D01*
X-133160Y755150D01*
X-129320Y751620D01*
X-126670Y754270D01*
G03Y756030I-880J880D01*
G37*
G36*
G01X-127170Y769230D02*
X-129820Y771880D01*
X-133660Y768350D01*
X-129820Y764820D01*
X-127170Y767470D01*
G03Y769230I-880J880D01*
G37*
G36*
G01Y781930D02*
X-129820Y784580D01*
X-133660Y781050D01*
X-129820Y777520D01*
X-127170Y780170D01*
G03Y781930I-880J880D01*
G37*
G36*
G01X-122480Y793480D02*
X-117000Y788500D01*
X-110940Y794250D01*
X-117000Y800000D01*
X-122480Y795020D01*
G03Y793480I990J-770D01*
G37*
G36*
G01X-126670Y795130D02*
X-129320Y797780D01*
X-133160Y794250D01*
X-129320Y790720D01*
X-126670Y793370D01*
G03Y795130I-880J880D01*
G37*
G36*
G01X-113970Y1646030D02*
X-116620Y1648680D01*
X-120460Y1645150D01*
X-116620Y1641620D01*
X-113970Y1644270D01*
G03Y1646030I-880J880D01*
G37*
G36*
G01X-116130Y1644380D02*
X-110650Y1639400D01*
X-104590Y1645150D01*
X-110650Y1650900D01*
X-116130Y1645920D01*
G03Y1644380I990J-770D01*
G37*
G36*
G01X-114470Y1632830D02*
X-117120Y1635480D01*
X-120960Y1631950D01*
X-117120Y1628420D01*
X-114470Y1631070D01*
G03Y1632830I-880J880D01*
G37*
G36*
G01Y1620130D02*
X-117120Y1622780D01*
X-120960Y1619250D01*
X-117120Y1615720D01*
X-114470Y1618370D01*
G03Y1620130I-880J880D01*
G37*
G36*
G01X-113970Y1606930D02*
X-116620Y1609580D01*
X-120460Y1606050D01*
X-116620Y1602520D01*
X-113970Y1605170D01*
G03Y1606930I-880J880D01*
G37*
G36*
G01X-116130Y1605280D02*
X-110650Y1600300D01*
X-104590Y1606050D01*
X-110650Y1611800D01*
X-116130Y1606820D01*
G03Y1605280I990J-770D01*
G37*
G36*
G01X-113970Y1709530D02*
X-116620Y1712180D01*
X-120460Y1708650D01*
X-116620Y1705120D01*
X-113970Y1707770D01*
G03Y1709530I-880J880D01*
G37*
G36*
G01X-116130Y1707880D02*
X-110650Y1702900D01*
X-104590Y1708650D01*
X-110650Y1714400D01*
X-116130Y1709420D01*
G03Y1707880I990J-770D01*
G37*
G36*
G01X-114470Y1696330D02*
X-117120Y1698980D01*
X-120960Y1695450D01*
X-117120Y1691920D01*
X-114470Y1694570D01*
G03Y1696330I-880J880D01*
G37*
G36*
G01Y1683630D02*
X-117120Y1686280D01*
X-120960Y1682750D01*
X-117120Y1679220D01*
X-114470Y1681870D01*
G03Y1683630I-880J880D01*
G37*
G36*
G01X-113970Y1670430D02*
X-116620Y1673080D01*
X-120460Y1669550D01*
X-116620Y1666020D01*
X-113970Y1668670D01*
G03Y1670430I-880J880D01*
G37*
G36*
G01X-116130Y1668780D02*
X-110650Y1663800D01*
X-104590Y1669550D01*
X-110650Y1675300D01*
X-116130Y1670320D01*
G03Y1668780I990J-770D01*
G37*
G36*
G01X-113970Y1766680D02*
X-116620Y1769330D01*
X-120460Y1765800D01*
X-116620Y1762270D01*
X-113970Y1764920D01*
G03Y1766680I-880J880D01*
G37*
G36*
G01X-116130Y1765030D02*
X-110650Y1760050D01*
X-104590Y1765800D01*
X-110650Y1771550D01*
X-116130Y1766570D01*
G03Y1765030I990J-770D01*
G37*
G36*
G01X-114470Y1753480D02*
X-117120Y1756130D01*
X-120960Y1752600D01*
X-117120Y1749070D01*
X-114470Y1751720D01*
G03Y1753480I-880J880D01*
G37*
G36*
G01Y1740780D02*
X-117120Y1743430D01*
X-120960Y1739900D01*
X-117120Y1736370D01*
X-114470Y1739020D01*
G03Y1740780I-880J880D01*
G37*
G36*
G01X-113970Y1727580D02*
X-116620Y1730230D01*
X-120460Y1726700D01*
X-116620Y1723170D01*
X-113970Y1725820D01*
G03Y1727580I-880J880D01*
G37*
G36*
G01X-116130Y1725930D02*
X-110650Y1720950D01*
X-104590Y1726700D01*
X-110650Y1732450D01*
X-116130Y1727470D01*
G03Y1725930I990J-770D01*
G37*
G36*
G01X-114470Y1797930D02*
X-117120Y1800580D01*
X-120960Y1797050D01*
X-117120Y1793520D01*
X-114470Y1796170D01*
G03Y1797930I-880J880D01*
G37*
G36*
G01X-113970Y1784730D02*
X-116620Y1787380D01*
X-120460Y1783850D01*
X-116620Y1780320D01*
X-113970Y1782970D01*
G03Y1784730I-880J880D01*
G37*
G36*
G01X-116130Y1783080D02*
X-110650Y1778100D01*
X-104590Y1783850D01*
X-110650Y1789600D01*
X-116130Y1784620D01*
G03Y1783080I990J-770D01*
G37*
G36*
G01X-114470Y1867780D02*
X-117120Y1870430D01*
X-120960Y1866900D01*
X-117120Y1863370D01*
X-114470Y1866020D01*
G03Y1867780I-880J880D01*
G37*
G36*
G01X-113970Y1841880D02*
X-116620Y1844530D01*
X-120460Y1841000D01*
X-116620Y1837470D01*
X-113970Y1840120D01*
G03Y1841880I-880J880D01*
G37*
G36*
G01X-116130Y1840230D02*
X-110650Y1835250D01*
X-104590Y1841000D01*
X-110650Y1846750D01*
X-116130Y1841770D01*
G03Y1840230I990J-770D01*
G37*
G36*
G01X-114470Y1855080D02*
X-117120Y1857730D01*
X-120960Y1854200D01*
X-117120Y1850670D01*
X-114470Y1853320D01*
G03Y1855080I-880J880D01*
G37*
G36*
G01X-113970Y1823830D02*
X-116620Y1826480D01*
X-120460Y1822950D01*
X-116620Y1819420D01*
X-113970Y1822070D01*
G03Y1823830I-880J880D01*
G37*
G36*
G01X-116130Y1822180D02*
X-110650Y1817200D01*
X-104590Y1822950D01*
X-110650Y1828700D01*
X-116130Y1823720D01*
G03Y1822180I990J-770D01*
G37*
G36*
G01X-114470Y1810630D02*
X-117120Y1813280D01*
X-120960Y1809750D01*
X-117120Y1806220D01*
X-114470Y1808870D01*
G03Y1810630I-880J880D01*
G37*
G36*
G01Y1938130D02*
X-117120Y1940780D01*
X-120960Y1937250D01*
X-117120Y1933720D01*
X-114470Y1936370D01*
G03Y1938130I-880J880D01*
G37*
G36*
G01X-116130Y1936480D02*
X-110650Y1931500D01*
X-104590Y1937250D01*
X-110650Y1943000D01*
X-116130Y1938020D01*
G03Y1936480I990J-770D01*
G37*
G36*
G01X-114470Y1924930D02*
X-117120Y1927580D01*
X-120960Y1924050D01*
X-117120Y1920520D01*
X-114470Y1923170D01*
G03Y1924930I-880J880D01*
G37*
G36*
G01Y1912230D02*
X-117120Y1914880D01*
X-120960Y1911350D01*
X-117120Y1907820D01*
X-114470Y1910470D01*
G03Y1912230I-880J880D01*
G37*
G36*
G01X-113970Y1899030D02*
X-116620Y1901680D01*
X-120460Y1898150D01*
X-116620Y1894620D01*
X-113970Y1897270D01*
G03Y1899030I-880J880D01*
G37*
G36*
G01X-116130Y1897380D02*
X-110650Y1892400D01*
X-104590Y1898150D01*
X-110650Y1903900D01*
X-116130Y1898920D01*
G03Y1897380I990J-770D01*
G37*
G36*
G01X-113970Y1880980D02*
X-116620Y1883630D01*
X-120460Y1880100D01*
X-116620Y1876570D01*
X-113970Y1879220D01*
G03Y1880980I-880J880D01*
G37*
G36*
G01X-116130Y1879330D02*
X-110650Y1874350D01*
X-104590Y1880100D01*
X-110650Y1885850D01*
X-116130Y1880870D01*
G03Y1879330I990J-770D01*
G37*
G36*
G01X-113970Y1995280D02*
X-116620Y1997930D01*
X-120460Y1994400D01*
X-116620Y1990870D01*
X-113970Y1993520D01*
G03Y1995280I-880J880D01*
G37*
G36*
G01X-116130Y1993630D02*
X-110650Y1988650D01*
X-104590Y1994400D01*
X-110650Y2000150D01*
X-116130Y1995170D01*
G03Y1993630I990J-770D01*
G37*
G36*
G01X-114470Y1982080D02*
X-117120Y1984730D01*
X-120960Y1981200D01*
X-117120Y1977670D01*
X-114470Y1980320D01*
G03Y1982080I-880J880D01*
G37*
G36*
G01Y1969380D02*
X-117120Y1972030D01*
X-120960Y1968500D01*
X-117120Y1964970D01*
X-114470Y1967620D01*
G03Y1969380I-880J880D01*
G37*
G36*
G01X-113970Y1956180D02*
X-116620Y1958830D01*
X-120460Y1955300D01*
X-116620Y1951770D01*
X-113970Y1954420D01*
G03Y1956180I-880J880D01*
G37*
G36*
G01X-116130Y1954530D02*
X-110650Y1949550D01*
X-104590Y1955300D01*
X-110650Y1961050D01*
X-116130Y1956070D01*
G03Y1954530I990J-770D01*
G37*
G54D10*
X-217640Y-54290D03*
Y47310D03*
Y148910D03*
X-218000Y234000D03*
X-217640Y352110D03*
Y453710D03*
Y555310D03*
Y656910D03*
X-215900Y787400D03*
X-222250Y869950D03*
Y990600D03*
Y1092200D03*
Y1155700D03*
Y1219200D03*
X-217640Y1323420D03*
Y1425020D03*
Y1526620D03*
Y1628220D03*
Y1729820D03*
Y1831420D03*
Y1933020D03*
Y2034620D03*
Y2136220D03*
X-198630Y9800D03*
X-133350Y190500D03*
Y273050D03*
Y323850D03*
X-165100Y387350D03*
X-171450Y533400D03*
Y565150D03*
X-140000Y610000D03*
X-165100Y622300D03*
X-203200Y609600D03*
X-165100Y685800D03*
X-203200Y711200D03*
X-132850Y691650D03*
X-133350Y704850D03*
Y717550D03*
X-132850Y730750D03*
X-158750Y800100D03*
X-132850Y755150D03*
X-133350Y768350D03*
Y781050D03*
X-132850Y794250D03*
X-154000Y871000D03*
X-165100Y844550D03*
X-196850Y819150D03*
X-177800Y901700D03*
X-176060Y928830D03*
X-174150Y971080D03*
X-158750Y996950D03*
X-177800Y1047750D03*
X-174150Y1104330D03*
X-177800Y1149350D03*
X-161950Y1177400D03*
X-146050Y1130300D03*
X-158750Y1219200D03*
X-184150Y1231900D03*
X-190500Y1257300D03*
X-184150Y1301750D03*
X-139700D03*
X-165100Y1377950D03*
Y2006600D03*
Y2057400D03*
Y2108200D03*
X-184150Y2152650D03*
X-139700Y2197100D03*
X-184150D03*
X-114070Y-46520D03*
X-118260Y-75400D03*
X-63500Y-19050D03*
X-127000Y0D03*
X-63500Y12700D03*
X-102240Y41920D03*
X-69850Y69850D03*
X-127000Y88900D03*
Y114300D03*
X-69850Y127000D03*
X-95250Y146050D03*
X-127000Y158750D03*
X-69850Y222250D03*
X-100000Y332000D03*
X-69850Y323850D03*
X-114300Y361950D03*
X-69850Y393700D03*
Y469900D03*
Y539750D03*
X-107950Y533400D03*
X-114300Y635000D03*
Y660400D03*
X-95000Y808000D03*
X-76200Y844550D03*
X-88900Y863600D03*
X-69850D03*
X-114000Y932000D03*
Y964000D03*
X-101600Y1047750D03*
X-107950Y1092200D03*
Y1181100D03*
X-57150D03*
X-63500Y1257300D03*
X-88900Y1212850D03*
X-114300Y1250950D03*
X-107950Y1308100D03*
X-57150D03*
X-120650Y1352550D03*
X-114300Y1397000D03*
X-63500Y1346200D03*
X-69850Y1384300D03*
X-120150Y1645150D03*
X-120650Y1631950D03*
Y1619250D03*
X-120150Y1606050D03*
Y1708650D03*
X-120650Y1695450D03*
Y1682750D03*
X-120150Y1669550D03*
Y1765800D03*
X-120650Y1752600D03*
Y1739900D03*
X-120150Y1726700D03*
X-120650Y1797050D03*
X-120150Y1783850D03*
X-120650Y1866900D03*
X-120150Y1841000D03*
X-120650Y1854200D03*
X-120150Y1822950D03*
X-120650Y1809750D03*
Y1937250D03*
Y1924050D03*
Y1911350D03*
X-120150Y1898150D03*
Y1880100D03*
X-95250Y2025650D03*
X-120150Y1994400D03*
X-120650Y1981200D03*
Y1968500D03*
X-120150Y1955300D03*
X-95250Y2082800D03*
X-16660Y-75400D03*
X-25400Y44450D03*
Y101600D03*
Y158750D03*
Y298450D03*
Y374650D03*
Y438150D03*
Y533400D03*
Y800100D03*
X19050Y876300D03*
X-22760Y833580D03*
X-44000Y932000D03*
X-44450Y965200D03*
X-38100Y1047750D03*
Y1092200D03*
X2470Y1177070D03*
X-12700Y1212850D03*
X-6350Y1314450D03*
X-12700Y1276350D03*
X-25400Y2006600D03*
Y2057400D03*
Y2108200D03*
X-6350Y2152650D03*
X0Y2197100D03*
X-38100D03*
X27140Y-15320D03*
Y86280D03*
Y187880D03*
Y289480D03*
Y391080D03*
Y492680D03*
Y594280D03*
Y695880D03*
Y797480D03*
Y928970D03*
X25400Y1041400D03*
X27000Y1094270D03*
X25400Y1149350D03*
Y1250950D03*
Y1219200D03*
X27140Y1318170D03*
Y1419770D03*
Y1521370D03*
Y1622970D03*
Y1724570D03*
Y1826170D03*
Y1927770D03*
Y2029370D03*
Y2130970D03*
G54D20*
G01X-177800Y442180D02*
Y457200D01*
G01D02*
Y472220D01*
G01X-192820Y457200D02*
X-177800D01*
G01X-190920Y444080D02*
X-177800Y457200D01*
G01X-152400Y442430D02*
Y457200D01*
G01D02*
Y471970D01*
G01Y457200D02*
X-137630D01*
G01X-167170Y442430D02*
X-152400Y457200D01*
G01X-205270Y1384300D02*
X-190500D01*
G01D02*
X-175730D01*
G01X-203440Y1371360D02*
X-190500Y1384300D01*
G01D02*
X-177560Y1397240D01*
G01X-154470Y1384300D02*
X-139700D01*
G01D02*
X-124930D01*
G01X-152640Y1371360D02*
X-139700Y1384300D01*
G01D02*
X-126760Y1397240D01*
G01X-79250Y678880D02*
Y691650D01*
G01X-92020D02*
X-79250D01*
G01D02*
X-66480D01*
G01X-92020Y717550D02*
X-79250D01*
G01D02*
X-66480D01*
G01X-92020Y704850D02*
X-79250D01*
G01D02*
X-66480D01*
G01X-79250Y794250D02*
Y807020D01*
G01X-92020Y794250D02*
X-79250D01*
G01D02*
X-66480D01*
G01X-92020Y755150D02*
X-79250D01*
G01D02*
X-66480D01*
G01X-92020Y730750D02*
X-79250D01*
G01D02*
X-66480D01*
G01X-92020Y781050D02*
X-79250D01*
G01D02*
X-66480D01*
G01X-92020Y768350D02*
X-79250D01*
G01D02*
X-66480D01*
G01X-65570Y1384300D02*
X-50800D01*
G01X-65570Y1369530D02*
X-50800Y1384300D01*
G01X-85670Y1632380D02*
X-72900Y1645150D01*
G01Y1593280D02*
Y1606050D01*
G01X-85670D02*
X-72900D01*
G01X-85670Y1631950D02*
X-72900D01*
G01X-85670Y1620290D02*
X-72900Y1631950D01*
G01X-85670Y1619250D02*
X-72900D01*
G01X-85670Y1607590D02*
X-72900Y1619250D01*
G01X-85670Y1713930D02*
X-72900Y1726700D01*
G01X-85670Y1708650D02*
X-72900D01*
G01X-85670Y1695880D02*
X-72900Y1708650D01*
G01X-85670Y1669550D02*
X-72900D01*
G01X-85670Y1656780D02*
X-72900Y1669550D01*
G01X-85670Y1645150D02*
X-72900D01*
G01X-85670Y1695450D02*
X-72900D01*
G01X-85670Y1683790D02*
X-72900Y1695450D01*
G01X-85670Y1682750D02*
X-72900D01*
G01X-85670Y1671090D02*
X-72900Y1682750D01*
G01X-85670Y1783850D02*
X-72900D01*
G01X-85670Y1771080D02*
X-72900Y1783850D01*
G01X-85670Y1765800D02*
X-72900D01*
G01X-85670Y1753030D02*
X-72900Y1765800D01*
G01X-85670Y1726700D02*
X-72900D01*
G01X-85670Y1752600D02*
X-72900D01*
G01X-85670Y1740940D02*
X-72900Y1752600D01*
G01X-85670Y1739900D02*
X-72900D01*
G01X-85670Y1728240D02*
X-72900Y1739900D01*
G01X-85670Y1785390D02*
X-72900Y1797050D01*
G01X-85670Y1867330D02*
X-72900Y1880100D01*
G01X-85670Y1822950D02*
X-72900D01*
G01X-85670Y1810180D02*
X-72900Y1822950D01*
G01X-85670Y1841000D02*
X-72900D01*
G01X-85670Y1828230D02*
X-72900Y1841000D01*
G01X-85670Y1866900D02*
X-72900D01*
G01X-85670Y1855240D02*
X-72900Y1866900D01*
G01X-85670Y1854200D02*
X-72900D01*
G01X-85670Y1842540D02*
X-72900Y1854200D01*
G01X-85670Y1809750D02*
X-72900D01*
G01X-85670Y1798090D02*
X-72900Y1809750D01*
G01X-85670Y1797050D02*
X-72900D01*
G01X-85670Y1942530D02*
X-72900Y1955300D01*
G01X-85670Y1880100D02*
X-72900D01*
G01X-85670Y1937250D02*
X-72900D01*
G01X-85670Y1924480D02*
X-72900Y1937250D01*
G01X-85670Y1898150D02*
X-72900D01*
G01X-85670Y1885380D02*
X-72900Y1898150D01*
G01X-85670Y1924050D02*
X-72900D01*
G01X-85670Y1912390D02*
X-72900Y1924050D01*
G01X-85670Y1911350D02*
X-72900D01*
G01X-85670Y1899690D02*
X-72900Y1911350D01*
G01X-63740Y2006840D02*
X-50800Y1993900D01*
G01X-72900Y1994400D02*
Y2007170D01*
G01X-85670Y1994400D02*
X-72900D01*
G01X-85670Y1955300D02*
X-72900D01*
G01X-85670Y1981200D02*
X-72900D01*
G01X-85670Y1969540D02*
X-72900Y1981200D01*
G01X-85670Y1968500D02*
X-72900D01*
G01X-85670Y1956840D02*
X-72900Y1968500D01*
G01X-102020Y2171280D02*
X-88900Y2184400D01*
G01Y2144230D02*
Y2159000D01*
G01X-103670D02*
X-88900D01*
G01D02*
X-74130D01*
G01X-103670Y2144230D02*
X-88900Y2159000D01*
G01Y2184400D02*
Y2199420D01*
G01X-103920Y2184400D02*
X-88900D01*
G01D02*
X-73880D01*
G01X12700Y997130D02*
Y1009650D01*
G01D02*
Y1022170D01*
G01X180Y1009650D02*
X12700D01*
G01D02*
X25220D01*
G01X12700Y971980D02*
Y984250D01*
G01D02*
Y996520D01*
G01X430Y984250D02*
X12700D01*
G01D02*
X24970D01*
G01X-19200Y1124780D02*
Y1137300D01*
G01D02*
Y1149820D01*
G01X-31720Y1137300D02*
X-19200D01*
G01D02*
X-6680D01*
G01X-14770Y1384300D02*
X0D01*
G01D02*
X14770D01*
G01X-14770Y1369530D02*
X0Y1384300D01*
G01D02*
X14770Y1399070D01*
G01X-50800Y1384300D02*
X-36030D01*
G01X-50800D02*
X-36030Y1399070D01*
G01X-14770Y1993900D02*
X0D01*
G01D02*
X14770D01*
G01X-12940Y1980960D02*
X0Y1993900D01*
G01D02*
X12940Y2006840D01*
G01X-50800Y1993900D02*
X-36030D01*
G01X-50800D02*
X-37860Y2006840D01*
G01X-50800Y1993900D02*
X-37860Y1980960D01*
G54D11*
X-215900Y1282700D03*
Y2171700D03*
X25400Y-50800D03*
Y838200D03*
Y1282700D03*
Y2171700D03*
G54D12*
X-152400Y-25400D03*
X-177800Y25400D03*
X-152400Y101600D03*
Y152400D03*
Y247650D03*
X-177800Y298450D03*
X-152400Y349250D03*
Y457200D03*
X-139700Y1333500D03*
X-190500D03*
X-139700Y1562100D03*
X-190500D03*
X-139700Y1816100D03*
X-190500D03*
X-139700Y2070100D03*
X-190500D03*
X-120800Y1137300D03*
X-88900Y2159000D03*
X-50800Y50800D03*
X0D03*
X-50800Y304800D03*
X0D03*
X-50800Y558800D03*
X0D03*
X-50800Y787400D03*
X0D03*
X12700Y984250D03*
X-50800Y1384300D03*
X0D03*
X-50800Y1638300D03*
X0D03*
X-50800Y1892300D03*
X0D03*
X-50800Y2120900D03*
X0D03*
G54D13*
X-177800Y-25400D03*
X-152400Y25400D03*
X-177800Y101600D03*
Y152400D03*
Y247650D03*
X-152400Y298450D03*
X-177800Y349250D03*
Y457200D03*
X-70000Y1162700D03*
Y1137300D03*
X-95400Y1162700D03*
Y1137300D03*
X-120800Y1162700D03*
X-88900Y2184400D03*
X12700Y1009650D03*
X-19200Y1162700D03*
Y1137300D03*
X-44600Y1162700D03*
Y1137300D03*
G54D14*
X-190500Y850900D03*
G54D15*
X-139800Y1274500D03*
X-88800Y1265500D03*
G54D16*
X-139700Y1409700D03*
Y1384300D03*
Y1358900D03*
X-190500Y1409700D03*
Y1384300D03*
Y1358900D03*
X-139700Y1485900D03*
Y1460500D03*
Y1435100D03*
X-190500Y1485900D03*
Y1460500D03*
Y1435100D03*
X-139700Y1536700D03*
Y1511300D03*
X-190500Y1536700D03*
Y1511300D03*
X-139700Y1638300D03*
Y1612900D03*
Y1587500D03*
X-190500Y1638300D03*
Y1612900D03*
Y1587500D03*
X-139700Y1714500D03*
Y1689100D03*
Y1663700D03*
X-190500Y1714500D03*
Y1689100D03*
Y1663700D03*
X-139700Y1790700D03*
Y1765300D03*
Y1739900D03*
X-190500Y1790700D03*
Y1765300D03*
Y1739900D03*
X-139700Y1866900D03*
Y1841500D03*
X-190500Y1866900D03*
Y1841500D03*
X-139700Y1943100D03*
Y1917700D03*
Y1892300D03*
X-190500Y1943100D03*
Y1917700D03*
Y1892300D03*
X-139700Y2019300D03*
Y1993900D03*
Y1968500D03*
X-190500Y2019300D03*
Y1993900D03*
Y1968500D03*
X-139700Y2095500D03*
Y2044700D03*
X-190500Y2095500D03*
Y2044700D03*
X-139700Y2120900D03*
X-190500D03*
X-50800Y0D03*
Y25400D03*
X0Y0D03*
Y25400D03*
X-50800Y76200D03*
Y101600D03*
Y127000D03*
X0Y76200D03*
Y101600D03*
Y127000D03*
X-50800Y152400D03*
Y177800D03*
Y203200D03*
X0Y152400D03*
Y177800D03*
Y203200D03*
X-50800Y228600D03*
Y254000D03*
Y279400D03*
X0Y228600D03*
Y254000D03*
Y279400D03*
X-50800Y330200D03*
Y355600D03*
X0Y330200D03*
Y355600D03*
X-50800Y381000D03*
Y406400D03*
Y431800D03*
X0Y381000D03*
Y406400D03*
Y431800D03*
X-50800Y457200D03*
Y482600D03*
Y508000D03*
X0Y457200D03*
Y482600D03*
Y508000D03*
X-50800Y533400D03*
Y584200D03*
X0Y533400D03*
Y584200D03*
X-50800Y609600D03*
Y635000D03*
Y660400D03*
X0Y609600D03*
Y635000D03*
Y660400D03*
X-50800Y685800D03*
Y711200D03*
Y736600D03*
X0Y685800D03*
Y711200D03*
Y736600D03*
X-50800Y762000D03*
X0D03*
X-50800Y1333500D03*
X0D03*
X-50800Y1358900D03*
Y1409700D03*
X0Y1358900D03*
Y1409700D03*
X-50800Y1435100D03*
Y1460500D03*
Y1485900D03*
X0Y1435100D03*
Y1460500D03*
Y1485900D03*
X-50800Y1511300D03*
Y1536700D03*
Y1562100D03*
X0Y1511300D03*
Y1536700D03*
Y1562100D03*
X-50800Y1587500D03*
Y1612900D03*
X0Y1587500D03*
Y1612900D03*
X-50800Y1663700D03*
Y1689100D03*
Y1714500D03*
X0Y1663700D03*
Y1689100D03*
Y1714500D03*
X-50800Y1739900D03*
Y1765300D03*
Y1790700D03*
X0Y1739900D03*
Y1765300D03*
Y1790700D03*
X-50800Y1816100D03*
Y1841500D03*
Y1866900D03*
X0Y1816100D03*
Y1841500D03*
Y1866900D03*
X-50800Y1917700D03*
Y1943100D03*
X0Y1917700D03*
Y1943100D03*
X-50800Y1968500D03*
Y1993900D03*
Y2019300D03*
X0Y1968500D03*
Y1993900D03*
Y2019300D03*
X-50800Y2044700D03*
Y2070100D03*
Y2095500D03*
X0Y2044700D03*
Y2070100D03*
Y2095500D03*
G54D17*
X-79250Y691650D03*
Y730750D03*
X-111250D03*
Y691650D03*
X-79250Y755150D03*
Y794250D03*
X-111250D03*
Y755150D03*
X-72900Y1606050D03*
Y1645150D03*
X-104900D03*
Y1606050D03*
X-72900Y1669550D03*
Y1708650D03*
X-104900D03*
Y1669550D03*
X-72900Y1726700D03*
Y1765800D03*
X-104900D03*
Y1726700D03*
X-72900Y1783850D03*
X-104900D03*
X-72900Y1841000D03*
X-104900D03*
X-72900Y1822950D03*
X-104900D03*
X-72900Y1898150D03*
Y1937250D03*
X-104900D03*
Y1898150D03*
X-72900Y1880100D03*
X-104900D03*
X-72900Y1955300D03*
Y1994400D03*
X-104900D03*
Y1955300D03*
G54D18*
X-79250Y704850D03*
Y717550D03*
X-111250D03*
Y704850D03*
X-79250Y768350D03*
Y781050D03*
X-111250D03*
Y768350D03*
X-72900Y1619250D03*
Y1631950D03*
X-104900D03*
Y1619250D03*
X-72900Y1682750D03*
Y1695450D03*
X-104900D03*
Y1682750D03*
X-72900Y1739900D03*
Y1752600D03*
X-104900D03*
Y1739900D03*
X-72900Y1797050D03*
X-104900D03*
X-72900Y1854200D03*
Y1866900D03*
X-104900D03*
Y1854200D03*
X-72900Y1809750D03*
X-104900D03*
X-72900Y1911350D03*
Y1924050D03*
X-104900D03*
Y1911350D03*
X-72900Y1968500D03*
Y1981200D03*
X-104900D03*
Y1968500D03*
G54D19*
G01X-111250Y691650D02*
X-132850D01*
G01X-111250Y704850D02*
X-133350D01*
G01X-111250Y717550D02*
X-133350D01*
G01X-111250Y730750D02*
X-132850D01*
G01X-111250Y755150D02*
X-132850D01*
G01X-111250Y768350D02*
X-133350D01*
G01X-111250Y781050D02*
X-133350D01*
G01X-111250Y794250D02*
X-132850D01*
G01X-104900Y1631950D02*
X-120650D01*
G01X-104900Y1619250D02*
X-120650D01*
G01X-104900Y1606050D02*
X-120150D01*
G01X-104900Y1645150D02*
X-120150D01*
G01X-104900Y1708650D02*
X-120150D01*
G01X-104900Y1695450D02*
X-120650D01*
G01X-104900Y1682750D02*
X-120650D01*
G01X-104900Y1669550D02*
X-120150D01*
G01X-104900Y1765800D02*
X-120150D01*
G01X-104900Y1752600D02*
X-120650D01*
G01X-104900Y1739900D02*
X-120650D01*
G01X-104900Y1726700D02*
X-120150D01*
G01X-104900Y1783850D02*
X-120150D01*
G01X-104900Y1866900D02*
X-120650D01*
G01X-104900Y1841000D02*
X-120150D01*
G01X-104900Y1854200D02*
X-120650D01*
G01X-104900Y1822950D02*
X-120150D01*
G01X-104900Y1809750D02*
X-120650D01*
G01X-104900Y1797050D02*
X-120650D01*
G01X-104900Y1937250D02*
X-120650D01*
G01X-104900Y1924050D02*
X-120650D01*
G01X-104900Y1911350D02*
X-120650D01*
G01X-104900Y1898150D02*
X-120150D01*
G01X-104900Y1880100D02*
X-120150D01*
G01X-104900Y1994400D02*
X-120150D01*
G01X-104900Y1981200D02*
X-120650D01*
G01X-104900Y1968500D02*
X-120650D01*
G01X-104900Y1955300D02*
X-120150D01*
M02*
