G04 ================== begin FILE IDENTIFICATION RECORD ==================*
G04 Layout Name:  E:/ORCAD_sch/Other/TEST-BSP_01v1/pcb/test-bsp_01v1.brd*
G04 Film Name:    MASK_BOT*
G04 File Format:  Gerber RS274X*
G04 File Origin:  Cadence Allegro 16.6-S009*
G04 Origin Date:  Thu May 16 11:01:18 2013*
G04 *
G04 Layer:  VIA CLASS/SOLDERMASK_BOTTOM*
G04 Layer:  PIN/SOLDERMASK_BOTTOM*
G04 Layer:  PACKAGE GEOMETRY/SOLDERMASK_BOTTOM*
G04 *
G04 Offset:    (0.000 0.000)*
G04 Mirror:    No*
G04 Mode:      Positive*
G04 Rotation:  0*
G04 FullContactRelief:  No*
G04 UndefLineWidth:     0.000*
G04 ================== end FILE IDENTIFICATION RECORD ====================*
%FSLAX34Y34*MOMM*%
%IR0*IPPOS*OFA0.00000B0.00000*MIA0B0*SFA1.00000B1.00000*%
%ADD13C,3.3*%
%ADD14C,1.7*%
%ADD10C,4.4*%
%ADD12C,1.8*%
%ADD15C,1.75*%
%ADD16R,1.45X1.45*%
%ADD11R,1.75X1.75*%
%ADD17R,1.45X1.27*%
%LPD*%
G75*
G54D10*
X-215900Y1282700D03*
Y2171700D03*
X25400Y-50800D03*
Y838200D03*
Y1282700D03*
Y2171700D03*
G54D11*
X-152400Y-25400D03*
X-177800Y25400D03*
X-152400Y101600D03*
Y152400D03*
Y247650D03*
X-177800Y298450D03*
X-152400Y349250D03*
Y457200D03*
X-139700Y1333500D03*
X-190500D03*
X-139700Y1562100D03*
X-190500D03*
X-139700Y1816100D03*
X-190500D03*
X-139700Y2070100D03*
X-190500D03*
X-120800Y1137300D03*
X-88900Y2159000D03*
X-50800Y50800D03*
X0D03*
X-50800Y304800D03*
X0D03*
X-50800Y558800D03*
X0D03*
X-50800Y787400D03*
X0D03*
X12700Y984250D03*
X-50800Y1384300D03*
X0D03*
X-50800Y1638300D03*
X0D03*
X-50800Y1892300D03*
X0D03*
X-50800Y2120900D03*
X0D03*
G54D12*
X-177800Y-25400D03*
X-152400Y25400D03*
X-177800Y101600D03*
Y152400D03*
Y247650D03*
X-152400Y298450D03*
X-177800Y349250D03*
Y457200D03*
X-70000Y1162700D03*
Y1137300D03*
X-95400Y1162700D03*
Y1137300D03*
X-120800Y1162700D03*
X-88900Y2184400D03*
X12700Y1009650D03*
X-19200Y1162700D03*
Y1137300D03*
X-44600Y1162700D03*
Y1137300D03*
G54D13*
X-190500Y850900D03*
G54D14*
X-139800Y1274500D03*
X-88800Y1265500D03*
G54D15*
X-139700Y1409700D03*
Y1384300D03*
Y1358900D03*
X-190500Y1409700D03*
Y1384300D03*
Y1358900D03*
X-139700Y1485900D03*
Y1460500D03*
Y1435100D03*
X-190500Y1485900D03*
Y1460500D03*
Y1435100D03*
X-139700Y1536700D03*
Y1511300D03*
X-190500Y1536700D03*
Y1511300D03*
X-139700Y1638300D03*
Y1612900D03*
Y1587500D03*
X-190500Y1638300D03*
Y1612900D03*
Y1587500D03*
X-139700Y1714500D03*
Y1689100D03*
Y1663700D03*
X-190500Y1714500D03*
Y1689100D03*
Y1663700D03*
X-139700Y1790700D03*
Y1765300D03*
Y1739900D03*
X-190500Y1790700D03*
Y1765300D03*
Y1739900D03*
X-139700Y1866900D03*
Y1841500D03*
X-190500Y1866900D03*
Y1841500D03*
X-139700Y1943100D03*
Y1917700D03*
Y1892300D03*
X-190500Y1943100D03*
Y1917700D03*
Y1892300D03*
X-139700Y2019300D03*
Y1993900D03*
Y1968500D03*
X-190500Y2019300D03*
Y1993900D03*
Y1968500D03*
X-139700Y2095500D03*
Y2044700D03*
X-190500Y2095500D03*
Y2044700D03*
X-139700Y2120900D03*
X-190500D03*
X-50800Y0D03*
Y25400D03*
X0Y0D03*
Y25400D03*
X-50800Y76200D03*
Y101600D03*
Y127000D03*
X0Y76200D03*
Y101600D03*
Y127000D03*
X-50800Y152400D03*
Y177800D03*
Y203200D03*
X0Y152400D03*
Y177800D03*
Y203200D03*
X-50800Y228600D03*
Y254000D03*
Y279400D03*
X0Y228600D03*
Y254000D03*
Y279400D03*
X-50800Y330200D03*
Y355600D03*
X0Y330200D03*
Y355600D03*
X-50800Y381000D03*
Y406400D03*
Y431800D03*
X0Y381000D03*
Y406400D03*
Y431800D03*
X-50800Y457200D03*
Y482600D03*
Y508000D03*
X0Y457200D03*
Y482600D03*
Y508000D03*
X-50800Y533400D03*
Y584200D03*
X0Y533400D03*
Y584200D03*
X-50800Y609600D03*
Y635000D03*
Y660400D03*
X0Y609600D03*
Y635000D03*
Y660400D03*
X-50800Y685800D03*
Y711200D03*
Y736600D03*
X0Y685800D03*
Y711200D03*
Y736600D03*
X-50800Y762000D03*
X0D03*
X-50800Y1333500D03*
X0D03*
X-50800Y1358900D03*
Y1409700D03*
X0Y1358900D03*
Y1409700D03*
X-50800Y1435100D03*
Y1460500D03*
Y1485900D03*
X0Y1435100D03*
Y1460500D03*
Y1485900D03*
X-50800Y1511300D03*
Y1536700D03*
Y1562100D03*
X0Y1511300D03*
Y1536700D03*
Y1562100D03*
X-50800Y1587500D03*
Y1612900D03*
X0Y1587500D03*
Y1612900D03*
X-50800Y1663700D03*
Y1689100D03*
Y1714500D03*
X0Y1663700D03*
Y1689100D03*
Y1714500D03*
X-50800Y1739900D03*
Y1765300D03*
Y1790700D03*
X0Y1739900D03*
Y1765300D03*
Y1790700D03*
X-50800Y1816100D03*
Y1841500D03*
Y1866900D03*
X0Y1816100D03*
Y1841500D03*
Y1866900D03*
X-50800Y1917700D03*
Y1943100D03*
X0Y1917700D03*
Y1943100D03*
X-50800Y1968500D03*
Y1993900D03*
Y2019300D03*
X0Y1968500D03*
Y1993900D03*
Y2019300D03*
X-50800Y2044700D03*
Y2070100D03*
Y2095500D03*
X0Y2044700D03*
Y2070100D03*
Y2095500D03*
G54D16*
X-79250Y691650D03*
Y730750D03*
X-111250D03*
Y691650D03*
X-79250Y755150D03*
Y794250D03*
X-111250D03*
Y755150D03*
X-72900Y1606050D03*
Y1645150D03*
X-104900D03*
Y1606050D03*
X-72900Y1669550D03*
Y1708650D03*
X-104900D03*
Y1669550D03*
X-72900Y1726700D03*
Y1765800D03*
X-104900D03*
Y1726700D03*
X-72900Y1783850D03*
X-104900D03*
X-72900Y1841000D03*
X-104900D03*
X-72900Y1822950D03*
X-104900D03*
X-72900Y1898150D03*
Y1937250D03*
X-104900D03*
Y1898150D03*
X-72900Y1880100D03*
X-104900D03*
X-72900Y1955300D03*
Y1994400D03*
X-104900D03*
Y1955300D03*
G54D17*
X-79250Y704850D03*
Y717550D03*
X-111250D03*
Y704850D03*
X-79250Y768350D03*
Y781050D03*
X-111250D03*
Y768350D03*
X-72900Y1619250D03*
Y1631950D03*
X-104900D03*
Y1619250D03*
X-72900Y1682750D03*
Y1695450D03*
X-104900D03*
Y1682750D03*
X-72900Y1739900D03*
Y1752600D03*
X-104900D03*
Y1739900D03*
X-72900Y1797050D03*
X-104900D03*
X-72900Y1854200D03*
Y1866900D03*
X-104900D03*
Y1854200D03*
X-72900Y1809750D03*
X-104900D03*
X-72900Y1911350D03*
Y1924050D03*
X-104900D03*
Y1911350D03*
X-72900Y1968500D03*
Y1981200D03*
X-104900D03*
Y1968500D03*
M02*
