G04 ================== begin FILE IDENTIFICATION RECORD ==================*
G04 Layout Name:  E:/ORCAD_sch/Other/TEST-BSP_01v1/pcb/test-bsp_01v1.brd*
G04 Film Name:    MASK_TOP*
G04 File Format:  Gerber RS274X*
G04 File Origin:  Cadence Allegro 16.6-S009*
G04 Origin Date:  Thu May 16 11:01:18 2013*
G04 *
G04 Layer:  VIA CLASS/SOLDERMASK_TOP*
G04 Layer:  PIN/SOLDERMASK_TOP*
G04 Layer:  PACKAGE GEOMETRY/SOLDERMASK_TOP*
G04 *
G04 Offset:    (0.000 0.000)*
G04 Mirror:    No*
G04 Mode:      Positive*
G04 Rotation:  0*
G04 FullContactRelief:  No*
G04 UndefLineWidth:     0.000*
G04 ================== end FILE IDENTIFICATION RECORD ====================*
%FSLAX34Y34*MOMM*%
%IR0*IPPOS*OFA0.00000B0.00000*MIA0B0*SFA1.00000B1.00000*%
%ADD15R,.8X2.4*%
%ADD14C,3.3*%
%ADD18C,1.7*%
%ADD10C,4.4*%
%ADD12C,1.8*%
%ADD19C,1.75*%
%ADD17R,2.25X2.25*%
%ADD11R,1.75X1.75*%
%ADD24R,1.X1.15*%
%ADD25R,1.3X1.6*%
%ADD21R,1.45X2.*%
%ADD16R,1.6X1.3*%
%ADD20R,2.X1.45*%
%ADD23R,1.15X1.6*%
%ADD13R,1.2X1.95*%
%ADD22R,1.95X1.2*%
%LPD*%
G75*
G54D10*
X-215900Y1282700D03*
Y2171700D03*
X25400Y-50800D03*
Y838200D03*
Y1282700D03*
Y2171700D03*
G54D20*
X-88900Y-30000D03*
Y0D03*
G54D11*
X-152400Y-25400D03*
X-177800Y25400D03*
X-152400Y101600D03*
Y152400D03*
Y247650D03*
X-177800Y298450D03*
X-152400Y349250D03*
Y457200D03*
X-139700Y1333500D03*
X-190500D03*
X-139700Y1562100D03*
X-190500D03*
X-139700Y1816100D03*
X-190500D03*
X-139700Y2070100D03*
X-190500D03*
X-120800Y1137300D03*
X-88900Y2159000D03*
X-50800Y50800D03*
X0D03*
X-50800Y304800D03*
X0D03*
X-50800Y558800D03*
X0D03*
X-50800Y787400D03*
X0D03*
X12700Y984250D03*
X-50800Y1384300D03*
X0D03*
X-50800Y1638300D03*
X0D03*
X-50800Y1892300D03*
X0D03*
X-50800Y2120900D03*
X0D03*
G54D21*
X-112550Y177800D03*
X-82550D03*
X-112550Y247650D03*
X-82550D03*
G54D12*
X-177800Y-25400D03*
X-152400Y25400D03*
X-177800Y101600D03*
Y152400D03*
Y247650D03*
X-152400Y298450D03*
X-177800Y349250D03*
Y457200D03*
X-70000Y1162700D03*
Y1137300D03*
X-95400Y1162700D03*
Y1137300D03*
X-120800Y1162700D03*
X-88900Y2184400D03*
X12700Y1009650D03*
X-19200Y1162700D03*
Y1137300D03*
X-44600Y1162700D03*
Y1137300D03*
G54D22*
X-83700Y275700D03*
X-113700D03*
X-83700Y305700D03*
X-113700D03*
X-57300Y1060000D03*
Y1090000D03*
X-87300Y1060000D03*
Y1090000D03*
X-82550Y1333500D03*
Y1363500D03*
G54D13*
X-154700Y546100D03*
Y577850D03*
X-112550Y146050D03*
X-82550D03*
X-124700Y546100D03*
Y577850D03*
G54D23*
X-79400Y596900D03*
X-98400D03*
X-79400Y622300D03*
X-98400D03*
X-79400Y647700D03*
X-98400D03*
X-79400Y673100D03*
X-98400D03*
X-95200Y1409700D03*
X-76200D03*
X-95200Y1485900D03*
X-76200D03*
X-95200Y1460500D03*
X-76200D03*
X-95200Y1435100D03*
X-76200D03*
G54D14*
X-190500Y850900D03*
G54D24*
X-93600Y698500D03*
X-109600D03*
X-93600Y711200D03*
X-109600D03*
X-93600Y723900D03*
X-109600D03*
X-93600Y736600D03*
X-109600D03*
X-93600Y749300D03*
X-109600D03*
X-93600Y762000D03*
X-109600D03*
X-93600Y774700D03*
X-109600D03*
X-93600Y787400D03*
X-109600D03*
X-82550Y1384300D03*
X-98550D03*
X-80900Y1638300D03*
X-96900D03*
X-80900Y1612900D03*
X-96900D03*
X-80900Y1714500D03*
X-96900D03*
X-80900Y1701800D03*
X-96900D03*
X-80900Y1689100D03*
X-96900D03*
X-80900Y1676400D03*
X-96900D03*
X-80900Y1663700D03*
X-96900D03*
X-80900Y1778000D03*
X-96900D03*
X-80900Y1765300D03*
X-96900D03*
X-80900Y1752600D03*
X-96900D03*
X-80900Y1739900D03*
X-96900D03*
X-80900Y1727200D03*
X-96900D03*
X-80900Y1790700D03*
X-96900D03*
X-80900Y1866900D03*
X-96900D03*
X-80900Y1854200D03*
X-96900D03*
X-80900Y1841500D03*
X-96900D03*
X-80900Y1828800D03*
X-96900D03*
X-80900Y1816100D03*
X-96900D03*
X-80900Y1803400D03*
X-96900D03*
X-80900Y1943100D03*
X-96900D03*
X-80900Y1930400D03*
X-96900D03*
X-80900Y1917700D03*
X-96900D03*
X-80900Y1905000D03*
X-96900D03*
X-80900Y1892300D03*
X-96900D03*
X-80900Y1879600D03*
X-96900D03*
X-80900Y1981200D03*
X-96900D03*
X-80900Y1968500D03*
X-96900D03*
X-80900Y1955800D03*
X-96900D03*
G54D15*
X-139700Y895350D03*
Y987350D03*
X-63500Y895350D03*
X-76200D03*
X-88900D03*
X-101600D03*
X-114300D03*
X-127000D03*
X-63500Y987350D03*
X-76200D03*
X-88900D03*
X-101600D03*
X-114300D03*
X-127000D03*
X-25400Y895350D03*
X-38100D03*
X-50800D03*
X-25400Y987350D03*
X-38100D03*
X-50800D03*
G54D16*
X-139700Y1016000D03*
Y1033000D03*
X-165100Y1016000D03*
Y1033000D03*
X-114300D03*
Y1016000D03*
X-50800D03*
Y1033000D03*
X-25400Y1016000D03*
Y1033000D03*
G54D25*
X-110000Y857250D03*
X-127000D03*
X-74050Y1231900D03*
X-91050D03*
G54D17*
X-163800Y1070000D03*
X-120800D03*
X19200D03*
X-23800D03*
X-37780Y1235600D03*
Y1278600D03*
G54D18*
X-139800Y1274500D03*
X-88800Y1265500D03*
G54D19*
X-139700Y1409700D03*
Y1384300D03*
Y1358900D03*
X-190500Y1409700D03*
Y1384300D03*
Y1358900D03*
X-139700Y1485900D03*
Y1460500D03*
Y1435100D03*
X-190500Y1485900D03*
Y1460500D03*
Y1435100D03*
X-139700Y1536700D03*
Y1511300D03*
X-190500Y1536700D03*
Y1511300D03*
X-139700Y1638300D03*
Y1612900D03*
Y1587500D03*
X-190500Y1638300D03*
Y1612900D03*
Y1587500D03*
X-139700Y1714500D03*
Y1689100D03*
Y1663700D03*
X-190500Y1714500D03*
Y1689100D03*
Y1663700D03*
X-139700Y1790700D03*
Y1765300D03*
Y1739900D03*
X-190500Y1790700D03*
Y1765300D03*
Y1739900D03*
X-139700Y1866900D03*
Y1841500D03*
X-190500Y1866900D03*
Y1841500D03*
X-139700Y1943100D03*
Y1917700D03*
Y1892300D03*
X-190500Y1943100D03*
Y1917700D03*
Y1892300D03*
X-139700Y2019300D03*
Y1993900D03*
Y1968500D03*
X-190500Y2019300D03*
Y1993900D03*
Y1968500D03*
X-139700Y2095500D03*
Y2044700D03*
X-190500Y2095500D03*
Y2044700D03*
X-139700Y2120900D03*
X-190500D03*
X-50800Y0D03*
Y25400D03*
X0Y0D03*
Y25400D03*
X-50800Y76200D03*
Y101600D03*
Y127000D03*
X0Y76200D03*
Y101600D03*
Y127000D03*
X-50800Y152400D03*
Y177800D03*
Y203200D03*
X0Y152400D03*
Y177800D03*
Y203200D03*
X-50800Y228600D03*
Y254000D03*
Y279400D03*
X0Y228600D03*
Y254000D03*
Y279400D03*
X-50800Y330200D03*
Y355600D03*
X0Y330200D03*
Y355600D03*
X-50800Y381000D03*
Y406400D03*
Y431800D03*
X0Y381000D03*
Y406400D03*
Y431800D03*
X-50800Y457200D03*
Y482600D03*
Y508000D03*
X0Y457200D03*
Y482600D03*
Y508000D03*
X-50800Y533400D03*
Y584200D03*
X0Y533400D03*
Y584200D03*
X-50800Y609600D03*
Y635000D03*
Y660400D03*
X0Y609600D03*
Y635000D03*
Y660400D03*
X-50800Y685800D03*
Y711200D03*
Y736600D03*
X0Y685800D03*
Y711200D03*
Y736600D03*
X-50800Y762000D03*
X0D03*
X-50800Y1333500D03*
X0D03*
X-50800Y1358900D03*
Y1409700D03*
X0Y1358900D03*
Y1409700D03*
X-50800Y1435100D03*
Y1460500D03*
Y1485900D03*
X0Y1435100D03*
Y1460500D03*
Y1485900D03*
X-50800Y1511300D03*
Y1536700D03*
Y1562100D03*
X0Y1511300D03*
Y1536700D03*
Y1562100D03*
X-50800Y1587500D03*
Y1612900D03*
X0Y1587500D03*
Y1612900D03*
X-50800Y1663700D03*
Y1689100D03*
Y1714500D03*
X0Y1663700D03*
Y1689100D03*
Y1714500D03*
X-50800Y1739900D03*
Y1765300D03*
Y1790700D03*
X0Y1739900D03*
Y1765300D03*
Y1790700D03*
X-50800Y1816100D03*
Y1841500D03*
Y1866900D03*
X0Y1816100D03*
Y1841500D03*
Y1866900D03*
X-50800Y1917700D03*
Y1943100D03*
X0Y1917700D03*
Y1943100D03*
X-50800Y1968500D03*
Y1993900D03*
Y2019300D03*
X0Y1968500D03*
Y1993900D03*
Y2019300D03*
X-50800Y2044700D03*
Y2070100D03*
Y2095500D03*
X0Y2044700D03*
Y2070100D03*
Y2095500D03*
M02*
