G04 ================== begin FILE IDENTIFICATION RECORD ==================*
G04 Layout Name:  E:/ORCAD_sch/Other/TEST-BSP_01v1/pcb/test-bsp_01v1.brd*
G04 Film Name:    SILK_TOP*
G04 File Format:  Gerber RS274X*
G04 File Origin:  Cadence Allegro 16.6-S009*
G04 Origin Date:  Thu May 16 11:01:18 2013*
G04 *
G04 Layer:  MANUFACTURING/AUTOSILK_TOP*
G04 *
G04 Offset:    (0.000 0.000)*
G04 Mirror:    No*
G04 Mode:      Positive*
G04 Rotation:  0*
G04 FullContactRelief:  No*
G04 UndefLineWidth:     0.150*
G04 ================== end FILE IDENTIFICATION RECORD ====================*
%FSLAX34Y34*MOMM*%
%IR0*IPPOS*OFA0.00000B0.00000*MIA0B0*SFA1.00000B1.00000*%
%ADD10C,.2*%
%ADD11C,.4*%
%ADD12C,.15*%
%ADD13C,.25*%
G75*
%LPD*%
G75*
G54D10*
G01X-235900Y2201700D02*
X-185900D01*
Y2161700D01*
X-205900Y2141700D01*
Y1311700D01*
X-185900Y1291700D01*
Y1251700D01*
X-235900D01*
G01X-146200Y538100D02*
X-133200D01*
G01X-146200Y554100D02*
X-133200D01*
G01X-146200Y569850D02*
X-133200D01*
G01X-146200Y585850D02*
X-133200D01*
G01X-149700Y912850D02*
X-14700D01*
Y970350D01*
X-149700D01*
Y912850D01*
G01X-116300Y1056000D02*
Y1052000D01*
X-168300D01*
Y1056000D01*
G01X-116300Y1084000D02*
Y1088000D01*
X-168300D01*
Y1084000D01*
G01X-150300Y1255000D02*
X-92080D01*
G01X-155300Y1260000D02*
Y1280000D01*
G01Y1260000D02*
G03X-150300Y1255000I5000J0D01*
G01Y1285000D02*
X-143080D01*
G01X-150300D02*
G03X-155300Y1280000I0J-5000D01*
G01X-96900Y-10000D02*
Y-20000D01*
G01X-80900Y-10000D02*
Y-20000D01*
G01X-92550Y185800D02*
X-102550D01*
G01X-92550Y169800D02*
X-102550D01*
G01X-91050Y154050D02*
X-104050D01*
G01X-91050Y138050D02*
X-104050D01*
G01X-92550Y255650D02*
X-102550D01*
G01X-92550Y239650D02*
X-102550D01*
G01X-91700Y297200D02*
Y284200D01*
G01X-75700Y297200D02*
Y284200D01*
G01X-121700Y297200D02*
Y284200D01*
G01X-105700Y297200D02*
Y284200D01*
G01X-88900Y591400D02*
Y602400D01*
G01Y616800D02*
Y627800D01*
G01Y642200D02*
Y653200D01*
G01Y667600D02*
Y678600D01*
G01X-102600Y702500D02*
X-100600D01*
G01X-102600Y694500D02*
X-100600D01*
G01X-102600Y715200D02*
X-100600D01*
G01X-102600Y707200D02*
X-100600D01*
G01X-102600Y727900D02*
X-100600D01*
G01X-102600Y719900D02*
X-100600D01*
G01X-102600Y740600D02*
X-100600D01*
G01X-102600Y732600D02*
X-100600D01*
G01X-102600Y753300D02*
X-100600D01*
G01X-102600Y745300D02*
X-100600D01*
G01X-102600Y766000D02*
X-100600D01*
G01X-102600Y758000D02*
X-100600D01*
G01X-102600Y778700D02*
X-100600D01*
G01X-102600Y770700D02*
X-100600D01*
G01X-102600Y791400D02*
X-100600D01*
G01X-102600Y783400D02*
X-100600D01*
G01X-65300Y1081500D02*
Y1068500D01*
G01X-95300Y1081500D02*
Y1068500D01*
G01X-79300Y1081500D02*
Y1068500D01*
G01X-85520Y1255000D02*
X-78300D01*
G01X-73300Y1260000D02*
Y1280000D01*
G01X-78300Y1255000D02*
G03X-73300Y1260000I0J5000D01*
G01X-136520Y1285000D02*
X-78300D01*
G01X-73300Y1280000D02*
G03X-78300Y1285000I-5000J0D01*
G01X-74550Y1342000D02*
Y1355000D01*
G01X-90550Y1342000D02*
Y1355000D01*
G01X-85700Y1415200D02*
Y1404200D01*
G01X-91550Y1388300D02*
X-89550D01*
G01X-91550Y1380300D02*
X-89550D01*
G01X-85700Y1491400D02*
Y1480400D01*
G01Y1466000D02*
Y1455000D01*
G01Y1440600D02*
Y1429600D01*
G01X-89900Y1642300D02*
X-87900D01*
G01X-89900Y1634300D02*
X-87900D01*
G01X-89900Y1616900D02*
X-87900D01*
G01X-89900Y1608900D02*
X-87900D01*
G01X-89900Y1718500D02*
X-87900D01*
G01X-89900Y1710500D02*
X-87900D01*
G01X-89900Y1705800D02*
X-87900D01*
G01X-89900Y1697800D02*
X-87900D01*
G01X-89900Y1693100D02*
X-87900D01*
G01X-89900Y1685100D02*
X-87900D01*
G01X-89900Y1680400D02*
X-87900D01*
G01X-89900Y1672400D02*
X-87900D01*
G01X-89900Y1667700D02*
X-87900D01*
G01X-89900Y1659700D02*
X-87900D01*
G01X-89900Y1782000D02*
X-87900D01*
G01X-89900Y1774000D02*
X-87900D01*
G01X-89900Y1769300D02*
X-87900D01*
G01X-89900Y1761300D02*
X-87900D01*
G01X-89900Y1756600D02*
X-87900D01*
G01X-89900Y1748600D02*
X-87900D01*
G01X-89900Y1743900D02*
X-87900D01*
G01X-89900Y1735900D02*
X-87900D01*
G01X-89900Y1731200D02*
X-87900D01*
G01X-89900Y1723200D02*
X-87900D01*
G01X-89900Y1794700D02*
X-87900D01*
G01X-89900Y1786700D02*
X-87900D01*
G01X-89900Y1870900D02*
X-87900D01*
G01X-89900Y1862900D02*
X-87900D01*
G01X-89900Y1858200D02*
X-87900D01*
G01X-89900Y1850200D02*
X-87900D01*
G01X-89900Y1845500D02*
X-87900D01*
G01X-89900Y1837500D02*
X-87900D01*
G01X-89900Y1832800D02*
X-87900D01*
G01X-89900Y1824800D02*
X-87900D01*
G01X-89900Y1820100D02*
X-87900D01*
G01X-89900Y1812100D02*
X-87900D01*
G01X-89900Y1807400D02*
X-87900D01*
G01X-89900Y1799400D02*
X-87900D01*
G01X-89900Y1947100D02*
X-87900D01*
G01X-89900Y1939100D02*
X-87900D01*
G01X-89900Y1934400D02*
X-87900D01*
G01X-89900Y1926400D02*
X-87900D01*
G01X-89900Y1921700D02*
X-87900D01*
G01X-89900Y1913700D02*
X-87900D01*
G01X-89900Y1909000D02*
X-87900D01*
G01X-89900Y1901000D02*
X-87900D01*
G01X-89900Y1896300D02*
X-87900D01*
G01X-89900Y1888300D02*
X-87900D01*
G01X-89900Y1883600D02*
X-87900D01*
G01X-89900Y1875600D02*
X-87900D01*
G01X-89900Y1985200D02*
X-87900D01*
G01X-89900Y1977200D02*
X-87900D01*
G01X-89900Y1972500D02*
X-87900D01*
G01X-89900Y1964500D02*
X-87900D01*
G01X-89900Y1959800D02*
X-87900D01*
G01X-89900Y1951800D02*
X-87900D01*
G01X45400Y-80800D02*
X-4600D01*
Y-40800D01*
X15400Y-20800D01*
Y809200D01*
X-4600Y829200D01*
Y869200D01*
X45400D01*
G01X-49300Y1081500D02*
Y1068500D01*
G01X-28300Y1084000D02*
Y1088000D01*
X23700D01*
Y1084000D01*
G01X-28300Y1056000D02*
Y1052000D01*
X23700D01*
Y1056000D01*
G01X45400Y1252700D02*
X-4600D01*
Y1292700D01*
X15400Y1312700D01*
Y2142700D01*
X-4600Y2162700D01*
Y2202700D01*
X45400D01*
G01X-23780Y1283100D02*
X-19780D01*
Y1231100D01*
X-23780D01*
G01X-51780Y1283100D02*
X-55780D01*
Y1231100D01*
X-51780D01*
G54D11*
G01X-149520Y898530D02*
G03I-2000J0D01*
G01X-139980Y920790D02*
G03I-2000J0D01*
G54D12*
G01X-226110Y5700D02*
X-222250D01*
G01X-224180D02*
Y-7000D01*
G01X-226110D02*
X-222250D01*
G01X-214920D02*
Y5700D01*
X-207530Y-7000D01*
Y5700D01*
G01X-232180Y120000D02*
X-233460Y120210D01*
X-234590Y121060D01*
X-235550Y122330D01*
X-236200Y123810D01*
X-236520Y125500D01*
Y127200D01*
X-236200Y128890D01*
X-235550Y130370D01*
X-234590Y131640D01*
X-233460Y132490D01*
X-232180Y132700D01*
X-230890Y132490D01*
X-229760Y131640D01*
X-228800Y130370D01*
X-228150Y128890D01*
X-227830Y127200D01*
Y125500D01*
X-228150Y123810D01*
X-228800Y122330D01*
X-229760Y121060D01*
X-230890Y120210D01*
X-232180Y120000D01*
G01X-222760Y132700D02*
Y123600D01*
X-222120Y121690D01*
X-220830Y120420D01*
X-219230Y120000D01*
X-217620Y120420D01*
X-216330Y121690D01*
X-215690Y123600D01*
Y132700D01*
G01X-206280D02*
Y120000D01*
G01X-209970Y132700D02*
X-202580D01*
G01X-238180Y279700D02*
Y267000D01*
G01X-241870Y279700D02*
X-234480D01*
G01X-229250Y267000D02*
X-225230Y279700D01*
X-221200Y267000D01*
G01X-222650Y271440D02*
X-227800D01*
G01X-215490Y279700D02*
Y267000D01*
X-209060D01*
G01X-202860D02*
Y279700D01*
G01X-196750D02*
X-202860Y271870D01*
G01X-195790Y267000D02*
X-200130Y275470D01*
G01X-220390Y244000D02*
Y256700D01*
X-216370D01*
X-215080Y256060D01*
X-214280Y255220D01*
X-213960Y253520D01*
X-214280Y251830D01*
X-215240Y250770D01*
X-216370Y250140D01*
X-220390D01*
G01X-216370D02*
X-213960Y244000D01*
G01X-207600D02*
X-200850Y256700D01*
G01X-207600D02*
X-200850Y244000D01*
G01X-219180Y304700D02*
Y292000D01*
G01X-222870Y304700D02*
X-215480D01*
G01X-209600Y292000D02*
X-202850Y304700D01*
G01X-209600D02*
X-202850Y292000D01*
G01X-232700Y886820D02*
X-220000D01*
G01X-232700Y883130D02*
Y890520D01*
G01X-220000Y902990D02*
Y896560D01*
X-232700D01*
Y902990D01*
G01X-226560Y900420D02*
Y896560D01*
G01X-221690Y909350D02*
X-220630Y910630D01*
X-220000Y912080D01*
Y913370D01*
X-220630Y914660D01*
X-221690Y915620D01*
X-223180Y916100D01*
X-224660Y915780D01*
X-225930Y914980D01*
X-226770Y913530D01*
X-227200Y911600D01*
X-228040Y910470D01*
X-229520Y909990D01*
X-231010Y910310D01*
X-232060Y911120D01*
X-232700Y912240D01*
Y913370D01*
X-232280Y914490D01*
X-231220Y915460D01*
G01X-232700Y925670D02*
X-220000D01*
G01X-232700Y921980D02*
Y929370D01*
G01X-224230Y936530D02*
Y940720D01*
G01X-226770Y952860D02*
X-227410Y953510D01*
X-228470Y953990D01*
X-229950Y954310D01*
X-231220Y953990D01*
X-232060Y953340D01*
X-232700Y952220D01*
Y947880D01*
X-220000D01*
Y953180D01*
X-220850Y954310D01*
X-222120Y954950D01*
X-223600Y955270D01*
X-225080Y954950D01*
X-226350Y953990D01*
X-226770Y952860D01*
Y947880D01*
G01X-221690Y961150D02*
X-220630Y962430D01*
X-220000Y963880D01*
Y965170D01*
X-220630Y966460D01*
X-221690Y967420D01*
X-223180Y967900D01*
X-224660Y967580D01*
X-225930Y966780D01*
X-226770Y965330D01*
X-227200Y963400D01*
X-228040Y962270D01*
X-229520Y961790D01*
X-231010Y962110D01*
X-232060Y962920D01*
X-232700Y964040D01*
Y965170D01*
X-232280Y966290D01*
X-231220Y967260D01*
G01X-220000Y974260D02*
X-232700D01*
Y978120D01*
X-232060Y979410D01*
X-230580Y980370D01*
X-228890Y980690D01*
X-227200Y980370D01*
X-225930Y979570D01*
X-225290Y978120D01*
Y974260D01*
G01X-215770Y985600D02*
Y995250D01*
G01X-232700Y1003370D02*
X-232280Y1002090D01*
X-231220Y1001120D01*
X-229950Y1000480D01*
X-228250Y1000000D01*
X-226350Y999840D01*
X-224440Y1000000D01*
X-222750Y1000480D01*
X-221480Y1001120D01*
X-220420Y1002090D01*
X-220000Y1003370D01*
X-220420Y1004660D01*
X-221480Y1005630D01*
X-222750Y1006270D01*
X-224440Y1006750D01*
X-226350Y1006910D01*
X-228250Y1006750D01*
X-229950Y1006270D01*
X-231220Y1005630D01*
X-232280Y1004660D01*
X-232700Y1003370D01*
G01X-220000Y1016320D02*
X-232700D01*
X-230160Y1014390D01*
G01X-220000D02*
Y1018250D01*
G01X-228470Y1026380D02*
X-220000Y1029270D01*
X-228470Y1032170D01*
G01X-220000Y1042220D02*
X-232700D01*
X-230160Y1040290D01*
G01X-220000D02*
Y1044150D01*
G01X-215540Y2205570D02*
X-211460Y2214570D01*
G01X-215540D02*
X-211460Y2205570D01*
G01X-207770Y2207370D02*
X-207190Y2206320D01*
X-206410Y2205720D01*
X-205530Y2205570D01*
X-204750Y2205720D01*
X-203980Y2206470D01*
X-203490Y2207370D01*
X-203390Y2208270D01*
X-203590Y2209320D01*
X-204270Y2210070D01*
X-204950Y2210370D01*
X-205820D01*
G01X-204950D02*
X-204360Y2210820D01*
X-203880Y2211570D01*
X-203680Y2212470D01*
X-203880Y2213370D01*
X-204360Y2214120D01*
X-205240Y2214570D01*
X-206120Y2214420D01*
X-206990Y2213820D01*
G01X-174550Y-6000D02*
X-167800Y6700D01*
G01X-174550D02*
X-167800Y-6000D01*
G01X-158230D02*
Y6700D01*
X-160160Y4160D01*
G01Y-6000D02*
X-156300D01*
G01X-148330Y4580D02*
X-147370Y5850D01*
X-146240Y6490D01*
X-144950Y6700D01*
X-143340Y6280D01*
X-142220Y5220D01*
X-141900Y3950D01*
X-142060Y2680D01*
X-142700Y1620D01*
X-145920Y-500D01*
X-147370Y-1980D01*
X-148330Y-4100D01*
X-148650Y-6000D01*
X-141900D01*
G01X-174550Y46000D02*
X-167800Y58700D01*
G01X-174550D02*
X-167800Y46000D01*
G01X-158230D02*
Y58700D01*
X-160160Y56160D01*
G01Y46000D02*
X-156300D01*
G01X-148810Y48540D02*
X-147850Y47060D01*
X-146560Y46210D01*
X-145110Y46000D01*
X-143830Y46210D01*
X-142540Y47270D01*
X-141740Y48540D01*
X-141580Y49810D01*
X-141900Y51290D01*
X-143020Y52350D01*
X-144150Y52770D01*
X-145600D01*
G01X-144150D02*
X-143180Y53410D01*
X-142380Y54470D01*
X-142060Y55740D01*
X-142380Y57010D01*
X-143180Y58060D01*
X-144630Y58700D01*
X-146080Y58490D01*
X-147530Y57640D01*
G01X-174550Y120000D02*
X-167800Y132700D01*
G01X-174550D02*
X-167800Y120000D01*
G01X-158230D02*
Y132700D01*
X-160160Y130160D01*
G01Y120000D02*
X-156300D01*
G01X-145280D02*
Y132700D01*
X-147210Y130160D01*
G01Y120000D02*
X-143350D01*
G01X-174550Y172000D02*
X-167800Y184700D01*
G01X-174550D02*
X-167800Y172000D01*
G01X-158230D02*
Y184700D01*
X-160160Y182160D01*
G01Y172000D02*
X-156300D01*
G01X-145280Y184700D02*
X-146560Y184280D01*
X-147530Y183220D01*
X-148170Y181950D01*
X-148650Y180250D01*
X-148810Y178350D01*
X-148650Y176440D01*
X-148170Y174750D01*
X-147530Y173480D01*
X-146560Y172420D01*
X-145280Y172000D01*
X-143990Y172420D01*
X-143020Y173480D01*
X-142380Y174750D01*
X-141900Y176440D01*
X-141740Y178350D01*
X-141900Y180250D01*
X-142380Y181950D01*
X-143020Y183220D01*
X-143990Y184280D01*
X-145280Y184700D01*
G01X-170550Y266000D02*
X-163800Y278700D01*
G01X-170550D02*
X-163800Y266000D01*
G01X-152290D02*
Y278700D01*
X-158250Y269600D01*
X-150200D01*
G01X-168550Y318000D02*
X-161800Y330700D01*
G01X-168550D02*
X-161800Y318000D01*
G01X-152550D02*
X-152230Y320750D01*
X-151740Y323080D01*
X-151100Y325200D01*
X-150290Y327520D01*
X-149010Y330700D01*
X-155440D01*
G01X-178210Y430350D02*
X-174990D01*
Y426540D01*
X-175960Y425270D01*
X-177080Y424420D01*
X-178690Y424000D01*
X-180300Y424420D01*
X-181430Y425270D01*
X-182390Y426540D01*
X-183040Y428020D01*
X-183360Y429710D01*
Y431200D01*
X-183040Y432470D01*
X-182390Y433950D01*
X-181430Y435220D01*
X-180460Y436060D01*
X-179180Y436700D01*
X-178050D01*
X-176760Y436280D01*
X-175800Y435430D01*
G01X-169920Y424000D02*
Y436700D01*
X-162530Y424000D01*
Y436700D01*
G01X-156810Y424000D02*
Y436700D01*
X-153600D01*
X-152310Y436060D01*
X-151340Y435220D01*
X-150540Y433950D01*
X-149900Y432470D01*
X-149740Y430350D01*
X-149900Y428230D01*
X-150540Y426750D01*
X-151340Y425480D01*
X-152310Y424630D01*
X-153600Y424000D01*
X-156810D01*
G01X-170550Y368000D02*
X-163800Y380700D01*
G01X-170550D02*
X-163800Y368000D01*
G01X-154230D02*
X-153100Y368210D01*
X-151810Y368850D01*
X-151010Y369900D01*
X-150690Y371390D01*
X-151010Y372870D01*
X-151970Y374140D01*
X-153420Y374770D01*
X-155030D01*
X-155990Y375200D01*
X-156800Y376250D01*
X-157120Y377740D01*
X-156640Y379220D01*
X-155510Y380280D01*
X-154230Y380700D01*
X-152940Y380280D01*
X-151810Y379220D01*
X-151330Y377740D01*
X-151650Y376250D01*
X-152460Y375200D01*
X-153420Y374770D01*
X-155030D01*
X-156480Y374140D01*
X-157440Y372870D01*
X-157760Y371390D01*
X-157440Y369900D01*
X-156640Y368850D01*
X-155350Y368210D01*
X-154230Y368000D01*
G01X-174550Y476000D02*
X-167800Y488700D01*
G01X-174550D02*
X-167800Y476000D01*
G01X-161760Y477900D02*
X-160800Y476850D01*
X-159670Y476210D01*
X-158230Y476000D01*
X-156780Y476420D01*
X-155650Y477270D01*
X-154850Y478750D01*
X-154690Y480440D01*
X-155010Y482140D01*
X-155810Y483200D01*
X-156940Y484040D01*
X-158060Y484250D01*
X-159190Y484040D01*
X-160640Y483200D01*
X-160160Y488700D01*
X-155810D01*
G01X-185690Y542000D02*
Y554700D01*
X-181670D01*
X-180380Y554060D01*
X-179580Y553220D01*
X-179260Y551520D01*
X-179580Y549830D01*
X-180540Y548770D01*
X-181670Y548140D01*
X-185690D01*
G01X-181670D02*
X-179260Y542000D01*
G01X-173060Y543900D02*
X-172100Y542850D01*
X-170970Y542210D01*
X-169530Y542000D01*
X-168080Y542420D01*
X-166950Y543270D01*
X-166150Y544750D01*
X-165990Y546440D01*
X-166310Y548140D01*
X-167110Y549200D01*
X-168240Y550040D01*
X-169360Y550250D01*
X-170490Y550040D01*
X-171940Y549200D01*
X-171460Y554700D01*
X-167110D01*
G01X-183690Y572000D02*
Y584700D01*
X-179670D01*
X-178380Y584060D01*
X-177580Y583220D01*
X-177260Y581520D01*
X-177580Y579830D01*
X-178540Y578770D01*
X-179670Y578140D01*
X-183690D01*
G01X-179670D02*
X-177260Y572000D01*
G01X-167850D02*
X-167530Y574750D01*
X-167040Y577080D01*
X-166400Y579200D01*
X-165590Y581520D01*
X-164310Y584700D01*
X-170740D01*
G01X-156180Y592000D02*
Y604700D01*
X-152160D01*
X-150870Y604060D01*
X-150070Y603220D01*
X-149750Y601520D01*
X-150070Y599830D01*
X-151030Y598770D01*
X-152160Y598140D01*
X-156180D01*
G01X-152160D02*
X-149750Y592000D01*
G01X-140020D02*
Y604700D01*
X-141950Y602160D01*
G01Y592000D02*
X-138090D01*
G01X-127390D02*
X-127070Y594750D01*
X-126580Y597080D01*
X-125940Y599200D01*
X-125130Y601520D01*
X-123850Y604700D01*
X-130280D01*
G01X-140180Y616000D02*
Y628700D01*
X-136160D01*
X-134870Y628060D01*
X-134070Y627220D01*
X-133750Y625520D01*
X-134070Y623830D01*
X-135030Y622770D01*
X-136160Y622140D01*
X-140180D01*
G01X-136160D02*
X-133750Y616000D01*
G01X-124020D02*
Y628700D01*
X-125950Y626160D01*
G01Y616000D02*
X-122090D01*
G01X-114120Y621290D02*
X-113000Y622770D01*
X-112030Y623620D01*
X-110740Y624040D01*
X-109620Y623620D01*
X-108810Y622770D01*
X-108170Y621500D01*
X-108010Y620020D01*
X-108170Y618750D01*
X-108810Y617480D01*
X-109780Y616420D01*
X-110900Y616000D01*
X-112190Y616420D01*
X-113320Y617690D01*
X-113960Y619600D01*
X-114120Y621710D01*
X-113800Y624470D01*
X-113320Y625950D01*
X-112510Y627430D01*
X-111390Y628490D01*
X-110260Y628700D01*
X-109130Y628280D01*
X-108330Y627220D01*
G01X-140180Y642000D02*
Y654700D01*
X-136160D01*
X-134870Y654060D01*
X-134070Y653220D01*
X-133750Y651520D01*
X-134070Y649830D01*
X-135030Y648770D01*
X-136160Y648140D01*
X-140180D01*
G01X-136160D02*
X-133750Y642000D01*
G01X-124020D02*
Y654700D01*
X-125950Y652160D01*
G01Y642000D02*
X-122090D01*
G01X-114600Y643900D02*
X-113640Y642850D01*
X-112510Y642210D01*
X-111070Y642000D01*
X-109620Y642420D01*
X-108490Y643270D01*
X-107690Y644750D01*
X-107530Y646440D01*
X-107850Y648140D01*
X-108650Y649200D01*
X-109780Y650040D01*
X-110900Y650250D01*
X-112030Y650040D01*
X-113480Y649200D01*
X-113000Y654700D01*
X-108650D01*
G01X-189030Y717000D02*
X-187080Y729000D01*
G01X-185130D02*
X-187080Y717000D01*
G01X-190000Y721500D02*
X-184160D01*
G01Y724500D02*
X-190000D01*
G01X-177070Y728250D02*
X-177650Y728700D01*
X-178330Y729000D01*
X-179110D01*
X-179990Y728550D01*
X-180670Y727800D01*
X-181160Y726900D01*
X-181550Y725400D01*
X-181640Y724050D01*
X-181450Y722700D01*
X-181160Y721800D01*
X-180570Y720900D01*
X-179890Y720300D01*
X-179210Y720000D01*
X-178530D01*
X-177850Y720300D01*
X-177260Y720750D01*
X-176780Y721350D01*
G01X-173290Y720000D02*
Y729000D01*
X-170950D01*
X-170170Y728550D01*
X-169590Y727500D01*
X-169390Y726300D01*
X-169590Y725100D01*
X-170070Y724200D01*
X-170950Y723750D01*
X-173290D01*
G01X-165420Y720000D02*
Y729000D01*
X-162980D01*
X-162200Y728550D01*
X-161720Y727950D01*
X-161520Y726750D01*
X-161720Y725550D01*
X-162300Y724800D01*
X-162980Y724350D01*
X-165420D01*
G01X-162980D02*
X-161520Y720000D01*
G01X-157740D02*
Y729000D01*
X-155790D01*
X-155020Y728550D01*
X-154430Y727950D01*
X-153950Y727050D01*
X-153560Y726000D01*
X-153460Y724500D01*
X-153560Y723000D01*
X-153950Y721950D01*
X-154430Y721050D01*
X-155020Y720450D01*
X-155790Y720000D01*
X-157740D01*
G01X-181030Y705000D02*
X-179080Y717000D01*
G01X-177130D02*
X-179080Y705000D01*
G01X-182000Y709500D02*
X-176160D01*
G01Y712500D02*
X-182000D01*
G01X-169070Y716250D02*
X-169650Y716700D01*
X-170330Y717000D01*
X-171110D01*
X-171990Y716550D01*
X-172670Y715800D01*
X-173160Y714900D01*
X-173550Y713400D01*
X-173640Y712050D01*
X-173450Y710700D01*
X-173160Y709800D01*
X-172570Y708900D01*
X-171890Y708300D01*
X-171210Y708000D01*
X-170530D01*
X-169850Y708300D01*
X-169260Y708750D01*
X-168780Y709350D01*
G01X-165290Y708000D02*
Y717000D01*
X-162950D01*
X-162170Y716550D01*
X-161590Y715500D01*
X-161390Y714300D01*
X-161590Y713100D01*
X-162070Y712200D01*
X-162950Y711750D01*
X-165290D01*
G01X-157420Y708000D02*
Y717000D01*
X-154980D01*
X-154200Y716550D01*
X-153720Y715950D01*
X-153520Y714750D01*
X-153720Y713550D01*
X-154300Y712800D01*
X-154980Y712350D01*
X-157420D01*
G01X-154980D02*
X-153520Y708000D01*
G01X-150130D02*
Y717000D01*
X-147600Y709500D01*
X-145070Y717000D01*
Y708000D01*
G01X-183120Y695200D02*
X-182350Y694450D01*
X-181470Y694000D01*
X-180690D01*
X-179910Y694450D01*
X-179330Y695200D01*
X-179040Y696250D01*
X-179230Y697300D01*
X-179720Y698200D01*
X-180590Y698800D01*
X-181760Y699100D01*
X-182440Y699700D01*
X-182730Y700750D01*
X-182540Y701800D01*
X-182050Y702550D01*
X-181370Y703000D01*
X-180690D01*
X-180010Y702700D01*
X-179430Y701950D01*
G01X-173210Y694000D02*
X-173990Y694150D01*
X-174670Y694750D01*
X-175250Y695650D01*
X-175640Y696700D01*
X-175840Y697900D01*
Y699100D01*
X-175640Y700300D01*
X-175250Y701350D01*
X-174670Y702250D01*
X-173990Y702850D01*
X-173210Y703000D01*
X-172430Y702850D01*
X-171750Y702250D01*
X-171170Y701350D01*
X-170780Y700300D01*
X-170580Y699100D01*
Y697900D01*
X-170780Y696700D01*
X-171170Y695650D01*
X-171750Y694750D01*
X-172430Y694150D01*
X-173210Y694000D01*
G01X-167480Y703000D02*
Y696550D01*
X-167090Y695200D01*
X-166310Y694300D01*
X-165340Y694000D01*
X-164370Y694300D01*
X-163590Y695200D01*
X-163200Y696550D01*
Y703000D01*
G01X-157470D02*
Y694000D01*
G01X-159710Y703000D02*
X-155230D01*
G01X-149600D02*
X-150380Y702700D01*
X-150960Y701950D01*
X-151350Y701050D01*
X-151640Y699850D01*
X-151740Y698500D01*
X-151640Y697150D01*
X-151350Y695950D01*
X-150960Y695050D01*
X-150380Y694300D01*
X-149600Y694000D01*
X-148820Y694300D01*
X-148240Y695050D01*
X-147850Y695950D01*
X-147560Y697150D01*
X-147460Y698500D01*
X-147560Y699850D01*
X-147850Y701050D01*
X-148240Y701950D01*
X-148820Y702700D01*
X-149600Y703000D01*
G01X-140180Y668000D02*
Y680700D01*
X-136160D01*
X-134870Y680060D01*
X-134070Y679220D01*
X-133750Y677520D01*
X-134070Y675830D01*
X-135030Y674770D01*
X-136160Y674140D01*
X-140180D01*
G01X-136160D02*
X-133750Y668000D01*
G01X-124020D02*
Y680700D01*
X-125950Y678160D01*
G01Y668000D02*
X-122090D01*
G01X-109130D02*
Y680700D01*
X-115090Y671600D01*
X-107040D01*
G01X-180510Y784000D02*
X-178080Y793000D01*
X-175650Y784000D01*
G01X-176520Y787150D02*
X-179640D01*
G01X-172160Y793000D02*
Y784000D01*
X-168260D01*
G01X-164770D02*
X-162340Y793000D01*
X-159910Y784000D01*
G01X-160780Y787150D02*
X-163900D01*
G01X-156420Y784000D02*
Y793000D01*
X-153980D01*
X-153200Y792550D01*
X-152720Y791950D01*
X-152520Y790750D01*
X-152720Y789550D01*
X-153300Y788800D01*
X-153980Y788350D01*
X-156420D01*
G01X-153980D02*
X-152520Y784000D01*
G01X-149130D02*
Y793000D01*
X-146600Y785500D01*
X-144070Y793000D01*
Y784000D01*
G01X-187030Y769000D02*
X-185080Y781000D01*
G01X-183130D02*
X-185080Y769000D01*
G01X-188000Y773500D02*
X-182160D01*
G01Y776500D02*
X-188000D01*
G01X-180130Y781000D02*
X-178770Y772000D01*
X-177210Y781000D01*
X-175650Y772000D01*
X-174290Y781000D01*
G01X-171770Y772000D02*
X-169340Y781000D01*
X-166910Y772000D01*
G01X-167780Y775150D02*
X-170900D01*
G01X-163420Y772000D02*
Y781000D01*
X-160980D01*
X-160200Y780550D01*
X-159720Y779950D01*
X-159520Y778750D01*
X-159720Y777550D01*
X-160300Y776800D01*
X-160980Y776350D01*
X-163420D01*
G01X-160980D02*
X-159520Y772000D01*
G01X-155840D02*
Y781000D01*
X-151360Y772000D01*
Y781000D01*
G01X-181030Y757000D02*
X-179080Y769000D01*
G01X-177130D02*
X-179080Y757000D01*
G01X-182000Y761500D02*
X-176160D01*
G01Y764500D02*
X-182000D01*
G01X-173640Y760000D02*
X-171210Y769000D01*
X-168780Y760000D01*
G01X-169650Y763150D02*
X-172770D01*
G01X-165290Y760000D02*
Y769000D01*
X-162950D01*
X-162170Y768550D01*
X-161590Y767500D01*
X-161390Y766300D01*
X-161590Y765100D01*
X-162070Y764200D01*
X-162950Y763750D01*
X-165290D01*
G01X-157420Y760000D02*
Y769000D01*
X-154980D01*
X-154200Y768550D01*
X-153720Y767950D01*
X-153520Y766750D01*
X-153720Y765550D01*
X-154300Y764800D01*
X-154980Y764350D01*
X-157420D01*
G01X-154980D02*
X-153520Y760000D01*
G01X-149740D02*
Y769000D01*
X-147790D01*
X-147020Y768550D01*
X-146430Y767950D01*
X-145950Y767050D01*
X-145560Y766000D01*
X-145460Y764500D01*
X-145560Y763000D01*
X-145950Y761950D01*
X-146430Y761050D01*
X-147020Y760450D01*
X-147790Y760000D01*
X-149740D01*
G01X-189030Y743000D02*
X-187080Y755000D01*
G01X-185130D02*
X-187080Y743000D01*
G01X-190000Y747500D02*
X-184160D01*
G01Y750500D02*
X-190000D01*
G01X-181640Y746000D02*
X-179210Y755000D01*
X-176780Y746000D01*
G01X-177650Y749150D02*
X-180770D01*
G01X-173290Y746000D02*
Y755000D01*
X-170950D01*
X-170170Y754550D01*
X-169590Y753500D01*
X-169390Y752300D01*
X-169590Y751100D01*
X-170070Y750200D01*
X-170950Y749750D01*
X-173290D01*
G01X-165420Y746000D02*
Y755000D01*
X-162980D01*
X-162200Y754550D01*
X-161720Y753950D01*
X-161520Y752750D01*
X-161720Y751550D01*
X-162300Y750800D01*
X-162980Y750350D01*
X-165420D01*
G01X-162980D02*
X-161520Y746000D01*
G01X-158130D02*
Y755000D01*
X-155600Y747500D01*
X-153070Y755000D01*
Y746000D01*
G01X-181030Y731000D02*
X-179080Y743000D01*
G01X-177130D02*
X-179080Y731000D01*
G01X-182000Y735500D02*
X-176160D01*
G01Y738500D02*
X-182000D01*
G01X-173640Y734000D02*
X-171210Y743000D01*
X-168780Y734000D01*
G01X-169650Y737150D02*
X-172770D01*
G01X-165480Y734000D02*
Y743000D01*
X-163530D01*
X-162760Y742550D01*
X-162170Y741950D01*
X-161690Y741050D01*
X-161300Y740000D01*
X-161200Y738500D01*
X-161300Y737000D01*
X-161690Y735950D01*
X-162170Y735050D01*
X-162760Y734450D01*
X-163530Y734000D01*
X-165480D01*
G01X-153520D02*
X-157420D01*
Y743000D01*
X-153520D01*
G01X-155080Y738650D02*
X-157420D01*
G01X-149450Y734000D02*
Y743000D01*
X-145750D01*
G01X-147110Y738650D02*
X-149450D01*
G01X-190940Y824230D02*
X-187080D01*
G01X-189180Y826990D02*
Y821480D01*
G01X-179760Y821900D02*
X-178800Y820850D01*
X-177670Y820210D01*
X-176230Y820000D01*
X-174780Y820420D01*
X-173650Y821270D01*
X-172850Y822750D01*
X-172690Y824440D01*
X-173010Y826140D01*
X-173810Y827200D01*
X-174940Y828040D01*
X-176060Y828250D01*
X-177190Y828040D01*
X-178640Y827200D01*
X-178160Y832700D01*
X-173810D01*
G01X-161990Y826770D02*
X-161340Y827410D01*
X-160860Y828470D01*
X-160540Y829950D01*
X-160860Y831220D01*
X-161510Y832060D01*
X-162630Y832700D01*
X-166970D01*
Y820000D01*
X-161670D01*
X-160540Y820850D01*
X-159900Y822120D01*
X-159580Y823600D01*
X-159900Y825080D01*
X-160860Y826350D01*
X-161990Y826770D01*
X-166970D01*
G01X-199360Y869000D02*
Y881700D01*
X-195180Y871120D01*
X-190990Y881700D01*
Y869000D01*
G01X-185600D02*
Y881700D01*
G01X-178850D02*
Y869000D01*
G01Y875350D02*
X-185600D01*
G01X-169280Y869000D02*
Y881700D01*
X-171210Y879160D01*
G01Y869000D02*
X-167350D01*
G01X-196000Y886640D02*
X-208700D01*
X-198120Y890820D01*
X-208700Y895010D01*
X-196000D01*
G01Y906670D02*
X-204470D01*
G01X-202990D02*
X-203830Y906030D01*
X-204250Y905060D01*
X-204470Y903940D01*
X-204040Y902810D01*
X-203200Y901840D01*
X-201930Y901200D01*
X-200230Y900880D01*
X-198540Y901200D01*
X-197270Y901840D01*
X-196420Y902810D01*
X-196000Y903940D01*
X-196210Y905060D01*
X-196850Y906030D01*
X-197690Y906670D01*
G01X-192190Y913350D02*
X-191770Y914310D01*
X-192190Y915600D01*
X-193040Y916400D01*
X-194100Y917050D01*
X-197480Y918010D01*
X-204470Y920100D01*
G01Y914960D02*
X-197480Y918010D01*
G01X-206580Y939570D02*
X-207850Y940530D01*
X-208490Y941660D01*
X-208700Y942950D01*
X-208280Y944560D01*
X-207220Y945680D01*
X-205950Y946000D01*
X-204680Y945840D01*
X-203620Y945200D01*
X-201500Y941980D01*
X-200020Y940530D01*
X-197900Y939570D01*
X-196000Y939250D01*
Y946000D01*
G01X-208700Y955570D02*
X-208280Y954290D01*
X-207220Y953320D01*
X-205950Y952680D01*
X-204250Y952200D01*
X-202350Y952040D01*
X-200440Y952200D01*
X-198750Y952680D01*
X-197480Y953320D01*
X-196420Y954290D01*
X-196000Y955570D01*
X-196420Y956860D01*
X-197480Y957830D01*
X-198750Y958470D01*
X-200440Y958950D01*
X-202350Y959110D01*
X-204250Y958950D01*
X-205950Y958470D01*
X-207220Y957830D01*
X-208280Y956860D01*
X-208700Y955570D01*
G01X-196000Y968520D02*
X-208700D01*
X-206160Y966590D01*
G01X-196000D02*
Y970450D01*
G01X-198540Y977940D02*
X-197060Y978900D01*
X-196210Y980190D01*
X-196000Y981640D01*
X-196210Y982920D01*
X-197270Y984210D01*
X-198540Y985010D01*
X-199810Y985170D01*
X-201290Y984850D01*
X-202350Y983730D01*
X-202770Y982600D01*
Y981150D01*
G01Y982600D02*
X-203410Y983570D01*
X-204470Y984370D01*
X-205740Y984690D01*
X-207010Y984370D01*
X-208060Y983570D01*
X-208700Y982120D01*
X-208490Y980670D01*
X-207640Y979220D01*
G01X-154000Y932290D02*
X-166700D01*
Y935500D01*
X-166060Y936790D01*
X-165220Y937760D01*
X-163950Y938560D01*
X-162470Y939200D01*
X-160350Y939360D01*
X-158230Y939200D01*
X-156750Y938560D01*
X-155480Y937760D01*
X-154630Y936790D01*
X-154000Y935500D01*
Y932290D01*
G01Y945240D02*
X-166700D01*
Y948450D01*
X-166060Y949740D01*
X-165220Y950710D01*
X-163950Y951510D01*
X-162470Y952150D01*
X-160350Y952310D01*
X-158230Y952150D01*
X-156750Y951510D01*
X-155480Y950710D01*
X-154630Y949740D01*
X-154000Y948450D01*
Y945240D01*
G01Y961720D02*
X-166700D01*
X-164160Y959790D01*
G01X-154000D02*
Y963650D01*
G01X-143700Y1024500D02*
X-135700D01*
G01X-187640Y1014570D02*
X-188280Y1013610D01*
X-188700Y1012480D01*
Y1011200D01*
X-188060Y1009750D01*
X-187010Y1008620D01*
X-185740Y1007820D01*
X-183620Y1007170D01*
X-181710Y1007010D01*
X-179810Y1007340D01*
X-178540Y1007820D01*
X-177270Y1008780D01*
X-176420Y1009910D01*
X-176000Y1011030D01*
Y1012160D01*
X-176420Y1013290D01*
X-177060Y1014250D01*
X-177900Y1015060D01*
G01X-176000Y1023980D02*
X-188700D01*
X-186160Y1022050D01*
G01X-176000D02*
Y1025910D01*
G01Y1036930D02*
X-188700D01*
X-186160Y1035000D01*
G01X-176000D02*
Y1038860D01*
G01X-169100Y1024500D02*
X-161100D01*
G01X-145730Y1049250D02*
X-146310Y1049700D01*
X-146990Y1050000D01*
X-147770D01*
X-148650Y1049550D01*
X-149330Y1048800D01*
X-149820Y1047900D01*
X-150210Y1046400D01*
X-150300Y1045050D01*
X-150110Y1043700D01*
X-149820Y1042800D01*
X-149230Y1041900D01*
X-148550Y1041300D01*
X-147870Y1041000D01*
X-147190D01*
X-146510Y1041300D01*
X-145920Y1041750D01*
X-145440Y1042350D01*
G01X-140000Y1041000D02*
Y1050000D01*
X-141170Y1048200D01*
G01Y1041000D02*
X-138830D01*
G01X-132130Y1050000D02*
X-132910Y1049700D01*
X-133490Y1048950D01*
X-133880Y1048050D01*
X-134170Y1046850D01*
X-134270Y1045500D01*
X-134170Y1044150D01*
X-133880Y1042950D01*
X-133490Y1042050D01*
X-132910Y1041300D01*
X-132130Y1041000D01*
X-131350Y1041300D01*
X-130770Y1042050D01*
X-130380Y1042950D01*
X-130090Y1044150D01*
X-129990Y1045500D01*
X-130090Y1046850D01*
X-130380Y1048050D01*
X-130770Y1048950D01*
X-131350Y1049700D01*
X-132130Y1050000D01*
G01X-210990Y1094700D02*
X-206970Y1082000D01*
X-202940Y1094700D01*
G01X-197550Y1082000D02*
Y1094700D01*
X-194340D01*
X-193050Y1094060D01*
X-192080Y1093220D01*
X-191280Y1091950D01*
X-190640Y1090470D01*
X-190480Y1088350D01*
X-190640Y1086230D01*
X-191280Y1084750D01*
X-192080Y1083480D01*
X-193050Y1082630D01*
X-194340Y1082000D01*
X-197550D01*
G01X-184600Y1083900D02*
X-183640Y1082850D01*
X-182510Y1082210D01*
X-181070Y1082000D01*
X-179620Y1082420D01*
X-178490Y1083270D01*
X-177690Y1084750D01*
X-177530Y1086440D01*
X-177850Y1088140D01*
X-178650Y1089200D01*
X-179780Y1090040D01*
X-180900Y1090250D01*
X-182030Y1090040D01*
X-183480Y1089200D01*
X-183000Y1094700D01*
X-178650D01*
G01X-161640Y1212640D02*
X-162600Y1213280D01*
X-163730Y1213700D01*
X-165010D01*
X-166460Y1213060D01*
X-167590Y1212010D01*
X-168390Y1210740D01*
X-169040Y1208620D01*
X-169200Y1206710D01*
X-168870Y1204810D01*
X-168390Y1203540D01*
X-167430Y1202270D01*
X-166300Y1201420D01*
X-165180Y1201000D01*
X-164050D01*
X-162920Y1201420D01*
X-161960Y1202060D01*
X-161150Y1202900D01*
G01X-152230Y1201000D02*
X-153510Y1201210D01*
X-154640Y1202060D01*
X-155600Y1203330D01*
X-156250Y1204810D01*
X-156570Y1206500D01*
Y1208200D01*
X-156250Y1209890D01*
X-155600Y1211370D01*
X-154640Y1212640D01*
X-153510Y1213490D01*
X-152230Y1213700D01*
X-150940Y1213490D01*
X-149810Y1212640D01*
X-148850Y1211370D01*
X-148200Y1209890D01*
X-147880Y1208200D01*
Y1206500D01*
X-148200Y1204810D01*
X-148850Y1203330D01*
X-149810Y1202060D01*
X-150940Y1201210D01*
X-152230Y1201000D01*
G01X-143460D02*
Y1213700D01*
X-139280Y1203120D01*
X-135090Y1213700D01*
Y1201000D01*
G01X-145250Y1315060D02*
X-145700Y1314480D01*
X-146000Y1313800D01*
Y1313020D01*
X-145550Y1312140D01*
X-144800Y1311460D01*
X-143900Y1310970D01*
X-142400Y1310580D01*
X-141050Y1310490D01*
X-139700Y1310680D01*
X-138800Y1310970D01*
X-137900Y1311560D01*
X-137300Y1312240D01*
X-137000Y1312920D01*
Y1313600D01*
X-137300Y1314280D01*
X-137750Y1314870D01*
X-138350Y1315350D01*
G01X-137000Y1320790D02*
X-146000D01*
X-144200Y1319620D01*
G01X-137000D02*
Y1321960D01*
G01X-187000Y1310490D02*
X-196000Y1312920D01*
X-187000Y1315350D01*
G01X-190150Y1314480D02*
Y1311360D01*
G01X-187000Y1320790D02*
X-196000D01*
X-194200Y1319620D01*
G01X-187000D02*
Y1321960D01*
G01X-171300Y1411800D02*
X-170910Y1412250D01*
X-170620Y1413000D01*
X-170430Y1414050D01*
X-170620Y1414950D01*
X-171010Y1415550D01*
X-171690Y1416000D01*
X-174320D01*
Y1407000D01*
X-171110D01*
X-170430Y1407600D01*
X-170040Y1408500D01*
X-169840Y1409550D01*
X-170040Y1410600D01*
X-170620Y1411500D01*
X-171300Y1411800D01*
X-174320D01*
G01X-167130Y1416000D02*
X-165770Y1407000D01*
X-164210Y1416000D01*
X-162650Y1407000D01*
X-161290Y1416000D01*
G01X-158480Y1408800D02*
X-157900Y1407750D01*
X-157120Y1407150D01*
X-156240Y1407000D01*
X-155460Y1407150D01*
X-154690Y1407900D01*
X-154200Y1408800D01*
X-154100Y1409700D01*
X-154300Y1410750D01*
X-154980Y1411500D01*
X-155660Y1411800D01*
X-156530D01*
G01X-155660D02*
X-155070Y1412250D01*
X-154590Y1413000D01*
X-154390Y1413900D01*
X-154590Y1414800D01*
X-155070Y1415550D01*
X-155950Y1416000D01*
X-156830Y1415850D01*
X-157700Y1415250D01*
G01X-171300Y1485800D02*
X-170910Y1486250D01*
X-170620Y1487000D01*
X-170430Y1488050D01*
X-170620Y1488950D01*
X-171010Y1489550D01*
X-171690Y1490000D01*
X-174320D01*
Y1481000D01*
X-171110D01*
X-170430Y1481600D01*
X-170040Y1482500D01*
X-169840Y1483550D01*
X-170040Y1484600D01*
X-170620Y1485500D01*
X-171300Y1485800D01*
X-174320D01*
G01X-167130Y1490000D02*
X-165770Y1481000D01*
X-164210Y1490000D01*
X-162650Y1481000D01*
X-161290Y1490000D01*
G01X-156340D02*
X-157120Y1489700D01*
X-157700Y1488950D01*
X-158090Y1488050D01*
X-158380Y1486850D01*
X-158480Y1485500D01*
X-158380Y1484150D01*
X-158090Y1482950D01*
X-157700Y1482050D01*
X-157120Y1481300D01*
X-156340Y1481000D01*
X-155560Y1481300D01*
X-154980Y1482050D01*
X-154590Y1482950D01*
X-154300Y1484150D01*
X-154200Y1485500D01*
X-154300Y1486850D01*
X-154590Y1488050D01*
X-154980Y1488950D01*
X-155560Y1489700D01*
X-156340Y1490000D01*
G01X-170300Y1436800D02*
X-169910Y1437250D01*
X-169620Y1438000D01*
X-169430Y1439050D01*
X-169620Y1439950D01*
X-170010Y1440550D01*
X-170690Y1441000D01*
X-173320D01*
Y1432000D01*
X-170110D01*
X-169430Y1432600D01*
X-169040Y1433500D01*
X-168840Y1434550D01*
X-169040Y1435600D01*
X-169620Y1436500D01*
X-170300Y1436800D01*
X-173320D01*
G01X-166130Y1441000D02*
X-164770Y1432000D01*
X-163210Y1441000D01*
X-161650Y1432000D01*
X-160290Y1441000D01*
G01X-157190Y1439500D02*
X-156610Y1440400D01*
X-155920Y1440850D01*
X-155150Y1441000D01*
X-154170Y1440700D01*
X-153490Y1439950D01*
X-153300Y1439050D01*
X-153390Y1438150D01*
X-153780Y1437400D01*
X-155730Y1435900D01*
X-156610Y1434850D01*
X-157190Y1433350D01*
X-157380Y1432000D01*
X-153300D01*
G01X-170300Y1461800D02*
X-169910Y1462250D01*
X-169620Y1463000D01*
X-169430Y1464050D01*
X-169620Y1464950D01*
X-170010Y1465550D01*
X-170690Y1466000D01*
X-173320D01*
Y1457000D01*
X-170110D01*
X-169430Y1457600D01*
X-169040Y1458500D01*
X-168840Y1459550D01*
X-169040Y1460600D01*
X-169620Y1461500D01*
X-170300Y1461800D01*
X-173320D01*
G01X-166130Y1466000D02*
X-164770Y1457000D01*
X-163210Y1466000D01*
X-161650Y1457000D01*
X-160290Y1466000D01*
G01X-155340Y1457000D02*
Y1466000D01*
X-156510Y1464200D01*
G01Y1457000D02*
X-154170D01*
G01X-170810Y1563450D02*
X-170420Y1563900D01*
X-170130Y1564650D01*
X-169940Y1565700D01*
X-170130Y1566600D01*
X-170520Y1567200D01*
X-171200Y1567650D01*
X-173830D01*
Y1558650D01*
X-170620D01*
X-169940Y1559250D01*
X-169550Y1560150D01*
X-169350Y1561200D01*
X-169550Y1562250D01*
X-170130Y1563150D01*
X-170810Y1563450D01*
X-173830D01*
G01X-165670Y1558650D02*
Y1567650D01*
X-163230D01*
X-162450Y1567200D01*
X-161970Y1566600D01*
X-161770Y1565400D01*
X-161970Y1564200D01*
X-162550Y1563450D01*
X-163230Y1563000D01*
X-165670D01*
G01X-163230D02*
X-161770Y1558650D01*
G01X-155850D02*
Y1567650D01*
X-157020Y1565850D01*
G01Y1558650D02*
X-154680D01*
G01X-170810Y1538450D02*
X-170420Y1538900D01*
X-170130Y1539650D01*
X-169940Y1540700D01*
X-170130Y1541600D01*
X-170520Y1542200D01*
X-171200Y1542650D01*
X-173830D01*
Y1533650D01*
X-170620D01*
X-169940Y1534250D01*
X-169550Y1535150D01*
X-169350Y1536200D01*
X-169550Y1537250D01*
X-170130Y1538150D01*
X-170810Y1538450D01*
X-173830D01*
G01X-165670Y1533650D02*
Y1542650D01*
X-163230D01*
X-162450Y1542200D01*
X-161970Y1541600D01*
X-161770Y1540400D01*
X-161970Y1539200D01*
X-162550Y1538450D01*
X-163230Y1538000D01*
X-165670D01*
G01X-163230D02*
X-161770Y1533650D01*
G01X-157700Y1541150D02*
X-157120Y1542050D01*
X-156430Y1542500D01*
X-155660Y1542650D01*
X-154680Y1542350D01*
X-154000Y1541600D01*
X-153810Y1540700D01*
X-153900Y1539800D01*
X-154290Y1539050D01*
X-156240Y1537550D01*
X-157120Y1536500D01*
X-157700Y1535000D01*
X-157890Y1533650D01*
X-153810D01*
G01X-171810Y1513450D02*
X-171420Y1513900D01*
X-171130Y1514650D01*
X-170940Y1515700D01*
X-171130Y1516600D01*
X-171520Y1517200D01*
X-172200Y1517650D01*
X-174830D01*
Y1508650D01*
X-171620D01*
X-170940Y1509250D01*
X-170550Y1510150D01*
X-170350Y1511200D01*
X-170550Y1512250D01*
X-171130Y1513150D01*
X-171810Y1513450D01*
X-174830D01*
G01X-166670Y1508650D02*
Y1517650D01*
X-164230D01*
X-163450Y1517200D01*
X-162970Y1516600D01*
X-162770Y1515400D01*
X-162970Y1514200D01*
X-163550Y1513450D01*
X-164230Y1513000D01*
X-166670D01*
G01X-164230D02*
X-162770Y1508650D01*
G01X-158990Y1510450D02*
X-158410Y1509400D01*
X-157630Y1508800D01*
X-156750Y1508650D01*
X-155970Y1508800D01*
X-155200Y1509550D01*
X-154710Y1510450D01*
X-154610Y1511350D01*
X-154810Y1512400D01*
X-155490Y1513150D01*
X-156170Y1513450D01*
X-157040D01*
G01X-156170D02*
X-155580Y1513900D01*
X-155100Y1514650D01*
X-154900Y1515550D01*
X-155100Y1516450D01*
X-155580Y1517200D01*
X-156460Y1517650D01*
X-157340Y1517500D01*
X-158210Y1516900D01*
G01X-171810Y1587450D02*
X-171420Y1587900D01*
X-171130Y1588650D01*
X-170940Y1589700D01*
X-171130Y1590600D01*
X-171520Y1591200D01*
X-172200Y1591650D01*
X-174830D01*
Y1582650D01*
X-171620D01*
X-170940Y1583250D01*
X-170550Y1584150D01*
X-170350Y1585200D01*
X-170550Y1586250D01*
X-171130Y1587150D01*
X-171810Y1587450D01*
X-174830D01*
G01X-166670Y1582650D02*
Y1591650D01*
X-164230D01*
X-163450Y1591200D01*
X-162970Y1590600D01*
X-162770Y1589400D01*
X-162970Y1588200D01*
X-163550Y1587450D01*
X-164230Y1587000D01*
X-166670D01*
G01X-164230D02*
X-162770Y1582650D01*
G01X-156850Y1591650D02*
X-157630Y1591350D01*
X-158210Y1590600D01*
X-158600Y1589700D01*
X-158890Y1588500D01*
X-158990Y1587150D01*
X-158890Y1585800D01*
X-158600Y1584600D01*
X-158210Y1583700D01*
X-157630Y1582950D01*
X-156850Y1582650D01*
X-156070Y1582950D01*
X-155490Y1583700D01*
X-155100Y1584600D01*
X-154810Y1585800D01*
X-154710Y1587150D01*
X-154810Y1588500D01*
X-155100Y1589700D01*
X-155490Y1590600D01*
X-156070Y1591350D01*
X-156850Y1591650D01*
G01X-167300Y1639800D02*
X-166910Y1640250D01*
X-166620Y1641000D01*
X-166430Y1642050D01*
X-166620Y1642950D01*
X-167010Y1643550D01*
X-167690Y1644000D01*
X-170320D01*
Y1635000D01*
X-167110D01*
X-166430Y1635600D01*
X-166040Y1636500D01*
X-165840Y1637550D01*
X-166040Y1638600D01*
X-166620Y1639500D01*
X-167300Y1639800D01*
X-170320D01*
G01X-162160Y1644000D02*
Y1635000D01*
X-158260D01*
G01X-178030Y1607000D02*
X-176080Y1619000D01*
G01X-174130D02*
X-176080Y1607000D01*
G01X-179000Y1611500D02*
X-173160D01*
G01Y1614500D02*
X-179000D01*
G01X-170160Y1610000D02*
Y1619000D01*
X-167720D01*
X-166940Y1618550D01*
X-166460Y1617950D01*
X-166260Y1616750D01*
X-166460Y1615550D01*
X-167040Y1614800D01*
X-167720Y1614350D01*
X-170160D01*
G01X-167720D02*
X-166260Y1610000D01*
G01X-158390D02*
X-162290D01*
Y1619000D01*
X-158390D01*
G01X-159950Y1614650D02*
X-162290D01*
G01X-154510Y1611200D02*
X-153740Y1610450D01*
X-152860Y1610000D01*
X-152080D01*
X-151300Y1610450D01*
X-150720Y1611200D01*
X-150430Y1612250D01*
X-150620Y1613300D01*
X-151110Y1614200D01*
X-151980Y1614800D01*
X-153150Y1615100D01*
X-153830Y1615700D01*
X-154120Y1616750D01*
X-153930Y1617800D01*
X-153440Y1618550D01*
X-152760Y1619000D01*
X-152080D01*
X-151400Y1618700D01*
X-150820Y1617950D01*
G01X-175030Y1667000D02*
X-173080Y1679000D01*
G01X-171130D02*
X-173080Y1667000D01*
G01X-176000Y1671500D02*
X-170160D01*
G01Y1674500D02*
X-176000D01*
G01X-167160Y1670000D02*
Y1679000D01*
X-164720D01*
X-163940Y1678550D01*
X-163460Y1677950D01*
X-163260Y1676750D01*
X-163460Y1675550D01*
X-164040Y1674800D01*
X-164720Y1674350D01*
X-167160D01*
G01X-164720D02*
X-163260Y1670000D01*
G01X-159480D02*
Y1679000D01*
X-157530D01*
X-156760Y1678550D01*
X-156170Y1677950D01*
X-155690Y1677050D01*
X-155300Y1676000D01*
X-155200Y1674500D01*
X-155300Y1673000D01*
X-155690Y1671950D01*
X-156170Y1671050D01*
X-156760Y1670450D01*
X-157530Y1670000D01*
X-159480D01*
G01X-173030Y1653000D02*
X-171080Y1665000D01*
G01X-169130D02*
X-171080Y1653000D01*
G01X-174000Y1657500D02*
X-168160D01*
G01Y1660500D02*
X-174000D01*
G01X-166130Y1665000D02*
X-164770Y1656000D01*
X-163210Y1665000D01*
X-161650Y1656000D01*
X-160290Y1665000D01*
G01X-157290Y1656000D02*
Y1665000D01*
X-154850D01*
X-154070Y1664550D01*
X-153590Y1663950D01*
X-153390Y1662750D01*
X-153590Y1661550D01*
X-154170Y1660800D01*
X-154850Y1660350D01*
X-157290D01*
G01X-154850D02*
X-153390Y1656000D01*
G01X-180030Y1678000D02*
X-178080Y1690000D01*
G01X-176130D02*
X-178080Y1678000D01*
G01X-181000Y1682500D02*
X-175160D01*
G01Y1685500D02*
X-181000D01*
G01X-168070Y1689250D02*
X-168650Y1689700D01*
X-169330Y1690000D01*
X-170110D01*
X-170990Y1689550D01*
X-171670Y1688800D01*
X-172160Y1687900D01*
X-172550Y1686400D01*
X-172640Y1685050D01*
X-172450Y1683700D01*
X-172160Y1682800D01*
X-171570Y1681900D01*
X-170890Y1681300D01*
X-170210Y1681000D01*
X-169530D01*
X-168850Y1681300D01*
X-168260Y1681750D01*
X-167780Y1682350D01*
G01X-164380Y1682200D02*
X-163610Y1681450D01*
X-162730Y1681000D01*
X-161950D01*
X-161170Y1681450D01*
X-160590Y1682200D01*
X-160300Y1683250D01*
X-160490Y1684300D01*
X-160980Y1685200D01*
X-161850Y1685800D01*
X-163020Y1686100D01*
X-163700Y1686700D01*
X-163990Y1687750D01*
X-163800Y1688800D01*
X-163310Y1689550D01*
X-162630Y1690000D01*
X-161950D01*
X-161270Y1689700D01*
X-160690Y1688950D01*
G01X-156610Y1682800D02*
X-156030Y1681750D01*
X-155250Y1681150D01*
X-154370Y1681000D01*
X-153590Y1681150D01*
X-152820Y1681900D01*
X-152330Y1682800D01*
X-152230Y1683700D01*
X-152430Y1684750D01*
X-153110Y1685500D01*
X-153790Y1685800D01*
X-154660D01*
G01X-153790D02*
X-153200Y1686250D01*
X-152720Y1687000D01*
X-152520Y1687900D01*
X-152720Y1688800D01*
X-153200Y1689550D01*
X-154080Y1690000D01*
X-154960Y1689850D01*
X-155830Y1689250D01*
G01X-181030Y1693000D02*
X-179080Y1705000D01*
G01X-177130D02*
X-179080Y1693000D01*
G01X-182000Y1697500D02*
X-176160D01*
G01Y1700500D02*
X-182000D01*
G01X-169070Y1704250D02*
X-169650Y1704700D01*
X-170330Y1705000D01*
X-171110D01*
X-171990Y1704550D01*
X-172670Y1703800D01*
X-173160Y1702900D01*
X-173550Y1701400D01*
X-173640Y1700050D01*
X-173450Y1698700D01*
X-173160Y1697800D01*
X-172570Y1696900D01*
X-171890Y1696300D01*
X-171210Y1696000D01*
X-170530D01*
X-169850Y1696300D01*
X-169260Y1696750D01*
X-168780Y1697350D01*
G01X-165380Y1697200D02*
X-164610Y1696450D01*
X-163730Y1696000D01*
X-162950D01*
X-162170Y1696450D01*
X-161590Y1697200D01*
X-161300Y1698250D01*
X-161490Y1699300D01*
X-161980Y1700200D01*
X-162850Y1700800D01*
X-164020Y1701100D01*
X-164700Y1701700D01*
X-164990Y1702750D01*
X-164800Y1703800D01*
X-164310Y1704550D01*
X-163630Y1705000D01*
X-162950D01*
X-162270Y1704700D01*
X-161690Y1703950D01*
G01X-157320Y1703500D02*
X-156740Y1704400D01*
X-156050Y1704850D01*
X-155280Y1705000D01*
X-154300Y1704700D01*
X-153620Y1703950D01*
X-153430Y1703050D01*
X-153520Y1702150D01*
X-153910Y1701400D01*
X-155860Y1699900D01*
X-156740Y1698850D01*
X-157320Y1697350D01*
X-157510Y1696000D01*
X-153430D01*
G01X-177030Y1707000D02*
X-175080Y1719000D01*
G01X-173130D02*
X-175080Y1707000D01*
G01X-178000Y1711500D02*
X-172160D01*
G01Y1714500D02*
X-178000D01*
G01X-165070Y1718250D02*
X-165650Y1718700D01*
X-166330Y1719000D01*
X-167110D01*
X-167990Y1718550D01*
X-168670Y1717800D01*
X-169160Y1716900D01*
X-169550Y1715400D01*
X-169640Y1714050D01*
X-169450Y1712700D01*
X-169160Y1711800D01*
X-168570Y1710900D01*
X-167890Y1710300D01*
X-167210Y1710000D01*
X-166530D01*
X-165850Y1710300D01*
X-165260Y1710750D01*
X-164780Y1711350D01*
G01X-161380Y1711200D02*
X-160610Y1710450D01*
X-159730Y1710000D01*
X-158950D01*
X-158170Y1710450D01*
X-157590Y1711200D01*
X-157300Y1712250D01*
X-157490Y1713300D01*
X-157980Y1714200D01*
X-158850Y1714800D01*
X-160020Y1715100D01*
X-160700Y1715700D01*
X-160990Y1716750D01*
X-160800Y1717800D01*
X-160310Y1718550D01*
X-159630Y1719000D01*
X-158950D01*
X-158270Y1718700D01*
X-157690Y1717950D01*
G01X-151470Y1710000D02*
Y1719000D01*
X-152640Y1717200D01*
G01Y1710000D02*
X-150300D01*
G01X-179030Y1721000D02*
X-177080Y1733000D01*
G01X-175130D02*
X-177080Y1721000D01*
G01X-180000Y1725500D02*
X-174160D01*
G01Y1728500D02*
X-180000D01*
G01X-167070Y1732250D02*
X-167650Y1732700D01*
X-168330Y1733000D01*
X-169110D01*
X-169990Y1732550D01*
X-170670Y1731800D01*
X-171160Y1730900D01*
X-171550Y1729400D01*
X-171640Y1728050D01*
X-171450Y1726700D01*
X-171160Y1725800D01*
X-170570Y1724900D01*
X-169890Y1724300D01*
X-169210Y1724000D01*
X-168530D01*
X-167850Y1724300D01*
X-167260Y1724750D01*
X-166780Y1725350D01*
G01X-163380Y1725200D02*
X-162610Y1724450D01*
X-161730Y1724000D01*
X-160950D01*
X-160170Y1724450D01*
X-159590Y1725200D01*
X-159300Y1726250D01*
X-159490Y1727300D01*
X-159980Y1728200D01*
X-160850Y1728800D01*
X-162020Y1729100D01*
X-162700Y1729700D01*
X-162990Y1730750D01*
X-162800Y1731800D01*
X-162310Y1732550D01*
X-161630Y1733000D01*
X-160950D01*
X-160270Y1732700D01*
X-159690Y1731950D01*
G01X-153470Y1733000D02*
X-154250Y1732700D01*
X-154830Y1731950D01*
X-155220Y1731050D01*
X-155510Y1729850D01*
X-155610Y1728500D01*
X-155510Y1727150D01*
X-155220Y1725950D01*
X-154830Y1725050D01*
X-154250Y1724300D01*
X-153470Y1724000D01*
X-152690Y1724300D01*
X-152110Y1725050D01*
X-151720Y1725950D01*
X-151430Y1727150D01*
X-151330Y1728500D01*
X-151430Y1729850D01*
X-151720Y1731050D01*
X-152110Y1731950D01*
X-152690Y1732700D01*
X-153470Y1733000D01*
G01X-170850Y1750540D02*
X-168420Y1759540D01*
X-165990Y1750540D01*
G01X-166860Y1753690D02*
X-169980D01*
G01X-162400Y1758040D02*
X-161820Y1758940D01*
X-161130Y1759390D01*
X-160360Y1759540D01*
X-159380Y1759240D01*
X-158700Y1758490D01*
X-158510Y1757590D01*
X-158600Y1756690D01*
X-158990Y1755940D01*
X-160940Y1754440D01*
X-161820Y1753390D01*
X-162400Y1751890D01*
X-162590Y1750540D01*
X-158510D01*
G01X-170850Y1762540D02*
X-168420Y1771540D01*
X-165990Y1762540D01*
G01X-166860Y1765690D02*
X-169980D01*
G01X-160550Y1762540D02*
Y1771540D01*
X-161720Y1769740D01*
G01Y1762540D02*
X-159380D01*
G01X-170850Y1774540D02*
X-168420Y1783540D01*
X-165990Y1774540D01*
G01X-166860Y1777690D02*
X-169980D01*
G01X-160550Y1783540D02*
X-161330Y1783240D01*
X-161910Y1782490D01*
X-162300Y1781590D01*
X-162590Y1780390D01*
X-162690Y1779040D01*
X-162590Y1777690D01*
X-162300Y1776490D01*
X-161910Y1775590D01*
X-161330Y1774840D01*
X-160550Y1774540D01*
X-159770Y1774840D01*
X-159190Y1775590D01*
X-158800Y1776490D01*
X-158510Y1777690D01*
X-158410Y1779040D01*
X-158510Y1780390D01*
X-158800Y1781590D01*
X-159190Y1782490D01*
X-159770Y1783240D01*
X-160550Y1783540D01*
G01X-171330Y1737660D02*
X-168900Y1746660D01*
X-166470Y1737660D01*
G01X-167340Y1740810D02*
X-170460D01*
G01X-163170Y1739460D02*
X-162590Y1738410D01*
X-161810Y1737810D01*
X-160930Y1737660D01*
X-160150Y1737810D01*
X-159380Y1738560D01*
X-158890Y1739460D01*
X-158790Y1740360D01*
X-158990Y1741410D01*
X-159670Y1742160D01*
X-160350Y1742460D01*
X-161220D01*
G01X-160350D02*
X-159760Y1742910D01*
X-159280Y1743660D01*
X-159080Y1744560D01*
X-159280Y1745460D01*
X-159760Y1746210D01*
X-160640Y1746660D01*
X-161520Y1746510D01*
X-162390Y1745910D01*
G01X-175220Y1788000D02*
Y1797000D01*
X-173270D01*
X-172500Y1796550D01*
X-171910Y1795950D01*
X-171430Y1795050D01*
X-171040Y1794000D01*
X-170940Y1792500D01*
X-171040Y1791000D01*
X-171430Y1789950D01*
X-171910Y1789050D01*
X-172500Y1788450D01*
X-173270Y1788000D01*
X-175220D01*
G01X-165210D02*
Y1797000D01*
X-166380Y1795200D01*
G01Y1788000D02*
X-164040D01*
G01X-159480Y1789350D02*
X-158900Y1788600D01*
X-158220Y1788150D01*
X-157340Y1788000D01*
X-156460Y1788300D01*
X-155780Y1788900D01*
X-155300Y1789950D01*
X-155200Y1791150D01*
X-155390Y1792350D01*
X-155880Y1793100D01*
X-156560Y1793700D01*
X-157240Y1793850D01*
X-157920Y1793700D01*
X-158800Y1793100D01*
X-158510Y1797000D01*
X-155880D01*
G01X-170920Y1863730D02*
Y1872730D01*
X-168970D01*
X-168200Y1872280D01*
X-167610Y1871680D01*
X-167130Y1870780D01*
X-166740Y1869730D01*
X-166640Y1868230D01*
X-166740Y1866730D01*
X-167130Y1865680D01*
X-167610Y1864780D01*
X-168200Y1864180D01*
X-168970Y1863730D01*
X-170920D01*
G01X-162560Y1864780D02*
X-161880Y1864030D01*
X-161100Y1863730D01*
X-160330Y1864030D01*
X-159640Y1864930D01*
X-159160Y1866280D01*
X-158960Y1867630D01*
Y1869280D01*
X-159160Y1870630D01*
X-159640Y1871830D01*
X-160230Y1872430D01*
X-160910Y1872730D01*
X-161690Y1872430D01*
X-162270Y1871830D01*
X-162660Y1870930D01*
X-162860Y1869730D01*
X-162660Y1868680D01*
X-162180Y1867630D01*
X-161590Y1867030D01*
X-160910Y1866880D01*
X-160130Y1867180D01*
X-159550Y1867930D01*
X-158960Y1869280D01*
G01X-174920Y1851730D02*
Y1860730D01*
X-172970D01*
X-172200Y1860280D01*
X-171610Y1859680D01*
X-171130Y1858780D01*
X-170740Y1857730D01*
X-170640Y1856230D01*
X-170740Y1854730D01*
X-171130Y1853680D01*
X-171610Y1852780D01*
X-172200Y1852180D01*
X-172970Y1851730D01*
X-174920D01*
G01X-164910D02*
Y1860730D01*
X-166080Y1858930D01*
G01Y1851730D02*
X-163740D01*
G01X-157040Y1860730D02*
X-157820Y1860430D01*
X-158400Y1859680D01*
X-158790Y1858780D01*
X-159080Y1857580D01*
X-159180Y1856230D01*
X-159080Y1854880D01*
X-158790Y1853680D01*
X-158400Y1852780D01*
X-157820Y1852030D01*
X-157040Y1851730D01*
X-156260Y1852030D01*
X-155680Y1852780D01*
X-155290Y1853680D01*
X-155000Y1854880D01*
X-154900Y1856230D01*
X-155000Y1857580D01*
X-155290Y1858780D01*
X-155680Y1859680D01*
X-156260Y1860430D01*
X-157040Y1860730D01*
G01X-174740Y1800880D02*
Y1809880D01*
X-172790D01*
X-172020Y1809430D01*
X-171430Y1808830D01*
X-170950Y1807930D01*
X-170560Y1806880D01*
X-170460Y1805380D01*
X-170560Y1803880D01*
X-170950Y1802830D01*
X-171430Y1801930D01*
X-172020Y1801330D01*
X-172790Y1800880D01*
X-174740D01*
G01X-164730D02*
Y1809880D01*
X-165900Y1808080D01*
G01Y1800880D02*
X-163560D01*
G01X-155690D02*
Y1809880D01*
X-159290Y1803430D01*
X-154430D01*
G01X-174740Y1824880D02*
Y1833880D01*
X-172790D01*
X-172020Y1833430D01*
X-171430Y1832830D01*
X-170950Y1831930D01*
X-170560Y1830880D01*
X-170460Y1829380D01*
X-170560Y1827880D01*
X-170950Y1826830D01*
X-171430Y1825930D01*
X-172020Y1825330D01*
X-172790Y1824880D01*
X-174740D01*
G01X-164730D02*
Y1833880D01*
X-165900Y1832080D01*
G01Y1824880D02*
X-163560D01*
G01X-158710Y1832380D02*
X-158130Y1833280D01*
X-157440Y1833730D01*
X-156670Y1833880D01*
X-155690Y1833580D01*
X-155010Y1832830D01*
X-154820Y1831930D01*
X-154910Y1831030D01*
X-155300Y1830280D01*
X-157250Y1828780D01*
X-158130Y1827730D01*
X-158710Y1826230D01*
X-158900Y1824880D01*
X-154820D01*
G01X-174740Y1812880D02*
Y1821880D01*
X-172790D01*
X-172020Y1821430D01*
X-171430Y1820830D01*
X-170950Y1819930D01*
X-170560Y1818880D01*
X-170460Y1817380D01*
X-170560Y1815880D01*
X-170950Y1814830D01*
X-171430Y1813930D01*
X-172020Y1813330D01*
X-172790Y1812880D01*
X-174740D01*
G01X-164730D02*
Y1821880D01*
X-165900Y1820080D01*
G01Y1812880D02*
X-163560D01*
G01X-159000Y1814680D02*
X-158420Y1813630D01*
X-157640Y1813030D01*
X-156760Y1812880D01*
X-155980Y1813030D01*
X-155210Y1813780D01*
X-154720Y1814680D01*
X-154620Y1815580D01*
X-154820Y1816630D01*
X-155500Y1817380D01*
X-156180Y1817680D01*
X-157050D01*
G01X-156180D02*
X-155590Y1818130D01*
X-155110Y1818880D01*
X-154910Y1819780D01*
X-155110Y1820680D01*
X-155590Y1821430D01*
X-156470Y1821880D01*
X-157350Y1821730D01*
X-158220Y1821130D01*
G01X-174920Y1838730D02*
Y1847730D01*
X-172970D01*
X-172200Y1847280D01*
X-171610Y1846680D01*
X-171130Y1845780D01*
X-170740Y1844730D01*
X-170640Y1843230D01*
X-170740Y1841730D01*
X-171130Y1840680D01*
X-171610Y1839780D01*
X-172200Y1839180D01*
X-172970Y1838730D01*
X-174920D01*
G01X-164910D02*
Y1847730D01*
X-166080Y1845930D01*
G01Y1838730D02*
X-163740D01*
G01X-157040D02*
Y1847730D01*
X-158210Y1845930D01*
G01Y1838730D02*
X-155870D01*
G01X-170920Y1875730D02*
Y1884730D01*
X-168970D01*
X-168200Y1884280D01*
X-167610Y1883680D01*
X-167130Y1882780D01*
X-166740Y1881730D01*
X-166640Y1880230D01*
X-166740Y1878730D01*
X-167130Y1877680D01*
X-167610Y1876780D01*
X-168200Y1876180D01*
X-168970Y1875730D01*
X-170920D01*
G01X-160910D02*
X-160230Y1875880D01*
X-159450Y1876330D01*
X-158960Y1877080D01*
X-158770Y1878130D01*
X-158960Y1879180D01*
X-159550Y1880080D01*
X-160420Y1880530D01*
X-161400D01*
X-161980Y1880830D01*
X-162470Y1881580D01*
X-162660Y1882630D01*
X-162370Y1883680D01*
X-161690Y1884430D01*
X-160910Y1884730D01*
X-160130Y1884430D01*
X-159450Y1883680D01*
X-159160Y1882630D01*
X-159350Y1881580D01*
X-159840Y1880830D01*
X-160420Y1880530D01*
X-161400D01*
X-162270Y1880080D01*
X-162860Y1879180D01*
X-163050Y1878130D01*
X-162860Y1877080D01*
X-162370Y1876330D01*
X-161590Y1875880D01*
X-160910Y1875730D01*
G01X-171220Y1927000D02*
Y1936000D01*
X-169270D01*
X-168500Y1935550D01*
X-167910Y1934950D01*
X-167430Y1934050D01*
X-167040Y1933000D01*
X-166940Y1931500D01*
X-167040Y1930000D01*
X-167430Y1928950D01*
X-167910Y1928050D01*
X-168500Y1927450D01*
X-169270Y1927000D01*
X-171220D01*
G01X-160040D02*
Y1936000D01*
X-163640Y1929550D01*
X-158780D01*
G01X-171040Y1901150D02*
Y1910150D01*
X-169090D01*
X-168320Y1909700D01*
X-167730Y1909100D01*
X-167250Y1908200D01*
X-166860Y1907150D01*
X-166760Y1905650D01*
X-166860Y1904150D01*
X-167250Y1903100D01*
X-167730Y1902200D01*
X-168320Y1901600D01*
X-169090Y1901150D01*
X-171040D01*
G01X-162880Y1904900D02*
X-162200Y1905950D01*
X-161610Y1906550D01*
X-160840Y1906850D01*
X-160150Y1906550D01*
X-159670Y1905950D01*
X-159280Y1905050D01*
X-159180Y1904000D01*
X-159280Y1903100D01*
X-159670Y1902200D01*
X-160250Y1901450D01*
X-160930Y1901150D01*
X-161710Y1901450D01*
X-162390Y1902350D01*
X-162780Y1903700D01*
X-162880Y1905200D01*
X-162680Y1907150D01*
X-162390Y1908200D01*
X-161910Y1909250D01*
X-161220Y1910000D01*
X-160540Y1910150D01*
X-159860Y1909850D01*
X-159380Y1909100D01*
G01X-171040Y1913150D02*
Y1922150D01*
X-169090D01*
X-168320Y1921700D01*
X-167730Y1921100D01*
X-167250Y1920200D01*
X-166860Y1919150D01*
X-166760Y1917650D01*
X-166860Y1916150D01*
X-167250Y1915100D01*
X-167730Y1914200D01*
X-168320Y1913600D01*
X-169090Y1913150D01*
X-171040D01*
G01X-163170Y1914500D02*
X-162590Y1913750D01*
X-161910Y1913300D01*
X-161030Y1913150D01*
X-160150Y1913450D01*
X-159470Y1914050D01*
X-158990Y1915100D01*
X-158890Y1916300D01*
X-159080Y1917500D01*
X-159570Y1918250D01*
X-160250Y1918850D01*
X-160930Y1919000D01*
X-161610Y1918850D01*
X-162490Y1918250D01*
X-162200Y1922150D01*
X-159570D01*
G01X-171040Y1889150D02*
Y1898150D01*
X-169090D01*
X-168320Y1897700D01*
X-167730Y1897100D01*
X-167250Y1896200D01*
X-166860Y1895150D01*
X-166760Y1893650D01*
X-166860Y1892150D01*
X-167250Y1891100D01*
X-167730Y1890200D01*
X-168320Y1889600D01*
X-169090Y1889150D01*
X-171040D01*
G01X-161220D02*
X-161030Y1891100D01*
X-160740Y1892750D01*
X-160350Y1894250D01*
X-159860Y1895900D01*
X-159080Y1898150D01*
X-162980D01*
G01X-171220Y1940000D02*
Y1949000D01*
X-169270D01*
X-168500Y1948550D01*
X-167910Y1947950D01*
X-167430Y1947050D01*
X-167040Y1946000D01*
X-166940Y1944500D01*
X-167040Y1943000D01*
X-167430Y1941950D01*
X-167910Y1941050D01*
X-168500Y1940450D01*
X-169270Y1940000D01*
X-171220D01*
G01X-163350Y1941800D02*
X-162770Y1940750D01*
X-161990Y1940150D01*
X-161110Y1940000D01*
X-160330Y1940150D01*
X-159560Y1940900D01*
X-159070Y1941800D01*
X-158970Y1942700D01*
X-159170Y1943750D01*
X-159850Y1944500D01*
X-160530Y1944800D01*
X-161400D01*
G01X-160530D02*
X-159940Y1945250D01*
X-159460Y1946000D01*
X-159260Y1946900D01*
X-159460Y1947800D01*
X-159940Y1948550D01*
X-160820Y1949000D01*
X-161700Y1948850D01*
X-162570Y1948250D01*
G01X-171220Y1952000D02*
Y1961000D01*
X-169270D01*
X-168500Y1960550D01*
X-167910Y1959950D01*
X-167430Y1959050D01*
X-167040Y1958000D01*
X-166940Y1956500D01*
X-167040Y1955000D01*
X-167430Y1953950D01*
X-167910Y1953050D01*
X-168500Y1952450D01*
X-169270Y1952000D01*
X-171220D01*
G01X-163060Y1959500D02*
X-162480Y1960400D01*
X-161790Y1960850D01*
X-161020Y1961000D01*
X-160040Y1960700D01*
X-159360Y1959950D01*
X-159170Y1959050D01*
X-159260Y1958150D01*
X-159650Y1957400D01*
X-161600Y1955900D01*
X-162480Y1954850D01*
X-163060Y1953350D01*
X-163250Y1952000D01*
X-159170D01*
G01X-171220Y1964000D02*
Y1973000D01*
X-169270D01*
X-168500Y1972550D01*
X-167910Y1971950D01*
X-167430Y1971050D01*
X-167040Y1970000D01*
X-166940Y1968500D01*
X-167040Y1967000D01*
X-167430Y1965950D01*
X-167910Y1965050D01*
X-168500Y1964450D01*
X-169270Y1964000D01*
X-171220D01*
G01X-161210D02*
Y1973000D01*
X-162380Y1971200D01*
G01Y1964000D02*
X-160040D01*
G01X-171220Y1977000D02*
Y1986000D01*
X-169270D01*
X-168500Y1985550D01*
X-167910Y1984950D01*
X-167430Y1984050D01*
X-167040Y1983000D01*
X-166940Y1981500D01*
X-167040Y1980000D01*
X-167430Y1978950D01*
X-167910Y1978050D01*
X-168500Y1977450D01*
X-169270Y1977000D01*
X-171220D01*
G01X-161210Y1986000D02*
X-161990Y1985700D01*
X-162570Y1984950D01*
X-162960Y1984050D01*
X-163250Y1982850D01*
X-163350Y1981500D01*
X-163250Y1980150D01*
X-162960Y1978950D01*
X-162570Y1978050D01*
X-161990Y1977300D01*
X-161210Y1977000D01*
X-160430Y1977300D01*
X-159850Y1978050D01*
X-159460Y1978950D01*
X-159170Y1980150D01*
X-159070Y1981500D01*
X-159170Y1982850D01*
X-159460Y1984050D01*
X-159850Y1984950D01*
X-160430Y1985700D01*
X-161210Y1986000D01*
G01X-90940Y21640D02*
X-91900Y22280D01*
X-93030Y22700D01*
X-94310D01*
X-95760Y22060D01*
X-96890Y21010D01*
X-97690Y19740D01*
X-98340Y17620D01*
X-98500Y15710D01*
X-98170Y13810D01*
X-97690Y12540D01*
X-96730Y11270D01*
X-95600Y10420D01*
X-94480Y10000D01*
X-93350D01*
X-92220Y10420D01*
X-91260Y11060D01*
X-90450Y11900D01*
G01X-85060D02*
X-84100Y10850D01*
X-82970Y10210D01*
X-81530Y10000D01*
X-80080Y10420D01*
X-78950Y11270D01*
X-78150Y12750D01*
X-77990Y14440D01*
X-78310Y16140D01*
X-79110Y17200D01*
X-80240Y18040D01*
X-81360Y18250D01*
X-82490Y18040D01*
X-83940Y17200D01*
X-83460Y22700D01*
X-79110D01*
G01X-105690Y120000D02*
Y132700D01*
X-101670D01*
X-100380Y132060D01*
X-99580Y131220D01*
X-99260Y129520D01*
X-99580Y127830D01*
X-100540Y126770D01*
X-101670Y126140D01*
X-105690D01*
G01X-101670D02*
X-99260Y120000D01*
G01X-92580Y125290D02*
X-91460Y126770D01*
X-90490Y127620D01*
X-89200Y128040D01*
X-88080Y127620D01*
X-87270Y126770D01*
X-86630Y125500D01*
X-86470Y124020D01*
X-86630Y122750D01*
X-87270Y121480D01*
X-88240Y120420D01*
X-89360Y120000D01*
X-90650Y120420D01*
X-91780Y121690D01*
X-92420Y123600D01*
X-92580Y125710D01*
X-92260Y128470D01*
X-91780Y129950D01*
X-90970Y131430D01*
X-89850Y132490D01*
X-88720Y132700D01*
X-87590Y132280D01*
X-86790Y131220D01*
G01X-100940Y201640D02*
X-101900Y202280D01*
X-103030Y202700D01*
X-104310D01*
X-105760Y202060D01*
X-106890Y201010D01*
X-107690Y199740D01*
X-108340Y197620D01*
X-108500Y195710D01*
X-108170Y193810D01*
X-107690Y192540D01*
X-106730Y191270D01*
X-105600Y190420D01*
X-104480Y190000D01*
X-103350D01*
X-102220Y190420D01*
X-101260Y191060D01*
X-100450Y191900D01*
G01X-89590Y190000D02*
Y202700D01*
X-95550Y193600D01*
X-87500D01*
G01X-98940Y233640D02*
X-99900Y234280D01*
X-101030Y234700D01*
X-102310D01*
X-103760Y234060D01*
X-104890Y233010D01*
X-105690Y231740D01*
X-106340Y229620D01*
X-106500Y227710D01*
X-106170Y225810D01*
X-105690Y224540D01*
X-104730Y223270D01*
X-103600Y222420D01*
X-102480Y222000D01*
X-101350D01*
X-100220Y222420D01*
X-99260Y223060D01*
X-98450Y223900D01*
G01X-89530Y222000D02*
Y234700D01*
X-91460Y232160D01*
G01Y222000D02*
X-87600D01*
G01X-123210Y350350D02*
X-119990D01*
Y346540D01*
X-120960Y345270D01*
X-122080Y344420D01*
X-123690Y344000D01*
X-125300Y344420D01*
X-126430Y345270D01*
X-127390Y346540D01*
X-128040Y348020D01*
X-128360Y349710D01*
Y351200D01*
X-128040Y352470D01*
X-127390Y353950D01*
X-126430Y355220D01*
X-125460Y356060D01*
X-124180Y356700D01*
X-123050D01*
X-121760Y356280D01*
X-120800Y355430D01*
G01X-114920Y344000D02*
Y356700D01*
X-107530Y344000D01*
Y356700D01*
G01X-101810Y344000D02*
Y356700D01*
X-98600D01*
X-97310Y356060D01*
X-96340Y355220D01*
X-95540Y353950D01*
X-94900Y352470D01*
X-94740Y350350D01*
X-94900Y348230D01*
X-95540Y346750D01*
X-96340Y345480D01*
X-97310Y344630D01*
X-98600Y344000D01*
X-101810D01*
G01X-89350D02*
X-85330Y356700D01*
X-81300Y344000D01*
G01X-82750Y348440D02*
X-87900D01*
G01X-93690Y314000D02*
Y326700D01*
X-89670D01*
X-88380Y326060D01*
X-87580Y325220D01*
X-87260Y323520D01*
X-87580Y321830D01*
X-88540Y320770D01*
X-89670Y320140D01*
X-93690D01*
G01X-89670D02*
X-87260Y314000D01*
G01X-75590D02*
Y326700D01*
X-81550Y317600D01*
X-73500D01*
G01X-123690Y314000D02*
Y326700D01*
X-119670D01*
X-118380Y326060D01*
X-117580Y325220D01*
X-117260Y323520D01*
X-117580Y321830D01*
X-118540Y320770D01*
X-119670Y320140D01*
X-123690D01*
G01X-119670D02*
X-117260Y314000D01*
G01X-111060Y316540D02*
X-110100Y315060D01*
X-108810Y314210D01*
X-107360Y314000D01*
X-106080Y314210D01*
X-104790Y315270D01*
X-103990Y316540D01*
X-103830Y317810D01*
X-104150Y319290D01*
X-105270Y320350D01*
X-106400Y320770D01*
X-107850D01*
G01X-106400D02*
X-105430Y321410D01*
X-104630Y322470D01*
X-104310Y323740D01*
X-104630Y325010D01*
X-105430Y326060D01*
X-106880Y326700D01*
X-108330Y326490D01*
X-109780Y325640D01*
G01X-121940Y878640D02*
X-122900Y879280D01*
X-124030Y879700D01*
X-125310D01*
X-126760Y879060D01*
X-127890Y878010D01*
X-128690Y876740D01*
X-129340Y874620D01*
X-129500Y872710D01*
X-129170Y870810D01*
X-128690Y869540D01*
X-127730Y868270D01*
X-126600Y867420D01*
X-125480Y867000D01*
X-124350D01*
X-123220Y867420D01*
X-122260Y868060D01*
X-121450Y868900D01*
G01X-112530Y867000D02*
X-111400Y867210D01*
X-110110Y867850D01*
X-109310Y868900D01*
X-108990Y870390D01*
X-109310Y871870D01*
X-110270Y873140D01*
X-111720Y873770D01*
X-113330D01*
X-114290Y874200D01*
X-115100Y875250D01*
X-115420Y876740D01*
X-114940Y878220D01*
X-113810Y879280D01*
X-112530Y879700D01*
X-111240Y879280D01*
X-110110Y878220D01*
X-109630Y876740D01*
X-109950Y875250D01*
X-110760Y874200D01*
X-111720Y873770D01*
X-113330D01*
X-114780Y873140D01*
X-115740Y871870D01*
X-116060Y870390D01*
X-115740Y868900D01*
X-114940Y867850D01*
X-113650Y867210D01*
X-112530Y867000D01*
G01X-118500Y853250D02*
Y861250D01*
G01X-74940Y1019640D02*
X-75900Y1020280D01*
X-77030Y1020700D01*
X-78310D01*
X-79760Y1020060D01*
X-80890Y1019010D01*
X-81690Y1017740D01*
X-82340Y1015620D01*
X-82500Y1013710D01*
X-82170Y1011810D01*
X-81690Y1010540D01*
X-80730Y1009270D01*
X-79600Y1008420D01*
X-78480Y1008000D01*
X-77350D01*
X-76220Y1008420D01*
X-75260Y1009060D01*
X-74450Y1009900D01*
G01X-68580Y1013290D02*
X-67460Y1014770D01*
X-66490Y1015620D01*
X-65200Y1016040D01*
X-64080Y1015620D01*
X-63270Y1014770D01*
X-62630Y1013500D01*
X-62470Y1012020D01*
X-62630Y1010750D01*
X-63270Y1009480D01*
X-64240Y1008420D01*
X-65360Y1008000D01*
X-66650Y1008420D01*
X-67780Y1009690D01*
X-68420Y1011600D01*
X-68580Y1013710D01*
X-68260Y1016470D01*
X-67780Y1017950D01*
X-66970Y1019430D01*
X-65850Y1020490D01*
X-64720Y1020700D01*
X-63590Y1020280D01*
X-62790Y1019220D01*
G01X-94940Y1037640D02*
X-95900Y1038280D01*
X-97030Y1038700D01*
X-98310D01*
X-99760Y1038060D01*
X-100890Y1037010D01*
X-101690Y1035740D01*
X-102340Y1033620D01*
X-102500Y1031710D01*
X-102170Y1029810D01*
X-101690Y1028540D01*
X-100730Y1027270D01*
X-99600Y1026420D01*
X-98480Y1026000D01*
X-97350D01*
X-96220Y1026420D01*
X-95260Y1027060D01*
X-94450Y1027900D01*
G01X-85850Y1026000D02*
X-85530Y1028750D01*
X-85040Y1031080D01*
X-84400Y1033200D01*
X-83590Y1035520D01*
X-82310Y1038700D01*
X-88740D01*
G01X-110300Y1024500D02*
X-118300D01*
G01X-63900Y1042000D02*
Y1051000D01*
X-61460D01*
X-60680Y1050550D01*
X-60200Y1049950D01*
X-60000Y1048750D01*
X-60200Y1047550D01*
X-60780Y1046800D01*
X-61460Y1046350D01*
X-63900D01*
G01X-61460D02*
X-60000Y1042000D01*
G01X-54080D02*
X-53400Y1042150D01*
X-52620Y1042600D01*
X-52130Y1043350D01*
X-51940Y1044400D01*
X-52130Y1045450D01*
X-52720Y1046350D01*
X-53590Y1046800D01*
X-54570D01*
X-55150Y1047100D01*
X-55640Y1047850D01*
X-55830Y1048900D01*
X-55540Y1049950D01*
X-54860Y1050700D01*
X-54080Y1051000D01*
X-53300Y1050700D01*
X-52620Y1049950D01*
X-52330Y1048900D01*
X-52520Y1047850D01*
X-53010Y1047100D01*
X-53590Y1046800D01*
X-54570D01*
X-55440Y1046350D01*
X-56030Y1045450D01*
X-56220Y1044400D01*
X-56030Y1043350D01*
X-55540Y1042600D01*
X-54760Y1042150D01*
X-54080Y1042000D01*
G01X-91900D02*
Y1051000D01*
X-89460D01*
X-88680Y1050550D01*
X-88200Y1049950D01*
X-88000Y1048750D01*
X-88200Y1047550D01*
X-88780Y1046800D01*
X-89460Y1046350D01*
X-91900D01*
G01X-89460D02*
X-88000Y1042000D01*
G01X-83730Y1043050D02*
X-83050Y1042300D01*
X-82270Y1042000D01*
X-81500Y1042300D01*
X-80810Y1043200D01*
X-80330Y1044550D01*
X-80130Y1045900D01*
Y1047550D01*
X-80330Y1048900D01*
X-80810Y1050100D01*
X-81400Y1050700D01*
X-82080Y1051000D01*
X-82860Y1050700D01*
X-83440Y1050100D01*
X-83830Y1049200D01*
X-84030Y1048000D01*
X-83830Y1046950D01*
X-83350Y1045900D01*
X-82760Y1045300D01*
X-82080Y1045150D01*
X-81300Y1045450D01*
X-80720Y1046200D01*
X-80130Y1047550D01*
G01X-112940Y1237640D02*
X-113900Y1238280D01*
X-115030Y1238700D01*
X-116310D01*
X-117760Y1238060D01*
X-118890Y1237010D01*
X-119690Y1235740D01*
X-120340Y1233620D01*
X-120500Y1231710D01*
X-120170Y1229810D01*
X-119690Y1228540D01*
X-118730Y1227270D01*
X-117600Y1226420D01*
X-116480Y1226000D01*
X-115350D01*
X-114220Y1226420D01*
X-113260Y1227060D01*
X-112450Y1227900D01*
G01X-106580Y1236580D02*
X-105620Y1237850D01*
X-104490Y1238490D01*
X-103200Y1238700D01*
X-101590Y1238280D01*
X-100470Y1237220D01*
X-100150Y1235950D01*
X-100310Y1234680D01*
X-100950Y1233620D01*
X-104170Y1231500D01*
X-105620Y1230020D01*
X-106580Y1227900D01*
X-106900Y1226000D01*
X-100150D01*
G01X-82550Y1227900D02*
Y1235900D01*
G01X-74550Y1200000D02*
X-67800Y1212700D01*
G01X-74550D02*
X-67800Y1200000D01*
G01X-60960Y1201480D02*
X-59830Y1200420D01*
X-58550Y1200000D01*
X-57260Y1200420D01*
X-56130Y1201690D01*
X-55330Y1203600D01*
X-55010Y1205500D01*
Y1207830D01*
X-55330Y1209740D01*
X-56130Y1211430D01*
X-57100Y1212280D01*
X-58230Y1212700D01*
X-59510Y1212280D01*
X-60480Y1211430D01*
X-61120Y1210160D01*
X-61440Y1208470D01*
X-61120Y1206990D01*
X-60320Y1205500D01*
X-59350Y1204660D01*
X-58230Y1204440D01*
X-56940Y1204870D01*
X-55970Y1205930D01*
X-55010Y1207830D01*
G01X-126020Y1289000D02*
Y1301700D01*
X-119910D01*
G01X-122160Y1295560D02*
X-126020D01*
G01X-113550Y1301700D02*
Y1292600D01*
X-112910Y1290690D01*
X-111620Y1289420D01*
X-110020Y1289000D01*
X-108410Y1289420D01*
X-107120Y1290690D01*
X-106480Y1292600D01*
Y1301700D01*
G01X-97070Y1289000D02*
Y1301700D01*
X-99000Y1299160D01*
G01Y1289000D02*
X-95140D01*
G01X-91690Y1312000D02*
Y1324700D01*
X-87670D01*
X-86380Y1324060D01*
X-85580Y1323220D01*
X-85260Y1321520D01*
X-85580Y1319830D01*
X-86540Y1318770D01*
X-87670Y1318140D01*
X-91690D01*
G01X-87670D02*
X-85260Y1312000D01*
G01X-75530D02*
Y1324700D01*
X-77460Y1322160D01*
G01Y1312000D02*
X-73600D01*
G01X-126940Y1365230D02*
X-123080D01*
G01X-125180Y1367990D02*
Y1362480D01*
G01X-115760Y1362900D02*
X-114800Y1361850D01*
X-113670Y1361210D01*
X-112230Y1361000D01*
X-110780Y1361420D01*
X-109650Y1362270D01*
X-108850Y1363750D01*
X-108690Y1365440D01*
X-109010Y1367140D01*
X-109810Y1368200D01*
X-110940Y1369040D01*
X-112060Y1369250D01*
X-113190Y1369040D01*
X-114640Y1368200D01*
X-114160Y1373700D01*
X-109810D01*
G01X-97990Y1367770D02*
X-97340Y1368410D01*
X-96860Y1369470D01*
X-96540Y1370950D01*
X-96860Y1372220D01*
X-97510Y1373060D01*
X-98630Y1373700D01*
X-102970D01*
Y1361000D01*
X-97670D01*
X-96540Y1361850D01*
X-95900Y1363120D01*
X-95580Y1364600D01*
X-95900Y1366080D01*
X-96860Y1367350D01*
X-97990Y1367770D01*
X-102970D01*
G01X-75830Y1384190D02*
X-67830D01*
G01X-71830Y1388190D02*
Y1380190D01*
G01X-123820Y1406000D02*
Y1415000D01*
X-121380D01*
X-120600Y1414550D01*
X-120120Y1413950D01*
X-119920Y1412750D01*
X-120120Y1411550D01*
X-120700Y1410800D01*
X-121380Y1410350D01*
X-123820D01*
G01X-121380D02*
X-119920Y1406000D01*
G01X-114000D02*
Y1415000D01*
X-115170Y1413200D01*
G01Y1406000D02*
X-112830D01*
G01X-108270Y1407800D02*
X-107690Y1406750D01*
X-106910Y1406150D01*
X-106030Y1406000D01*
X-105250Y1406150D01*
X-104480Y1406900D01*
X-103990Y1407800D01*
X-103890Y1408700D01*
X-104090Y1409750D01*
X-104770Y1410500D01*
X-105450Y1410800D01*
X-106320D01*
G01X-105450D02*
X-104860Y1411250D01*
X-104380Y1412000D01*
X-104180Y1412900D01*
X-104380Y1413800D01*
X-104860Y1414550D01*
X-105740Y1415000D01*
X-106620Y1414850D01*
X-107490Y1414250D01*
G01X-125300Y1390000D02*
X-122870Y1381000D01*
X-120440Y1390000D01*
G01X-117140Y1381000D02*
Y1390000D01*
X-115190D01*
X-114420Y1389550D01*
X-113830Y1388950D01*
X-113350Y1388050D01*
X-112960Y1387000D01*
X-112860Y1385500D01*
X-112960Y1384000D01*
X-113350Y1382950D01*
X-113830Y1382050D01*
X-114420Y1381450D01*
X-115190Y1381000D01*
X-117140D01*
G01X-107130D02*
Y1390000D01*
X-108300Y1388200D01*
G01Y1381000D02*
X-105960D01*
G01X-122820Y1482000D02*
Y1491000D01*
X-120380D01*
X-119600Y1490550D01*
X-119120Y1489950D01*
X-118920Y1488750D01*
X-119120Y1487550D01*
X-119700Y1486800D01*
X-120380Y1486350D01*
X-122820D01*
G01X-120380D02*
X-118920Y1482000D01*
G01X-113000D02*
Y1491000D01*
X-114170Y1489200D01*
G01Y1482000D02*
X-111830D01*
G01X-105130Y1491000D02*
X-105910Y1490700D01*
X-106490Y1489950D01*
X-106880Y1489050D01*
X-107170Y1487850D01*
X-107270Y1486500D01*
X-107170Y1485150D01*
X-106880Y1483950D01*
X-106490Y1483050D01*
X-105910Y1482300D01*
X-105130Y1482000D01*
X-104350Y1482300D01*
X-103770Y1483050D01*
X-103380Y1483950D01*
X-103090Y1485150D01*
X-102990Y1486500D01*
X-103090Y1487850D01*
X-103380Y1489050D01*
X-103770Y1489950D01*
X-104350Y1490700D01*
X-105130Y1491000D01*
G01X-122820Y1457000D02*
Y1466000D01*
X-120380D01*
X-119600Y1465550D01*
X-119120Y1464950D01*
X-118920Y1463750D01*
X-119120Y1462550D01*
X-119700Y1461800D01*
X-120380Y1461350D01*
X-122820D01*
G01X-120380D02*
X-118920Y1457000D01*
G01X-113000D02*
Y1466000D01*
X-114170Y1464200D01*
G01Y1457000D02*
X-111830D01*
G01X-105130D02*
Y1466000D01*
X-106300Y1464200D01*
G01Y1457000D02*
X-103960D01*
G01X-123820Y1431000D02*
Y1440000D01*
X-121380D01*
X-120600Y1439550D01*
X-120120Y1438950D01*
X-119920Y1437750D01*
X-120120Y1436550D01*
X-120700Y1435800D01*
X-121380Y1435350D01*
X-123820D01*
G01X-121380D02*
X-119920Y1431000D01*
G01X-114000D02*
Y1440000D01*
X-115170Y1438200D01*
G01Y1431000D02*
X-112830D01*
G01X-107980Y1438500D02*
X-107400Y1439400D01*
X-106710Y1439850D01*
X-105940Y1440000D01*
X-104960Y1439700D01*
X-104280Y1438950D01*
X-104090Y1438050D01*
X-104180Y1437150D01*
X-104570Y1436400D01*
X-106520Y1434900D01*
X-107400Y1433850D01*
X-107980Y1432350D01*
X-108170Y1431000D01*
X-104090D01*
G01X-69920Y1617060D02*
Y1609060D01*
G01X-73920Y1613060D02*
X-65920D01*
G01X-69920Y1642060D02*
Y1634060D01*
G01X-73920Y1638060D02*
X-65920D01*
G01X-69920Y1668060D02*
Y1660060D01*
G01X-73920Y1664060D02*
X-65920D01*
G01X-69920Y1680060D02*
Y1672060D01*
G01X-73920Y1676060D02*
X-65920D01*
G01X-69920Y1693060D02*
Y1685060D01*
G01X-73920Y1689060D02*
X-65920D01*
G01X-69920Y1705060D02*
Y1697060D01*
G01X-73920Y1701060D02*
X-65920D01*
G01X-69920Y1718060D02*
Y1710060D01*
G01X-73920Y1714060D02*
X-65920D01*
G01X-69920Y1731060D02*
Y1723060D01*
G01X-73920Y1727060D02*
X-65920D01*
G01X-69920Y1744060D02*
Y1736060D01*
G01X-73920Y1740060D02*
X-65920D01*
G01X-69920Y1757060D02*
Y1749060D01*
G01X-73920Y1753060D02*
X-65920D01*
G01X-69920Y1769060D02*
Y1761060D01*
G01X-73920Y1765060D02*
X-65920D01*
G01X-69920Y1782060D02*
Y1774060D01*
G01X-73920Y1778060D02*
X-65920D01*
G01X-69920Y1795060D02*
Y1787060D01*
G01X-73920Y1791060D02*
X-65920D01*
G01X-69920Y1807060D02*
Y1799060D01*
G01X-73920Y1803060D02*
X-65920D01*
G01X-69920Y1820060D02*
Y1812060D01*
G01X-73920Y1816060D02*
X-65920D01*
G01X-69920Y1833060D02*
Y1825060D01*
G01X-73920Y1829060D02*
X-65920D01*
G01X-69920Y1845060D02*
Y1837060D01*
G01X-73920Y1841060D02*
X-65920D01*
G01X-69920Y1858060D02*
Y1850060D01*
G01X-73920Y1854060D02*
X-65920D01*
G01X-69920Y1871060D02*
Y1863060D01*
G01X-73920Y1867060D02*
X-65920D01*
G01X-69920Y1884060D02*
Y1876060D01*
G01X-73920Y1880060D02*
X-65920D01*
G01X-69920Y1896060D02*
Y1888060D01*
G01X-73920Y1892060D02*
X-65920D01*
G01X-69920Y1909060D02*
Y1901060D01*
G01X-73920Y1905060D02*
X-65920D01*
G01X-69920Y1922060D02*
Y1914060D01*
G01X-73920Y1918060D02*
X-65920D01*
G01X-69920Y1934060D02*
Y1926060D01*
G01X-73920Y1930060D02*
X-65920D01*
G01X-69920Y1948060D02*
Y1940060D01*
G01X-73920Y1944060D02*
X-65920D01*
G01X-69920Y1960060D02*
Y1952060D01*
G01X-73920Y1956060D02*
X-65920D01*
G01X-69920Y1973060D02*
Y1965060D01*
G01X-73920Y1969060D02*
X-65920D01*
G01X-69920Y1985060D02*
Y1977060D01*
G01X-73920Y1981060D02*
X-65920D01*
G01X-100210Y2130350D02*
X-96990D01*
Y2126540D01*
X-97960Y2125270D01*
X-99080Y2124420D01*
X-100690Y2124000D01*
X-102300Y2124420D01*
X-103430Y2125270D01*
X-104390Y2126540D01*
X-105040Y2128020D01*
X-105360Y2129710D01*
Y2131200D01*
X-105040Y2132470D01*
X-104390Y2133950D01*
X-103430Y2135220D01*
X-102460Y2136060D01*
X-101180Y2136700D01*
X-100050D01*
X-98760Y2136280D01*
X-97800Y2135430D01*
G01X-91920Y2124000D02*
Y2136700D01*
X-84530Y2124000D01*
Y2136700D01*
G01X-78810Y2124000D02*
Y2136700D01*
X-75600D01*
X-74310Y2136060D01*
X-73340Y2135220D01*
X-72540Y2133950D01*
X-71900Y2132470D01*
X-71740Y2130350D01*
X-71900Y2128230D01*
X-72540Y2126750D01*
X-73340Y2125480D01*
X-74310Y2124630D01*
X-75600Y2124000D01*
X-78810D01*
G01X-98120Y2206000D02*
X-94040Y2215000D01*
G01X-98120D02*
X-94040Y2206000D01*
G01X-88210D02*
Y2215000D01*
X-89380Y2213200D01*
G01Y2206000D02*
X-87040D01*
G01X-79170D02*
Y2215000D01*
X-82770Y2208550D01*
X-77910D01*
G01X-39300Y706000D02*
X-36870Y697000D01*
X-34440Y706000D01*
G01X-31140Y697000D02*
Y706000D01*
X-29190D01*
X-28420Y705550D01*
X-27830Y704950D01*
X-27350Y704050D01*
X-26960Y703000D01*
X-26860Y701500D01*
X-26960Y700000D01*
X-27350Y698950D01*
X-27830Y698050D01*
X-28420Y697450D01*
X-29190Y697000D01*
X-31140D01*
G01X-22980Y700750D02*
X-22300Y701800D01*
X-21710Y702400D01*
X-20940Y702700D01*
X-20250Y702400D01*
X-19770Y701800D01*
X-19380Y700900D01*
X-19280Y699850D01*
X-19380Y698950D01*
X-19770Y698050D01*
X-20350Y697300D01*
X-21030Y697000D01*
X-21810Y697300D01*
X-22490Y698200D01*
X-22880Y699550D01*
X-22980Y701050D01*
X-22780Y703000D01*
X-22490Y704050D01*
X-22010Y705100D01*
X-21320Y705850D01*
X-20640Y706000D01*
X-19960Y705700D01*
X-19480Y704950D01*
G01X-39300Y718000D02*
X-36870Y709000D01*
X-34440Y718000D01*
G01X-31140Y709000D02*
Y718000D01*
X-29190D01*
X-28420Y717550D01*
X-27830Y716950D01*
X-27350Y716050D01*
X-26960Y715000D01*
X-26860Y713500D01*
X-26960Y712000D01*
X-27350Y710950D01*
X-27830Y710050D01*
X-28420Y709450D01*
X-29190Y709000D01*
X-31140D01*
G01X-21320D02*
X-21130Y710950D01*
X-20840Y712600D01*
X-20450Y714100D01*
X-19960Y715750D01*
X-19180Y718000D01*
X-23080D01*
G01X-39300Y730000D02*
X-36870Y721000D01*
X-34440Y730000D01*
G01X-31140Y721000D02*
Y730000D01*
X-29190D01*
X-28420Y729550D01*
X-27830Y728950D01*
X-27350Y728050D01*
X-26960Y727000D01*
X-26860Y725500D01*
X-26960Y724000D01*
X-27350Y722950D01*
X-27830Y722050D01*
X-28420Y721450D01*
X-29190Y721000D01*
X-31140D01*
G01X-21130D02*
X-20450Y721150D01*
X-19670Y721600D01*
X-19180Y722350D01*
X-18990Y723400D01*
X-19180Y724450D01*
X-19770Y725350D01*
X-20640Y725800D01*
X-21620D01*
X-22200Y726100D01*
X-22690Y726850D01*
X-22880Y727900D01*
X-22590Y728950D01*
X-21910Y729700D01*
X-21130Y730000D01*
X-20350Y729700D01*
X-19670Y728950D01*
X-19380Y727900D01*
X-19570Y726850D01*
X-20060Y726100D01*
X-20640Y725800D01*
X-21620D01*
X-22490Y725350D01*
X-23080Y724450D01*
X-23270Y723400D01*
X-23080Y722350D01*
X-22590Y721600D01*
X-21810Y721150D01*
X-21130Y721000D01*
G01X-4570Y811570D02*
X4430Y809140D01*
X-4570Y806710D01*
G01X-1420Y807580D02*
Y810700D01*
G01X-4570Y801270D02*
X4430D01*
X2630Y802440D01*
G01X-4570D02*
Y800100D01*
G01X-47320Y807000D02*
X-46870Y807580D01*
X-46570Y808260D01*
Y809040D01*
X-47020Y809920D01*
X-47770Y810600D01*
X-48670Y811090D01*
X-50170Y811480D01*
X-51520Y811570D01*
X-52870Y811380D01*
X-53770Y811090D01*
X-54670Y810500D01*
X-55270Y809820D01*
X-55570Y809140D01*
Y808460D01*
X-55270Y807780D01*
X-54820Y807190D01*
X-54220Y806710D01*
G01X-55570Y801270D02*
X-46570D01*
X-48370Y802440D01*
G01X-55570D02*
Y800100D01*
G01X-39300Y744000D02*
X-36870Y735000D01*
X-34440Y744000D01*
G01X-31140Y735000D02*
Y744000D01*
X-29190D01*
X-28420Y743550D01*
X-27830Y742950D01*
X-27350Y742050D01*
X-26960Y741000D01*
X-26860Y739500D01*
X-26960Y738000D01*
X-27350Y736950D01*
X-27830Y736050D01*
X-28420Y735450D01*
X-29190Y735000D01*
X-31140D01*
G01X-22780Y736050D02*
X-22100Y735300D01*
X-21320Y735000D01*
X-20550Y735300D01*
X-19860Y736200D01*
X-19380Y737550D01*
X-19180Y738900D01*
Y740550D01*
X-19380Y741900D01*
X-19860Y743100D01*
X-20450Y743700D01*
X-21130Y744000D01*
X-21910Y743700D01*
X-22490Y743100D01*
X-22880Y742200D01*
X-23080Y741000D01*
X-22880Y739950D01*
X-22400Y738900D01*
X-21810Y738300D01*
X-21130Y738150D01*
X-20350Y738450D01*
X-19770Y739200D01*
X-19180Y740550D01*
G01X-39250Y756000D02*
X-36820Y747000D01*
X-34390Y756000D01*
G01X-31090Y747000D02*
Y756000D01*
X-29140D01*
X-28370Y755550D01*
X-27780Y754950D01*
X-27300Y754050D01*
X-26910Y753000D01*
X-26810Y751500D01*
X-26910Y750000D01*
X-27300Y748950D01*
X-27780Y748050D01*
X-28370Y747450D01*
X-29140Y747000D01*
X-31090D01*
G01X-21080D02*
Y756000D01*
X-22250Y754200D01*
G01Y747000D02*
X-19910D01*
G01X-13210Y756000D02*
X-13990Y755700D01*
X-14570Y754950D01*
X-14960Y754050D01*
X-15250Y752850D01*
X-15350Y751500D01*
X-15250Y750150D01*
X-14960Y748950D01*
X-14570Y748050D01*
X-13990Y747300D01*
X-13210Y747000D01*
X-12430Y747300D01*
X-11850Y748050D01*
X-11460Y748950D01*
X-11170Y750150D01*
X-11070Y751500D01*
X-11170Y752850D01*
X-11460Y754050D01*
X-11850Y754950D01*
X-12430Y755700D01*
X-13210Y756000D01*
G01X-39250Y768000D02*
X-36820Y759000D01*
X-34390Y768000D01*
G01X-31090Y759000D02*
Y768000D01*
X-29140D01*
X-28370Y767550D01*
X-27780Y766950D01*
X-27300Y766050D01*
X-26910Y765000D01*
X-26810Y763500D01*
X-26910Y762000D01*
X-27300Y760950D01*
X-27780Y760050D01*
X-28370Y759450D01*
X-29140Y759000D01*
X-31090D01*
G01X-21080D02*
Y768000D01*
X-22250Y766200D01*
G01Y759000D02*
X-19910D01*
G01X-13210D02*
Y768000D01*
X-14380Y766200D01*
G01Y759000D02*
X-12040D01*
G01X-39250Y782000D02*
X-36820Y773000D01*
X-34390Y782000D01*
G01X-31090Y773000D02*
Y782000D01*
X-29140D01*
X-28370Y781550D01*
X-27780Y780950D01*
X-27300Y780050D01*
X-26910Y779000D01*
X-26810Y777500D01*
X-26910Y776000D01*
X-27300Y774950D01*
X-27780Y774050D01*
X-28370Y773450D01*
X-29140Y773000D01*
X-31090D01*
G01X-21080D02*
Y782000D01*
X-22250Y780200D01*
G01Y773000D02*
X-19910D01*
G01X-15060Y780500D02*
X-14480Y781400D01*
X-13790Y781850D01*
X-13020Y782000D01*
X-12040Y781700D01*
X-11360Y780950D01*
X-11170Y780050D01*
X-11260Y779150D01*
X-11650Y778400D01*
X-13600Y776900D01*
X-14480Y775850D01*
X-15060Y774350D01*
X-15250Y773000D01*
X-11170D01*
G01X-39250Y794000D02*
X-36820Y785000D01*
X-34390Y794000D01*
G01X-31090Y785000D02*
Y794000D01*
X-29140D01*
X-28370Y793550D01*
X-27780Y792950D01*
X-27300Y792050D01*
X-26910Y791000D01*
X-26810Y789500D01*
X-26910Y788000D01*
X-27300Y786950D01*
X-27780Y786050D01*
X-28370Y785450D01*
X-29140Y785000D01*
X-31090D01*
G01X-21080D02*
Y794000D01*
X-22250Y792200D01*
G01Y785000D02*
X-19910D01*
G01X-15350Y786800D02*
X-14770Y785750D01*
X-13990Y785150D01*
X-13110Y785000D01*
X-12330Y785150D01*
X-11560Y785900D01*
X-11070Y786800D01*
X-10970Y787700D01*
X-11170Y788750D01*
X-11850Y789500D01*
X-12530Y789800D01*
X-13400D01*
G01X-12530D02*
X-11940Y790250D01*
X-11460Y791000D01*
X-11260Y791900D01*
X-11460Y792800D01*
X-11940Y793550D01*
X-12820Y794000D01*
X-13700Y793850D01*
X-14570Y793250D01*
G01X-1210Y954350D02*
X2010D01*
Y950540D01*
X1040Y949270D01*
X-80Y948420D01*
X-1690Y948000D01*
X-3300Y948420D01*
X-4430Y949270D01*
X-5390Y950540D01*
X-6040Y952020D01*
X-6360Y953710D01*
Y955200D01*
X-6040Y956470D01*
X-5390Y957950D01*
X-4430Y959220D01*
X-3460Y960060D01*
X-2180Y960700D01*
X-1050D01*
X240Y960280D01*
X1200Y959430D01*
G01X7080Y948000D02*
Y960700D01*
X14470Y948000D01*
Y960700D01*
G01X20190Y948000D02*
Y960700D01*
X23400D01*
X24690Y960060D01*
X25660Y959220D01*
X26460Y957950D01*
X27100Y956470D01*
X27260Y954350D01*
X27100Y952230D01*
X26460Y950750D01*
X25660Y949480D01*
X24690Y948630D01*
X23400Y948000D01*
X20190D01*
G01X39890D02*
X33460D01*
Y960700D01*
X39890D01*
G01X37320Y954560D02*
X33460D01*
G01X-54800Y1024500D02*
X-46800D01*
G01X-6940Y1045640D02*
X-7900Y1046280D01*
X-9030Y1046700D01*
X-10310D01*
X-11760Y1046060D01*
X-12890Y1045010D01*
X-13690Y1043740D01*
X-14340Y1041620D01*
X-14500Y1039710D01*
X-14170Y1037810D01*
X-13690Y1036540D01*
X-12730Y1035270D01*
X-11600Y1034420D01*
X-10480Y1034000D01*
X-9350D01*
X-8220Y1034420D01*
X-7260Y1035060D01*
X-6450Y1035900D01*
G01X-260Y1035480D02*
X870Y1034420D01*
X2150Y1034000D01*
X3440Y1034420D01*
X4570Y1035690D01*
X5370Y1037600D01*
X5690Y1039500D01*
Y1041830D01*
X5370Y1043740D01*
X4570Y1045430D01*
X3600Y1046280D01*
X2470Y1046700D01*
X1190Y1046280D01*
X220Y1045430D01*
X-420Y1044160D01*
X-740Y1042470D01*
X-420Y1040990D01*
X380Y1039500D01*
X1350Y1038660D01*
X2470Y1038440D01*
X3760Y1038870D01*
X4730Y1039930D01*
X5690Y1041830D01*
G01X-29400Y1024500D02*
X-21400D01*
G01X-44990Y1306700D02*
X-40970Y1294000D01*
X-36940Y1306700D01*
G01X-31550Y1294000D02*
Y1306700D01*
X-28340D01*
X-27050Y1306060D01*
X-26080Y1305220D01*
X-25280Y1303950D01*
X-24640Y1302470D01*
X-24480Y1300350D01*
X-24640Y1298230D01*
X-25280Y1296750D01*
X-26080Y1295480D01*
X-27050Y1294630D01*
X-28340Y1294000D01*
X-31550D01*
G01X-18120Y1304580D02*
X-17160Y1305850D01*
X-16030Y1306490D01*
X-14740Y1306700D01*
X-13130Y1306280D01*
X-12010Y1305220D01*
X-11690Y1303950D01*
X-11850Y1302680D01*
X-12490Y1301620D01*
X-15710Y1299500D01*
X-17160Y1298020D01*
X-18120Y1295900D01*
X-18440Y1294000D01*
X-11690D01*
G01X-39250Y1644000D02*
X-36820Y1635000D01*
X-34390Y1644000D01*
G01X-31090Y1635000D02*
Y1644000D01*
X-29140D01*
X-28370Y1643550D01*
X-27780Y1642950D01*
X-27300Y1642050D01*
X-26910Y1641000D01*
X-26810Y1639500D01*
X-26910Y1638000D01*
X-27300Y1636950D01*
X-27780Y1636050D01*
X-28370Y1635450D01*
X-29140Y1635000D01*
X-31090D01*
G01X-23220Y1636800D02*
X-22640Y1635750D01*
X-21860Y1635150D01*
X-20980Y1635000D01*
X-20200Y1635150D01*
X-19430Y1635900D01*
X-18940Y1636800D01*
X-18840Y1637700D01*
X-19040Y1638750D01*
X-19720Y1639500D01*
X-20400Y1639800D01*
X-21270D01*
G01X-20400D02*
X-19810Y1640250D01*
X-19330Y1641000D01*
X-19130Y1641900D01*
X-19330Y1642800D01*
X-19810Y1643550D01*
X-20690Y1644000D01*
X-21570Y1643850D01*
X-22440Y1643250D01*
G01X-13400Y1635000D02*
X-13210Y1636950D01*
X-12920Y1638600D01*
X-12530Y1640100D01*
X-12040Y1641750D01*
X-11260Y1644000D01*
X-15160D01*
G01X-40250Y1619000D02*
X-37820Y1610000D01*
X-35390Y1619000D01*
G01X-32090Y1610000D02*
Y1619000D01*
X-30140D01*
X-29370Y1618550D01*
X-28780Y1617950D01*
X-28300Y1617050D01*
X-27910Y1616000D01*
X-27810Y1614500D01*
X-27910Y1613000D01*
X-28300Y1611950D01*
X-28780Y1611050D01*
X-29370Y1610450D01*
X-30140Y1610000D01*
X-32090D01*
G01X-24220Y1611800D02*
X-23640Y1610750D01*
X-22860Y1610150D01*
X-21980Y1610000D01*
X-21200Y1610150D01*
X-20430Y1610900D01*
X-19940Y1611800D01*
X-19840Y1612700D01*
X-20040Y1613750D01*
X-20720Y1614500D01*
X-21400Y1614800D01*
X-22270D01*
G01X-21400D02*
X-20810Y1615250D01*
X-20330Y1616000D01*
X-20130Y1616900D01*
X-20330Y1617800D01*
X-20810Y1618550D01*
X-21690Y1619000D01*
X-22570Y1618850D01*
X-23440Y1618250D01*
G01X-15860Y1611050D02*
X-15180Y1610300D01*
X-14400Y1610000D01*
X-13630Y1610300D01*
X-12940Y1611200D01*
X-12460Y1612550D01*
X-12260Y1613900D01*
Y1615550D01*
X-12460Y1616900D01*
X-12940Y1618100D01*
X-13530Y1618700D01*
X-14210Y1619000D01*
X-14990Y1618700D01*
X-15570Y1618100D01*
X-15960Y1617200D01*
X-16160Y1616000D01*
X-15960Y1614950D01*
X-15480Y1613900D01*
X-14890Y1613300D01*
X-14210Y1613150D01*
X-13430Y1613450D01*
X-12850Y1614200D01*
X-12260Y1615550D01*
G01X-39150Y1719000D02*
X-36720Y1710000D01*
X-34290Y1719000D01*
G01X-30990Y1710000D02*
Y1719000D01*
X-29040D01*
X-28270Y1718550D01*
X-27680Y1717950D01*
X-27200Y1717050D01*
X-26810Y1716000D01*
X-26710Y1714500D01*
X-26810Y1713000D01*
X-27200Y1711950D01*
X-27680Y1711050D01*
X-28270Y1710450D01*
X-29040Y1710000D01*
X-30990D01*
G01X-22830Y1717500D02*
X-22250Y1718400D01*
X-21560Y1718850D01*
X-20790Y1719000D01*
X-19810Y1718700D01*
X-19130Y1717950D01*
X-18940Y1717050D01*
X-19030Y1716150D01*
X-19420Y1715400D01*
X-21370Y1713900D01*
X-22250Y1712850D01*
X-22830Y1711350D01*
X-23020Y1710000D01*
X-18940D01*
G01X-14960Y1713750D02*
X-14280Y1714800D01*
X-13690Y1715400D01*
X-12920Y1715700D01*
X-12230Y1715400D01*
X-11750Y1714800D01*
X-11360Y1713900D01*
X-11260Y1712850D01*
X-11360Y1711950D01*
X-11750Y1711050D01*
X-12330Y1710300D01*
X-13010Y1710000D01*
X-13790Y1710300D01*
X-14470Y1711200D01*
X-14860Y1712550D01*
X-14960Y1714050D01*
X-14760Y1716000D01*
X-14470Y1717050D01*
X-13990Y1718100D01*
X-13300Y1718850D01*
X-12620Y1719000D01*
X-11940Y1718700D01*
X-11460Y1717950D01*
G01X-39150Y1706300D02*
X-36720Y1697300D01*
X-34290Y1706300D01*
G01X-30990Y1697300D02*
Y1706300D01*
X-29040D01*
X-28270Y1705850D01*
X-27680Y1705250D01*
X-27200Y1704350D01*
X-26810Y1703300D01*
X-26710Y1701800D01*
X-26810Y1700300D01*
X-27200Y1699250D01*
X-27680Y1698350D01*
X-28270Y1697750D01*
X-29040Y1697300D01*
X-30990D01*
G01X-22830Y1704800D02*
X-22250Y1705700D01*
X-21560Y1706150D01*
X-20790Y1706300D01*
X-19810Y1706000D01*
X-19130Y1705250D01*
X-18940Y1704350D01*
X-19030Y1703450D01*
X-19420Y1702700D01*
X-21370Y1701200D01*
X-22250Y1700150D01*
X-22830Y1698650D01*
X-23020Y1697300D01*
X-18940D01*
G01X-13110D02*
X-12430Y1697450D01*
X-11650Y1697900D01*
X-11160Y1698650D01*
X-10970Y1699700D01*
X-11160Y1700750D01*
X-11750Y1701650D01*
X-12620Y1702100D01*
X-13600D01*
X-14180Y1702400D01*
X-14670Y1703150D01*
X-14860Y1704200D01*
X-14570Y1705250D01*
X-13890Y1706000D01*
X-13110Y1706300D01*
X-12330Y1706000D01*
X-11650Y1705250D01*
X-11360Y1704200D01*
X-11550Y1703150D01*
X-12040Y1702400D01*
X-12620Y1702100D01*
X-13600D01*
X-14470Y1701650D01*
X-15060Y1700750D01*
X-15250Y1699700D01*
X-15060Y1698650D01*
X-14570Y1697900D01*
X-13790Y1697450D01*
X-13110Y1697300D01*
G01X-39150Y1693600D02*
X-36720Y1684600D01*
X-34290Y1693600D01*
G01X-30990Y1684600D02*
Y1693600D01*
X-29040D01*
X-28270Y1693150D01*
X-27680Y1692550D01*
X-27200Y1691650D01*
X-26810Y1690600D01*
X-26710Y1689100D01*
X-26810Y1687600D01*
X-27200Y1686550D01*
X-27680Y1685650D01*
X-28270Y1685050D01*
X-29040Y1684600D01*
X-30990D01*
G01X-22830Y1692100D02*
X-22250Y1693000D01*
X-21560Y1693450D01*
X-20790Y1693600D01*
X-19810Y1693300D01*
X-19130Y1692550D01*
X-18940Y1691650D01*
X-19030Y1690750D01*
X-19420Y1690000D01*
X-21370Y1688500D01*
X-22250Y1687450D01*
X-22830Y1685950D01*
X-23020Y1684600D01*
X-18940D01*
G01X-14760Y1685650D02*
X-14080Y1684900D01*
X-13300Y1684600D01*
X-12530Y1684900D01*
X-11840Y1685800D01*
X-11360Y1687150D01*
X-11160Y1688500D01*
Y1690150D01*
X-11360Y1691500D01*
X-11840Y1692700D01*
X-12430Y1693300D01*
X-13110Y1693600D01*
X-13890Y1693300D01*
X-14470Y1692700D01*
X-14860Y1691800D01*
X-15060Y1690600D01*
X-14860Y1689550D01*
X-14380Y1688500D01*
X-13790Y1687900D01*
X-13110Y1687750D01*
X-12330Y1688050D01*
X-11750Y1688800D01*
X-11160Y1690150D01*
G01X-39150Y1680900D02*
X-36720Y1671900D01*
X-34290Y1680900D01*
G01X-30990Y1671900D02*
Y1680900D01*
X-29040D01*
X-28270Y1680450D01*
X-27680Y1679850D01*
X-27200Y1678950D01*
X-26810Y1677900D01*
X-26710Y1676400D01*
X-26810Y1674900D01*
X-27200Y1673850D01*
X-27680Y1672950D01*
X-28270Y1672350D01*
X-29040Y1671900D01*
X-30990D01*
G01X-23120Y1673700D02*
X-22540Y1672650D01*
X-21760Y1672050D01*
X-20880Y1671900D01*
X-20100Y1672050D01*
X-19330Y1672800D01*
X-18840Y1673700D01*
X-18740Y1674600D01*
X-18940Y1675650D01*
X-19620Y1676400D01*
X-20300Y1676700D01*
X-21170D01*
G01X-20300D02*
X-19710Y1677150D01*
X-19230Y1677900D01*
X-19030Y1678800D01*
X-19230Y1679700D01*
X-19710Y1680450D01*
X-20590Y1680900D01*
X-21470Y1680750D01*
X-22340Y1680150D01*
G01X-15250Y1673700D02*
X-14670Y1672650D01*
X-13890Y1672050D01*
X-13010Y1671900D01*
X-12230Y1672050D01*
X-11460Y1672800D01*
X-10970Y1673700D01*
X-10870Y1674600D01*
X-11070Y1675650D01*
X-11750Y1676400D01*
X-12430Y1676700D01*
X-13300D01*
G01X-12430D02*
X-11840Y1677150D01*
X-11360Y1677900D01*
X-11160Y1678800D01*
X-11360Y1679700D01*
X-11840Y1680450D01*
X-12720Y1680900D01*
X-13600Y1680750D01*
X-14470Y1680150D01*
G01X-39150Y1668200D02*
X-36720Y1659200D01*
X-34290Y1668200D01*
G01X-30990Y1659200D02*
Y1668200D01*
X-29040D01*
X-28270Y1667750D01*
X-27680Y1667150D01*
X-27200Y1666250D01*
X-26810Y1665200D01*
X-26710Y1663700D01*
X-26810Y1662200D01*
X-27200Y1661150D01*
X-27680Y1660250D01*
X-28270Y1659650D01*
X-29040Y1659200D01*
X-30990D01*
G01X-23120Y1661000D02*
X-22540Y1659950D01*
X-21760Y1659350D01*
X-20880Y1659200D01*
X-20100Y1659350D01*
X-19330Y1660100D01*
X-18840Y1661000D01*
X-18740Y1661900D01*
X-18940Y1662950D01*
X-19620Y1663700D01*
X-20300Y1664000D01*
X-21170D01*
G01X-20300D02*
X-19710Y1664450D01*
X-19230Y1665200D01*
X-19030Y1666100D01*
X-19230Y1667000D01*
X-19710Y1667750D01*
X-20590Y1668200D01*
X-21470Y1668050D01*
X-22340Y1667450D01*
G01X-15250Y1660550D02*
X-14670Y1659800D01*
X-13990Y1659350D01*
X-13110Y1659200D01*
X-12230Y1659500D01*
X-11550Y1660100D01*
X-11070Y1661150D01*
X-10970Y1662350D01*
X-11160Y1663550D01*
X-11650Y1664300D01*
X-12330Y1664900D01*
X-13010Y1665050D01*
X-13690Y1664900D01*
X-14570Y1664300D01*
X-14280Y1668200D01*
X-11650D01*
G01X-39150Y1782500D02*
X-36720Y1773500D01*
X-34290Y1782500D01*
G01X-30990Y1773500D02*
Y1782500D01*
X-29040D01*
X-28270Y1782050D01*
X-27680Y1781450D01*
X-27200Y1780550D01*
X-26810Y1779500D01*
X-26710Y1778000D01*
X-26810Y1776500D01*
X-27200Y1775450D01*
X-27680Y1774550D01*
X-28270Y1773950D01*
X-29040Y1773500D01*
X-30990D01*
G01X-20980D02*
Y1782500D01*
X-22150Y1780700D01*
G01Y1773500D02*
X-19810D01*
G01X-11940D02*
Y1782500D01*
X-15540Y1776050D01*
X-10680D01*
G01X-39150Y1769800D02*
X-36720Y1760800D01*
X-34290Y1769800D01*
G01X-30990Y1760800D02*
Y1769800D01*
X-29040D01*
X-28270Y1769350D01*
X-27680Y1768750D01*
X-27200Y1767850D01*
X-26810Y1766800D01*
X-26710Y1765300D01*
X-26810Y1763800D01*
X-27200Y1762750D01*
X-27680Y1761850D01*
X-28270Y1761250D01*
X-29040Y1760800D01*
X-30990D01*
G01X-20980D02*
Y1769800D01*
X-22150Y1768000D01*
G01Y1760800D02*
X-19810D01*
G01X-14960Y1764550D02*
X-14280Y1765600D01*
X-13690Y1766200D01*
X-12920Y1766500D01*
X-12230Y1766200D01*
X-11750Y1765600D01*
X-11360Y1764700D01*
X-11260Y1763650D01*
X-11360Y1762750D01*
X-11750Y1761850D01*
X-12330Y1761100D01*
X-13010Y1760800D01*
X-13790Y1761100D01*
X-14470Y1762000D01*
X-14860Y1763350D01*
X-14960Y1764850D01*
X-14760Y1766800D01*
X-14470Y1767850D01*
X-13990Y1768900D01*
X-13300Y1769650D01*
X-12620Y1769800D01*
X-11940Y1769500D01*
X-11460Y1768750D01*
G01X-39150Y1757100D02*
X-36720Y1748100D01*
X-34290Y1757100D01*
G01X-30990Y1748100D02*
Y1757100D01*
X-29040D01*
X-28270Y1756650D01*
X-27680Y1756050D01*
X-27200Y1755150D01*
X-26810Y1754100D01*
X-26710Y1752600D01*
X-26810Y1751100D01*
X-27200Y1750050D01*
X-27680Y1749150D01*
X-28270Y1748550D01*
X-29040Y1748100D01*
X-30990D01*
G01X-20980D02*
Y1757100D01*
X-22150Y1755300D01*
G01Y1748100D02*
X-19810D01*
G01X-13110D02*
X-12430Y1748250D01*
X-11650Y1748700D01*
X-11160Y1749450D01*
X-10970Y1750500D01*
X-11160Y1751550D01*
X-11750Y1752450D01*
X-12620Y1752900D01*
X-13600D01*
X-14180Y1753200D01*
X-14670Y1753950D01*
X-14860Y1755000D01*
X-14570Y1756050D01*
X-13890Y1756800D01*
X-13110Y1757100D01*
X-12330Y1756800D01*
X-11650Y1756050D01*
X-11360Y1755000D01*
X-11550Y1753950D01*
X-12040Y1753200D01*
X-12620Y1752900D01*
X-13600D01*
X-14470Y1752450D01*
X-15060Y1751550D01*
X-15250Y1750500D01*
X-15060Y1749450D01*
X-14570Y1748700D01*
X-13790Y1748250D01*
X-13110Y1748100D01*
G01X-39150Y1744400D02*
X-36720Y1735400D01*
X-34290Y1744400D01*
G01X-30990Y1735400D02*
Y1744400D01*
X-29040D01*
X-28270Y1743950D01*
X-27680Y1743350D01*
X-27200Y1742450D01*
X-26810Y1741400D01*
X-26710Y1739900D01*
X-26810Y1738400D01*
X-27200Y1737350D01*
X-27680Y1736450D01*
X-28270Y1735850D01*
X-29040Y1735400D01*
X-30990D01*
G01X-22830Y1742900D02*
X-22250Y1743800D01*
X-21560Y1744250D01*
X-20790Y1744400D01*
X-19810Y1744100D01*
X-19130Y1743350D01*
X-18940Y1742450D01*
X-19030Y1741550D01*
X-19420Y1740800D01*
X-21370Y1739300D01*
X-22250Y1738250D01*
X-22830Y1736750D01*
X-23020Y1735400D01*
X-18940D01*
G01X-13110Y1744400D02*
X-13890Y1744100D01*
X-14470Y1743350D01*
X-14860Y1742450D01*
X-15150Y1741250D01*
X-15250Y1739900D01*
X-15150Y1738550D01*
X-14860Y1737350D01*
X-14470Y1736450D01*
X-13890Y1735700D01*
X-13110Y1735400D01*
X-12330Y1735700D01*
X-11750Y1736450D01*
X-11360Y1737350D01*
X-11070Y1738550D01*
X-10970Y1739900D01*
X-11070Y1741250D01*
X-11360Y1742450D01*
X-11750Y1743350D01*
X-12330Y1744100D01*
X-13110Y1744400D01*
G01X-39150Y1731700D02*
X-36720Y1722700D01*
X-34290Y1731700D01*
G01X-30990Y1722700D02*
Y1731700D01*
X-29040D01*
X-28270Y1731250D01*
X-27680Y1730650D01*
X-27200Y1729750D01*
X-26810Y1728700D01*
X-26710Y1727200D01*
X-26810Y1725700D01*
X-27200Y1724650D01*
X-27680Y1723750D01*
X-28270Y1723150D01*
X-29040Y1722700D01*
X-30990D01*
G01X-22830Y1730200D02*
X-22250Y1731100D01*
X-21560Y1731550D01*
X-20790Y1731700D01*
X-19810Y1731400D01*
X-19130Y1730650D01*
X-18940Y1729750D01*
X-19030Y1728850D01*
X-19420Y1728100D01*
X-21370Y1726600D01*
X-22250Y1725550D01*
X-22830Y1724050D01*
X-23020Y1722700D01*
X-18940D01*
G01X-15250Y1724500D02*
X-14670Y1723450D01*
X-13890Y1722850D01*
X-13010Y1722700D01*
X-12230Y1722850D01*
X-11460Y1723600D01*
X-10970Y1724500D01*
X-10870Y1725400D01*
X-11070Y1726450D01*
X-11750Y1727200D01*
X-12430Y1727500D01*
X-13300D01*
G01X-12430D02*
X-11840Y1727950D01*
X-11360Y1728700D01*
X-11160Y1729600D01*
X-11360Y1730500D01*
X-11840Y1731250D01*
X-12720Y1731700D01*
X-13600Y1731550D01*
X-14470Y1730950D01*
G01X-39150Y1795200D02*
X-36720Y1786200D01*
X-34290Y1795200D01*
G01X-30990Y1786200D02*
Y1795200D01*
X-29040D01*
X-28270Y1794750D01*
X-27680Y1794150D01*
X-27200Y1793250D01*
X-26810Y1792200D01*
X-26710Y1790700D01*
X-26810Y1789200D01*
X-27200Y1788150D01*
X-27680Y1787250D01*
X-28270Y1786650D01*
X-29040Y1786200D01*
X-30990D01*
G01X-19810D02*
Y1795200D01*
X-23410Y1788750D01*
X-18550D01*
G01X-13110Y1786200D02*
Y1795200D01*
X-14280Y1793400D01*
G01Y1786200D02*
X-11940D01*
G01X-39150Y1871400D02*
X-36720Y1862400D01*
X-34290Y1871400D01*
G01X-30990Y1862400D02*
Y1871400D01*
X-29040D01*
X-28270Y1870950D01*
X-27680Y1870350D01*
X-27200Y1869450D01*
X-26810Y1868400D01*
X-26710Y1866900D01*
X-26810Y1865400D01*
X-27200Y1864350D01*
X-27680Y1863450D01*
X-28270Y1862850D01*
X-29040Y1862400D01*
X-30990D01*
G01X-23120Y1864200D02*
X-22540Y1863150D01*
X-21760Y1862550D01*
X-20880Y1862400D01*
X-20100Y1862550D01*
X-19330Y1863300D01*
X-18840Y1864200D01*
X-18740Y1865100D01*
X-18940Y1866150D01*
X-19620Y1866900D01*
X-20300Y1867200D01*
X-21170D01*
G01X-20300D02*
X-19710Y1867650D01*
X-19230Y1868400D01*
X-19030Y1869300D01*
X-19230Y1870200D01*
X-19710Y1870950D01*
X-20590Y1871400D01*
X-21470Y1871250D01*
X-22340Y1870650D01*
G01X-13110Y1862400D02*
Y1871400D01*
X-14280Y1869600D01*
G01Y1862400D02*
X-11940D01*
G01X-39150Y1858700D02*
X-36720Y1849700D01*
X-34290Y1858700D01*
G01X-30990Y1849700D02*
Y1858700D01*
X-29040D01*
X-28270Y1858250D01*
X-27680Y1857650D01*
X-27200Y1856750D01*
X-26810Y1855700D01*
X-26710Y1854200D01*
X-26810Y1852700D01*
X-27200Y1851650D01*
X-27680Y1850750D01*
X-28270Y1850150D01*
X-29040Y1849700D01*
X-30990D01*
G01X-23120Y1851500D02*
X-22540Y1850450D01*
X-21760Y1849850D01*
X-20880Y1849700D01*
X-20100Y1849850D01*
X-19330Y1850600D01*
X-18840Y1851500D01*
X-18740Y1852400D01*
X-18940Y1853450D01*
X-19620Y1854200D01*
X-20300Y1854500D01*
X-21170D01*
G01X-20300D02*
X-19710Y1854950D01*
X-19230Y1855700D01*
X-19030Y1856600D01*
X-19230Y1857500D01*
X-19710Y1858250D01*
X-20590Y1858700D01*
X-21470Y1858550D01*
X-22340Y1857950D01*
G01X-14960Y1857200D02*
X-14380Y1858100D01*
X-13690Y1858550D01*
X-12920Y1858700D01*
X-11940Y1858400D01*
X-11260Y1857650D01*
X-11070Y1856750D01*
X-11160Y1855850D01*
X-11550Y1855100D01*
X-13500Y1853600D01*
X-14380Y1852550D01*
X-14960Y1851050D01*
X-15150Y1849700D01*
X-11070D01*
G01X-39150Y1846000D02*
X-36720Y1837000D01*
X-34290Y1846000D01*
G01X-30990Y1837000D02*
Y1846000D01*
X-29040D01*
X-28270Y1845550D01*
X-27680Y1844950D01*
X-27200Y1844050D01*
X-26810Y1843000D01*
X-26710Y1841500D01*
X-26810Y1840000D01*
X-27200Y1838950D01*
X-27680Y1838050D01*
X-28270Y1837450D01*
X-29040Y1837000D01*
X-30990D01*
G01X-23120Y1838800D02*
X-22540Y1837750D01*
X-21760Y1837150D01*
X-20880Y1837000D01*
X-20100Y1837150D01*
X-19330Y1837900D01*
X-18840Y1838800D01*
X-18740Y1839700D01*
X-18940Y1840750D01*
X-19620Y1841500D01*
X-20300Y1841800D01*
X-21170D01*
G01X-20300D02*
X-19710Y1842250D01*
X-19230Y1843000D01*
X-19030Y1843900D01*
X-19230Y1844800D01*
X-19710Y1845550D01*
X-20590Y1846000D01*
X-21470Y1845850D01*
X-22340Y1845250D01*
G01X-11940Y1837000D02*
Y1846000D01*
X-15540Y1839550D01*
X-10680D01*
G01X-39150Y1833300D02*
X-36720Y1824300D01*
X-34290Y1833300D01*
G01X-30990Y1824300D02*
Y1833300D01*
X-29040D01*
X-28270Y1832850D01*
X-27680Y1832250D01*
X-27200Y1831350D01*
X-26810Y1830300D01*
X-26710Y1828800D01*
X-26810Y1827300D01*
X-27200Y1826250D01*
X-27680Y1825350D01*
X-28270Y1824750D01*
X-29040Y1824300D01*
X-30990D01*
G01X-23120Y1826100D02*
X-22540Y1825050D01*
X-21760Y1824450D01*
X-20880Y1824300D01*
X-20100Y1824450D01*
X-19330Y1825200D01*
X-18840Y1826100D01*
X-18740Y1827000D01*
X-18940Y1828050D01*
X-19620Y1828800D01*
X-20300Y1829100D01*
X-21170D01*
G01X-20300D02*
X-19710Y1829550D01*
X-19230Y1830300D01*
X-19030Y1831200D01*
X-19230Y1832100D01*
X-19710Y1832850D01*
X-20590Y1833300D01*
X-21470Y1833150D01*
X-22340Y1832550D01*
G01X-14960Y1828050D02*
X-14280Y1829100D01*
X-13690Y1829700D01*
X-12920Y1830000D01*
X-12230Y1829700D01*
X-11750Y1829100D01*
X-11360Y1828200D01*
X-11260Y1827150D01*
X-11360Y1826250D01*
X-11750Y1825350D01*
X-12330Y1824600D01*
X-13010Y1824300D01*
X-13790Y1824600D01*
X-14470Y1825500D01*
X-14860Y1826850D01*
X-14960Y1828350D01*
X-14760Y1830300D01*
X-14470Y1831350D01*
X-13990Y1832400D01*
X-13300Y1833150D01*
X-12620Y1833300D01*
X-11940Y1833000D01*
X-11460Y1832250D01*
G01X-39150Y1820600D02*
X-36720Y1811600D01*
X-34290Y1820600D01*
G01X-30990Y1811600D02*
Y1820600D01*
X-29040D01*
X-28270Y1820150D01*
X-27680Y1819550D01*
X-27200Y1818650D01*
X-26810Y1817600D01*
X-26710Y1816100D01*
X-26810Y1814600D01*
X-27200Y1813550D01*
X-27680Y1812650D01*
X-28270Y1812050D01*
X-29040Y1811600D01*
X-30990D01*
G01X-23120Y1813400D02*
X-22540Y1812350D01*
X-21760Y1811750D01*
X-20880Y1811600D01*
X-20100Y1811750D01*
X-19330Y1812500D01*
X-18840Y1813400D01*
X-18740Y1814300D01*
X-18940Y1815350D01*
X-19620Y1816100D01*
X-20300Y1816400D01*
X-21170D01*
G01X-20300D02*
X-19710Y1816850D01*
X-19230Y1817600D01*
X-19030Y1818500D01*
X-19230Y1819400D01*
X-19710Y1820150D01*
X-20590Y1820600D01*
X-21470Y1820450D01*
X-22340Y1819850D01*
G01X-13110Y1811600D02*
X-12430Y1811750D01*
X-11650Y1812200D01*
X-11160Y1812950D01*
X-10970Y1814000D01*
X-11160Y1815050D01*
X-11750Y1815950D01*
X-12620Y1816400D01*
X-13600D01*
X-14180Y1816700D01*
X-14670Y1817450D01*
X-14860Y1818500D01*
X-14570Y1819550D01*
X-13890Y1820300D01*
X-13110Y1820600D01*
X-12330Y1820300D01*
X-11650Y1819550D01*
X-11360Y1818500D01*
X-11550Y1817450D01*
X-12040Y1816700D01*
X-12620Y1816400D01*
X-13600D01*
X-14470Y1815950D01*
X-15060Y1815050D01*
X-15250Y1814000D01*
X-15060Y1812950D01*
X-14570Y1812200D01*
X-13790Y1811750D01*
X-13110Y1811600D01*
G01X-39150Y1807900D02*
X-36720Y1798900D01*
X-34290Y1807900D01*
G01X-30990Y1798900D02*
Y1807900D01*
X-29040D01*
X-28270Y1807450D01*
X-27680Y1806850D01*
X-27200Y1805950D01*
X-26810Y1804900D01*
X-26710Y1803400D01*
X-26810Y1801900D01*
X-27200Y1800850D01*
X-27680Y1799950D01*
X-28270Y1799350D01*
X-29040Y1798900D01*
X-30990D01*
G01X-19810D02*
Y1807900D01*
X-23410Y1801450D01*
X-18550D01*
G01X-13110Y1807900D02*
X-13890Y1807600D01*
X-14470Y1806850D01*
X-14860Y1805950D01*
X-15150Y1804750D01*
X-15250Y1803400D01*
X-15150Y1802050D01*
X-14860Y1800850D01*
X-14470Y1799950D01*
X-13890Y1799200D01*
X-13110Y1798900D01*
X-12330Y1799200D01*
X-11750Y1799950D01*
X-11360Y1800850D01*
X-11070Y1802050D01*
X-10970Y1803400D01*
X-11070Y1804750D01*
X-11360Y1805950D01*
X-11750Y1806850D01*
X-12330Y1807600D01*
X-13110Y1807900D01*
G01X-39150Y1947600D02*
X-36720Y1938600D01*
X-34290Y1947600D01*
G01X-30990Y1938600D02*
Y1947600D01*
X-29040D01*
X-28270Y1947150D01*
X-27680Y1946550D01*
X-27200Y1945650D01*
X-26810Y1944600D01*
X-26710Y1943100D01*
X-26810Y1941600D01*
X-27200Y1940550D01*
X-27680Y1939650D01*
X-28270Y1939050D01*
X-29040Y1938600D01*
X-30990D01*
G01X-22830Y1946100D02*
X-22250Y1947000D01*
X-21560Y1947450D01*
X-20790Y1947600D01*
X-19810Y1947300D01*
X-19130Y1946550D01*
X-18940Y1945650D01*
X-19030Y1944750D01*
X-19420Y1944000D01*
X-21370Y1942500D01*
X-22250Y1941450D01*
X-22830Y1939950D01*
X-23020Y1938600D01*
X-18940D01*
G01X-13110D02*
Y1947600D01*
X-14280Y1945800D01*
G01Y1938600D02*
X-11940D01*
G01X-39150Y1934900D02*
X-36720Y1925900D01*
X-34290Y1934900D01*
G01X-30990Y1925900D02*
Y1934900D01*
X-29040D01*
X-28270Y1934450D01*
X-27680Y1933850D01*
X-27200Y1932950D01*
X-26810Y1931900D01*
X-26710Y1930400D01*
X-26810Y1928900D01*
X-27200Y1927850D01*
X-27680Y1926950D01*
X-28270Y1926350D01*
X-29040Y1925900D01*
X-30990D01*
G01X-22830Y1933400D02*
X-22250Y1934300D01*
X-21560Y1934750D01*
X-20790Y1934900D01*
X-19810Y1934600D01*
X-19130Y1933850D01*
X-18940Y1932950D01*
X-19030Y1932050D01*
X-19420Y1931300D01*
X-21370Y1929800D01*
X-22250Y1928750D01*
X-22830Y1927250D01*
X-23020Y1925900D01*
X-18940D01*
G01X-14960Y1933400D02*
X-14380Y1934300D01*
X-13690Y1934750D01*
X-12920Y1934900D01*
X-11940Y1934600D01*
X-11260Y1933850D01*
X-11070Y1932950D01*
X-11160Y1932050D01*
X-11550Y1931300D01*
X-13500Y1929800D01*
X-14380Y1928750D01*
X-14960Y1927250D01*
X-15150Y1925900D01*
X-11070D01*
G01X-39150Y1922200D02*
X-36720Y1913200D01*
X-34290Y1922200D01*
G01X-30990Y1913200D02*
Y1922200D01*
X-29040D01*
X-28270Y1921750D01*
X-27680Y1921150D01*
X-27200Y1920250D01*
X-26810Y1919200D01*
X-26710Y1917700D01*
X-26810Y1916200D01*
X-27200Y1915150D01*
X-27680Y1914250D01*
X-28270Y1913650D01*
X-29040Y1913200D01*
X-30990D01*
G01X-22830Y1920700D02*
X-22250Y1921600D01*
X-21560Y1922050D01*
X-20790Y1922200D01*
X-19810Y1921900D01*
X-19130Y1921150D01*
X-18940Y1920250D01*
X-19030Y1919350D01*
X-19420Y1918600D01*
X-21370Y1917100D01*
X-22250Y1916050D01*
X-22830Y1914550D01*
X-23020Y1913200D01*
X-18940D01*
G01X-11940D02*
Y1922200D01*
X-15540Y1915750D01*
X-10680D01*
G01X-39150Y1909500D02*
X-36720Y1900500D01*
X-34290Y1909500D01*
G01X-30990Y1900500D02*
Y1909500D01*
X-29040D01*
X-28270Y1909050D01*
X-27680Y1908450D01*
X-27200Y1907550D01*
X-26810Y1906500D01*
X-26710Y1905000D01*
X-26810Y1903500D01*
X-27200Y1902450D01*
X-27680Y1901550D01*
X-28270Y1900950D01*
X-29040Y1900500D01*
X-30990D01*
G01X-22830Y1908000D02*
X-22250Y1908900D01*
X-21560Y1909350D01*
X-20790Y1909500D01*
X-19810Y1909200D01*
X-19130Y1908450D01*
X-18940Y1907550D01*
X-19030Y1906650D01*
X-19420Y1905900D01*
X-21370Y1904400D01*
X-22250Y1903350D01*
X-22830Y1901850D01*
X-23020Y1900500D01*
X-18940D01*
G01X-15250Y1901850D02*
X-14670Y1901100D01*
X-13990Y1900650D01*
X-13110Y1900500D01*
X-12230Y1900800D01*
X-11550Y1901400D01*
X-11070Y1902450D01*
X-10970Y1903650D01*
X-11160Y1904850D01*
X-11650Y1905600D01*
X-12330Y1906200D01*
X-13010Y1906350D01*
X-13690Y1906200D01*
X-14570Y1905600D01*
X-14280Y1909500D01*
X-11650D01*
G01X-39150Y1896800D02*
X-36720Y1887800D01*
X-34290Y1896800D01*
G01X-30990Y1887800D02*
Y1896800D01*
X-29040D01*
X-28270Y1896350D01*
X-27680Y1895750D01*
X-27200Y1894850D01*
X-26810Y1893800D01*
X-26710Y1892300D01*
X-26810Y1890800D01*
X-27200Y1889750D01*
X-27680Y1888850D01*
X-28270Y1888250D01*
X-29040Y1887800D01*
X-30990D01*
G01X-22830Y1895300D02*
X-22250Y1896200D01*
X-21560Y1896650D01*
X-20790Y1896800D01*
X-19810Y1896500D01*
X-19130Y1895750D01*
X-18940Y1894850D01*
X-19030Y1893950D01*
X-19420Y1893200D01*
X-21370Y1891700D01*
X-22250Y1890650D01*
X-22830Y1889150D01*
X-23020Y1887800D01*
X-18940D01*
G01X-13300D02*
X-13110Y1889750D01*
X-12820Y1891400D01*
X-12430Y1892900D01*
X-11940Y1894550D01*
X-11160Y1896800D01*
X-15060D01*
G01X-39150Y1884100D02*
X-36720Y1875100D01*
X-34290Y1884100D01*
G01X-30990Y1875100D02*
Y1884100D01*
X-29040D01*
X-28270Y1883650D01*
X-27680Y1883050D01*
X-27200Y1882150D01*
X-26810Y1881100D01*
X-26710Y1879600D01*
X-26810Y1878100D01*
X-27200Y1877050D01*
X-27680Y1876150D01*
X-28270Y1875550D01*
X-29040Y1875100D01*
X-30990D01*
G01X-23120Y1876900D02*
X-22540Y1875850D01*
X-21760Y1875250D01*
X-20880Y1875100D01*
X-20100Y1875250D01*
X-19330Y1876000D01*
X-18840Y1876900D01*
X-18740Y1877800D01*
X-18940Y1878850D01*
X-19620Y1879600D01*
X-20300Y1879900D01*
X-21170D01*
G01X-20300D02*
X-19710Y1880350D01*
X-19230Y1881100D01*
X-19030Y1882000D01*
X-19230Y1882900D01*
X-19710Y1883650D01*
X-20590Y1884100D01*
X-21470Y1883950D01*
X-22340Y1883350D01*
G01X-13110Y1884100D02*
X-13890Y1883800D01*
X-14470Y1883050D01*
X-14860Y1882150D01*
X-15150Y1880950D01*
X-15250Y1879600D01*
X-15150Y1878250D01*
X-14860Y1877050D01*
X-14470Y1876150D01*
X-13890Y1875400D01*
X-13110Y1875100D01*
X-12330Y1875400D01*
X-11750Y1876150D01*
X-11360Y1877050D01*
X-11070Y1878250D01*
X-10970Y1879600D01*
X-11070Y1880950D01*
X-11360Y1882150D01*
X-11750Y1883050D01*
X-12330Y1883800D01*
X-13110Y1884100D01*
G01X-39150Y1985700D02*
X-36720Y1976700D01*
X-34290Y1985700D01*
G01X-30990Y1976700D02*
Y1985700D01*
X-29040D01*
X-28270Y1985250D01*
X-27680Y1984650D01*
X-27200Y1983750D01*
X-26810Y1982700D01*
X-26710Y1981200D01*
X-26810Y1979700D01*
X-27200Y1978650D01*
X-27680Y1977750D01*
X-28270Y1977150D01*
X-29040Y1976700D01*
X-30990D01*
G01X-20980D02*
Y1985700D01*
X-22150Y1983900D01*
G01Y1976700D02*
X-19810D01*
G01X-15250Y1978050D02*
X-14670Y1977300D01*
X-13990Y1976850D01*
X-13110Y1976700D01*
X-12230Y1977000D01*
X-11550Y1977600D01*
X-11070Y1978650D01*
X-10970Y1979850D01*
X-11160Y1981050D01*
X-11650Y1981800D01*
X-12330Y1982400D01*
X-13010Y1982550D01*
X-13690Y1982400D01*
X-14570Y1981800D01*
X-14280Y1985700D01*
X-11650D01*
G01X-39150Y1973000D02*
X-36720Y1964000D01*
X-34290Y1973000D01*
G01X-30990Y1964000D02*
Y1973000D01*
X-29040D01*
X-28270Y1972550D01*
X-27680Y1971950D01*
X-27200Y1971050D01*
X-26810Y1970000D01*
X-26710Y1968500D01*
X-26810Y1967000D01*
X-27200Y1965950D01*
X-27680Y1965050D01*
X-28270Y1964450D01*
X-29040Y1964000D01*
X-30990D01*
G01X-20980D02*
Y1973000D01*
X-22150Y1971200D01*
G01Y1964000D02*
X-19810D01*
G01X-13300D02*
X-13110Y1965950D01*
X-12820Y1967600D01*
X-12430Y1969100D01*
X-11940Y1970750D01*
X-11160Y1973000D01*
X-15060D01*
G01X-39150Y1960300D02*
X-36720Y1951300D01*
X-34290Y1960300D01*
G01X-30990Y1951300D02*
Y1960300D01*
X-29040D01*
X-28270Y1959850D01*
X-27680Y1959250D01*
X-27200Y1958350D01*
X-26810Y1957300D01*
X-26710Y1955800D01*
X-26810Y1954300D01*
X-27200Y1953250D01*
X-27680Y1952350D01*
X-28270Y1951750D01*
X-29040Y1951300D01*
X-30990D01*
G01X-20980D02*
Y1960300D01*
X-22150Y1958500D01*
G01Y1951300D02*
X-19810D01*
G01X-14760Y1952350D02*
X-14080Y1951600D01*
X-13300Y1951300D01*
X-12530Y1951600D01*
X-11840Y1952500D01*
X-11360Y1953850D01*
X-11160Y1955200D01*
Y1956850D01*
X-11360Y1958200D01*
X-11840Y1959400D01*
X-12430Y1960000D01*
X-13110Y1960300D01*
X-13890Y1960000D01*
X-14470Y1959400D01*
X-14860Y1958500D01*
X-15060Y1957300D01*
X-14860Y1956250D01*
X-14380Y1955200D01*
X-13790Y1954600D01*
X-13110Y1954450D01*
X-12330Y1954750D01*
X-11750Y1955500D01*
X-11160Y1956850D01*
G01X-46750Y2140940D02*
X-46300Y2141520D01*
X-46000Y2142200D01*
Y2142980D01*
X-46450Y2143860D01*
X-47200Y2144540D01*
X-48100Y2145030D01*
X-49600Y2145420D01*
X-50950Y2145510D01*
X-52300Y2145320D01*
X-53200Y2145030D01*
X-54100Y2144440D01*
X-54700Y2143760D01*
X-55000Y2143080D01*
Y2142400D01*
X-54700Y2141720D01*
X-54250Y2141130D01*
X-53650Y2140650D01*
G01X-55000Y2135210D02*
X-46000D01*
X-47800Y2136380D01*
G01X-55000D02*
Y2134040D01*
G01X-4000Y2145510D02*
X5000Y2143080D01*
X-4000Y2140650D01*
G01X-850Y2141520D02*
Y2144640D01*
G01X-4000Y2135210D02*
X5000D01*
X3200Y2136380D01*
G01X-4000D02*
Y2134040D01*
G01X13060Y2206620D02*
X17140Y2215620D01*
G01X13060D02*
X17140Y2206620D01*
G01X22970D02*
Y2215620D01*
X21800Y2213820D01*
G01Y2206620D02*
X24140D01*
G01X28150Y874000D02*
X34900Y886700D01*
G01X28150D02*
X34900Y874000D01*
G01X41420Y884580D02*
X42380Y885850D01*
X43510Y886490D01*
X44800Y886700D01*
X46410Y886280D01*
X47530Y885220D01*
X47850Y883950D01*
X47690Y882680D01*
X47050Y881620D01*
X43830Y879500D01*
X42380Y878020D01*
X41420Y875900D01*
X41100Y874000D01*
X47850D01*
G01X44000Y993450D02*
X31300Y1000200D01*
G01Y993450D02*
X44000Y1000200D01*
G01Y1009770D02*
X31300D01*
X33840Y1007840D01*
G01X44000D02*
Y1011700D01*
G01X42100Y1019190D02*
X43150Y1020150D01*
X43790Y1021280D01*
X44000Y1022720D01*
X43580Y1024170D01*
X42730Y1025300D01*
X41250Y1026100D01*
X39560Y1026260D01*
X37860Y1025940D01*
X36800Y1025140D01*
X35960Y1024010D01*
X35750Y1022890D01*
X35960Y1021760D01*
X36800Y1020310D01*
X31300Y1020790D01*
Y1025140D01*
G01X35300Y1083010D02*
X48000Y1087030D01*
X35300Y1091060D01*
G01X48000Y1096450D02*
X35300D01*
Y1099660D01*
X35940Y1100950D01*
X36780Y1101920D01*
X38050Y1102720D01*
X39530Y1103360D01*
X41650Y1103520D01*
X43770Y1103360D01*
X45250Y1102720D01*
X46520Y1101920D01*
X47370Y1100950D01*
X48000Y1099660D01*
Y1096450D01*
G01Y1114870D02*
X35300D01*
X44400Y1108910D01*
Y1116960D01*
G54D13*
G01X-195100Y-40400D02*
Y-10400D01*
X-135100D01*
Y-40400D01*
X-195100D01*
G01X-135100Y40400D02*
Y10400D01*
X-195100D01*
Y40400D01*
X-135100D01*
G01X-195100Y86600D02*
Y116600D01*
X-135100D01*
Y86600D01*
X-195100D01*
G01Y137400D02*
Y167400D01*
X-135100D01*
Y137400D01*
X-195100D01*
G01Y232650D02*
Y262650D01*
X-135100D01*
Y232650D01*
X-195100D01*
G01X-135100Y313450D02*
Y283450D01*
X-195100D01*
Y313450D01*
X-135100D01*
G01X-195100Y334250D02*
Y364250D01*
X-135100D01*
Y334250D01*
X-195100D01*
G01Y442200D02*
Y472200D01*
X-135100D01*
Y442200D01*
X-195100D01*
G01X-194300Y1070000D02*
X-178300D01*
G01X-186300Y1062000D02*
Y1078000D01*
G01X-170800Y1194800D02*
X31700D01*
Y1104800D01*
X-170800D01*
Y1194800D01*
G01X-165800Y1189800D02*
X26700D01*
Y1109800D01*
X-165800D01*
Y1189800D01*
G01X-85900Y698980D02*
X-77900D01*
G01X-81900Y702980D02*
Y694980D01*
G01X-85900Y711980D02*
X-77900D01*
G01X-81900Y715980D02*
Y707980D01*
G01X-85900Y723980D02*
X-77900D01*
G01X-81900Y727980D02*
Y719980D01*
G01X-85900Y736980D02*
X-77900D01*
G01X-81900Y740980D02*
Y732980D01*
G01X-85900Y748980D02*
X-77900D01*
G01X-81900Y752980D02*
Y744980D01*
G01X-85900Y761980D02*
X-77900D01*
G01X-81900Y765980D02*
Y757980D01*
G01X-85900Y774980D02*
X-77900D01*
G01X-81900Y778980D02*
Y770980D01*
G01X-82000Y792000D02*
Y784000D01*
G01X-86000Y788000D02*
X-78000D01*
G01X-88300Y1104800D02*
Y1109800D01*
G01X-103900Y2201700D02*
X-73900D01*
Y2141700D01*
X-103900D01*
Y2201700D01*
G01X-2300Y1026950D02*
X27700D01*
Y966950D01*
X-2300D01*
Y1026950D01*
G01X-50800Y1104800D02*
Y1109800D01*
G01X-37780Y1205100D02*
Y1221100D01*
G01X-29780Y1213100D02*
X-45780D01*
G01X49700Y1070000D02*
X33700D01*
G01X41700Y1078000D02*
Y1062000D01*
M02*
