G04 ================== begin FILE IDENTIFICATION RECORD ==================*
G04 Layout Name:  E:/ORCAD_sch/Other/TEST-BSP_01v1/pcb/test-bsp_01v1.brd*
G04 Film Name:    SILK_TOP*
G04 File Format:  Gerber RS274X*
G04 File Origin:  Cadence Allegro 16.6-S009*
G04 Origin Date:  Wed May 15 15:12:49 2013*
G04 *
G04 Layer:  MANUFACTURING/AUTOSILK_TOP*
G04 *
G04 Offset:    (0.000 0.000)*
G04 Mirror:    No*
G04 Mode:      Positive*
G04 Rotation:  0*
G04 FullContactRelief:  No*
G04 UndefLineWidth:     0.150*
G04 ================== end FILE IDENTIFICATION RECORD ====================*
%FSLAX34Y34*MOMM*%
%IR0*IPPOS*OFA0.00000B0.00000*MIA0B0*SFA1.00000B1.00000*%
%ADD10C,.2*%
%ADD11C,.4*%
%ADD12C,.15*%
%ADD13C,.25*%
G75*
%LPD*%
G75*
G54D10*
G01X-235900Y2201700D02*
X-185900D01*
Y2161700D01*
X-205900Y2141700D01*
Y1311700D01*
X-185900Y1291700D01*
Y1251700D01*
X-235900D01*
G01X-146200Y538100D02*
X-133200D01*
G01X-146200Y554100D02*
X-133200D01*
G01X-146200Y569850D02*
X-133200D01*
G01X-146200Y585850D02*
X-133200D01*
G01X-149700Y912850D02*
X-14700D01*
Y970350D01*
X-149700D01*
Y912850D01*
G01X-116300Y1056000D02*
Y1052000D01*
X-168300D01*
Y1056000D01*
G01X-116300Y1084000D02*
Y1088000D01*
X-168300D01*
Y1084000D01*
G01X-150300Y1255000D02*
X-92080D01*
G01X-155300Y1260000D02*
Y1280000D01*
G01Y1260000D02*
G03X-150300Y1255000I5000J0D01*
G01Y1285000D02*
X-143080D01*
G01X-150300D02*
G03X-155300Y1280000I0J-5000D01*
G01X-96900Y-10000D02*
Y-20000D01*
G01X-80900Y-10000D02*
Y-20000D01*
G01X-92550Y185800D02*
X-102550D01*
G01X-92550Y169800D02*
X-102550D01*
G01X-91050Y154050D02*
X-104050D01*
G01X-91050Y138050D02*
X-104050D01*
G01X-92550Y255650D02*
X-102550D01*
G01X-92550Y239650D02*
X-102550D01*
G01X-91700Y297200D02*
Y284200D01*
G01X-75700Y297200D02*
Y284200D01*
G01X-121700Y297200D02*
Y284200D01*
G01X-105700Y297200D02*
Y284200D01*
G01X-88900Y591400D02*
Y602400D01*
G01Y616800D02*
Y627800D01*
G01Y642200D02*
Y653200D01*
G01Y667600D02*
Y678600D01*
G01X-102600Y702500D02*
X-100600D01*
G01X-102600Y694500D02*
X-100600D01*
G01X-102600Y715200D02*
X-100600D01*
G01X-102600Y707200D02*
X-100600D01*
G01X-102600Y727900D02*
X-100600D01*
G01X-102600Y719900D02*
X-100600D01*
G01X-102600Y740600D02*
X-100600D01*
G01X-102600Y732600D02*
X-100600D01*
G01X-102600Y753300D02*
X-100600D01*
G01X-102600Y745300D02*
X-100600D01*
G01X-102600Y766000D02*
X-100600D01*
G01X-102600Y758000D02*
X-100600D01*
G01X-102600Y778700D02*
X-100600D01*
G01X-102600Y770700D02*
X-100600D01*
G01X-102600Y791400D02*
X-100600D01*
G01X-102600Y783400D02*
X-100600D01*
G01X-65300Y1081500D02*
Y1068500D01*
G01X-95300Y1081500D02*
Y1068500D01*
G01X-79300Y1081500D02*
Y1068500D01*
G01X-85520Y1255000D02*
X-78300D01*
G01X-73300Y1260000D02*
Y1280000D01*
G01X-78300Y1255000D02*
G03X-73300Y1260000I0J5000D01*
G01X-136520Y1285000D02*
X-78300D01*
G01X-73300Y1280000D02*
G03X-78300Y1285000I-5000J0D01*
G01X-74550Y1342000D02*
Y1355000D01*
G01X-90550Y1342000D02*
Y1355000D01*
G01X-85700Y1415200D02*
Y1404200D01*
G01X-91550Y1388300D02*
X-89550D01*
G01X-91550Y1380300D02*
X-89550D01*
G01X-85700Y1491400D02*
Y1480400D01*
G01Y1466000D02*
Y1455000D01*
G01Y1440600D02*
Y1429600D01*
G01X-89900Y1642300D02*
X-87900D01*
G01X-89900Y1634300D02*
X-87900D01*
G01X-89900Y1616900D02*
X-87900D01*
G01X-89900Y1608900D02*
X-87900D01*
G01X-89900Y1718500D02*
X-87900D01*
G01X-89900Y1710500D02*
X-87900D01*
G01X-89900Y1705800D02*
X-87900D01*
G01X-89900Y1697800D02*
X-87900D01*
G01X-89900Y1693100D02*
X-87900D01*
G01X-89900Y1685100D02*
X-87900D01*
G01X-89900Y1680400D02*
X-87900D01*
G01X-89900Y1672400D02*
X-87900D01*
G01X-89900Y1667700D02*
X-87900D01*
G01X-89900Y1659700D02*
X-87900D01*
G01X-89900Y1782000D02*
X-87900D01*
G01X-89900Y1774000D02*
X-87900D01*
G01X-89900Y1769300D02*
X-87900D01*
G01X-89900Y1761300D02*
X-87900D01*
G01X-89900Y1756600D02*
X-87900D01*
G01X-89900Y1748600D02*
X-87900D01*
G01X-89900Y1743900D02*
X-87900D01*
G01X-89900Y1735900D02*
X-87900D01*
G01X-89900Y1731200D02*
X-87900D01*
G01X-89900Y1723200D02*
X-87900D01*
G01X-89900Y1794700D02*
X-87900D01*
G01X-89900Y1786700D02*
X-87900D01*
G01X-89900Y1870900D02*
X-87900D01*
G01X-89900Y1862900D02*
X-87900D01*
G01X-89900Y1858200D02*
X-87900D01*
G01X-89900Y1850200D02*
X-87900D01*
G01X-89900Y1845500D02*
X-87900D01*
G01X-89900Y1837500D02*
X-87900D01*
G01X-89900Y1832800D02*
X-87900D01*
G01X-89900Y1824800D02*
X-87900D01*
G01X-89900Y1820100D02*
X-87900D01*
G01X-89900Y1812100D02*
X-87900D01*
G01X-89900Y1807400D02*
X-87900D01*
G01X-89900Y1799400D02*
X-87900D01*
G01X-89900Y1947100D02*
X-87900D01*
G01X-89900Y1939100D02*
X-87900D01*
G01X-89900Y1934400D02*
X-87900D01*
G01X-89900Y1926400D02*
X-87900D01*
G01X-89900Y1921700D02*
X-87900D01*
G01X-89900Y1913700D02*
X-87900D01*
G01X-89900Y1909000D02*
X-87900D01*
G01X-89900Y1901000D02*
X-87900D01*
G01X-89900Y1896300D02*
X-87900D01*
G01X-89900Y1888300D02*
X-87900D01*
G01X-89900Y1883600D02*
X-87900D01*
G01X-89900Y1875600D02*
X-87900D01*
G01X-89900Y1985200D02*
X-87900D01*
G01X-89900Y1977200D02*
X-87900D01*
G01X-89900Y1972500D02*
X-87900D01*
G01X-89900Y1964500D02*
X-87900D01*
G01X-89900Y1959800D02*
X-87900D01*
G01X-89900Y1951800D02*
X-87900D01*
G01X45400Y-80800D02*
X-4600D01*
Y-40800D01*
X15400Y-20800D01*
Y809200D01*
X-4600Y829200D01*
Y869200D01*
X45400D01*
G01X-49300Y1081500D02*
Y1068500D01*
G01X-28300Y1084000D02*
Y1088000D01*
X23700D01*
Y1084000D01*
G01X-28300Y1056000D02*
Y1052000D01*
X23700D01*
Y1056000D01*
G01X45400Y1252700D02*
X-4600D01*
Y1292700D01*
X15400Y1312700D01*
Y2142700D01*
X-4600Y2162700D01*
Y2202700D01*
X45400D01*
G01X-23780Y1283100D02*
X-19780D01*
Y1231100D01*
X-23780D01*
G01X-51780Y1283100D02*
X-55780D01*
Y1231100D01*
X-51780D01*
G54D11*
G01X-149520Y898530D02*
G03I-2000J0D01*
G01X-139980Y920790D02*
G03I-2000J0D01*
G54D12*
G01X-226110Y5700D02*
X-222250D01*
G01X-224180D02*
Y-7000D01*
G01X-226110D02*
X-222250D01*
G01X-214920D02*
Y5700D01*
X-207530Y-7000D01*
Y5700D01*
G01X-232180Y120000D02*
X-233460Y120210D01*
X-234590Y121060D01*
X-235550Y122330D01*
X-236200Y123810D01*
X-236520Y125500D01*
Y127200D01*
X-236200Y128890D01*
X-235550Y130370D01*
X-234590Y131640D01*
X-233460Y132490D01*
X-232180Y132700D01*
X-230890Y132490D01*
X-229760Y131640D01*
X-228800Y130370D01*
X-228150Y128890D01*
X-227830Y127200D01*
Y125500D01*
X-228150Y123810D01*
X-228800Y122330D01*
X-229760Y121060D01*
X-230890Y120210D01*
X-232180Y120000D01*
G01X-222760Y132700D02*
Y123600D01*
X-222120Y121690D01*
X-220830Y120420D01*
X-219230Y120000D01*
X-217620Y120420D01*
X-216330Y121690D01*
X-215690Y123600D01*
Y132700D01*
G01X-206280D02*
Y120000D01*
G01X-209970Y132700D02*
X-202580D01*
G01X-238180Y279700D02*
Y267000D01*
G01X-241870Y279700D02*
X-234480D01*
G01X-229250Y267000D02*
X-225230Y279700D01*
X-221200Y267000D01*
G01X-222650Y271440D02*
X-227800D01*
G01X-215490Y279700D02*
Y267000D01*
X-209060D01*
G01X-202860D02*
Y279700D01*
G01X-196750D02*
X-202860Y271870D01*
G01X-195790Y267000D02*
X-200130Y275470D01*
G01X-221390Y242000D02*
Y254700D01*
X-217370D01*
X-216080Y254060D01*
X-215280Y253220D01*
X-214960Y251520D01*
X-215280Y249830D01*
X-216240Y248770D01*
X-217370Y248140D01*
X-221390D01*
G01X-217370D02*
X-214960Y242000D01*
G01X-208600D02*
X-201850Y254700D01*
G01X-208600D02*
X-201850Y242000D01*
G01X-219180Y304700D02*
Y292000D01*
G01X-222870Y304700D02*
X-215480D01*
G01X-209600Y292000D02*
X-202850Y304700D01*
G01X-209600D02*
X-202850Y292000D01*
G01X-227700Y886820D02*
X-215000D01*
G01X-227700Y883130D02*
Y890520D01*
G01X-215000Y902990D02*
Y896560D01*
X-227700D01*
Y902990D01*
G01X-221560Y900420D02*
Y896560D01*
G01X-216690Y909350D02*
X-215630Y910630D01*
X-215000Y912080D01*
Y913370D01*
X-215630Y914660D01*
X-216690Y915620D01*
X-218180Y916100D01*
X-219660Y915780D01*
X-220930Y914980D01*
X-221770Y913530D01*
X-222200Y911600D01*
X-223040Y910470D01*
X-224520Y909990D01*
X-226010Y910310D01*
X-227060Y911120D01*
X-227700Y912240D01*
Y913370D01*
X-227280Y914490D01*
X-226220Y915460D01*
G01X-227700Y925670D02*
X-215000D01*
G01X-227700Y921980D02*
Y929370D01*
G01X-219230Y936530D02*
Y940720D01*
G01X-221770Y952860D02*
X-222410Y953510D01*
X-223470Y953990D01*
X-224950Y954310D01*
X-226220Y953990D01*
X-227060Y953340D01*
X-227700Y952220D01*
Y947880D01*
X-215000D01*
Y953180D01*
X-215850Y954310D01*
X-217120Y954950D01*
X-218600Y955270D01*
X-220080Y954950D01*
X-221350Y953990D01*
X-221770Y952860D01*
Y947880D01*
G01X-216690Y961150D02*
X-215630Y962430D01*
X-215000Y963880D01*
Y965170D01*
X-215630Y966460D01*
X-216690Y967420D01*
X-218180Y967900D01*
X-219660Y967580D01*
X-220930Y966780D01*
X-221770Y965330D01*
X-222200Y963400D01*
X-223040Y962270D01*
X-224520Y961790D01*
X-226010Y962110D01*
X-227060Y962920D01*
X-227700Y964040D01*
Y965170D01*
X-227280Y966290D01*
X-226220Y967260D01*
G01X-215000Y974260D02*
X-227700D01*
Y978120D01*
X-227060Y979410D01*
X-225580Y980370D01*
X-223890Y980690D01*
X-222200Y980370D01*
X-220930Y979570D01*
X-220290Y978120D01*
Y974260D01*
G01X-210770Y985600D02*
Y995250D01*
G01X-227700Y1003370D02*
X-227280Y1002090D01*
X-226220Y1001120D01*
X-224950Y1000480D01*
X-223250Y1000000D01*
X-221350Y999840D01*
X-219440Y1000000D01*
X-217750Y1000480D01*
X-216480Y1001120D01*
X-215420Y1002090D01*
X-215000Y1003370D01*
X-215420Y1004660D01*
X-216480Y1005630D01*
X-217750Y1006270D01*
X-219440Y1006750D01*
X-221350Y1006910D01*
X-223250Y1006750D01*
X-224950Y1006270D01*
X-226220Y1005630D01*
X-227280Y1004660D01*
X-227700Y1003370D01*
G01X-215000Y1016320D02*
X-227700D01*
X-225160Y1014390D01*
G01X-215000D02*
Y1018250D01*
G01X-223470Y1026380D02*
X-215000Y1029270D01*
X-223470Y1032170D01*
G01X-215000Y1042220D02*
X-227700D01*
X-225160Y1040290D01*
G01X-215000D02*
Y1044150D01*
G01X-215540Y2205570D02*
X-211460Y2213440D01*
G01X-215540D02*
X-211460Y2205570D01*
G01X-207770Y2207140D02*
X-207190Y2206230D01*
X-206410Y2205700D01*
X-205530Y2205570D01*
X-204750Y2205700D01*
X-203980Y2206360D01*
X-203490Y2207140D01*
X-203390Y2207930D01*
X-203590Y2208850D01*
X-204270Y2209500D01*
X-204950Y2209770D01*
X-205820D01*
G01X-204950D02*
X-204360Y2210160D01*
X-203880Y2210820D01*
X-203680Y2211600D01*
X-203880Y2212390D01*
X-204360Y2213050D01*
X-205240Y2213440D01*
X-206120Y2213310D01*
X-206990Y2212780D01*
G01X-175120Y-6000D02*
X-171040Y1870D01*
G01X-175120D02*
X-171040Y-6000D01*
G01X-165210D02*
Y1870D01*
X-166380Y300D01*
G01Y-6000D02*
X-164040D01*
G01X-159190Y560D02*
X-158610Y1350D01*
X-157920Y1740D01*
X-157150Y1870D01*
X-156170Y1610D01*
X-155490Y950D01*
X-155300Y160D01*
X-155390Y-620D01*
X-155780Y-1280D01*
X-157730Y-2590D01*
X-158610Y-3510D01*
X-159190Y-4820D01*
X-159380Y-6000D01*
X-155300D01*
G01X-175120Y46000D02*
X-171040Y53870D01*
G01X-175120D02*
X-171040Y46000D01*
G01X-165210D02*
Y53870D01*
X-166380Y52300D01*
G01Y46000D02*
X-164040D01*
G01X-159480Y47570D02*
X-158900Y46660D01*
X-158120Y46130D01*
X-157240Y46000D01*
X-156460Y46130D01*
X-155690Y46790D01*
X-155200Y47570D01*
X-155100Y48360D01*
X-155300Y49280D01*
X-155980Y49930D01*
X-156660Y50200D01*
X-157530D01*
G01X-156660D02*
X-156070Y50590D01*
X-155590Y51250D01*
X-155390Y52030D01*
X-155590Y52820D01*
X-156070Y53480D01*
X-156950Y53870D01*
X-157830Y53740D01*
X-158700Y53210D01*
G01X-175120Y172000D02*
X-171040Y179870D01*
G01X-175120D02*
X-171040Y172000D01*
G01X-165210D02*
Y179870D01*
X-166380Y178300D01*
G01Y172000D02*
X-164040D01*
G01X-157340Y179870D02*
X-158120Y179610D01*
X-158700Y178950D01*
X-159090Y178160D01*
X-159380Y177120D01*
X-159480Y175930D01*
X-159380Y174750D01*
X-159090Y173710D01*
X-158700Y172920D01*
X-158120Y172260D01*
X-157340Y172000D01*
X-156560Y172260D01*
X-155980Y172920D01*
X-155590Y173710D01*
X-155300Y174750D01*
X-155200Y175930D01*
X-155300Y177120D01*
X-155590Y178160D01*
X-155980Y178950D01*
X-156560Y179610D01*
X-157340Y179870D01*
G01X-175120Y122000D02*
X-171040Y129870D01*
G01X-175120D02*
X-171040Y122000D01*
G01X-165210D02*
Y129870D01*
X-166380Y128300D01*
G01Y122000D02*
X-164040D01*
G01X-157340D02*
Y129870D01*
X-158510Y128300D01*
G01Y122000D02*
X-156170D01*
G01X-171120Y266000D02*
X-167040Y273870D01*
G01X-171120D02*
X-167040Y266000D01*
G01X-160040D02*
Y273870D01*
X-163640Y268230D01*
X-158780D01*
G01X-169120Y318000D02*
X-165040Y325870D01*
G01X-169120D02*
X-165040Y318000D01*
G01X-159400D02*
X-159210Y319710D01*
X-158920Y321150D01*
X-158530Y322460D01*
X-158040Y323900D01*
X-157260Y325870D01*
X-161160D01*
G01X-178210Y430350D02*
X-174990D01*
Y426540D01*
X-175960Y425270D01*
X-177080Y424420D01*
X-178690Y424000D01*
X-180300Y424420D01*
X-181430Y425270D01*
X-182390Y426540D01*
X-183040Y428020D01*
X-183360Y429710D01*
Y431200D01*
X-183040Y432470D01*
X-182390Y433950D01*
X-181430Y435220D01*
X-180460Y436060D01*
X-179180Y436700D01*
X-178050D01*
X-176760Y436280D01*
X-175800Y435430D01*
G01X-169920Y424000D02*
Y436700D01*
X-162530Y424000D01*
Y436700D01*
G01X-156810Y424000D02*
Y436700D01*
X-153600D01*
X-152310Y436060D01*
X-151340Y435220D01*
X-150540Y433950D01*
X-149900Y432470D01*
X-149740Y430350D01*
X-149900Y428230D01*
X-150540Y426750D01*
X-151340Y425480D01*
X-152310Y424630D01*
X-153600Y424000D01*
X-156810D01*
G01X-171120Y368000D02*
X-167040Y375870D01*
G01X-171120D02*
X-167040Y368000D01*
G01X-161210D02*
X-160530Y368130D01*
X-159750Y368520D01*
X-159260Y369180D01*
X-159070Y370100D01*
X-159260Y371020D01*
X-159850Y371800D01*
X-160720Y372200D01*
X-161700D01*
X-162280Y372460D01*
X-162770Y373120D01*
X-162960Y374030D01*
X-162670Y374950D01*
X-161990Y375610D01*
X-161210Y375870D01*
X-160430Y375610D01*
X-159750Y374950D01*
X-159460Y374030D01*
X-159650Y373120D01*
X-160140Y372460D01*
X-160720Y372200D01*
X-161700D01*
X-162570Y371800D01*
X-163160Y371020D01*
X-163350Y370100D01*
X-163160Y369180D01*
X-162670Y368520D01*
X-161890Y368130D01*
X-161210Y368000D01*
G01X-175120Y476000D02*
X-171040Y483870D01*
G01X-175120D02*
X-171040Y476000D01*
G01X-167350Y477180D02*
X-166770Y476520D01*
X-166090Y476130D01*
X-165210Y476000D01*
X-164330Y476260D01*
X-163650Y476790D01*
X-163170Y477710D01*
X-163070Y478750D01*
X-163260Y479800D01*
X-163750Y480460D01*
X-164430Y480980D01*
X-165110Y481120D01*
X-165790Y480980D01*
X-166670Y480460D01*
X-166380Y483870D01*
X-163750D01*
G01X-175900Y542000D02*
Y549870D01*
X-173460D01*
X-172680Y549480D01*
X-172200Y548950D01*
X-172000Y547900D01*
X-172200Y546850D01*
X-172780Y546200D01*
X-173460Y545800D01*
X-175900D01*
G01X-173460D02*
X-172000Y542000D01*
G01X-168220Y543180D02*
X-167640Y542520D01*
X-166960Y542130D01*
X-166080Y542000D01*
X-165200Y542260D01*
X-164520Y542790D01*
X-164040Y543710D01*
X-163940Y544750D01*
X-164130Y545800D01*
X-164620Y546460D01*
X-165300Y546980D01*
X-165980Y547120D01*
X-166660Y546980D01*
X-167540Y546460D01*
X-167250Y549870D01*
X-164620D01*
G01X-175900Y574000D02*
Y581870D01*
X-173460D01*
X-172680Y581480D01*
X-172200Y580950D01*
X-172000Y579900D01*
X-172200Y578850D01*
X-172780Y578200D01*
X-173460Y577800D01*
X-175900D01*
G01X-173460D02*
X-172000Y574000D01*
G01X-166270D02*
X-166080Y575710D01*
X-165790Y577150D01*
X-165400Y578460D01*
X-164910Y579900D01*
X-164130Y581870D01*
X-168030D01*
G01X-181030Y718380D02*
X-179080Y728870D01*
G01X-177130D02*
X-179080Y718380D01*
G01X-182000Y722310D02*
X-176160D01*
G01Y724930D02*
X-182000D01*
G01X-169070Y728210D02*
X-169650Y728610D01*
X-170330Y728870D01*
X-171110D01*
X-171990Y728480D01*
X-172670Y727820D01*
X-173160Y727030D01*
X-173550Y725720D01*
X-173640Y724540D01*
X-173450Y723360D01*
X-173160Y722570D01*
X-172570Y721790D01*
X-171890Y721260D01*
X-171210Y721000D01*
X-170530D01*
X-169850Y721260D01*
X-169260Y721660D01*
X-168780Y722180D01*
G01X-165290Y721000D02*
Y728870D01*
X-162950D01*
X-162170Y728480D01*
X-161590Y727560D01*
X-161390Y726510D01*
X-161590Y725460D01*
X-162070Y724670D01*
X-162950Y724280D01*
X-165290D01*
G01X-157420Y721000D02*
Y728870D01*
X-154980D01*
X-154200Y728480D01*
X-153720Y727950D01*
X-153520Y726900D01*
X-153720Y725850D01*
X-154300Y725200D01*
X-154980Y724800D01*
X-157420D01*
G01X-154980D02*
X-153520Y721000D01*
G01X-149740D02*
Y728870D01*
X-147790D01*
X-147020Y728480D01*
X-146430Y727950D01*
X-145950Y727160D01*
X-145560Y726250D01*
X-145460Y724930D01*
X-145560Y723620D01*
X-145950Y722710D01*
X-146430Y721920D01*
X-147020Y721390D01*
X-147790Y721000D01*
X-149740D01*
G01X-181030Y705380D02*
X-179080Y715870D01*
G01X-177130D02*
X-179080Y705380D01*
G01X-182000Y709310D02*
X-176160D01*
G01Y711930D02*
X-182000D01*
G01X-169070Y715210D02*
X-169650Y715610D01*
X-170330Y715870D01*
X-171110D01*
X-171990Y715480D01*
X-172670Y714820D01*
X-173160Y714030D01*
X-173550Y712720D01*
X-173640Y711540D01*
X-173450Y710360D01*
X-173160Y709570D01*
X-172570Y708790D01*
X-171890Y708260D01*
X-171210Y708000D01*
X-170530D01*
X-169850Y708260D01*
X-169260Y708660D01*
X-168780Y709180D01*
G01X-165290Y708000D02*
Y715870D01*
X-162950D01*
X-162170Y715480D01*
X-161590Y714560D01*
X-161390Y713510D01*
X-161590Y712460D01*
X-162070Y711670D01*
X-162950Y711280D01*
X-165290D01*
G01X-157420Y708000D02*
Y715870D01*
X-154980D01*
X-154200Y715480D01*
X-153720Y714950D01*
X-153520Y713900D01*
X-153720Y712850D01*
X-154300Y712200D01*
X-154980Y711800D01*
X-157420D01*
G01X-154980D02*
X-153520Y708000D01*
G01X-150130D02*
Y715870D01*
X-147600Y709310D01*
X-145070Y715870D01*
Y708000D01*
G01X-181120Y696050D02*
X-180350Y695390D01*
X-179470Y695000D01*
X-178690D01*
X-177910Y695390D01*
X-177330Y696050D01*
X-177040Y696970D01*
X-177230Y697890D01*
X-177720Y698670D01*
X-178590Y699200D01*
X-179760Y699460D01*
X-180440Y699980D01*
X-180730Y700900D01*
X-180540Y701820D01*
X-180050Y702480D01*
X-179370Y702870D01*
X-178690D01*
X-178010Y702610D01*
X-177430Y701950D01*
G01X-171210Y695000D02*
X-171990Y695130D01*
X-172670Y695660D01*
X-173250Y696440D01*
X-173640Y697360D01*
X-173840Y698410D01*
Y699460D01*
X-173640Y700510D01*
X-173250Y701430D01*
X-172670Y702210D01*
X-171990Y702740D01*
X-171210Y702870D01*
X-170430Y702740D01*
X-169750Y702210D01*
X-169170Y701430D01*
X-168780Y700510D01*
X-168580Y699460D01*
Y698410D01*
X-168780Y697360D01*
X-169170Y696440D01*
X-169750Y695660D01*
X-170430Y695130D01*
X-171210Y695000D01*
G01X-165480Y702870D02*
Y697230D01*
X-165090Y696050D01*
X-164310Y695260D01*
X-163340Y695000D01*
X-162370Y695260D01*
X-161590Y696050D01*
X-161200Y697230D01*
Y702870D01*
G01X-155470D02*
Y695000D01*
G01X-157710Y702870D02*
X-153230D01*
G01X-147600D02*
X-148380Y702610D01*
X-148960Y701950D01*
X-149350Y701160D01*
X-149640Y700120D01*
X-149740Y698930D01*
X-149640Y697750D01*
X-149350Y696710D01*
X-148960Y695920D01*
X-148380Y695260D01*
X-147600Y695000D01*
X-146820Y695260D01*
X-146240Y695920D01*
X-145850Y696710D01*
X-145560Y697750D01*
X-145460Y698930D01*
X-145560Y700120D01*
X-145850Y701160D01*
X-146240Y701950D01*
X-146820Y702610D01*
X-147600Y702870D01*
G01X-180510Y784000D02*
X-178080Y791870D01*
X-175650Y784000D01*
G01X-176520Y786750D02*
X-179640D01*
G01X-172160Y791870D02*
Y784000D01*
X-168260D01*
G01X-164770D02*
X-162340Y791870D01*
X-159910Y784000D01*
G01X-160780Y786750D02*
X-163900D01*
G01X-156420Y784000D02*
Y791870D01*
X-153980D01*
X-153200Y791480D01*
X-152720Y790950D01*
X-152520Y789900D01*
X-152720Y788850D01*
X-153300Y788200D01*
X-153980Y787800D01*
X-156420D01*
G01X-153980D02*
X-152520Y784000D01*
G01X-149130D02*
Y791870D01*
X-146600Y785310D01*
X-144070Y791870D01*
Y784000D01*
G01X-181030Y768380D02*
X-179080Y778870D01*
G01X-177130D02*
X-179080Y768380D01*
G01X-182000Y772310D02*
X-176160D01*
G01Y774930D02*
X-182000D01*
G01X-174130Y778870D02*
X-172770Y771000D01*
X-171210Y778870D01*
X-169650Y771000D01*
X-168290Y778870D01*
G01X-165770Y771000D02*
X-163340Y778870D01*
X-160910Y771000D01*
G01X-161780Y773750D02*
X-164900D01*
G01X-157420Y771000D02*
Y778870D01*
X-154980D01*
X-154200Y778480D01*
X-153720Y777950D01*
X-153520Y776900D01*
X-153720Y775850D01*
X-154300Y775200D01*
X-154980Y774800D01*
X-157420D01*
G01X-154980D02*
X-153520Y771000D01*
G01X-149840D02*
Y778870D01*
X-145360Y771000D01*
Y778870D01*
G01X-181030Y755380D02*
X-179080Y765870D01*
G01X-177130D02*
X-179080Y755380D01*
G01X-182000Y759310D02*
X-176160D01*
G01Y761930D02*
X-182000D01*
G01X-173640Y758000D02*
X-171210Y765870D01*
X-168780Y758000D01*
G01X-169650Y760750D02*
X-172770D01*
G01X-165290Y758000D02*
Y765870D01*
X-162950D01*
X-162170Y765480D01*
X-161590Y764560D01*
X-161390Y763510D01*
X-161590Y762460D01*
X-162070Y761670D01*
X-162950Y761280D01*
X-165290D01*
G01X-157420Y758000D02*
Y765870D01*
X-154980D01*
X-154200Y765480D01*
X-153720Y764950D01*
X-153520Y763900D01*
X-153720Y762850D01*
X-154300Y762200D01*
X-154980Y761800D01*
X-157420D01*
G01X-154980D02*
X-153520Y758000D01*
G01X-149740D02*
Y765870D01*
X-147790D01*
X-147020Y765480D01*
X-146430Y764950D01*
X-145950Y764160D01*
X-145560Y763250D01*
X-145460Y761930D01*
X-145560Y760620D01*
X-145950Y759710D01*
X-146430Y758920D01*
X-147020Y758390D01*
X-147790Y758000D01*
X-149740D01*
G01X-181030Y743380D02*
X-179080Y753870D01*
G01X-177130D02*
X-179080Y743380D01*
G01X-182000Y747310D02*
X-176160D01*
G01Y749930D02*
X-182000D01*
G01X-173640Y746000D02*
X-171210Y753870D01*
X-168780Y746000D01*
G01X-169650Y748750D02*
X-172770D01*
G01X-165290Y746000D02*
Y753870D01*
X-162950D01*
X-162170Y753480D01*
X-161590Y752560D01*
X-161390Y751510D01*
X-161590Y750460D01*
X-162070Y749670D01*
X-162950Y749280D01*
X-165290D01*
G01X-157420Y746000D02*
Y753870D01*
X-154980D01*
X-154200Y753480D01*
X-153720Y752950D01*
X-153520Y751900D01*
X-153720Y750850D01*
X-154300Y750200D01*
X-154980Y749800D01*
X-157420D01*
G01X-154980D02*
X-153520Y746000D01*
G01X-150130D02*
Y753870D01*
X-147600Y747310D01*
X-145070Y753870D01*
Y746000D01*
G01X-181030Y731380D02*
X-179080Y741870D01*
G01X-177130D02*
X-179080Y731380D01*
G01X-182000Y735310D02*
X-176160D01*
G01Y737930D02*
X-182000D01*
G01X-173640Y734000D02*
X-171210Y741870D01*
X-168780Y734000D01*
G01X-169650Y736750D02*
X-172770D01*
G01X-165480Y734000D02*
Y741870D01*
X-163530D01*
X-162760Y741480D01*
X-162170Y740950D01*
X-161690Y740160D01*
X-161300Y739250D01*
X-161200Y737930D01*
X-161300Y736620D01*
X-161690Y735710D01*
X-162170Y734920D01*
X-162760Y734390D01*
X-163530Y734000D01*
X-165480D01*
G01X-153520D02*
X-157420D01*
Y741870D01*
X-153520D01*
G01X-155080Y738070D02*
X-157420D01*
G01X-149450Y734000D02*
Y741870D01*
X-145750D01*
G01X-147110Y738070D02*
X-149450D01*
G01X-208940Y821230D02*
X-205080D01*
G01X-207180Y823990D02*
Y818480D01*
G01X-197760Y818900D02*
X-196800Y817850D01*
X-195670Y817210D01*
X-194230Y817000D01*
X-192780Y817420D01*
X-191650Y818270D01*
X-190850Y819750D01*
X-190690Y821440D01*
X-191010Y823140D01*
X-191810Y824200D01*
X-192940Y825040D01*
X-194060Y825250D01*
X-195190Y825040D01*
X-196640Y824200D01*
X-196160Y829700D01*
X-191810D01*
G01X-179990Y823770D02*
X-179340Y824410D01*
X-178860Y825470D01*
X-178540Y826950D01*
X-178860Y828220D01*
X-179510Y829060D01*
X-180630Y829700D01*
X-184970D01*
Y817000D01*
X-179670D01*
X-178540Y817850D01*
X-177900Y819120D01*
X-177580Y820600D01*
X-177900Y822080D01*
X-178860Y823350D01*
X-179990Y823770D01*
X-184970D01*
G01X-199610Y869000D02*
Y876870D01*
X-197080Y870310D01*
X-194550Y876870D01*
Y869000D01*
G01X-191250D02*
Y876870D01*
G01X-187170D02*
Y869000D01*
G01Y872930D02*
X-191250D01*
G01X-181340Y869000D02*
Y876870D01*
X-182510Y875300D01*
G01Y869000D02*
X-180170D01*
G01X-188000Y912640D02*
X-200700D01*
X-190120Y916820D01*
X-200700Y921010D01*
X-188000D01*
G01Y932670D02*
X-196470D01*
G01X-194990D02*
X-195830Y932030D01*
X-196250Y931060D01*
X-196470Y929940D01*
X-196040Y928810D01*
X-195200Y927840D01*
X-193930Y927200D01*
X-192230Y926880D01*
X-190540Y927200D01*
X-189270Y927840D01*
X-188420Y928810D01*
X-188000Y929940D01*
X-188210Y931060D01*
X-188850Y932030D01*
X-189690Y932670D01*
G01X-184190Y939350D02*
X-183770Y940310D01*
X-184190Y941600D01*
X-185040Y942400D01*
X-186100Y943050D01*
X-189480Y944010D01*
X-196470Y946100D01*
G01Y940960D02*
X-189480Y944010D01*
G01X-198580Y965570D02*
X-199850Y966530D01*
X-200490Y967660D01*
X-200700Y968950D01*
X-200280Y970560D01*
X-199220Y971680D01*
X-197950Y972000D01*
X-196680Y971840D01*
X-195620Y971200D01*
X-193500Y967980D01*
X-192020Y966530D01*
X-189900Y965570D01*
X-188000Y965250D01*
Y972000D01*
G01X-200700Y981570D02*
X-200280Y980290D01*
X-199220Y979320D01*
X-197950Y978680D01*
X-196250Y978200D01*
X-194350Y978040D01*
X-192440Y978200D01*
X-190750Y978680D01*
X-189480Y979320D01*
X-188420Y980290D01*
X-188000Y981570D01*
X-188420Y982860D01*
X-189480Y983830D01*
X-190750Y984470D01*
X-192440Y984950D01*
X-194350Y985110D01*
X-196250Y984950D01*
X-197950Y984470D01*
X-199220Y983830D01*
X-200280Y982860D01*
X-200700Y981570D01*
G01X-188000Y994520D02*
X-200700D01*
X-198160Y992590D01*
G01X-188000D02*
Y996450D01*
G01X-190540Y1003940D02*
X-189060Y1004900D01*
X-188210Y1006190D01*
X-188000Y1007640D01*
X-188210Y1008920D01*
X-189270Y1010210D01*
X-190540Y1011010D01*
X-191810Y1011170D01*
X-193290Y1010850D01*
X-194350Y1009730D01*
X-194770Y1008600D01*
Y1007150D01*
G01Y1008600D02*
X-195410Y1009570D01*
X-196470Y1010370D01*
X-197740Y1010690D01*
X-199010Y1010370D01*
X-200060Y1009570D01*
X-200700Y1008120D01*
X-200490Y1006670D01*
X-199640Y1005220D01*
G01X-154000Y931780D02*
X-161870D01*
Y933730D01*
X-161480Y934500D01*
X-160950Y935090D01*
X-160160Y935570D01*
X-159250Y935960D01*
X-157930Y936060D01*
X-156620Y935960D01*
X-155710Y935570D01*
X-154920Y935090D01*
X-154390Y934500D01*
X-154000Y933730D01*
Y931780D01*
G01Y939650D02*
X-161870D01*
Y941600D01*
X-161480Y942370D01*
X-160950Y942960D01*
X-160160Y943440D01*
X-159250Y943830D01*
X-157930Y943930D01*
X-156620Y943830D01*
X-155710Y943440D01*
X-154920Y942960D01*
X-154390Y942370D01*
X-154000Y941600D01*
Y939650D01*
G01Y949660D02*
X-161870D01*
X-160300Y948490D01*
G01X-154000D02*
Y950830D01*
G01X-143700Y1024500D02*
X-135700D01*
G01X-185010Y1022970D02*
X-185410Y1022390D01*
X-185670Y1021710D01*
Y1020930D01*
X-185280Y1020050D01*
X-184620Y1019370D01*
X-183830Y1018880D01*
X-182520Y1018490D01*
X-181340Y1018400D01*
X-180160Y1018590D01*
X-179370Y1018880D01*
X-178590Y1019470D01*
X-178060Y1020150D01*
X-177800Y1020830D01*
Y1021510D01*
X-178060Y1022190D01*
X-178460Y1022780D01*
X-178980Y1023260D01*
G01X-177800Y1028700D02*
X-185670D01*
X-184100Y1027530D01*
G01X-177800D02*
Y1029870D01*
G01Y1036570D02*
X-185670D01*
X-184100Y1035400D01*
G01X-177800D02*
Y1037740D01*
G01X-169100Y1024500D02*
X-161100D01*
G01X-145730Y1048210D02*
X-146310Y1048610D01*
X-146990Y1048870D01*
X-147770D01*
X-148650Y1048480D01*
X-149330Y1047820D01*
X-149820Y1047030D01*
X-150210Y1045720D01*
X-150300Y1044540D01*
X-150110Y1043360D01*
X-149820Y1042570D01*
X-149230Y1041790D01*
X-148550Y1041260D01*
X-147870Y1041000D01*
X-147190D01*
X-146510Y1041260D01*
X-145920Y1041660D01*
X-145440Y1042180D01*
G01X-140000Y1041000D02*
Y1048870D01*
X-141170Y1047300D01*
G01Y1041000D02*
X-138830D01*
G01X-132130Y1048870D02*
X-132910Y1048610D01*
X-133490Y1047950D01*
X-133880Y1047160D01*
X-134170Y1046120D01*
X-134270Y1044930D01*
X-134170Y1043750D01*
X-133880Y1042710D01*
X-133490Y1041920D01*
X-132910Y1041260D01*
X-132130Y1041000D01*
X-131350Y1041260D01*
X-130770Y1041920D01*
X-130380Y1042710D01*
X-130090Y1043750D01*
X-129990Y1044930D01*
X-130090Y1046120D01*
X-130380Y1047160D01*
X-130770Y1047950D01*
X-131350Y1048610D01*
X-132130Y1048870D01*
G01X-152300Y1098870D02*
X-149870Y1091000D01*
X-147440Y1098870D01*
G01X-144140Y1091000D02*
Y1098870D01*
X-142190D01*
X-141420Y1098480D01*
X-140830Y1097950D01*
X-140350Y1097160D01*
X-139960Y1096250D01*
X-139860Y1094930D01*
X-139960Y1093620D01*
X-140350Y1092710D01*
X-140830Y1091920D01*
X-141420Y1091390D01*
X-142190Y1091000D01*
X-144140D01*
G01X-136270Y1092180D02*
X-135690Y1091520D01*
X-135010Y1091130D01*
X-134130Y1091000D01*
X-133250Y1091260D01*
X-132570Y1091790D01*
X-132090Y1092710D01*
X-131990Y1093750D01*
X-132180Y1094800D01*
X-132670Y1095460D01*
X-133350Y1095980D01*
X-134030Y1096120D01*
X-134710Y1095980D01*
X-135590Y1095460D01*
X-135300Y1098870D01*
X-132670D01*
G01X-161640Y1212640D02*
X-162600Y1213280D01*
X-163730Y1213700D01*
X-165010D01*
X-166460Y1213060D01*
X-167590Y1212010D01*
X-168390Y1210740D01*
X-169040Y1208620D01*
X-169200Y1206710D01*
X-168870Y1204810D01*
X-168390Y1203540D01*
X-167430Y1202270D01*
X-166300Y1201420D01*
X-165180Y1201000D01*
X-164050D01*
X-162920Y1201420D01*
X-161960Y1202060D01*
X-161150Y1202900D01*
G01X-152230Y1201000D02*
X-153510Y1201210D01*
X-154640Y1202060D01*
X-155600Y1203330D01*
X-156250Y1204810D01*
X-156570Y1206500D01*
Y1208200D01*
X-156250Y1209890D01*
X-155600Y1211370D01*
X-154640Y1212640D01*
X-153510Y1213490D01*
X-152230Y1213700D01*
X-150940Y1213490D01*
X-149810Y1212640D01*
X-148850Y1211370D01*
X-148200Y1209890D01*
X-147880Y1208200D01*
Y1206500D01*
X-148200Y1204810D01*
X-148850Y1203330D01*
X-149810Y1202060D01*
X-150940Y1201210D01*
X-152230Y1201000D01*
G01X-143460D02*
Y1213700D01*
X-139280Y1203120D01*
X-135090Y1213700D01*
Y1201000D01*
G01X-144210Y1315060D02*
X-144610Y1314480D01*
X-144870Y1313800D01*
Y1313020D01*
X-144480Y1312140D01*
X-143820Y1311460D01*
X-143030Y1310970D01*
X-141720Y1310580D01*
X-140540Y1310490D01*
X-139360Y1310680D01*
X-138570Y1310970D01*
X-137790Y1311560D01*
X-137260Y1312240D01*
X-137000Y1312920D01*
Y1313600D01*
X-137260Y1314280D01*
X-137660Y1314870D01*
X-138180Y1315350D01*
G01X-137000Y1320790D02*
X-144870D01*
X-143300Y1319620D01*
G01X-137000D02*
Y1321960D01*
G01X-187000Y1310490D02*
X-194870Y1312920D01*
X-187000Y1315350D01*
G01X-189750Y1314480D02*
Y1311360D01*
G01X-187000Y1320790D02*
X-194870D01*
X-193300Y1319620D01*
G01X-187000D02*
Y1321960D01*
G01X-171300Y1411200D02*
X-170910Y1411590D01*
X-170620Y1412250D01*
X-170430Y1413160D01*
X-170620Y1413950D01*
X-171010Y1414480D01*
X-171690Y1414870D01*
X-174320D01*
Y1407000D01*
X-171110D01*
X-170430Y1407520D01*
X-170040Y1408310D01*
X-169840Y1409230D01*
X-170040Y1410150D01*
X-170620Y1410930D01*
X-171300Y1411200D01*
X-174320D01*
G01X-167130Y1414870D02*
X-165770Y1407000D01*
X-164210Y1414870D01*
X-162650Y1407000D01*
X-161290Y1414870D01*
G01X-158480Y1408570D02*
X-157900Y1407660D01*
X-157120Y1407130D01*
X-156240Y1407000D01*
X-155460Y1407130D01*
X-154690Y1407790D01*
X-154200Y1408570D01*
X-154100Y1409360D01*
X-154300Y1410280D01*
X-154980Y1410930D01*
X-155660Y1411200D01*
X-156530D01*
G01X-155660D02*
X-155070Y1411590D01*
X-154590Y1412250D01*
X-154390Y1413030D01*
X-154590Y1413820D01*
X-155070Y1414480D01*
X-155950Y1414870D01*
X-156830Y1414740D01*
X-157700Y1414210D01*
G01X-171300Y1485200D02*
X-170910Y1485590D01*
X-170620Y1486250D01*
X-170430Y1487160D01*
X-170620Y1487950D01*
X-171010Y1488480D01*
X-171690Y1488870D01*
X-174320D01*
Y1481000D01*
X-171110D01*
X-170430Y1481520D01*
X-170040Y1482310D01*
X-169840Y1483230D01*
X-170040Y1484150D01*
X-170620Y1484930D01*
X-171300Y1485200D01*
X-174320D01*
G01X-167130Y1488870D02*
X-165770Y1481000D01*
X-164210Y1488870D01*
X-162650Y1481000D01*
X-161290Y1488870D01*
G01X-156340D02*
X-157120Y1488610D01*
X-157700Y1487950D01*
X-158090Y1487160D01*
X-158380Y1486120D01*
X-158480Y1484930D01*
X-158380Y1483750D01*
X-158090Y1482710D01*
X-157700Y1481920D01*
X-157120Y1481260D01*
X-156340Y1481000D01*
X-155560Y1481260D01*
X-154980Y1481920D01*
X-154590Y1482710D01*
X-154300Y1483750D01*
X-154200Y1484930D01*
X-154300Y1486120D01*
X-154590Y1487160D01*
X-154980Y1487950D01*
X-155560Y1488610D01*
X-156340Y1488870D01*
G01X-170300Y1436200D02*
X-169910Y1436590D01*
X-169620Y1437250D01*
X-169430Y1438160D01*
X-169620Y1438950D01*
X-170010Y1439480D01*
X-170690Y1439870D01*
X-173320D01*
Y1432000D01*
X-170110D01*
X-169430Y1432520D01*
X-169040Y1433310D01*
X-168840Y1434230D01*
X-169040Y1435150D01*
X-169620Y1435930D01*
X-170300Y1436200D01*
X-173320D01*
G01X-166130Y1439870D02*
X-164770Y1432000D01*
X-163210Y1439870D01*
X-161650Y1432000D01*
X-160290Y1439870D01*
G01X-157190Y1438560D02*
X-156610Y1439350D01*
X-155920Y1439740D01*
X-155150Y1439870D01*
X-154170Y1439610D01*
X-153490Y1438950D01*
X-153300Y1438160D01*
X-153390Y1437380D01*
X-153780Y1436720D01*
X-155730Y1435410D01*
X-156610Y1434490D01*
X-157190Y1433180D01*
X-157380Y1432000D01*
X-153300D01*
G01X-170300Y1461200D02*
X-169910Y1461590D01*
X-169620Y1462250D01*
X-169430Y1463160D01*
X-169620Y1463950D01*
X-170010Y1464480D01*
X-170690Y1464870D01*
X-173320D01*
Y1457000D01*
X-170110D01*
X-169430Y1457520D01*
X-169040Y1458310D01*
X-168840Y1459230D01*
X-169040Y1460150D01*
X-169620Y1460930D01*
X-170300Y1461200D01*
X-173320D01*
G01X-166130Y1464870D02*
X-164770Y1457000D01*
X-163210Y1464870D01*
X-161650Y1457000D01*
X-160290Y1464870D01*
G01X-155340Y1457000D02*
Y1464870D01*
X-156510Y1463300D01*
G01Y1457000D02*
X-154170D01*
G01X-170810Y1562850D02*
X-170420Y1563240D01*
X-170130Y1563900D01*
X-169940Y1564810D01*
X-170130Y1565600D01*
X-170520Y1566130D01*
X-171200Y1566520D01*
X-173830D01*
Y1558650D01*
X-170620D01*
X-169940Y1559170D01*
X-169550Y1559960D01*
X-169350Y1560880D01*
X-169550Y1561800D01*
X-170130Y1562580D01*
X-170810Y1562850D01*
X-173830D01*
G01X-165670Y1558650D02*
Y1566520D01*
X-163230D01*
X-162450Y1566130D01*
X-161970Y1565600D01*
X-161770Y1564550D01*
X-161970Y1563500D01*
X-162550Y1562850D01*
X-163230Y1562450D01*
X-165670D01*
G01X-163230D02*
X-161770Y1558650D01*
G01X-155850D02*
Y1566520D01*
X-157020Y1564950D01*
G01Y1558650D02*
X-154680D01*
G01X-170810Y1537850D02*
X-170420Y1538240D01*
X-170130Y1538900D01*
X-169940Y1539810D01*
X-170130Y1540600D01*
X-170520Y1541130D01*
X-171200Y1541520D01*
X-173830D01*
Y1533650D01*
X-170620D01*
X-169940Y1534170D01*
X-169550Y1534960D01*
X-169350Y1535880D01*
X-169550Y1536800D01*
X-170130Y1537580D01*
X-170810Y1537850D01*
X-173830D01*
G01X-165670Y1533650D02*
Y1541520D01*
X-163230D01*
X-162450Y1541130D01*
X-161970Y1540600D01*
X-161770Y1539550D01*
X-161970Y1538500D01*
X-162550Y1537850D01*
X-163230Y1537450D01*
X-165670D01*
G01X-163230D02*
X-161770Y1533650D01*
G01X-157700Y1540210D02*
X-157120Y1541000D01*
X-156430Y1541390D01*
X-155660Y1541520D01*
X-154680Y1541260D01*
X-154000Y1540600D01*
X-153810Y1539810D01*
X-153900Y1539030D01*
X-154290Y1538370D01*
X-156240Y1537060D01*
X-157120Y1536140D01*
X-157700Y1534830D01*
X-157890Y1533650D01*
X-153810D01*
G01X-171810Y1512850D02*
X-171420Y1513240D01*
X-171130Y1513900D01*
X-170940Y1514810D01*
X-171130Y1515600D01*
X-171520Y1516130D01*
X-172200Y1516520D01*
X-174830D01*
Y1508650D01*
X-171620D01*
X-170940Y1509170D01*
X-170550Y1509960D01*
X-170350Y1510880D01*
X-170550Y1511800D01*
X-171130Y1512580D01*
X-171810Y1512850D01*
X-174830D01*
G01X-166670Y1508650D02*
Y1516520D01*
X-164230D01*
X-163450Y1516130D01*
X-162970Y1515600D01*
X-162770Y1514550D01*
X-162970Y1513500D01*
X-163550Y1512850D01*
X-164230Y1512450D01*
X-166670D01*
G01X-164230D02*
X-162770Y1508650D01*
G01X-158990Y1510220D02*
X-158410Y1509310D01*
X-157630Y1508780D01*
X-156750Y1508650D01*
X-155970Y1508780D01*
X-155200Y1509440D01*
X-154710Y1510220D01*
X-154610Y1511010D01*
X-154810Y1511930D01*
X-155490Y1512580D01*
X-156170Y1512850D01*
X-157040D01*
G01X-156170D02*
X-155580Y1513240D01*
X-155100Y1513900D01*
X-154900Y1514680D01*
X-155100Y1515470D01*
X-155580Y1516130D01*
X-156460Y1516520D01*
X-157340Y1516390D01*
X-158210Y1515860D01*
G01X-171810Y1586850D02*
X-171420Y1587240D01*
X-171130Y1587900D01*
X-170940Y1588810D01*
X-171130Y1589600D01*
X-171520Y1590130D01*
X-172200Y1590520D01*
X-174830D01*
Y1582650D01*
X-171620D01*
X-170940Y1583170D01*
X-170550Y1583960D01*
X-170350Y1584880D01*
X-170550Y1585800D01*
X-171130Y1586580D01*
X-171810Y1586850D01*
X-174830D01*
G01X-166670Y1582650D02*
Y1590520D01*
X-164230D01*
X-163450Y1590130D01*
X-162970Y1589600D01*
X-162770Y1588550D01*
X-162970Y1587500D01*
X-163550Y1586850D01*
X-164230Y1586450D01*
X-166670D01*
G01X-164230D02*
X-162770Y1582650D01*
G01X-156850Y1590520D02*
X-157630Y1590260D01*
X-158210Y1589600D01*
X-158600Y1588810D01*
X-158890Y1587770D01*
X-158990Y1586580D01*
X-158890Y1585400D01*
X-158600Y1584360D01*
X-158210Y1583570D01*
X-157630Y1582910D01*
X-156850Y1582650D01*
X-156070Y1582910D01*
X-155490Y1583570D01*
X-155100Y1584360D01*
X-154810Y1585400D01*
X-154710Y1586580D01*
X-154810Y1587770D01*
X-155100Y1588810D01*
X-155490Y1589600D01*
X-156070Y1590260D01*
X-156850Y1590520D01*
G01X-167300Y1639200D02*
X-166910Y1639590D01*
X-166620Y1640250D01*
X-166430Y1641160D01*
X-166620Y1641950D01*
X-167010Y1642480D01*
X-167690Y1642870D01*
X-170320D01*
Y1635000D01*
X-167110D01*
X-166430Y1635520D01*
X-166040Y1636310D01*
X-165840Y1637230D01*
X-166040Y1638150D01*
X-166620Y1638930D01*
X-167300Y1639200D01*
X-170320D01*
G01X-162160Y1642870D02*
Y1635000D01*
X-158260D01*
G01X-178030Y1607380D02*
X-176080Y1617870D01*
G01X-174130D02*
X-176080Y1607380D01*
G01X-179000Y1611310D02*
X-173160D01*
G01Y1613930D02*
X-179000D01*
G01X-170160Y1610000D02*
Y1617870D01*
X-167720D01*
X-166940Y1617480D01*
X-166460Y1616950D01*
X-166260Y1615900D01*
X-166460Y1614850D01*
X-167040Y1614200D01*
X-167720Y1613800D01*
X-170160D01*
G01X-167720D02*
X-166260Y1610000D01*
G01X-158390D02*
X-162290D01*
Y1617870D01*
X-158390D01*
G01X-159950Y1614070D02*
X-162290D01*
G01X-154510Y1611050D02*
X-153740Y1610390D01*
X-152860Y1610000D01*
X-152080D01*
X-151300Y1610390D01*
X-150720Y1611050D01*
X-150430Y1611970D01*
X-150620Y1612890D01*
X-151110Y1613670D01*
X-151980Y1614200D01*
X-153150Y1614460D01*
X-153830Y1614980D01*
X-154120Y1615900D01*
X-153930Y1616820D01*
X-153440Y1617480D01*
X-152760Y1617870D01*
X-152080D01*
X-151400Y1617610D01*
X-150820Y1616950D01*
G01X-175030Y1669380D02*
X-173080Y1679870D01*
G01X-171130D02*
X-173080Y1669380D01*
G01X-176000Y1673310D02*
X-170160D01*
G01Y1675930D02*
X-176000D01*
G01X-167160Y1672000D02*
Y1679870D01*
X-164720D01*
X-163940Y1679480D01*
X-163460Y1678950D01*
X-163260Y1677900D01*
X-163460Y1676850D01*
X-164040Y1676200D01*
X-164720Y1675800D01*
X-167160D01*
G01X-164720D02*
X-163260Y1672000D01*
G01X-159480D02*
Y1679870D01*
X-157530D01*
X-156760Y1679480D01*
X-156170Y1678950D01*
X-155690Y1678160D01*
X-155300Y1677250D01*
X-155200Y1675930D01*
X-155300Y1674620D01*
X-155690Y1673710D01*
X-156170Y1672920D01*
X-156760Y1672390D01*
X-157530Y1672000D01*
X-159480D01*
G01X-175030Y1657380D02*
X-173080Y1667870D01*
G01X-171130D02*
X-173080Y1657380D01*
G01X-176000Y1661310D02*
X-170160D01*
G01Y1663930D02*
X-176000D01*
G01X-168130Y1667870D02*
X-166770Y1660000D01*
X-165210Y1667870D01*
X-163650Y1660000D01*
X-162290Y1667870D01*
G01X-159290Y1660000D02*
Y1667870D01*
X-156850D01*
X-156070Y1667480D01*
X-155590Y1666950D01*
X-155390Y1665900D01*
X-155590Y1664850D01*
X-156170Y1664200D01*
X-156850Y1663800D01*
X-159290D01*
G01X-156850D02*
X-155390Y1660000D01*
G01X-179030Y1681380D02*
X-177080Y1691870D01*
G01X-175130D02*
X-177080Y1681380D01*
G01X-180000Y1685310D02*
X-174160D01*
G01Y1687930D02*
X-180000D01*
G01X-167070Y1691210D02*
X-167650Y1691610D01*
X-168330Y1691870D01*
X-169110D01*
X-169990Y1691480D01*
X-170670Y1690820D01*
X-171160Y1690030D01*
X-171550Y1688720D01*
X-171640Y1687540D01*
X-171450Y1686360D01*
X-171160Y1685570D01*
X-170570Y1684790D01*
X-169890Y1684260D01*
X-169210Y1684000D01*
X-168530D01*
X-167850Y1684260D01*
X-167260Y1684660D01*
X-166780Y1685180D01*
G01X-163380Y1685050D02*
X-162610Y1684390D01*
X-161730Y1684000D01*
X-160950D01*
X-160170Y1684390D01*
X-159590Y1685050D01*
X-159300Y1685970D01*
X-159490Y1686890D01*
X-159980Y1687670D01*
X-160850Y1688200D01*
X-162020Y1688460D01*
X-162700Y1688980D01*
X-162990Y1689900D01*
X-162800Y1690820D01*
X-162310Y1691480D01*
X-161630Y1691870D01*
X-160950D01*
X-160270Y1691610D01*
X-159690Y1690950D01*
G01X-155610Y1685570D02*
X-155030Y1684660D01*
X-154250Y1684130D01*
X-153370Y1684000D01*
X-152590Y1684130D01*
X-151820Y1684790D01*
X-151330Y1685570D01*
X-151230Y1686360D01*
X-151430Y1687280D01*
X-152110Y1687930D01*
X-152790Y1688200D01*
X-153660D01*
G01X-152790D02*
X-152200Y1688590D01*
X-151720Y1689250D01*
X-151520Y1690030D01*
X-151720Y1690820D01*
X-152200Y1691480D01*
X-153080Y1691870D01*
X-153960Y1691740D01*
X-154830Y1691210D01*
G01X-179030Y1694380D02*
X-177080Y1704870D01*
G01X-175130D02*
X-177080Y1694380D01*
G01X-180000Y1698310D02*
X-174160D01*
G01Y1700930D02*
X-180000D01*
G01X-167070Y1704210D02*
X-167650Y1704610D01*
X-168330Y1704870D01*
X-169110D01*
X-169990Y1704480D01*
X-170670Y1703820D01*
X-171160Y1703030D01*
X-171550Y1701720D01*
X-171640Y1700540D01*
X-171450Y1699360D01*
X-171160Y1698570D01*
X-170570Y1697790D01*
X-169890Y1697260D01*
X-169210Y1697000D01*
X-168530D01*
X-167850Y1697260D01*
X-167260Y1697660D01*
X-166780Y1698180D01*
G01X-163380Y1698050D02*
X-162610Y1697390D01*
X-161730Y1697000D01*
X-160950D01*
X-160170Y1697390D01*
X-159590Y1698050D01*
X-159300Y1698970D01*
X-159490Y1699890D01*
X-159980Y1700670D01*
X-160850Y1701200D01*
X-162020Y1701460D01*
X-162700Y1701980D01*
X-162990Y1702900D01*
X-162800Y1703820D01*
X-162310Y1704480D01*
X-161630Y1704870D01*
X-160950D01*
X-160270Y1704610D01*
X-159690Y1703950D01*
G01X-155320Y1703560D02*
X-154740Y1704350D01*
X-154050Y1704740D01*
X-153280Y1704870D01*
X-152300Y1704610D01*
X-151620Y1703950D01*
X-151430Y1703160D01*
X-151520Y1702380D01*
X-151910Y1701720D01*
X-153860Y1700410D01*
X-154740Y1699490D01*
X-155320Y1698180D01*
X-155510Y1697000D01*
X-151430D01*
G01X-179030Y1707380D02*
X-177080Y1717870D01*
G01X-175130D02*
X-177080Y1707380D01*
G01X-180000Y1711310D02*
X-174160D01*
G01Y1713930D02*
X-180000D01*
G01X-167070Y1717210D02*
X-167650Y1717610D01*
X-168330Y1717870D01*
X-169110D01*
X-169990Y1717480D01*
X-170670Y1716820D01*
X-171160Y1716030D01*
X-171550Y1714720D01*
X-171640Y1713540D01*
X-171450Y1712360D01*
X-171160Y1711570D01*
X-170570Y1710790D01*
X-169890Y1710260D01*
X-169210Y1710000D01*
X-168530D01*
X-167850Y1710260D01*
X-167260Y1710660D01*
X-166780Y1711180D01*
G01X-163380Y1711050D02*
X-162610Y1710390D01*
X-161730Y1710000D01*
X-160950D01*
X-160170Y1710390D01*
X-159590Y1711050D01*
X-159300Y1711970D01*
X-159490Y1712890D01*
X-159980Y1713670D01*
X-160850Y1714200D01*
X-162020Y1714460D01*
X-162700Y1714980D01*
X-162990Y1715900D01*
X-162800Y1716820D01*
X-162310Y1717480D01*
X-161630Y1717870D01*
X-160950D01*
X-160270Y1717610D01*
X-159690Y1716950D01*
G01X-153470Y1710000D02*
Y1717870D01*
X-154640Y1716300D01*
G01Y1710000D02*
X-152300D01*
G01X-179030Y1720380D02*
X-177080Y1730870D01*
G01X-175130D02*
X-177080Y1720380D01*
G01X-180000Y1724310D02*
X-174160D01*
G01Y1726930D02*
X-180000D01*
G01X-167070Y1730210D02*
X-167650Y1730610D01*
X-168330Y1730870D01*
X-169110D01*
X-169990Y1730480D01*
X-170670Y1729820D01*
X-171160Y1729030D01*
X-171550Y1727720D01*
X-171640Y1726540D01*
X-171450Y1725360D01*
X-171160Y1724570D01*
X-170570Y1723790D01*
X-169890Y1723260D01*
X-169210Y1723000D01*
X-168530D01*
X-167850Y1723260D01*
X-167260Y1723660D01*
X-166780Y1724180D01*
G01X-163380Y1724050D02*
X-162610Y1723390D01*
X-161730Y1723000D01*
X-160950D01*
X-160170Y1723390D01*
X-159590Y1724050D01*
X-159300Y1724970D01*
X-159490Y1725890D01*
X-159980Y1726670D01*
X-160850Y1727200D01*
X-162020Y1727460D01*
X-162700Y1727980D01*
X-162990Y1728900D01*
X-162800Y1729820D01*
X-162310Y1730480D01*
X-161630Y1730870D01*
X-160950D01*
X-160270Y1730610D01*
X-159690Y1729950D01*
G01X-153470Y1730870D02*
X-154250Y1730610D01*
X-154830Y1729950D01*
X-155220Y1729160D01*
X-155510Y1728120D01*
X-155610Y1726930D01*
X-155510Y1725750D01*
X-155220Y1724710D01*
X-154830Y1723920D01*
X-154250Y1723260D01*
X-153470Y1723000D01*
X-152690Y1723260D01*
X-152110Y1723920D01*
X-151720Y1724710D01*
X-151430Y1725750D01*
X-151330Y1726930D01*
X-151430Y1728120D01*
X-151720Y1729160D01*
X-152110Y1729950D01*
X-152690Y1730610D01*
X-153470Y1730870D01*
G01X-170850Y1750540D02*
X-168420Y1758410D01*
X-165990Y1750540D01*
G01X-166860Y1753290D02*
X-169980D01*
G01X-162400Y1757100D02*
X-161820Y1757890D01*
X-161130Y1758280D01*
X-160360Y1758410D01*
X-159380Y1758150D01*
X-158700Y1757490D01*
X-158510Y1756700D01*
X-158600Y1755920D01*
X-158990Y1755260D01*
X-160940Y1753950D01*
X-161820Y1753030D01*
X-162400Y1751720D01*
X-162590Y1750540D01*
X-158510D01*
G01X-170850Y1762540D02*
X-168420Y1770410D01*
X-165990Y1762540D01*
G01X-166860Y1765290D02*
X-169980D01*
G01X-160550Y1762540D02*
Y1770410D01*
X-161720Y1768840D01*
G01Y1762540D02*
X-159380D01*
G01X-170850Y1774540D02*
X-168420Y1782410D01*
X-165990Y1774540D01*
G01X-166860Y1777290D02*
X-169980D01*
G01X-160550Y1782410D02*
X-161330Y1782150D01*
X-161910Y1781490D01*
X-162300Y1780700D01*
X-162590Y1779660D01*
X-162690Y1778470D01*
X-162590Y1777290D01*
X-162300Y1776250D01*
X-161910Y1775460D01*
X-161330Y1774800D01*
X-160550Y1774540D01*
X-159770Y1774800D01*
X-159190Y1775460D01*
X-158800Y1776250D01*
X-158510Y1777290D01*
X-158410Y1778470D01*
X-158510Y1779660D01*
X-158800Y1780700D01*
X-159190Y1781490D01*
X-159770Y1782150D01*
X-160550Y1782410D01*
G01X-171330Y1737660D02*
X-168900Y1745530D01*
X-166470Y1737660D01*
G01X-167340Y1740410D02*
X-170460D01*
G01X-163170Y1739230D02*
X-162590Y1738320D01*
X-161810Y1737790D01*
X-160930Y1737660D01*
X-160150Y1737790D01*
X-159380Y1738450D01*
X-158890Y1739230D01*
X-158790Y1740020D01*
X-158990Y1740940D01*
X-159670Y1741590D01*
X-160350Y1741860D01*
X-161220D01*
G01X-160350D02*
X-159760Y1742250D01*
X-159280Y1742910D01*
X-159080Y1743690D01*
X-159280Y1744480D01*
X-159760Y1745140D01*
X-160640Y1745530D01*
X-161520Y1745400D01*
X-162390Y1744870D01*
G01X-175220Y1788000D02*
Y1795870D01*
X-173270D01*
X-172500Y1795480D01*
X-171910Y1794950D01*
X-171430Y1794160D01*
X-171040Y1793250D01*
X-170940Y1791930D01*
X-171040Y1790620D01*
X-171430Y1789710D01*
X-171910Y1788920D01*
X-172500Y1788390D01*
X-173270Y1788000D01*
X-175220D01*
G01X-165210D02*
Y1795870D01*
X-166380Y1794300D01*
G01Y1788000D02*
X-164040D01*
G01X-159480Y1789180D02*
X-158900Y1788520D01*
X-158220Y1788130D01*
X-157340Y1788000D01*
X-156460Y1788260D01*
X-155780Y1788790D01*
X-155300Y1789710D01*
X-155200Y1790750D01*
X-155390Y1791800D01*
X-155880Y1792460D01*
X-156560Y1792980D01*
X-157240Y1793120D01*
X-157920Y1792980D01*
X-158800Y1792460D01*
X-158510Y1795870D01*
X-155880D01*
G01X-170920Y1863730D02*
Y1871600D01*
X-168970D01*
X-168200Y1871210D01*
X-167610Y1870680D01*
X-167130Y1869890D01*
X-166740Y1868980D01*
X-166640Y1867660D01*
X-166740Y1866350D01*
X-167130Y1865440D01*
X-167610Y1864650D01*
X-168200Y1864120D01*
X-168970Y1863730D01*
X-170920D01*
G01X-162560Y1864650D02*
X-161880Y1863990D01*
X-161100Y1863730D01*
X-160330Y1863990D01*
X-159640Y1864780D01*
X-159160Y1865960D01*
X-158960Y1867140D01*
Y1868580D01*
X-159160Y1869760D01*
X-159640Y1870810D01*
X-160230Y1871340D01*
X-160910Y1871600D01*
X-161690Y1871340D01*
X-162270Y1870810D01*
X-162660Y1870030D01*
X-162860Y1868980D01*
X-162660Y1868060D01*
X-162180Y1867140D01*
X-161590Y1866620D01*
X-160910Y1866480D01*
X-160130Y1866750D01*
X-159550Y1867400D01*
X-158960Y1868580D01*
G01X-174920Y1851730D02*
Y1859600D01*
X-172970D01*
X-172200Y1859210D01*
X-171610Y1858680D01*
X-171130Y1857890D01*
X-170740Y1856980D01*
X-170640Y1855660D01*
X-170740Y1854350D01*
X-171130Y1853440D01*
X-171610Y1852650D01*
X-172200Y1852120D01*
X-172970Y1851730D01*
X-174920D01*
G01X-164910D02*
Y1859600D01*
X-166080Y1858030D01*
G01Y1851730D02*
X-163740D01*
G01X-157040Y1859600D02*
X-157820Y1859340D01*
X-158400Y1858680D01*
X-158790Y1857890D01*
X-159080Y1856850D01*
X-159180Y1855660D01*
X-159080Y1854480D01*
X-158790Y1853440D01*
X-158400Y1852650D01*
X-157820Y1851990D01*
X-157040Y1851730D01*
X-156260Y1851990D01*
X-155680Y1852650D01*
X-155290Y1853440D01*
X-155000Y1854480D01*
X-154900Y1855660D01*
X-155000Y1856850D01*
X-155290Y1857890D01*
X-155680Y1858680D01*
X-156260Y1859340D01*
X-157040Y1859600D01*
G01X-174740Y1800880D02*
Y1808750D01*
X-172790D01*
X-172020Y1808360D01*
X-171430Y1807830D01*
X-170950Y1807040D01*
X-170560Y1806130D01*
X-170460Y1804810D01*
X-170560Y1803500D01*
X-170950Y1802590D01*
X-171430Y1801800D01*
X-172020Y1801270D01*
X-172790Y1800880D01*
X-174740D01*
G01X-164730D02*
Y1808750D01*
X-165900Y1807180D01*
G01Y1800880D02*
X-163560D01*
G01X-155690D02*
Y1808750D01*
X-159290Y1803110D01*
X-154430D01*
G01X-174740Y1824880D02*
Y1832750D01*
X-172790D01*
X-172020Y1832360D01*
X-171430Y1831830D01*
X-170950Y1831040D01*
X-170560Y1830130D01*
X-170460Y1828810D01*
X-170560Y1827500D01*
X-170950Y1826590D01*
X-171430Y1825800D01*
X-172020Y1825270D01*
X-172790Y1824880D01*
X-174740D01*
G01X-164730D02*
Y1832750D01*
X-165900Y1831180D01*
G01Y1824880D02*
X-163560D01*
G01X-158710Y1831440D02*
X-158130Y1832230D01*
X-157440Y1832620D01*
X-156670Y1832750D01*
X-155690Y1832490D01*
X-155010Y1831830D01*
X-154820Y1831040D01*
X-154910Y1830260D01*
X-155300Y1829600D01*
X-157250Y1828290D01*
X-158130Y1827370D01*
X-158710Y1826060D01*
X-158900Y1824880D01*
X-154820D01*
G01X-174740Y1812880D02*
Y1820750D01*
X-172790D01*
X-172020Y1820360D01*
X-171430Y1819830D01*
X-170950Y1819040D01*
X-170560Y1818130D01*
X-170460Y1816810D01*
X-170560Y1815500D01*
X-170950Y1814590D01*
X-171430Y1813800D01*
X-172020Y1813270D01*
X-172790Y1812880D01*
X-174740D01*
G01X-164730D02*
Y1820750D01*
X-165900Y1819180D01*
G01Y1812880D02*
X-163560D01*
G01X-159000Y1814450D02*
X-158420Y1813540D01*
X-157640Y1813010D01*
X-156760Y1812880D01*
X-155980Y1813010D01*
X-155210Y1813670D01*
X-154720Y1814450D01*
X-154620Y1815240D01*
X-154820Y1816160D01*
X-155500Y1816810D01*
X-156180Y1817080D01*
X-157050D01*
G01X-156180D02*
X-155590Y1817470D01*
X-155110Y1818130D01*
X-154910Y1818910D01*
X-155110Y1819700D01*
X-155590Y1820360D01*
X-156470Y1820750D01*
X-157350Y1820620D01*
X-158220Y1820090D01*
G01X-174920Y1838730D02*
Y1846600D01*
X-172970D01*
X-172200Y1846210D01*
X-171610Y1845680D01*
X-171130Y1844890D01*
X-170740Y1843980D01*
X-170640Y1842660D01*
X-170740Y1841350D01*
X-171130Y1840440D01*
X-171610Y1839650D01*
X-172200Y1839120D01*
X-172970Y1838730D01*
X-174920D01*
G01X-164910D02*
Y1846600D01*
X-166080Y1845030D01*
G01Y1838730D02*
X-163740D01*
G01X-157040D02*
Y1846600D01*
X-158210Y1845030D01*
G01Y1838730D02*
X-155870D01*
G01X-170920Y1875730D02*
Y1883600D01*
X-168970D01*
X-168200Y1883210D01*
X-167610Y1882680D01*
X-167130Y1881890D01*
X-166740Y1880980D01*
X-166640Y1879660D01*
X-166740Y1878350D01*
X-167130Y1877440D01*
X-167610Y1876650D01*
X-168200Y1876120D01*
X-168970Y1875730D01*
X-170920D01*
G01X-160910D02*
X-160230Y1875860D01*
X-159450Y1876250D01*
X-158960Y1876910D01*
X-158770Y1877830D01*
X-158960Y1878750D01*
X-159550Y1879530D01*
X-160420Y1879930D01*
X-161400D01*
X-161980Y1880190D01*
X-162470Y1880850D01*
X-162660Y1881760D01*
X-162370Y1882680D01*
X-161690Y1883340D01*
X-160910Y1883600D01*
X-160130Y1883340D01*
X-159450Y1882680D01*
X-159160Y1881760D01*
X-159350Y1880850D01*
X-159840Y1880190D01*
X-160420Y1879930D01*
X-161400D01*
X-162270Y1879530D01*
X-162860Y1878750D01*
X-163050Y1877830D01*
X-162860Y1876910D01*
X-162370Y1876250D01*
X-161590Y1875860D01*
X-160910Y1875730D01*
G01X-171220Y1927000D02*
Y1934870D01*
X-169270D01*
X-168500Y1934480D01*
X-167910Y1933950D01*
X-167430Y1933160D01*
X-167040Y1932250D01*
X-166940Y1930930D01*
X-167040Y1929620D01*
X-167430Y1928710D01*
X-167910Y1927920D01*
X-168500Y1927390D01*
X-169270Y1927000D01*
X-171220D01*
G01X-160040D02*
Y1934870D01*
X-163640Y1929230D01*
X-158780D01*
G01X-171040Y1901150D02*
Y1909020D01*
X-169090D01*
X-168320Y1908630D01*
X-167730Y1908100D01*
X-167250Y1907310D01*
X-166860Y1906400D01*
X-166760Y1905080D01*
X-166860Y1903770D01*
X-167250Y1902860D01*
X-167730Y1902070D01*
X-168320Y1901540D01*
X-169090Y1901150D01*
X-171040D01*
G01X-162880Y1904430D02*
X-162200Y1905350D01*
X-161610Y1905870D01*
X-160840Y1906130D01*
X-160150Y1905870D01*
X-159670Y1905350D01*
X-159280Y1904560D01*
X-159180Y1903640D01*
X-159280Y1902860D01*
X-159670Y1902070D01*
X-160250Y1901410D01*
X-160930Y1901150D01*
X-161710Y1901410D01*
X-162390Y1902200D01*
X-162780Y1903380D01*
X-162880Y1904690D01*
X-162680Y1906400D01*
X-162390Y1907310D01*
X-161910Y1908230D01*
X-161220Y1908890D01*
X-160540Y1909020D01*
X-159860Y1908760D01*
X-159380Y1908100D01*
G01X-171040Y1913150D02*
Y1921020D01*
X-169090D01*
X-168320Y1920630D01*
X-167730Y1920100D01*
X-167250Y1919310D01*
X-166860Y1918400D01*
X-166760Y1917080D01*
X-166860Y1915770D01*
X-167250Y1914860D01*
X-167730Y1914070D01*
X-168320Y1913540D01*
X-169090Y1913150D01*
X-171040D01*
G01X-163170Y1914330D02*
X-162590Y1913670D01*
X-161910Y1913280D01*
X-161030Y1913150D01*
X-160150Y1913410D01*
X-159470Y1913940D01*
X-158990Y1914860D01*
X-158890Y1915900D01*
X-159080Y1916950D01*
X-159570Y1917610D01*
X-160250Y1918130D01*
X-160930Y1918270D01*
X-161610Y1918130D01*
X-162490Y1917610D01*
X-162200Y1921020D01*
X-159570D01*
G01X-171040Y1889150D02*
Y1897020D01*
X-169090D01*
X-168320Y1896630D01*
X-167730Y1896100D01*
X-167250Y1895310D01*
X-166860Y1894400D01*
X-166760Y1893080D01*
X-166860Y1891770D01*
X-167250Y1890860D01*
X-167730Y1890070D01*
X-168320Y1889540D01*
X-169090Y1889150D01*
X-171040D01*
G01X-161220D02*
X-161030Y1890860D01*
X-160740Y1892300D01*
X-160350Y1893610D01*
X-159860Y1895050D01*
X-159080Y1897020D01*
X-162980D01*
G01X-171220Y1940000D02*
Y1947870D01*
X-169270D01*
X-168500Y1947480D01*
X-167910Y1946950D01*
X-167430Y1946160D01*
X-167040Y1945250D01*
X-166940Y1943930D01*
X-167040Y1942620D01*
X-167430Y1941710D01*
X-167910Y1940920D01*
X-168500Y1940390D01*
X-169270Y1940000D01*
X-171220D01*
G01X-163350Y1941570D02*
X-162770Y1940660D01*
X-161990Y1940130D01*
X-161110Y1940000D01*
X-160330Y1940130D01*
X-159560Y1940790D01*
X-159070Y1941570D01*
X-158970Y1942360D01*
X-159170Y1943280D01*
X-159850Y1943930D01*
X-160530Y1944200D01*
X-161400D01*
G01X-160530D02*
X-159940Y1944590D01*
X-159460Y1945250D01*
X-159260Y1946030D01*
X-159460Y1946820D01*
X-159940Y1947480D01*
X-160820Y1947870D01*
X-161700Y1947740D01*
X-162570Y1947210D01*
G01X-171220Y1952000D02*
Y1959870D01*
X-169270D01*
X-168500Y1959480D01*
X-167910Y1958950D01*
X-167430Y1958160D01*
X-167040Y1957250D01*
X-166940Y1955930D01*
X-167040Y1954620D01*
X-167430Y1953710D01*
X-167910Y1952920D01*
X-168500Y1952390D01*
X-169270Y1952000D01*
X-171220D01*
G01X-163060Y1958560D02*
X-162480Y1959350D01*
X-161790Y1959740D01*
X-161020Y1959870D01*
X-160040Y1959610D01*
X-159360Y1958950D01*
X-159170Y1958160D01*
X-159260Y1957380D01*
X-159650Y1956720D01*
X-161600Y1955410D01*
X-162480Y1954490D01*
X-163060Y1953180D01*
X-163250Y1952000D01*
X-159170D01*
G01X-171220Y1964000D02*
Y1971870D01*
X-169270D01*
X-168500Y1971480D01*
X-167910Y1970950D01*
X-167430Y1970160D01*
X-167040Y1969250D01*
X-166940Y1967930D01*
X-167040Y1966620D01*
X-167430Y1965710D01*
X-167910Y1964920D01*
X-168500Y1964390D01*
X-169270Y1964000D01*
X-171220D01*
G01X-161210D02*
Y1971870D01*
X-162380Y1970300D01*
G01Y1964000D02*
X-160040D01*
G01X-171220Y1977000D02*
Y1984870D01*
X-169270D01*
X-168500Y1984480D01*
X-167910Y1983950D01*
X-167430Y1983160D01*
X-167040Y1982250D01*
X-166940Y1980930D01*
X-167040Y1979620D01*
X-167430Y1978710D01*
X-167910Y1977920D01*
X-168500Y1977390D01*
X-169270Y1977000D01*
X-171220D01*
G01X-161210Y1984870D02*
X-161990Y1984610D01*
X-162570Y1983950D01*
X-162960Y1983160D01*
X-163250Y1982120D01*
X-163350Y1980930D01*
X-163250Y1979750D01*
X-162960Y1978710D01*
X-162570Y1977920D01*
X-161990Y1977260D01*
X-161210Y1977000D01*
X-160430Y1977260D01*
X-159850Y1977920D01*
X-159460Y1978710D01*
X-159170Y1979750D01*
X-159070Y1980930D01*
X-159170Y1982120D01*
X-159460Y1983160D01*
X-159850Y1983950D01*
X-160430Y1984610D01*
X-161210Y1984870D01*
G01X-89810Y19210D02*
X-90390Y19610D01*
X-91070Y19870D01*
X-91850D01*
X-92730Y19480D01*
X-93410Y18820D01*
X-93900Y18030D01*
X-94290Y16720D01*
X-94380Y15540D01*
X-94190Y14360D01*
X-93900Y13570D01*
X-93310Y12790D01*
X-92630Y12260D01*
X-91950Y12000D01*
X-91270D01*
X-90590Y12260D01*
X-90000Y12660D01*
X-89520Y13180D01*
G01X-86220D02*
X-85640Y12520D01*
X-84960Y12130D01*
X-84080Y12000D01*
X-83200Y12260D01*
X-82520Y12790D01*
X-82040Y13710D01*
X-81940Y14750D01*
X-82130Y15800D01*
X-82620Y16460D01*
X-83300Y16980D01*
X-83980Y17120D01*
X-84660Y16980D01*
X-85540Y16460D01*
X-85250Y19870D01*
X-82620D01*
G01X-101900Y120000D02*
Y127870D01*
X-99460D01*
X-98680Y127480D01*
X-98200Y126950D01*
X-98000Y125900D01*
X-98200Y124850D01*
X-98780Y124200D01*
X-99460Y123800D01*
X-101900D01*
G01X-99460D02*
X-98000Y120000D01*
G01X-93930Y123280D02*
X-93250Y124200D01*
X-92660Y124720D01*
X-91890Y124980D01*
X-91200Y124720D01*
X-90720Y124200D01*
X-90330Y123410D01*
X-90230Y122490D01*
X-90330Y121710D01*
X-90720Y120920D01*
X-91300Y120260D01*
X-91980Y120000D01*
X-92760Y120260D01*
X-93440Y121050D01*
X-93830Y122230D01*
X-93930Y123540D01*
X-93730Y125250D01*
X-93440Y126160D01*
X-92960Y127080D01*
X-92270Y127740D01*
X-91590Y127870D01*
X-90910Y127610D01*
X-90430Y126950D01*
G01X-99810Y197210D02*
X-100390Y197610D01*
X-101070Y197870D01*
X-101850D01*
X-102730Y197480D01*
X-103410Y196820D01*
X-103900Y196030D01*
X-104290Y194720D01*
X-104380Y193540D01*
X-104190Y192360D01*
X-103900Y191570D01*
X-103310Y190790D01*
X-102630Y190260D01*
X-101950Y190000D01*
X-101270D01*
X-100590Y190260D01*
X-100000Y190660D01*
X-99520Y191180D01*
G01X-92910Y190000D02*
Y197870D01*
X-96510Y192230D01*
X-91650D01*
G01X-97810Y233210D02*
X-98390Y233610D01*
X-99070Y233870D01*
X-99850D01*
X-100730Y233480D01*
X-101410Y232820D01*
X-101900Y232030D01*
X-102290Y230720D01*
X-102380Y229540D01*
X-102190Y228360D01*
X-101900Y227570D01*
X-101310Y226790D01*
X-100630Y226260D01*
X-99950Y226000D01*
X-99270D01*
X-98590Y226260D01*
X-98000Y226660D01*
X-97520Y227180D01*
G01X-92080Y226000D02*
Y233870D01*
X-93250Y232300D01*
G01Y226000D02*
X-90910D01*
G01X-123210Y350350D02*
X-119990D01*
Y346540D01*
X-120960Y345270D01*
X-122080Y344420D01*
X-123690Y344000D01*
X-125300Y344420D01*
X-126430Y345270D01*
X-127390Y346540D01*
X-128040Y348020D01*
X-128360Y349710D01*
Y351200D01*
X-128040Y352470D01*
X-127390Y353950D01*
X-126430Y355220D01*
X-125460Y356060D01*
X-124180Y356700D01*
X-123050D01*
X-121760Y356280D01*
X-120800Y355430D01*
G01X-114920Y344000D02*
Y356700D01*
X-107530Y344000D01*
Y356700D01*
G01X-101810Y344000D02*
Y356700D01*
X-98600D01*
X-97310Y356060D01*
X-96340Y355220D01*
X-95540Y353950D01*
X-94900Y352470D01*
X-94740Y350350D01*
X-94900Y348230D01*
X-95540Y346750D01*
X-96340Y345480D01*
X-97310Y344630D01*
X-98600Y344000D01*
X-101810D01*
G01X-89350D02*
X-85330Y356700D01*
X-81300Y344000D01*
G01X-82750Y348440D02*
X-87900D01*
G01X-89900Y314000D02*
Y321870D01*
X-87460D01*
X-86680Y321480D01*
X-86200Y320950D01*
X-86000Y319900D01*
X-86200Y318850D01*
X-86780Y318200D01*
X-87460Y317800D01*
X-89900D01*
G01X-87460D02*
X-86000Y314000D01*
G01X-78910D02*
Y321870D01*
X-82510Y316230D01*
X-77650D01*
G01X-119900Y314000D02*
Y321870D01*
X-117460D01*
X-116680Y321480D01*
X-116200Y320950D01*
X-116000Y319900D01*
X-116200Y318850D01*
X-116780Y318200D01*
X-117460Y317800D01*
X-119900D01*
G01X-117460D02*
X-116000Y314000D01*
G01X-112220Y315570D02*
X-111640Y314660D01*
X-110860Y314130D01*
X-109980Y314000D01*
X-109200Y314130D01*
X-108430Y314790D01*
X-107940Y315570D01*
X-107840Y316360D01*
X-108040Y317280D01*
X-108720Y317930D01*
X-109400Y318200D01*
X-110270D01*
G01X-109400D02*
X-108810Y318590D01*
X-108330Y319250D01*
X-108130Y320030D01*
X-108330Y320820D01*
X-108810Y321480D01*
X-109690Y321870D01*
X-110570Y321740D01*
X-111440Y321210D01*
G01X-127820Y594000D02*
Y601870D01*
X-125380D01*
X-124600Y601480D01*
X-124120Y600950D01*
X-123920Y599900D01*
X-124120Y598850D01*
X-124700Y598200D01*
X-125380Y597800D01*
X-127820D01*
G01X-125380D02*
X-123920Y594000D01*
G01X-118000D02*
Y601870D01*
X-119170Y600300D01*
G01Y594000D02*
X-116830D01*
G01X-110320D02*
X-110130Y595710D01*
X-109840Y597150D01*
X-109450Y598460D01*
X-108960Y599900D01*
X-108180Y601870D01*
X-112080D01*
G01X-127820Y618000D02*
Y625870D01*
X-125380D01*
X-124600Y625480D01*
X-124120Y624950D01*
X-123920Y623900D01*
X-124120Y622850D01*
X-124700Y622200D01*
X-125380Y621800D01*
X-127820D01*
G01X-125380D02*
X-123920Y618000D01*
G01X-118000D02*
Y625870D01*
X-119170Y624300D01*
G01Y618000D02*
X-116830D01*
G01X-111980Y621280D02*
X-111300Y622200D01*
X-110710Y622720D01*
X-109940Y622980D01*
X-109250Y622720D01*
X-108770Y622200D01*
X-108380Y621410D01*
X-108280Y620490D01*
X-108380Y619710D01*
X-108770Y618920D01*
X-109350Y618260D01*
X-110030Y618000D01*
X-110810Y618260D01*
X-111490Y619050D01*
X-111880Y620230D01*
X-111980Y621540D01*
X-111780Y623250D01*
X-111490Y624160D01*
X-111010Y625080D01*
X-110320Y625740D01*
X-109640Y625870D01*
X-108960Y625610D01*
X-108480Y624950D01*
G01X-127820Y644000D02*
Y651870D01*
X-125380D01*
X-124600Y651480D01*
X-124120Y650950D01*
X-123920Y649900D01*
X-124120Y648850D01*
X-124700Y648200D01*
X-125380Y647800D01*
X-127820D01*
G01X-125380D02*
X-123920Y644000D01*
G01X-118000D02*
Y651870D01*
X-119170Y650300D01*
G01Y644000D02*
X-116830D01*
G01X-112270Y645180D02*
X-111690Y644520D01*
X-111010Y644130D01*
X-110130Y644000D01*
X-109250Y644260D01*
X-108570Y644790D01*
X-108090Y645710D01*
X-107990Y646750D01*
X-108180Y647800D01*
X-108670Y648460D01*
X-109350Y648980D01*
X-110030Y649120D01*
X-110710Y648980D01*
X-111590Y648460D01*
X-111300Y651870D01*
X-108670D01*
G01X-127820Y670000D02*
Y677870D01*
X-125380D01*
X-124600Y677480D01*
X-124120Y676950D01*
X-123920Y675900D01*
X-124120Y674850D01*
X-124700Y674200D01*
X-125380Y673800D01*
X-127820D01*
G01X-125380D02*
X-123920Y670000D01*
G01X-118000D02*
Y677870D01*
X-119170Y676300D01*
G01Y670000D02*
X-116830D01*
G01X-108960D02*
Y677870D01*
X-112560Y672230D01*
X-107700D01*
G01X-120810Y874210D02*
X-121390Y874610D01*
X-122070Y874870D01*
X-122850D01*
X-123730Y874480D01*
X-124410Y873820D01*
X-124900Y873030D01*
X-125290Y871720D01*
X-125380Y870540D01*
X-125190Y869360D01*
X-124900Y868570D01*
X-124310Y867790D01*
X-123630Y867260D01*
X-122950Y867000D01*
X-122270D01*
X-121590Y867260D01*
X-121000Y867660D01*
X-120520Y868180D01*
G01X-115080Y867000D02*
X-114400Y867130D01*
X-113620Y867520D01*
X-113130Y868180D01*
X-112940Y869100D01*
X-113130Y870020D01*
X-113720Y870800D01*
X-114590Y871200D01*
X-115570D01*
X-116150Y871460D01*
X-116640Y872120D01*
X-116830Y873030D01*
X-116540Y873950D01*
X-115860Y874610D01*
X-115080Y874870D01*
X-114300Y874610D01*
X-113620Y873950D01*
X-113330Y873030D01*
X-113520Y872120D01*
X-114010Y871460D01*
X-114590Y871200D01*
X-115570D01*
X-116440Y870800D01*
X-117030Y870020D01*
X-117220Y869100D01*
X-117030Y868180D01*
X-116540Y867520D01*
X-115760Y867130D01*
X-115080Y867000D01*
G01X-118500Y853250D02*
Y861250D01*
G01X-110300Y1024500D02*
X-118300D01*
G01X-92900Y1044000D02*
Y1051870D01*
X-90460D01*
X-89680Y1051480D01*
X-89200Y1050950D01*
X-89000Y1049900D01*
X-89200Y1048850D01*
X-89780Y1048200D01*
X-90460Y1047800D01*
X-92900D01*
G01X-90460D02*
X-89000Y1044000D01*
G01X-84730Y1044920D02*
X-84050Y1044260D01*
X-83270Y1044000D01*
X-82500Y1044260D01*
X-81810Y1045050D01*
X-81330Y1046230D01*
X-81130Y1047410D01*
Y1048850D01*
X-81330Y1050030D01*
X-81810Y1051080D01*
X-82400Y1051610D01*
X-83080Y1051870D01*
X-83860Y1051610D01*
X-84440Y1051080D01*
X-84830Y1050300D01*
X-85030Y1049250D01*
X-84830Y1048330D01*
X-84350Y1047410D01*
X-83760Y1046890D01*
X-83080Y1046750D01*
X-82300Y1047020D01*
X-81720Y1047670D01*
X-81130Y1048850D01*
G01X-115810Y1048210D02*
X-116390Y1048610D01*
X-117070Y1048870D01*
X-117850D01*
X-118730Y1048480D01*
X-119410Y1047820D01*
X-119900Y1047030D01*
X-120290Y1045720D01*
X-120380Y1044540D01*
X-120190Y1043360D01*
X-119900Y1042570D01*
X-119310Y1041790D01*
X-118630Y1041260D01*
X-117950Y1041000D01*
X-117270D01*
X-116590Y1041260D01*
X-116000Y1041660D01*
X-115520Y1042180D01*
G01X-110270Y1041000D02*
X-110080Y1042710D01*
X-109790Y1044150D01*
X-109400Y1045460D01*
X-108910Y1046900D01*
X-108130Y1048870D01*
X-112030D01*
G01X-107810Y1235210D02*
X-108390Y1235610D01*
X-109070Y1235870D01*
X-109850D01*
X-110730Y1235480D01*
X-111410Y1234820D01*
X-111900Y1234030D01*
X-112290Y1232720D01*
X-112380Y1231540D01*
X-112190Y1230360D01*
X-111900Y1229570D01*
X-111310Y1228790D01*
X-110630Y1228260D01*
X-109950Y1228000D01*
X-109270D01*
X-108590Y1228260D01*
X-108000Y1228660D01*
X-107520Y1229180D01*
G01X-103930Y1234560D02*
X-103350Y1235350D01*
X-102660Y1235740D01*
X-101890Y1235870D01*
X-100910Y1235610D01*
X-100230Y1234950D01*
X-100040Y1234160D01*
X-100130Y1233380D01*
X-100520Y1232720D01*
X-102470Y1231410D01*
X-103350Y1230490D01*
X-103930Y1229180D01*
X-104120Y1228000D01*
X-100040D01*
G01X-82550Y1227900D02*
Y1235900D01*
G01X-75120Y1200000D02*
X-71040Y1207870D01*
G01X-75120D02*
X-71040Y1200000D01*
G01X-66860Y1200920D02*
X-66180Y1200260D01*
X-65400Y1200000D01*
X-64630Y1200260D01*
X-63940Y1201050D01*
X-63460Y1202230D01*
X-63260Y1203410D01*
Y1204850D01*
X-63460Y1206030D01*
X-63940Y1207080D01*
X-64530Y1207610D01*
X-65210Y1207870D01*
X-65990Y1207610D01*
X-66570Y1207080D01*
X-66960Y1206300D01*
X-67160Y1205250D01*
X-66960Y1204330D01*
X-66480Y1203410D01*
X-65890Y1202890D01*
X-65210Y1202750D01*
X-64430Y1203020D01*
X-63850Y1203670D01*
X-63260Y1204850D01*
G01X-119720Y1289000D02*
Y1296870D01*
X-116020D01*
G01X-117380Y1293070D02*
X-119720D01*
G01X-112140Y1296870D02*
Y1291230D01*
X-111750Y1290050D01*
X-110970Y1289260D01*
X-110000Y1289000D01*
X-109030Y1289260D01*
X-108250Y1290050D01*
X-107860Y1291230D01*
Y1296870D01*
G01X-102130Y1289000D02*
Y1296870D01*
X-103300Y1295300D01*
G01Y1289000D02*
X-100960D01*
G01X-87900Y1318000D02*
Y1325870D01*
X-85460D01*
X-84680Y1325480D01*
X-84200Y1324950D01*
X-84000Y1323900D01*
X-84200Y1322850D01*
X-84780Y1322200D01*
X-85460Y1321800D01*
X-87900D01*
G01X-85460D02*
X-84000Y1318000D01*
G01X-78080D02*
Y1325870D01*
X-79250Y1324300D01*
G01Y1318000D02*
X-76910D01*
G01X-126940Y1365230D02*
X-123080D01*
G01X-125180Y1367990D02*
Y1362480D01*
G01X-115760Y1362900D02*
X-114800Y1361850D01*
X-113670Y1361210D01*
X-112230Y1361000D01*
X-110780Y1361420D01*
X-109650Y1362270D01*
X-108850Y1363750D01*
X-108690Y1365440D01*
X-109010Y1367140D01*
X-109810Y1368200D01*
X-110940Y1369040D01*
X-112060Y1369250D01*
X-113190Y1369040D01*
X-114640Y1368200D01*
X-114160Y1373700D01*
X-109810D01*
G01X-97990Y1367770D02*
X-97340Y1368410D01*
X-96860Y1369470D01*
X-96540Y1370950D01*
X-96860Y1372220D01*
X-97510Y1373060D01*
X-98630Y1373700D01*
X-102970D01*
Y1361000D01*
X-97670D01*
X-96540Y1361850D01*
X-95900Y1363120D01*
X-95580Y1364600D01*
X-95900Y1366080D01*
X-96860Y1367350D01*
X-97990Y1367770D01*
X-102970D01*
G01X-75830Y1384190D02*
X-67830D01*
G01X-71830Y1388190D02*
Y1380190D01*
G01X-123820Y1406000D02*
Y1413870D01*
X-121380D01*
X-120600Y1413480D01*
X-120120Y1412950D01*
X-119920Y1411900D01*
X-120120Y1410850D01*
X-120700Y1410200D01*
X-121380Y1409800D01*
X-123820D01*
G01X-121380D02*
X-119920Y1406000D01*
G01X-114000D02*
Y1413870D01*
X-115170Y1412300D01*
G01Y1406000D02*
X-112830D01*
G01X-108270Y1407570D02*
X-107690Y1406660D01*
X-106910Y1406130D01*
X-106030Y1406000D01*
X-105250Y1406130D01*
X-104480Y1406790D01*
X-103990Y1407570D01*
X-103890Y1408360D01*
X-104090Y1409280D01*
X-104770Y1409930D01*
X-105450Y1410200D01*
X-106320D01*
G01X-105450D02*
X-104860Y1410590D01*
X-104380Y1411250D01*
X-104180Y1412030D01*
X-104380Y1412820D01*
X-104860Y1413480D01*
X-105740Y1413870D01*
X-106620Y1413740D01*
X-107490Y1413210D01*
G01X-125300Y1388870D02*
X-122870Y1381000D01*
X-120440Y1388870D01*
G01X-117140Y1381000D02*
Y1388870D01*
X-115190D01*
X-114420Y1388480D01*
X-113830Y1387950D01*
X-113350Y1387160D01*
X-112960Y1386250D01*
X-112860Y1384930D01*
X-112960Y1383620D01*
X-113350Y1382710D01*
X-113830Y1381920D01*
X-114420Y1381390D01*
X-115190Y1381000D01*
X-117140D01*
G01X-107130D02*
Y1388870D01*
X-108300Y1387300D01*
G01Y1381000D02*
X-105960D01*
G01X-122820Y1482000D02*
Y1489870D01*
X-120380D01*
X-119600Y1489480D01*
X-119120Y1488950D01*
X-118920Y1487900D01*
X-119120Y1486850D01*
X-119700Y1486200D01*
X-120380Y1485800D01*
X-122820D01*
G01X-120380D02*
X-118920Y1482000D01*
G01X-113000D02*
Y1489870D01*
X-114170Y1488300D01*
G01Y1482000D02*
X-111830D01*
G01X-105130Y1489870D02*
X-105910Y1489610D01*
X-106490Y1488950D01*
X-106880Y1488160D01*
X-107170Y1487120D01*
X-107270Y1485930D01*
X-107170Y1484750D01*
X-106880Y1483710D01*
X-106490Y1482920D01*
X-105910Y1482260D01*
X-105130Y1482000D01*
X-104350Y1482260D01*
X-103770Y1482920D01*
X-103380Y1483710D01*
X-103090Y1484750D01*
X-102990Y1485930D01*
X-103090Y1487120D01*
X-103380Y1488160D01*
X-103770Y1488950D01*
X-104350Y1489610D01*
X-105130Y1489870D01*
G01X-122820Y1457000D02*
Y1464870D01*
X-120380D01*
X-119600Y1464480D01*
X-119120Y1463950D01*
X-118920Y1462900D01*
X-119120Y1461850D01*
X-119700Y1461200D01*
X-120380Y1460800D01*
X-122820D01*
G01X-120380D02*
X-118920Y1457000D01*
G01X-113000D02*
Y1464870D01*
X-114170Y1463300D01*
G01Y1457000D02*
X-111830D01*
G01X-105130D02*
Y1464870D01*
X-106300Y1463300D01*
G01Y1457000D02*
X-103960D01*
G01X-123820Y1431000D02*
Y1438870D01*
X-121380D01*
X-120600Y1438480D01*
X-120120Y1437950D01*
X-119920Y1436900D01*
X-120120Y1435850D01*
X-120700Y1435200D01*
X-121380Y1434800D01*
X-123820D01*
G01X-121380D02*
X-119920Y1431000D01*
G01X-114000D02*
Y1438870D01*
X-115170Y1437300D01*
G01Y1431000D02*
X-112830D01*
G01X-107980Y1437560D02*
X-107400Y1438350D01*
X-106710Y1438740D01*
X-105940Y1438870D01*
X-104960Y1438610D01*
X-104280Y1437950D01*
X-104090Y1437160D01*
X-104180Y1436380D01*
X-104570Y1435720D01*
X-106520Y1434410D01*
X-107400Y1433490D01*
X-107980Y1432180D01*
X-108170Y1431000D01*
X-104090D01*
G01X-69920Y1617060D02*
Y1609060D01*
G01X-73920Y1613060D02*
X-65920D01*
G01X-69920Y1642060D02*
Y1634060D01*
G01X-73920Y1638060D02*
X-65920D01*
G01X-69920Y1668060D02*
Y1660060D01*
G01X-73920Y1664060D02*
X-65920D01*
G01X-69920Y1680060D02*
Y1672060D01*
G01X-73920Y1676060D02*
X-65920D01*
G01X-69920Y1693060D02*
Y1685060D01*
G01X-73920Y1689060D02*
X-65920D01*
G01X-69920Y1705060D02*
Y1697060D01*
G01X-73920Y1701060D02*
X-65920D01*
G01X-69920Y1718060D02*
Y1710060D01*
G01X-73920Y1714060D02*
X-65920D01*
G01X-69920Y1731060D02*
Y1723060D01*
G01X-73920Y1727060D02*
X-65920D01*
G01X-69920Y1744060D02*
Y1736060D01*
G01X-73920Y1740060D02*
X-65920D01*
G01X-69920Y1757060D02*
Y1749060D01*
G01X-73920Y1753060D02*
X-65920D01*
G01X-69920Y1769060D02*
Y1761060D01*
G01X-73920Y1765060D02*
X-65920D01*
G01X-69920Y1782060D02*
Y1774060D01*
G01X-73920Y1778060D02*
X-65920D01*
G01X-69920Y1795060D02*
Y1787060D01*
G01X-73920Y1791060D02*
X-65920D01*
G01X-69920Y1807060D02*
Y1799060D01*
G01X-73920Y1803060D02*
X-65920D01*
G01X-69920Y1820060D02*
Y1812060D01*
G01X-73920Y1816060D02*
X-65920D01*
G01X-69920Y1833060D02*
Y1825060D01*
G01X-73920Y1829060D02*
X-65920D01*
G01X-69920Y1845060D02*
Y1837060D01*
G01X-73920Y1841060D02*
X-65920D01*
G01X-69920Y1858060D02*
Y1850060D01*
G01X-73920Y1854060D02*
X-65920D01*
G01X-69920Y1871060D02*
Y1863060D01*
G01X-73920Y1867060D02*
X-65920D01*
G01X-69920Y1884060D02*
Y1876060D01*
G01X-73920Y1880060D02*
X-65920D01*
G01X-69920Y1896060D02*
Y1888060D01*
G01X-73920Y1892060D02*
X-65920D01*
G01X-69920Y1909060D02*
Y1901060D01*
G01X-73920Y1905060D02*
X-65920D01*
G01X-69920Y1922060D02*
Y1914060D01*
G01X-73920Y1918060D02*
X-65920D01*
G01X-69920Y1934060D02*
Y1926060D01*
G01X-73920Y1930060D02*
X-65920D01*
G01X-69920Y1948060D02*
Y1940060D01*
G01X-73920Y1944060D02*
X-65920D01*
G01X-69920Y1960060D02*
Y1952060D01*
G01X-73920Y1956060D02*
X-65920D01*
G01X-69920Y1973060D02*
Y1965060D01*
G01X-73920Y1969060D02*
X-65920D01*
G01X-69920Y1985060D02*
Y1977060D01*
G01X-73920Y1981060D02*
X-65920D01*
G01X-100210Y2130350D02*
X-96990D01*
Y2126540D01*
X-97960Y2125270D01*
X-99080Y2124420D01*
X-100690Y2124000D01*
X-102300Y2124420D01*
X-103430Y2125270D01*
X-104390Y2126540D01*
X-105040Y2128020D01*
X-105360Y2129710D01*
Y2131200D01*
X-105040Y2132470D01*
X-104390Y2133950D01*
X-103430Y2135220D01*
X-102460Y2136060D01*
X-101180Y2136700D01*
X-100050D01*
X-98760Y2136280D01*
X-97800Y2135430D01*
G01X-91920Y2124000D02*
Y2136700D01*
X-84530Y2124000D01*
Y2136700D01*
G01X-78810Y2124000D02*
Y2136700D01*
X-75600D01*
X-74310Y2136060D01*
X-73340Y2135220D01*
X-72540Y2133950D01*
X-71900Y2132470D01*
X-71740Y2130350D01*
X-71900Y2128230D01*
X-72540Y2126750D01*
X-73340Y2125480D01*
X-74310Y2124630D01*
X-75600Y2124000D01*
X-78810D01*
G01X-98120Y2206000D02*
X-94040Y2213870D01*
G01X-98120D02*
X-94040Y2206000D01*
G01X-88210D02*
Y2213870D01*
X-89380Y2212300D01*
G01Y2206000D02*
X-87040D01*
G01X-79170D02*
Y2213870D01*
X-82770Y2208230D01*
X-77910D01*
G01X-39300Y704870D02*
X-36870Y697000D01*
X-34440Y704870D01*
G01X-31140Y697000D02*
Y704870D01*
X-29190D01*
X-28420Y704480D01*
X-27830Y703950D01*
X-27350Y703160D01*
X-26960Y702250D01*
X-26860Y700930D01*
X-26960Y699620D01*
X-27350Y698710D01*
X-27830Y697920D01*
X-28420Y697390D01*
X-29190Y697000D01*
X-31140D01*
G01X-22980Y700280D02*
X-22300Y701200D01*
X-21710Y701720D01*
X-20940Y701980D01*
X-20250Y701720D01*
X-19770Y701200D01*
X-19380Y700410D01*
X-19280Y699490D01*
X-19380Y698710D01*
X-19770Y697920D01*
X-20350Y697260D01*
X-21030Y697000D01*
X-21810Y697260D01*
X-22490Y698050D01*
X-22880Y699230D01*
X-22980Y700540D01*
X-22780Y702250D01*
X-22490Y703160D01*
X-22010Y704080D01*
X-21320Y704740D01*
X-20640Y704870D01*
X-19960Y704610D01*
X-19480Y703950D01*
G01X-39300Y716870D02*
X-36870Y709000D01*
X-34440Y716870D01*
G01X-31140Y709000D02*
Y716870D01*
X-29190D01*
X-28420Y716480D01*
X-27830Y715950D01*
X-27350Y715160D01*
X-26960Y714250D01*
X-26860Y712930D01*
X-26960Y711620D01*
X-27350Y710710D01*
X-27830Y709920D01*
X-28420Y709390D01*
X-29190Y709000D01*
X-31140D01*
G01X-21320D02*
X-21130Y710710D01*
X-20840Y712150D01*
X-20450Y713460D01*
X-19960Y714900D01*
X-19180Y716870D01*
X-23080D01*
G01X-39300Y728870D02*
X-36870Y721000D01*
X-34440Y728870D01*
G01X-31140Y721000D02*
Y728870D01*
X-29190D01*
X-28420Y728480D01*
X-27830Y727950D01*
X-27350Y727160D01*
X-26960Y726250D01*
X-26860Y724930D01*
X-26960Y723620D01*
X-27350Y722710D01*
X-27830Y721920D01*
X-28420Y721390D01*
X-29190Y721000D01*
X-31140D01*
G01X-21130D02*
X-20450Y721130D01*
X-19670Y721520D01*
X-19180Y722180D01*
X-18990Y723100D01*
X-19180Y724020D01*
X-19770Y724800D01*
X-20640Y725200D01*
X-21620D01*
X-22200Y725460D01*
X-22690Y726120D01*
X-22880Y727030D01*
X-22590Y727950D01*
X-21910Y728610D01*
X-21130Y728870D01*
X-20350Y728610D01*
X-19670Y727950D01*
X-19380Y727030D01*
X-19570Y726120D01*
X-20060Y725460D01*
X-20640Y725200D01*
X-21620D01*
X-22490Y724800D01*
X-23080Y724020D01*
X-23270Y723100D01*
X-23080Y722180D01*
X-22590Y721520D01*
X-21810Y721130D01*
X-21130Y721000D01*
G01X-4570Y811570D02*
X3300Y809140D01*
X-4570Y806710D01*
G01X-1820Y807580D02*
Y810700D01*
G01X-4570Y801270D02*
X3300D01*
X1730Y802440D01*
G01X-4570D02*
Y800100D01*
G01X-48360Y807000D02*
X-47960Y807580D01*
X-47700Y808260D01*
Y809040D01*
X-48090Y809920D01*
X-48750Y810600D01*
X-49540Y811090D01*
X-50850Y811480D01*
X-52030Y811570D01*
X-53210Y811380D01*
X-54000Y811090D01*
X-54780Y810500D01*
X-55310Y809820D01*
X-55570Y809140D01*
Y808460D01*
X-55310Y807780D01*
X-54910Y807190D01*
X-54390Y806710D01*
G01X-55570Y801270D02*
X-47700D01*
X-49270Y802440D01*
G01X-55570D02*
Y800100D01*
G01X-39300Y742870D02*
X-36870Y735000D01*
X-34440Y742870D01*
G01X-31140Y735000D02*
Y742870D01*
X-29190D01*
X-28420Y742480D01*
X-27830Y741950D01*
X-27350Y741160D01*
X-26960Y740250D01*
X-26860Y738930D01*
X-26960Y737620D01*
X-27350Y736710D01*
X-27830Y735920D01*
X-28420Y735390D01*
X-29190Y735000D01*
X-31140D01*
G01X-22780Y735920D02*
X-22100Y735260D01*
X-21320Y735000D01*
X-20550Y735260D01*
X-19860Y736050D01*
X-19380Y737230D01*
X-19180Y738410D01*
Y739850D01*
X-19380Y741030D01*
X-19860Y742080D01*
X-20450Y742610D01*
X-21130Y742870D01*
X-21910Y742610D01*
X-22490Y742080D01*
X-22880Y741300D01*
X-23080Y740250D01*
X-22880Y739330D01*
X-22400Y738410D01*
X-21810Y737890D01*
X-21130Y737750D01*
X-20350Y738020D01*
X-19770Y738670D01*
X-19180Y739850D01*
G01X-39250Y754870D02*
X-36820Y747000D01*
X-34390Y754870D01*
G01X-31090Y747000D02*
Y754870D01*
X-29140D01*
X-28370Y754480D01*
X-27780Y753950D01*
X-27300Y753160D01*
X-26910Y752250D01*
X-26810Y750930D01*
X-26910Y749620D01*
X-27300Y748710D01*
X-27780Y747920D01*
X-28370Y747390D01*
X-29140Y747000D01*
X-31090D01*
G01X-21080D02*
Y754870D01*
X-22250Y753300D01*
G01Y747000D02*
X-19910D01*
G01X-13210Y754870D02*
X-13990Y754610D01*
X-14570Y753950D01*
X-14960Y753160D01*
X-15250Y752120D01*
X-15350Y750930D01*
X-15250Y749750D01*
X-14960Y748710D01*
X-14570Y747920D01*
X-13990Y747260D01*
X-13210Y747000D01*
X-12430Y747260D01*
X-11850Y747920D01*
X-11460Y748710D01*
X-11170Y749750D01*
X-11070Y750930D01*
X-11170Y752120D01*
X-11460Y753160D01*
X-11850Y753950D01*
X-12430Y754610D01*
X-13210Y754870D01*
G01X-39250Y766870D02*
X-36820Y759000D01*
X-34390Y766870D01*
G01X-31090Y759000D02*
Y766870D01*
X-29140D01*
X-28370Y766480D01*
X-27780Y765950D01*
X-27300Y765160D01*
X-26910Y764250D01*
X-26810Y762930D01*
X-26910Y761620D01*
X-27300Y760710D01*
X-27780Y759920D01*
X-28370Y759390D01*
X-29140Y759000D01*
X-31090D01*
G01X-21080D02*
Y766870D01*
X-22250Y765300D01*
G01Y759000D02*
X-19910D01*
G01X-13210D02*
Y766870D01*
X-14380Y765300D01*
G01Y759000D02*
X-12040D01*
G01X-39250Y780870D02*
X-36820Y773000D01*
X-34390Y780870D01*
G01X-31090Y773000D02*
Y780870D01*
X-29140D01*
X-28370Y780480D01*
X-27780Y779950D01*
X-27300Y779160D01*
X-26910Y778250D01*
X-26810Y776930D01*
X-26910Y775620D01*
X-27300Y774710D01*
X-27780Y773920D01*
X-28370Y773390D01*
X-29140Y773000D01*
X-31090D01*
G01X-21080D02*
Y780870D01*
X-22250Y779300D01*
G01Y773000D02*
X-19910D01*
G01X-15060Y779560D02*
X-14480Y780350D01*
X-13790Y780740D01*
X-13020Y780870D01*
X-12040Y780610D01*
X-11360Y779950D01*
X-11170Y779160D01*
X-11260Y778380D01*
X-11650Y777720D01*
X-13600Y776410D01*
X-14480Y775490D01*
X-15060Y774180D01*
X-15250Y773000D01*
X-11170D01*
G01X-39250Y792870D02*
X-36820Y785000D01*
X-34390Y792870D01*
G01X-31090Y785000D02*
Y792870D01*
X-29140D01*
X-28370Y792480D01*
X-27780Y791950D01*
X-27300Y791160D01*
X-26910Y790250D01*
X-26810Y788930D01*
X-26910Y787620D01*
X-27300Y786710D01*
X-27780Y785920D01*
X-28370Y785390D01*
X-29140Y785000D01*
X-31090D01*
G01X-21080D02*
Y792870D01*
X-22250Y791300D01*
G01Y785000D02*
X-19910D01*
G01X-15350Y786570D02*
X-14770Y785660D01*
X-13990Y785130D01*
X-13110Y785000D01*
X-12330Y785130D01*
X-11560Y785790D01*
X-11070Y786570D01*
X-10970Y787360D01*
X-11170Y788280D01*
X-11850Y788930D01*
X-12530Y789200D01*
X-13400D01*
G01X-12530D02*
X-11940Y789590D01*
X-11460Y790250D01*
X-11260Y791030D01*
X-11460Y791820D01*
X-11940Y792480D01*
X-12820Y792870D01*
X-13700Y792740D01*
X-14570Y792210D01*
G01X-1210Y954350D02*
X2010D01*
Y950540D01*
X1040Y949270D01*
X-80Y948420D01*
X-1690Y948000D01*
X-3300Y948420D01*
X-4430Y949270D01*
X-5390Y950540D01*
X-6040Y952020D01*
X-6360Y953710D01*
Y955200D01*
X-6040Y956470D01*
X-5390Y957950D01*
X-4430Y959220D01*
X-3460Y960060D01*
X-2180Y960700D01*
X-1050D01*
X240Y960280D01*
X1200Y959430D01*
G01X7080Y948000D02*
Y960700D01*
X14470Y948000D01*
Y960700D01*
G01X20190Y948000D02*
Y960700D01*
X23400D01*
X24690Y960060D01*
X25660Y959220D01*
X26460Y957950D01*
X27100Y956470D01*
X27260Y954350D01*
X27100Y952230D01*
X26460Y950750D01*
X25660Y949480D01*
X24690Y948630D01*
X23400Y948000D01*
X20190D01*
G01X39890D02*
X33460D01*
Y960700D01*
X39890D01*
G01X37320Y954560D02*
X33460D01*
G01X1880Y1031000D02*
X5960Y1038870D01*
G01X1880D02*
X5960Y1031000D01*
G01X11790D02*
Y1038870D01*
X10620Y1037300D01*
G01Y1031000D02*
X12960D01*
G01X17520Y1032180D02*
X18100Y1031520D01*
X18780Y1031130D01*
X19660Y1031000D01*
X20540Y1031260D01*
X21220Y1031790D01*
X21700Y1032710D01*
X21800Y1033750D01*
X21610Y1034800D01*
X21120Y1035460D01*
X20440Y1035980D01*
X19760Y1036120D01*
X19080Y1035980D01*
X18200Y1035460D01*
X18490Y1038870D01*
X21120D01*
G01X-54800Y1024500D02*
X-46800D01*
G01X-29400D02*
X-21400D01*
G01X-45900Y1091000D02*
Y1098870D01*
X-43460D01*
X-42680Y1098480D01*
X-42200Y1097950D01*
X-42000Y1096900D01*
X-42200Y1095850D01*
X-42780Y1095200D01*
X-43460Y1094800D01*
X-45900D01*
G01X-43460D02*
X-42000Y1091000D01*
G01X-36080D02*
X-35400Y1091130D01*
X-34620Y1091520D01*
X-34130Y1092180D01*
X-33940Y1093100D01*
X-34130Y1094020D01*
X-34720Y1094800D01*
X-35590Y1095200D01*
X-36570D01*
X-37150Y1095460D01*
X-37640Y1096120D01*
X-37830Y1097030D01*
X-37540Y1097950D01*
X-36860Y1098610D01*
X-36080Y1098870D01*
X-35300Y1098610D01*
X-34620Y1097950D01*
X-34330Y1097030D01*
X-34520Y1096120D01*
X-35010Y1095460D01*
X-35590Y1095200D01*
X-36570D01*
X-37440Y1094800D01*
X-38030Y1094020D01*
X-38220Y1093100D01*
X-38030Y1092180D01*
X-37540Y1091520D01*
X-36760Y1091130D01*
X-36080Y1091000D01*
G01X-52810Y1048210D02*
X-53390Y1048610D01*
X-54070Y1048870D01*
X-54850D01*
X-55730Y1048480D01*
X-56410Y1047820D01*
X-56900Y1047030D01*
X-57290Y1045720D01*
X-57380Y1044540D01*
X-57190Y1043360D01*
X-56900Y1042570D01*
X-56310Y1041790D01*
X-55630Y1041260D01*
X-54950Y1041000D01*
X-54270D01*
X-53590Y1041260D01*
X-53000Y1041660D01*
X-52520Y1042180D01*
G01X-48930Y1044280D02*
X-48250Y1045200D01*
X-47660Y1045720D01*
X-46890Y1045980D01*
X-46200Y1045720D01*
X-45720Y1045200D01*
X-45330Y1044410D01*
X-45230Y1043490D01*
X-45330Y1042710D01*
X-45720Y1041920D01*
X-46300Y1041260D01*
X-46980Y1041000D01*
X-47760Y1041260D01*
X-48440Y1042050D01*
X-48830Y1043230D01*
X-48930Y1044540D01*
X-48730Y1046250D01*
X-48440Y1047160D01*
X-47960Y1048080D01*
X-47270Y1048740D01*
X-46590Y1048870D01*
X-45910Y1048610D01*
X-45430Y1047950D01*
G01X-27810Y1048210D02*
X-28390Y1048610D01*
X-29070Y1048870D01*
X-29850D01*
X-30730Y1048480D01*
X-31410Y1047820D01*
X-31900Y1047030D01*
X-32290Y1045720D01*
X-32380Y1044540D01*
X-32190Y1043360D01*
X-31900Y1042570D01*
X-31310Y1041790D01*
X-30630Y1041260D01*
X-29950Y1041000D01*
X-29270D01*
X-28590Y1041260D01*
X-28000Y1041660D01*
X-27520Y1042180D01*
G01X-23730Y1041920D02*
X-23050Y1041260D01*
X-22270Y1041000D01*
X-21500Y1041260D01*
X-20810Y1042050D01*
X-20330Y1043230D01*
X-20130Y1044410D01*
Y1045850D01*
X-20330Y1047030D01*
X-20810Y1048080D01*
X-21400Y1048610D01*
X-22080Y1048870D01*
X-22860Y1048610D01*
X-23440Y1048080D01*
X-23830Y1047300D01*
X-24030Y1046250D01*
X-23830Y1045330D01*
X-23350Y1044410D01*
X-22760Y1043890D01*
X-22080Y1043750D01*
X-21300Y1044020D01*
X-20720Y1044670D01*
X-20130Y1045850D01*
G01X-12300Y1099870D02*
X-9870Y1092000D01*
X-7440Y1099870D01*
G01X-4140Y1092000D02*
Y1099870D01*
X-2190D01*
X-1420Y1099480D01*
X-830Y1098950D01*
X-350Y1098160D01*
X40Y1097250D01*
X140Y1095930D01*
X40Y1094620D01*
X-350Y1093710D01*
X-830Y1092920D01*
X-1420Y1092390D01*
X-2190Y1092000D01*
X-4140D01*
G01X7040D02*
Y1099870D01*
X3440Y1094230D01*
X8300D01*
G01X-47300Y1300870D02*
X-44870Y1293000D01*
X-42440Y1300870D01*
G01X-39140Y1293000D02*
Y1300870D01*
X-37190D01*
X-36420Y1300480D01*
X-35830Y1299950D01*
X-35350Y1299160D01*
X-34960Y1298250D01*
X-34860Y1296930D01*
X-34960Y1295620D01*
X-35350Y1294710D01*
X-35830Y1293920D01*
X-36420Y1293390D01*
X-37190Y1293000D01*
X-39140D01*
G01X-30980Y1299560D02*
X-30400Y1300350D01*
X-29710Y1300740D01*
X-28940Y1300870D01*
X-27960Y1300610D01*
X-27280Y1299950D01*
X-27090Y1299160D01*
X-27180Y1298380D01*
X-27570Y1297720D01*
X-29520Y1296410D01*
X-30400Y1295490D01*
X-30980Y1294180D01*
X-31170Y1293000D01*
X-27090D01*
G01X-39250Y1642870D02*
X-36820Y1635000D01*
X-34390Y1642870D01*
G01X-31090Y1635000D02*
Y1642870D01*
X-29140D01*
X-28370Y1642480D01*
X-27780Y1641950D01*
X-27300Y1641160D01*
X-26910Y1640250D01*
X-26810Y1638930D01*
X-26910Y1637620D01*
X-27300Y1636710D01*
X-27780Y1635920D01*
X-28370Y1635390D01*
X-29140Y1635000D01*
X-31090D01*
G01X-23220Y1636570D02*
X-22640Y1635660D01*
X-21860Y1635130D01*
X-20980Y1635000D01*
X-20200Y1635130D01*
X-19430Y1635790D01*
X-18940Y1636570D01*
X-18840Y1637360D01*
X-19040Y1638280D01*
X-19720Y1638930D01*
X-20400Y1639200D01*
X-21270D01*
G01X-20400D02*
X-19810Y1639590D01*
X-19330Y1640250D01*
X-19130Y1641030D01*
X-19330Y1641820D01*
X-19810Y1642480D01*
X-20690Y1642870D01*
X-21570Y1642740D01*
X-22440Y1642210D01*
G01X-13400Y1635000D02*
X-13210Y1636710D01*
X-12920Y1638150D01*
X-12530Y1639460D01*
X-12040Y1640900D01*
X-11260Y1642870D01*
X-15160D01*
G01X-40250Y1617870D02*
X-37820Y1610000D01*
X-35390Y1617870D01*
G01X-32090Y1610000D02*
Y1617870D01*
X-30140D01*
X-29370Y1617480D01*
X-28780Y1616950D01*
X-28300Y1616160D01*
X-27910Y1615250D01*
X-27810Y1613930D01*
X-27910Y1612620D01*
X-28300Y1611710D01*
X-28780Y1610920D01*
X-29370Y1610390D01*
X-30140Y1610000D01*
X-32090D01*
G01X-24220Y1611570D02*
X-23640Y1610660D01*
X-22860Y1610130D01*
X-21980Y1610000D01*
X-21200Y1610130D01*
X-20430Y1610790D01*
X-19940Y1611570D01*
X-19840Y1612360D01*
X-20040Y1613280D01*
X-20720Y1613930D01*
X-21400Y1614200D01*
X-22270D01*
G01X-21400D02*
X-20810Y1614590D01*
X-20330Y1615250D01*
X-20130Y1616030D01*
X-20330Y1616820D01*
X-20810Y1617480D01*
X-21690Y1617870D01*
X-22570Y1617740D01*
X-23440Y1617210D01*
G01X-15860Y1610920D02*
X-15180Y1610260D01*
X-14400Y1610000D01*
X-13630Y1610260D01*
X-12940Y1611050D01*
X-12460Y1612230D01*
X-12260Y1613410D01*
Y1614850D01*
X-12460Y1616030D01*
X-12940Y1617080D01*
X-13530Y1617610D01*
X-14210Y1617870D01*
X-14990Y1617610D01*
X-15570Y1617080D01*
X-15960Y1616300D01*
X-16160Y1615250D01*
X-15960Y1614330D01*
X-15480Y1613410D01*
X-14890Y1612890D01*
X-14210Y1612750D01*
X-13430Y1613020D01*
X-12850Y1613670D01*
X-12260Y1614850D01*
G01X-39150Y1717870D02*
X-36720Y1710000D01*
X-34290Y1717870D01*
G01X-30990Y1710000D02*
Y1717870D01*
X-29040D01*
X-28270Y1717480D01*
X-27680Y1716950D01*
X-27200Y1716160D01*
X-26810Y1715250D01*
X-26710Y1713930D01*
X-26810Y1712620D01*
X-27200Y1711710D01*
X-27680Y1710920D01*
X-28270Y1710390D01*
X-29040Y1710000D01*
X-30990D01*
G01X-22830Y1716560D02*
X-22250Y1717350D01*
X-21560Y1717740D01*
X-20790Y1717870D01*
X-19810Y1717610D01*
X-19130Y1716950D01*
X-18940Y1716160D01*
X-19030Y1715380D01*
X-19420Y1714720D01*
X-21370Y1713410D01*
X-22250Y1712490D01*
X-22830Y1711180D01*
X-23020Y1710000D01*
X-18940D01*
G01X-14960Y1713280D02*
X-14280Y1714200D01*
X-13690Y1714720D01*
X-12920Y1714980D01*
X-12230Y1714720D01*
X-11750Y1714200D01*
X-11360Y1713410D01*
X-11260Y1712490D01*
X-11360Y1711710D01*
X-11750Y1710920D01*
X-12330Y1710260D01*
X-13010Y1710000D01*
X-13790Y1710260D01*
X-14470Y1711050D01*
X-14860Y1712230D01*
X-14960Y1713540D01*
X-14760Y1715250D01*
X-14470Y1716160D01*
X-13990Y1717080D01*
X-13300Y1717740D01*
X-12620Y1717870D01*
X-11940Y1717610D01*
X-11460Y1716950D01*
G01X-39150Y1705170D02*
X-36720Y1697300D01*
X-34290Y1705170D01*
G01X-30990Y1697300D02*
Y1705170D01*
X-29040D01*
X-28270Y1704780D01*
X-27680Y1704250D01*
X-27200Y1703460D01*
X-26810Y1702550D01*
X-26710Y1701230D01*
X-26810Y1699920D01*
X-27200Y1699010D01*
X-27680Y1698220D01*
X-28270Y1697690D01*
X-29040Y1697300D01*
X-30990D01*
G01X-22830Y1703860D02*
X-22250Y1704650D01*
X-21560Y1705040D01*
X-20790Y1705170D01*
X-19810Y1704910D01*
X-19130Y1704250D01*
X-18940Y1703460D01*
X-19030Y1702680D01*
X-19420Y1702020D01*
X-21370Y1700710D01*
X-22250Y1699790D01*
X-22830Y1698480D01*
X-23020Y1697300D01*
X-18940D01*
G01X-13110D02*
X-12430Y1697430D01*
X-11650Y1697820D01*
X-11160Y1698480D01*
X-10970Y1699400D01*
X-11160Y1700320D01*
X-11750Y1701100D01*
X-12620Y1701500D01*
X-13600D01*
X-14180Y1701760D01*
X-14670Y1702420D01*
X-14860Y1703330D01*
X-14570Y1704250D01*
X-13890Y1704910D01*
X-13110Y1705170D01*
X-12330Y1704910D01*
X-11650Y1704250D01*
X-11360Y1703330D01*
X-11550Y1702420D01*
X-12040Y1701760D01*
X-12620Y1701500D01*
X-13600D01*
X-14470Y1701100D01*
X-15060Y1700320D01*
X-15250Y1699400D01*
X-15060Y1698480D01*
X-14570Y1697820D01*
X-13790Y1697430D01*
X-13110Y1697300D01*
G01X-39150Y1692470D02*
X-36720Y1684600D01*
X-34290Y1692470D01*
G01X-30990Y1684600D02*
Y1692470D01*
X-29040D01*
X-28270Y1692080D01*
X-27680Y1691550D01*
X-27200Y1690760D01*
X-26810Y1689850D01*
X-26710Y1688530D01*
X-26810Y1687220D01*
X-27200Y1686310D01*
X-27680Y1685520D01*
X-28270Y1684990D01*
X-29040Y1684600D01*
X-30990D01*
G01X-22830Y1691160D02*
X-22250Y1691950D01*
X-21560Y1692340D01*
X-20790Y1692470D01*
X-19810Y1692210D01*
X-19130Y1691550D01*
X-18940Y1690760D01*
X-19030Y1689980D01*
X-19420Y1689320D01*
X-21370Y1688010D01*
X-22250Y1687090D01*
X-22830Y1685780D01*
X-23020Y1684600D01*
X-18940D01*
G01X-14760Y1685520D02*
X-14080Y1684860D01*
X-13300Y1684600D01*
X-12530Y1684860D01*
X-11840Y1685650D01*
X-11360Y1686830D01*
X-11160Y1688010D01*
Y1689450D01*
X-11360Y1690630D01*
X-11840Y1691680D01*
X-12430Y1692210D01*
X-13110Y1692470D01*
X-13890Y1692210D01*
X-14470Y1691680D01*
X-14860Y1690900D01*
X-15060Y1689850D01*
X-14860Y1688930D01*
X-14380Y1688010D01*
X-13790Y1687490D01*
X-13110Y1687350D01*
X-12330Y1687620D01*
X-11750Y1688270D01*
X-11160Y1689450D01*
G01X-39150Y1679770D02*
X-36720Y1671900D01*
X-34290Y1679770D01*
G01X-30990Y1671900D02*
Y1679770D01*
X-29040D01*
X-28270Y1679380D01*
X-27680Y1678850D01*
X-27200Y1678060D01*
X-26810Y1677150D01*
X-26710Y1675830D01*
X-26810Y1674520D01*
X-27200Y1673610D01*
X-27680Y1672820D01*
X-28270Y1672290D01*
X-29040Y1671900D01*
X-30990D01*
G01X-23120Y1673470D02*
X-22540Y1672560D01*
X-21760Y1672030D01*
X-20880Y1671900D01*
X-20100Y1672030D01*
X-19330Y1672690D01*
X-18840Y1673470D01*
X-18740Y1674260D01*
X-18940Y1675180D01*
X-19620Y1675830D01*
X-20300Y1676100D01*
X-21170D01*
G01X-20300D02*
X-19710Y1676490D01*
X-19230Y1677150D01*
X-19030Y1677930D01*
X-19230Y1678720D01*
X-19710Y1679380D01*
X-20590Y1679770D01*
X-21470Y1679640D01*
X-22340Y1679110D01*
G01X-15250Y1673470D02*
X-14670Y1672560D01*
X-13890Y1672030D01*
X-13010Y1671900D01*
X-12230Y1672030D01*
X-11460Y1672690D01*
X-10970Y1673470D01*
X-10870Y1674260D01*
X-11070Y1675180D01*
X-11750Y1675830D01*
X-12430Y1676100D01*
X-13300D01*
G01X-12430D02*
X-11840Y1676490D01*
X-11360Y1677150D01*
X-11160Y1677930D01*
X-11360Y1678720D01*
X-11840Y1679380D01*
X-12720Y1679770D01*
X-13600Y1679640D01*
X-14470Y1679110D01*
G01X-39150Y1667070D02*
X-36720Y1659200D01*
X-34290Y1667070D01*
G01X-30990Y1659200D02*
Y1667070D01*
X-29040D01*
X-28270Y1666680D01*
X-27680Y1666150D01*
X-27200Y1665360D01*
X-26810Y1664450D01*
X-26710Y1663130D01*
X-26810Y1661820D01*
X-27200Y1660910D01*
X-27680Y1660120D01*
X-28270Y1659590D01*
X-29040Y1659200D01*
X-30990D01*
G01X-23120Y1660770D02*
X-22540Y1659860D01*
X-21760Y1659330D01*
X-20880Y1659200D01*
X-20100Y1659330D01*
X-19330Y1659990D01*
X-18840Y1660770D01*
X-18740Y1661560D01*
X-18940Y1662480D01*
X-19620Y1663130D01*
X-20300Y1663400D01*
X-21170D01*
G01X-20300D02*
X-19710Y1663790D01*
X-19230Y1664450D01*
X-19030Y1665230D01*
X-19230Y1666020D01*
X-19710Y1666680D01*
X-20590Y1667070D01*
X-21470Y1666940D01*
X-22340Y1666410D01*
G01X-15250Y1660380D02*
X-14670Y1659720D01*
X-13990Y1659330D01*
X-13110Y1659200D01*
X-12230Y1659460D01*
X-11550Y1659990D01*
X-11070Y1660910D01*
X-10970Y1661950D01*
X-11160Y1663000D01*
X-11650Y1663660D01*
X-12330Y1664180D01*
X-13010Y1664320D01*
X-13690Y1664180D01*
X-14570Y1663660D01*
X-14280Y1667070D01*
X-11650D01*
G01X-39150Y1781370D02*
X-36720Y1773500D01*
X-34290Y1781370D01*
G01X-30990Y1773500D02*
Y1781370D01*
X-29040D01*
X-28270Y1780980D01*
X-27680Y1780450D01*
X-27200Y1779660D01*
X-26810Y1778750D01*
X-26710Y1777430D01*
X-26810Y1776120D01*
X-27200Y1775210D01*
X-27680Y1774420D01*
X-28270Y1773890D01*
X-29040Y1773500D01*
X-30990D01*
G01X-20980D02*
Y1781370D01*
X-22150Y1779800D01*
G01Y1773500D02*
X-19810D01*
G01X-11940D02*
Y1781370D01*
X-15540Y1775730D01*
X-10680D01*
G01X-39150Y1768670D02*
X-36720Y1760800D01*
X-34290Y1768670D01*
G01X-30990Y1760800D02*
Y1768670D01*
X-29040D01*
X-28270Y1768280D01*
X-27680Y1767750D01*
X-27200Y1766960D01*
X-26810Y1766050D01*
X-26710Y1764730D01*
X-26810Y1763420D01*
X-27200Y1762510D01*
X-27680Y1761720D01*
X-28270Y1761190D01*
X-29040Y1760800D01*
X-30990D01*
G01X-20980D02*
Y1768670D01*
X-22150Y1767100D01*
G01Y1760800D02*
X-19810D01*
G01X-14960Y1764080D02*
X-14280Y1765000D01*
X-13690Y1765520D01*
X-12920Y1765780D01*
X-12230Y1765520D01*
X-11750Y1765000D01*
X-11360Y1764210D01*
X-11260Y1763290D01*
X-11360Y1762510D01*
X-11750Y1761720D01*
X-12330Y1761060D01*
X-13010Y1760800D01*
X-13790Y1761060D01*
X-14470Y1761850D01*
X-14860Y1763030D01*
X-14960Y1764340D01*
X-14760Y1766050D01*
X-14470Y1766960D01*
X-13990Y1767880D01*
X-13300Y1768540D01*
X-12620Y1768670D01*
X-11940Y1768410D01*
X-11460Y1767750D01*
G01X-39150Y1755970D02*
X-36720Y1748100D01*
X-34290Y1755970D01*
G01X-30990Y1748100D02*
Y1755970D01*
X-29040D01*
X-28270Y1755580D01*
X-27680Y1755050D01*
X-27200Y1754260D01*
X-26810Y1753350D01*
X-26710Y1752030D01*
X-26810Y1750720D01*
X-27200Y1749810D01*
X-27680Y1749020D01*
X-28270Y1748490D01*
X-29040Y1748100D01*
X-30990D01*
G01X-20980D02*
Y1755970D01*
X-22150Y1754400D01*
G01Y1748100D02*
X-19810D01*
G01X-13110D02*
X-12430Y1748230D01*
X-11650Y1748620D01*
X-11160Y1749280D01*
X-10970Y1750200D01*
X-11160Y1751120D01*
X-11750Y1751900D01*
X-12620Y1752300D01*
X-13600D01*
X-14180Y1752560D01*
X-14670Y1753220D01*
X-14860Y1754130D01*
X-14570Y1755050D01*
X-13890Y1755710D01*
X-13110Y1755970D01*
X-12330Y1755710D01*
X-11650Y1755050D01*
X-11360Y1754130D01*
X-11550Y1753220D01*
X-12040Y1752560D01*
X-12620Y1752300D01*
X-13600D01*
X-14470Y1751900D01*
X-15060Y1751120D01*
X-15250Y1750200D01*
X-15060Y1749280D01*
X-14570Y1748620D01*
X-13790Y1748230D01*
X-13110Y1748100D01*
G01X-39150Y1743270D02*
X-36720Y1735400D01*
X-34290Y1743270D01*
G01X-30990Y1735400D02*
Y1743270D01*
X-29040D01*
X-28270Y1742880D01*
X-27680Y1742350D01*
X-27200Y1741560D01*
X-26810Y1740650D01*
X-26710Y1739330D01*
X-26810Y1738020D01*
X-27200Y1737110D01*
X-27680Y1736320D01*
X-28270Y1735790D01*
X-29040Y1735400D01*
X-30990D01*
G01X-22830Y1741960D02*
X-22250Y1742750D01*
X-21560Y1743140D01*
X-20790Y1743270D01*
X-19810Y1743010D01*
X-19130Y1742350D01*
X-18940Y1741560D01*
X-19030Y1740780D01*
X-19420Y1740120D01*
X-21370Y1738810D01*
X-22250Y1737890D01*
X-22830Y1736580D01*
X-23020Y1735400D01*
X-18940D01*
G01X-13110Y1743270D02*
X-13890Y1743010D01*
X-14470Y1742350D01*
X-14860Y1741560D01*
X-15150Y1740520D01*
X-15250Y1739330D01*
X-15150Y1738150D01*
X-14860Y1737110D01*
X-14470Y1736320D01*
X-13890Y1735660D01*
X-13110Y1735400D01*
X-12330Y1735660D01*
X-11750Y1736320D01*
X-11360Y1737110D01*
X-11070Y1738150D01*
X-10970Y1739330D01*
X-11070Y1740520D01*
X-11360Y1741560D01*
X-11750Y1742350D01*
X-12330Y1743010D01*
X-13110Y1743270D01*
G01X-39150Y1730570D02*
X-36720Y1722700D01*
X-34290Y1730570D01*
G01X-30990Y1722700D02*
Y1730570D01*
X-29040D01*
X-28270Y1730180D01*
X-27680Y1729650D01*
X-27200Y1728860D01*
X-26810Y1727950D01*
X-26710Y1726630D01*
X-26810Y1725320D01*
X-27200Y1724410D01*
X-27680Y1723620D01*
X-28270Y1723090D01*
X-29040Y1722700D01*
X-30990D01*
G01X-22830Y1729260D02*
X-22250Y1730050D01*
X-21560Y1730440D01*
X-20790Y1730570D01*
X-19810Y1730310D01*
X-19130Y1729650D01*
X-18940Y1728860D01*
X-19030Y1728080D01*
X-19420Y1727420D01*
X-21370Y1726110D01*
X-22250Y1725190D01*
X-22830Y1723880D01*
X-23020Y1722700D01*
X-18940D01*
G01X-15250Y1724270D02*
X-14670Y1723360D01*
X-13890Y1722830D01*
X-13010Y1722700D01*
X-12230Y1722830D01*
X-11460Y1723490D01*
X-10970Y1724270D01*
X-10870Y1725060D01*
X-11070Y1725980D01*
X-11750Y1726630D01*
X-12430Y1726900D01*
X-13300D01*
G01X-12430D02*
X-11840Y1727290D01*
X-11360Y1727950D01*
X-11160Y1728730D01*
X-11360Y1729520D01*
X-11840Y1730180D01*
X-12720Y1730570D01*
X-13600Y1730440D01*
X-14470Y1729910D01*
G01X-39150Y1794070D02*
X-36720Y1786200D01*
X-34290Y1794070D01*
G01X-30990Y1786200D02*
Y1794070D01*
X-29040D01*
X-28270Y1793680D01*
X-27680Y1793150D01*
X-27200Y1792360D01*
X-26810Y1791450D01*
X-26710Y1790130D01*
X-26810Y1788820D01*
X-27200Y1787910D01*
X-27680Y1787120D01*
X-28270Y1786590D01*
X-29040Y1786200D01*
X-30990D01*
G01X-19810D02*
Y1794070D01*
X-23410Y1788430D01*
X-18550D01*
G01X-13110Y1786200D02*
Y1794070D01*
X-14280Y1792500D01*
G01Y1786200D02*
X-11940D01*
G01X-39150Y1870270D02*
X-36720Y1862400D01*
X-34290Y1870270D01*
G01X-30990Y1862400D02*
Y1870270D01*
X-29040D01*
X-28270Y1869880D01*
X-27680Y1869350D01*
X-27200Y1868560D01*
X-26810Y1867650D01*
X-26710Y1866330D01*
X-26810Y1865020D01*
X-27200Y1864110D01*
X-27680Y1863320D01*
X-28270Y1862790D01*
X-29040Y1862400D01*
X-30990D01*
G01X-23120Y1863970D02*
X-22540Y1863060D01*
X-21760Y1862530D01*
X-20880Y1862400D01*
X-20100Y1862530D01*
X-19330Y1863190D01*
X-18840Y1863970D01*
X-18740Y1864760D01*
X-18940Y1865680D01*
X-19620Y1866330D01*
X-20300Y1866600D01*
X-21170D01*
G01X-20300D02*
X-19710Y1866990D01*
X-19230Y1867650D01*
X-19030Y1868430D01*
X-19230Y1869220D01*
X-19710Y1869880D01*
X-20590Y1870270D01*
X-21470Y1870140D01*
X-22340Y1869610D01*
G01X-13110Y1862400D02*
Y1870270D01*
X-14280Y1868700D01*
G01Y1862400D02*
X-11940D01*
G01X-39150Y1857570D02*
X-36720Y1849700D01*
X-34290Y1857570D01*
G01X-30990Y1849700D02*
Y1857570D01*
X-29040D01*
X-28270Y1857180D01*
X-27680Y1856650D01*
X-27200Y1855860D01*
X-26810Y1854950D01*
X-26710Y1853630D01*
X-26810Y1852320D01*
X-27200Y1851410D01*
X-27680Y1850620D01*
X-28270Y1850090D01*
X-29040Y1849700D01*
X-30990D01*
G01X-23120Y1851270D02*
X-22540Y1850360D01*
X-21760Y1849830D01*
X-20880Y1849700D01*
X-20100Y1849830D01*
X-19330Y1850490D01*
X-18840Y1851270D01*
X-18740Y1852060D01*
X-18940Y1852980D01*
X-19620Y1853630D01*
X-20300Y1853900D01*
X-21170D01*
G01X-20300D02*
X-19710Y1854290D01*
X-19230Y1854950D01*
X-19030Y1855730D01*
X-19230Y1856520D01*
X-19710Y1857180D01*
X-20590Y1857570D01*
X-21470Y1857440D01*
X-22340Y1856910D01*
G01X-14960Y1856260D02*
X-14380Y1857050D01*
X-13690Y1857440D01*
X-12920Y1857570D01*
X-11940Y1857310D01*
X-11260Y1856650D01*
X-11070Y1855860D01*
X-11160Y1855080D01*
X-11550Y1854420D01*
X-13500Y1853110D01*
X-14380Y1852190D01*
X-14960Y1850880D01*
X-15150Y1849700D01*
X-11070D01*
G01X-39150Y1844870D02*
X-36720Y1837000D01*
X-34290Y1844870D01*
G01X-30990Y1837000D02*
Y1844870D01*
X-29040D01*
X-28270Y1844480D01*
X-27680Y1843950D01*
X-27200Y1843160D01*
X-26810Y1842250D01*
X-26710Y1840930D01*
X-26810Y1839620D01*
X-27200Y1838710D01*
X-27680Y1837920D01*
X-28270Y1837390D01*
X-29040Y1837000D01*
X-30990D01*
G01X-23120Y1838570D02*
X-22540Y1837660D01*
X-21760Y1837130D01*
X-20880Y1837000D01*
X-20100Y1837130D01*
X-19330Y1837790D01*
X-18840Y1838570D01*
X-18740Y1839360D01*
X-18940Y1840280D01*
X-19620Y1840930D01*
X-20300Y1841200D01*
X-21170D01*
G01X-20300D02*
X-19710Y1841590D01*
X-19230Y1842250D01*
X-19030Y1843030D01*
X-19230Y1843820D01*
X-19710Y1844480D01*
X-20590Y1844870D01*
X-21470Y1844740D01*
X-22340Y1844210D01*
G01X-11940Y1837000D02*
Y1844870D01*
X-15540Y1839230D01*
X-10680D01*
G01X-39150Y1832170D02*
X-36720Y1824300D01*
X-34290Y1832170D01*
G01X-30990Y1824300D02*
Y1832170D01*
X-29040D01*
X-28270Y1831780D01*
X-27680Y1831250D01*
X-27200Y1830460D01*
X-26810Y1829550D01*
X-26710Y1828230D01*
X-26810Y1826920D01*
X-27200Y1826010D01*
X-27680Y1825220D01*
X-28270Y1824690D01*
X-29040Y1824300D01*
X-30990D01*
G01X-23120Y1825870D02*
X-22540Y1824960D01*
X-21760Y1824430D01*
X-20880Y1824300D01*
X-20100Y1824430D01*
X-19330Y1825090D01*
X-18840Y1825870D01*
X-18740Y1826660D01*
X-18940Y1827580D01*
X-19620Y1828230D01*
X-20300Y1828500D01*
X-21170D01*
G01X-20300D02*
X-19710Y1828890D01*
X-19230Y1829550D01*
X-19030Y1830330D01*
X-19230Y1831120D01*
X-19710Y1831780D01*
X-20590Y1832170D01*
X-21470Y1832040D01*
X-22340Y1831510D01*
G01X-14960Y1827580D02*
X-14280Y1828500D01*
X-13690Y1829020D01*
X-12920Y1829280D01*
X-12230Y1829020D01*
X-11750Y1828500D01*
X-11360Y1827710D01*
X-11260Y1826790D01*
X-11360Y1826010D01*
X-11750Y1825220D01*
X-12330Y1824560D01*
X-13010Y1824300D01*
X-13790Y1824560D01*
X-14470Y1825350D01*
X-14860Y1826530D01*
X-14960Y1827840D01*
X-14760Y1829550D01*
X-14470Y1830460D01*
X-13990Y1831380D01*
X-13300Y1832040D01*
X-12620Y1832170D01*
X-11940Y1831910D01*
X-11460Y1831250D01*
G01X-39150Y1819470D02*
X-36720Y1811600D01*
X-34290Y1819470D01*
G01X-30990Y1811600D02*
Y1819470D01*
X-29040D01*
X-28270Y1819080D01*
X-27680Y1818550D01*
X-27200Y1817760D01*
X-26810Y1816850D01*
X-26710Y1815530D01*
X-26810Y1814220D01*
X-27200Y1813310D01*
X-27680Y1812520D01*
X-28270Y1811990D01*
X-29040Y1811600D01*
X-30990D01*
G01X-23120Y1813170D02*
X-22540Y1812260D01*
X-21760Y1811730D01*
X-20880Y1811600D01*
X-20100Y1811730D01*
X-19330Y1812390D01*
X-18840Y1813170D01*
X-18740Y1813960D01*
X-18940Y1814880D01*
X-19620Y1815530D01*
X-20300Y1815800D01*
X-21170D01*
G01X-20300D02*
X-19710Y1816190D01*
X-19230Y1816850D01*
X-19030Y1817630D01*
X-19230Y1818420D01*
X-19710Y1819080D01*
X-20590Y1819470D01*
X-21470Y1819340D01*
X-22340Y1818810D01*
G01X-13110Y1811600D02*
X-12430Y1811730D01*
X-11650Y1812120D01*
X-11160Y1812780D01*
X-10970Y1813700D01*
X-11160Y1814620D01*
X-11750Y1815400D01*
X-12620Y1815800D01*
X-13600D01*
X-14180Y1816060D01*
X-14670Y1816720D01*
X-14860Y1817630D01*
X-14570Y1818550D01*
X-13890Y1819210D01*
X-13110Y1819470D01*
X-12330Y1819210D01*
X-11650Y1818550D01*
X-11360Y1817630D01*
X-11550Y1816720D01*
X-12040Y1816060D01*
X-12620Y1815800D01*
X-13600D01*
X-14470Y1815400D01*
X-15060Y1814620D01*
X-15250Y1813700D01*
X-15060Y1812780D01*
X-14570Y1812120D01*
X-13790Y1811730D01*
X-13110Y1811600D01*
G01X-39150Y1806770D02*
X-36720Y1798900D01*
X-34290Y1806770D01*
G01X-30990Y1798900D02*
Y1806770D01*
X-29040D01*
X-28270Y1806380D01*
X-27680Y1805850D01*
X-27200Y1805060D01*
X-26810Y1804150D01*
X-26710Y1802830D01*
X-26810Y1801520D01*
X-27200Y1800610D01*
X-27680Y1799820D01*
X-28270Y1799290D01*
X-29040Y1798900D01*
X-30990D01*
G01X-19810D02*
Y1806770D01*
X-23410Y1801130D01*
X-18550D01*
G01X-13110Y1806770D02*
X-13890Y1806510D01*
X-14470Y1805850D01*
X-14860Y1805060D01*
X-15150Y1804020D01*
X-15250Y1802830D01*
X-15150Y1801650D01*
X-14860Y1800610D01*
X-14470Y1799820D01*
X-13890Y1799160D01*
X-13110Y1798900D01*
X-12330Y1799160D01*
X-11750Y1799820D01*
X-11360Y1800610D01*
X-11070Y1801650D01*
X-10970Y1802830D01*
X-11070Y1804020D01*
X-11360Y1805060D01*
X-11750Y1805850D01*
X-12330Y1806510D01*
X-13110Y1806770D01*
G01X-39150Y1946470D02*
X-36720Y1938600D01*
X-34290Y1946470D01*
G01X-30990Y1938600D02*
Y1946470D01*
X-29040D01*
X-28270Y1946080D01*
X-27680Y1945550D01*
X-27200Y1944760D01*
X-26810Y1943850D01*
X-26710Y1942530D01*
X-26810Y1941220D01*
X-27200Y1940310D01*
X-27680Y1939520D01*
X-28270Y1938990D01*
X-29040Y1938600D01*
X-30990D01*
G01X-22830Y1945160D02*
X-22250Y1945950D01*
X-21560Y1946340D01*
X-20790Y1946470D01*
X-19810Y1946210D01*
X-19130Y1945550D01*
X-18940Y1944760D01*
X-19030Y1943980D01*
X-19420Y1943320D01*
X-21370Y1942010D01*
X-22250Y1941090D01*
X-22830Y1939780D01*
X-23020Y1938600D01*
X-18940D01*
G01X-13110D02*
Y1946470D01*
X-14280Y1944900D01*
G01Y1938600D02*
X-11940D01*
G01X-39150Y1933770D02*
X-36720Y1925900D01*
X-34290Y1933770D01*
G01X-30990Y1925900D02*
Y1933770D01*
X-29040D01*
X-28270Y1933380D01*
X-27680Y1932850D01*
X-27200Y1932060D01*
X-26810Y1931150D01*
X-26710Y1929830D01*
X-26810Y1928520D01*
X-27200Y1927610D01*
X-27680Y1926820D01*
X-28270Y1926290D01*
X-29040Y1925900D01*
X-30990D01*
G01X-22830Y1932460D02*
X-22250Y1933250D01*
X-21560Y1933640D01*
X-20790Y1933770D01*
X-19810Y1933510D01*
X-19130Y1932850D01*
X-18940Y1932060D01*
X-19030Y1931280D01*
X-19420Y1930620D01*
X-21370Y1929310D01*
X-22250Y1928390D01*
X-22830Y1927080D01*
X-23020Y1925900D01*
X-18940D01*
G01X-14960Y1932460D02*
X-14380Y1933250D01*
X-13690Y1933640D01*
X-12920Y1933770D01*
X-11940Y1933510D01*
X-11260Y1932850D01*
X-11070Y1932060D01*
X-11160Y1931280D01*
X-11550Y1930620D01*
X-13500Y1929310D01*
X-14380Y1928390D01*
X-14960Y1927080D01*
X-15150Y1925900D01*
X-11070D01*
G01X-39150Y1921070D02*
X-36720Y1913200D01*
X-34290Y1921070D01*
G01X-30990Y1913200D02*
Y1921070D01*
X-29040D01*
X-28270Y1920680D01*
X-27680Y1920150D01*
X-27200Y1919360D01*
X-26810Y1918450D01*
X-26710Y1917130D01*
X-26810Y1915820D01*
X-27200Y1914910D01*
X-27680Y1914120D01*
X-28270Y1913590D01*
X-29040Y1913200D01*
X-30990D01*
G01X-22830Y1919760D02*
X-22250Y1920550D01*
X-21560Y1920940D01*
X-20790Y1921070D01*
X-19810Y1920810D01*
X-19130Y1920150D01*
X-18940Y1919360D01*
X-19030Y1918580D01*
X-19420Y1917920D01*
X-21370Y1916610D01*
X-22250Y1915690D01*
X-22830Y1914380D01*
X-23020Y1913200D01*
X-18940D01*
G01X-11940D02*
Y1921070D01*
X-15540Y1915430D01*
X-10680D01*
G01X-39150Y1908370D02*
X-36720Y1900500D01*
X-34290Y1908370D01*
G01X-30990Y1900500D02*
Y1908370D01*
X-29040D01*
X-28270Y1907980D01*
X-27680Y1907450D01*
X-27200Y1906660D01*
X-26810Y1905750D01*
X-26710Y1904430D01*
X-26810Y1903120D01*
X-27200Y1902210D01*
X-27680Y1901420D01*
X-28270Y1900890D01*
X-29040Y1900500D01*
X-30990D01*
G01X-22830Y1907060D02*
X-22250Y1907850D01*
X-21560Y1908240D01*
X-20790Y1908370D01*
X-19810Y1908110D01*
X-19130Y1907450D01*
X-18940Y1906660D01*
X-19030Y1905880D01*
X-19420Y1905220D01*
X-21370Y1903910D01*
X-22250Y1902990D01*
X-22830Y1901680D01*
X-23020Y1900500D01*
X-18940D01*
G01X-15250Y1901680D02*
X-14670Y1901020D01*
X-13990Y1900630D01*
X-13110Y1900500D01*
X-12230Y1900760D01*
X-11550Y1901290D01*
X-11070Y1902210D01*
X-10970Y1903250D01*
X-11160Y1904300D01*
X-11650Y1904960D01*
X-12330Y1905480D01*
X-13010Y1905620D01*
X-13690Y1905480D01*
X-14570Y1904960D01*
X-14280Y1908370D01*
X-11650D01*
G01X-39150Y1895670D02*
X-36720Y1887800D01*
X-34290Y1895670D01*
G01X-30990Y1887800D02*
Y1895670D01*
X-29040D01*
X-28270Y1895280D01*
X-27680Y1894750D01*
X-27200Y1893960D01*
X-26810Y1893050D01*
X-26710Y1891730D01*
X-26810Y1890420D01*
X-27200Y1889510D01*
X-27680Y1888720D01*
X-28270Y1888190D01*
X-29040Y1887800D01*
X-30990D01*
G01X-22830Y1894360D02*
X-22250Y1895150D01*
X-21560Y1895540D01*
X-20790Y1895670D01*
X-19810Y1895410D01*
X-19130Y1894750D01*
X-18940Y1893960D01*
X-19030Y1893180D01*
X-19420Y1892520D01*
X-21370Y1891210D01*
X-22250Y1890290D01*
X-22830Y1888980D01*
X-23020Y1887800D01*
X-18940D01*
G01X-13300D02*
X-13110Y1889510D01*
X-12820Y1890950D01*
X-12430Y1892260D01*
X-11940Y1893700D01*
X-11160Y1895670D01*
X-15060D01*
G01X-39150Y1882970D02*
X-36720Y1875100D01*
X-34290Y1882970D01*
G01X-30990Y1875100D02*
Y1882970D01*
X-29040D01*
X-28270Y1882580D01*
X-27680Y1882050D01*
X-27200Y1881260D01*
X-26810Y1880350D01*
X-26710Y1879030D01*
X-26810Y1877720D01*
X-27200Y1876810D01*
X-27680Y1876020D01*
X-28270Y1875490D01*
X-29040Y1875100D01*
X-30990D01*
G01X-23120Y1876670D02*
X-22540Y1875760D01*
X-21760Y1875230D01*
X-20880Y1875100D01*
X-20100Y1875230D01*
X-19330Y1875890D01*
X-18840Y1876670D01*
X-18740Y1877460D01*
X-18940Y1878380D01*
X-19620Y1879030D01*
X-20300Y1879300D01*
X-21170D01*
G01X-20300D02*
X-19710Y1879690D01*
X-19230Y1880350D01*
X-19030Y1881130D01*
X-19230Y1881920D01*
X-19710Y1882580D01*
X-20590Y1882970D01*
X-21470Y1882840D01*
X-22340Y1882310D01*
G01X-13110Y1882970D02*
X-13890Y1882710D01*
X-14470Y1882050D01*
X-14860Y1881260D01*
X-15150Y1880220D01*
X-15250Y1879030D01*
X-15150Y1877850D01*
X-14860Y1876810D01*
X-14470Y1876020D01*
X-13890Y1875360D01*
X-13110Y1875100D01*
X-12330Y1875360D01*
X-11750Y1876020D01*
X-11360Y1876810D01*
X-11070Y1877850D01*
X-10970Y1879030D01*
X-11070Y1880220D01*
X-11360Y1881260D01*
X-11750Y1882050D01*
X-12330Y1882710D01*
X-13110Y1882970D01*
G01X-39150Y1984570D02*
X-36720Y1976700D01*
X-34290Y1984570D01*
G01X-30990Y1976700D02*
Y1984570D01*
X-29040D01*
X-28270Y1984180D01*
X-27680Y1983650D01*
X-27200Y1982860D01*
X-26810Y1981950D01*
X-26710Y1980630D01*
X-26810Y1979320D01*
X-27200Y1978410D01*
X-27680Y1977620D01*
X-28270Y1977090D01*
X-29040Y1976700D01*
X-30990D01*
G01X-20980D02*
Y1984570D01*
X-22150Y1983000D01*
G01Y1976700D02*
X-19810D01*
G01X-15250Y1977880D02*
X-14670Y1977220D01*
X-13990Y1976830D01*
X-13110Y1976700D01*
X-12230Y1976960D01*
X-11550Y1977490D01*
X-11070Y1978410D01*
X-10970Y1979450D01*
X-11160Y1980500D01*
X-11650Y1981160D01*
X-12330Y1981680D01*
X-13010Y1981820D01*
X-13690Y1981680D01*
X-14570Y1981160D01*
X-14280Y1984570D01*
X-11650D01*
G01X-39150Y1971870D02*
X-36720Y1964000D01*
X-34290Y1971870D01*
G01X-30990Y1964000D02*
Y1971870D01*
X-29040D01*
X-28270Y1971480D01*
X-27680Y1970950D01*
X-27200Y1970160D01*
X-26810Y1969250D01*
X-26710Y1967930D01*
X-26810Y1966620D01*
X-27200Y1965710D01*
X-27680Y1964920D01*
X-28270Y1964390D01*
X-29040Y1964000D01*
X-30990D01*
G01X-20980D02*
Y1971870D01*
X-22150Y1970300D01*
G01Y1964000D02*
X-19810D01*
G01X-13300D02*
X-13110Y1965710D01*
X-12820Y1967150D01*
X-12430Y1968460D01*
X-11940Y1969900D01*
X-11160Y1971870D01*
X-15060D01*
G01X-39150Y1959170D02*
X-36720Y1951300D01*
X-34290Y1959170D01*
G01X-30990Y1951300D02*
Y1959170D01*
X-29040D01*
X-28270Y1958780D01*
X-27680Y1958250D01*
X-27200Y1957460D01*
X-26810Y1956550D01*
X-26710Y1955230D01*
X-26810Y1953920D01*
X-27200Y1953010D01*
X-27680Y1952220D01*
X-28270Y1951690D01*
X-29040Y1951300D01*
X-30990D01*
G01X-20980D02*
Y1959170D01*
X-22150Y1957600D01*
G01Y1951300D02*
X-19810D01*
G01X-14760Y1952220D02*
X-14080Y1951560D01*
X-13300Y1951300D01*
X-12530Y1951560D01*
X-11840Y1952350D01*
X-11360Y1953530D01*
X-11160Y1954710D01*
Y1956150D01*
X-11360Y1957330D01*
X-11840Y1958380D01*
X-12430Y1958910D01*
X-13110Y1959170D01*
X-13890Y1958910D01*
X-14470Y1958380D01*
X-14860Y1957600D01*
X-15060Y1956550D01*
X-14860Y1955630D01*
X-14380Y1954710D01*
X-13790Y1954190D01*
X-13110Y1954050D01*
X-12330Y1954320D01*
X-11750Y1954970D01*
X-11160Y1956150D01*
G01X-47790Y2140940D02*
X-47390Y2141520D01*
X-47130Y2142200D01*
Y2142980D01*
X-47520Y2143860D01*
X-48180Y2144540D01*
X-48970Y2145030D01*
X-50280Y2145420D01*
X-51460Y2145510D01*
X-52640Y2145320D01*
X-53430Y2145030D01*
X-54210Y2144440D01*
X-54740Y2143760D01*
X-55000Y2143080D01*
Y2142400D01*
X-54740Y2141720D01*
X-54340Y2141130D01*
X-53820Y2140650D01*
G01X-55000Y2135210D02*
X-47130D01*
X-48700Y2136380D01*
G01X-55000D02*
Y2134040D01*
G01X-4000Y2145510D02*
X3870Y2143080D01*
X-4000Y2140650D01*
G01X-1250Y2141520D02*
Y2144640D01*
G01X-4000Y2135210D02*
X3870D01*
X2300Y2136380D01*
G01X-4000D02*
Y2134040D01*
G01X13060Y2206620D02*
X17140Y2214490D01*
G01X13060D02*
X17140Y2206620D01*
G01X22970D02*
Y2214490D01*
X21800Y2212920D01*
G01Y2206620D02*
X24140D01*
G01X28310Y874000D02*
X32390Y881870D01*
G01X28310D02*
X32390Y874000D01*
G01X36370Y880560D02*
X36950Y881350D01*
X37640Y881740D01*
X38410Y881870D01*
X39390Y881610D01*
X40070Y880950D01*
X40260Y880160D01*
X40170Y879380D01*
X39780Y878720D01*
X37830Y877410D01*
X36950Y876490D01*
X36370Y875180D01*
X36180Y874000D01*
X40260D01*
G54D13*
G01X-195100Y-40400D02*
Y-10400D01*
X-135100D01*
Y-40400D01*
X-195100D01*
G01X-135100Y40400D02*
Y10400D01*
X-195100D01*
Y40400D01*
X-135100D01*
G01X-195100Y86600D02*
Y116600D01*
X-135100D01*
Y86600D01*
X-195100D01*
G01Y137400D02*
Y167400D01*
X-135100D01*
Y137400D01*
X-195100D01*
G01Y232650D02*
Y262650D01*
X-135100D01*
Y232650D01*
X-195100D01*
G01X-135100Y313450D02*
Y283450D01*
X-195100D01*
Y313450D01*
X-135100D01*
G01X-195100Y334250D02*
Y364250D01*
X-135100D01*
Y334250D01*
X-195100D01*
G01Y442200D02*
Y472200D01*
X-135100D01*
Y442200D01*
X-195100D01*
G01X-194300Y1070000D02*
X-178300D01*
G01X-186300Y1062000D02*
Y1078000D01*
G01X-170800Y1194800D02*
X31700D01*
Y1104800D01*
X-170800D01*
Y1194800D01*
G01X-165800Y1189800D02*
X26700D01*
Y1109800D01*
X-165800D01*
Y1189800D01*
G01X-85900Y698980D02*
X-77900D01*
G01X-81900Y702980D02*
Y694980D01*
G01X-85900Y711980D02*
X-77900D01*
G01X-81900Y715980D02*
Y707980D01*
G01X-85900Y723980D02*
X-77900D01*
G01X-81900Y727980D02*
Y719980D01*
G01X-85900Y736980D02*
X-77900D01*
G01X-81900Y740980D02*
Y732980D01*
G01X-85900Y748980D02*
X-77900D01*
G01X-81900Y752980D02*
Y744980D01*
G01X-85900Y761980D02*
X-77900D01*
G01X-81900Y765980D02*
Y757980D01*
G01X-85900Y774980D02*
X-77900D01*
G01X-81900Y778980D02*
Y770980D01*
G01X-82000Y792000D02*
Y784000D01*
G01X-86000Y788000D02*
X-78000D01*
G01X-88300Y1104800D02*
Y1109800D01*
G01X-103900Y2201700D02*
X-73900D01*
Y2141700D01*
X-103900D01*
Y2201700D01*
G01X-2300Y1026950D02*
X27700D01*
Y966950D01*
X-2300D01*
Y1026950D01*
G01X-50800Y1104800D02*
Y1109800D01*
G01X-37780Y1205100D02*
Y1221100D01*
G01X-29780Y1213100D02*
X-45780D01*
G01X49700Y1070000D02*
X33700D01*
G01X41700Y1078000D02*
Y1062000D01*
M02*
