M48
METRIC,TZ
T01C.5
T02C.85
T03C1.
T04C2.
T05C3.2
;LEADER: 12 
;HEADER: 
;CODE  : ASCII 
;FILE  : test-bsp_01v1-1-2.drl for  ... layers TOP and BOTTOM
;T01 Holesize 1. = 0.500000 Tolerance = +0.000000/-0.000000 PLATED MM Quantity = 188
;T02 Holesize 2. = 0.850000 Tolerance = +0.000000/-0.000000 PLATED MM Quantity = 2
;T03 Holesize 3. = 1.000000 Tolerance = +0.000000/-0.000000 PLATED MM Quantity = 222
;T04 Holesize 4. = 2.000000 Tolerance = +0.000000/-0.000000 PLATED MM Quantity = 1
;T05 Holesize 5. = 3.200000 Tolerance = +0.000000/-0.000000 PLATED MM Quantity = 6
%
G90
T01
X-132850Y794250
X-133350Y781050
Y768350
X-132850Y755150
Y730750
X-133350Y717550
Y704850
X-132850Y691650
X-120150Y1783850
X-120650Y1797050
Y1809750
X-120150Y1822950
X-120650Y1854200
X-120150Y1841000
X-120650Y1866900
X-120150Y1880100
Y1898150
X-120650Y1911350
Y1924050
Y1937250
X-120150Y1955300
X-120650Y1968500
Y1981200
X-120150Y1994400
Y1726700
X-120650Y1739900
Y1752600
X-120150Y1765800
Y1669550
X-120650Y1682750
Y1695450
X-120150Y1708650
Y1606050
X-120650Y1619250
Y1631950
X-120150Y1645150
X27000Y1094270
X-146050Y1130300
X-44450Y965200
X25400Y1149350
X2470Y1177070
X-57150Y1181100
X-107950Y1092200
X-38100
X-114000Y964000
X-107950Y1181100
X-161950Y1177400
X-177800Y1149350
X-101600Y1047750
X-174150Y1104330
X-38100Y1047750
X25400Y1041400
X-158750Y996950
X-177800Y1047750
X-174150Y971080
X27140Y1318170
R08Y101600
X-217640Y2136220
R08Y-101600
X27140Y928970
X-176060Y928830
X-114000Y932000
X-22760Y833580
X-158750Y800100
X27140Y-15320
R08Y101600
X-203200Y609600
Y711200
X-215900Y787400
X-217640Y656910
R07Y-101600
X-118260Y-75400
X-16660
X-114070Y-46520
X-198630Y9800
X-102240Y41920
X-196850Y819150
X-165100Y844550
X-69850Y863600
X-88900
X-76200Y844550
X-222250Y869950
Y990600
X-154000Y871000
X-177800Y901700
X-222250Y1092200
R02Y63500
X-190500Y1257300
X-184150Y1231900
X-114300Y1250950
X-158750Y1219200
X-88900Y1212850
X-12700
X25400Y1219200
Y1250950
X-12700Y1276350
X-63500Y1257300
X-6350Y1314450
X-57150Y1308100
X-139700Y1301750
X-184150
X-69850Y1384300
X-63500Y1346200
X-114300Y1397000
X-120650Y1352550
X-107950Y1308100
X-165100Y1377950
X-184150Y2197100
Y2152650
X-139700Y2197100
X-38100
X0
X-6350Y2152650
X-95250Y2082800
Y2025650
X-165100Y2108200
R02Y-50800
X-25400Y2108200
R02Y-50800
X19050Y876300
X-25400Y800100
X-95000Y808000
X-165100Y685800
Y622300
X-139700Y596900
X-114300Y635000
Y660400
X-171450Y565150
Y533400
X-107950
X-69850Y539750
Y469900
Y393700
Y323850
X-95250
X-114300Y361950
X-165100Y387350
X-133350Y323850
Y273050
X-69850Y222250
X-133350Y190500
X-127000Y158750
X-95250Y146050
X-127000Y114300
Y88900
X-69850Y127000
Y69850
X-63500Y12700
X-127000Y0
X-63500Y-19050
X-25400Y44450
Y158750
Y101600
Y298450
Y374650
Y438150
Y533400
X-44000Y932000
T02
X-139800Y1274500
X-88800Y1265500
T03
X-152400Y152400
X-177800
X-152400Y101600
X-177800
X-152400Y-25400
X-177800
Y25400
X-152400
Y247650
X-177800
X-152400Y457200
X-177800
Y298450
X-152400
Y349250
X-177800
X-120800Y1137300
Y1162700
X-95400Y1137300
Y1162700
X-70000Y1137300
Y1162700
X-44600Y1137300
Y1162700
X-19200Y1137300
Y1162700
X-88900Y2159000
Y2184400
X-190500Y1358900
R07Y25400
Y1587500
R08Y25400
Y1841500
R08Y25400
Y2095500
Y2120900
X-139700Y1358900
R07Y25400
Y1587500
R08Y25400
Y1841500
R08Y25400
Y2095500
Y2120900
X-190500Y1333500
X-139700
X-190500Y1562100
X-139700
X-190500Y1816100
X-139700
X-190500Y2070100
X-139700
X0Y2095500
R07Y-25400
X0Y1866900
R08Y-25400
X0Y1612900
R08Y-25400
X0Y1358900
X0Y1333500
X-50800Y2095500
R07Y-25400
Y1866900
R08Y-25400
Y1612900
R08Y-25400
Y1358900
Y1333500
X0Y2120900
X-50800
X0Y1892300
X-50800
X0Y1638300
X-50800
X0Y1384300
X-50800
X12700Y984250
Y1009650
X0Y762000
R07Y-25400
X0Y533400
R08Y-25400
X0Y279400
R08Y-25400
X0Y25400
X0Y0
X-50800Y762000
R07Y-25400
Y533400
R08Y-25400
Y279400
R08Y-25400
Y25400
Y0
X0Y787400
X-50800
X0Y558800
X-50800
X0Y304800
X-50800
X0Y50800
X-50800
T04
X-190500Y850900
T05
X-215900Y1282700
Y2171700
X25400
Y1282700
Y838200
Y-50800
M30
